<svg width="277" height="122" viewBox="0 0 277 122" fill="none" xmlns="http://www.w3.org/2000/svg">
<path fill-rule="evenodd" clip-rule="evenodd" d="M180.166 -193.679L181.643 -193.416L183.113 -193.116L184.575 -192.78L186.029 -192.409L187.474 -192.002L188.908 -191.56L190.332 -191.085L191.745 -190.576L193.146 -190.035L194.535 -189.464L195.912 -188.863L197.275 -188.233L198.625 -187.577L199.962 -186.896L201.286 -186.192L202.597 -185.466L203.894 -184.72L205.178 -183.957L206.45 -183.177L207.709 -182.382L208.957 -181.576L210.194 -180.759L211.42 -179.933L212.637 -179.1L213.845 -178.263L215.044 -177.422L216.237 -176.58L217.424 -175.738L218.606 -174.898L219.784 -174.061L220.959 -173.229L222.133 -172.402L223.307 -171.583L224.482 -170.772L225.658 -169.969L226.839 -169.177L228.024 -168.395L229.214 -167.624L230.412 -166.865L231.618 -166.118L232.833 -165.383L234.058 -164.66L235.295 -163.948L236.543 -163.249L237.805 -162.561L239.08 -161.883L240.369 -161.216L241.673 -160.558L242.993 -159.909L244.328 -159.268L245.679 -158.634L247.046 -158.005L248.43 -157.38L249.83 -156.759L251.245 -156.14L252.677 -155.521L254.124 -154.902L255.586 -154.28L257.062 -153.654L258.552 -153.023L260.055 -152.385L261.569 -151.739L263.095 -151.083L264.63 -150.415L266.173 -149.734L267.723 -149.038L269.279 -148.326L270.839 -147.597L272.402 -146.848L273.965 -146.079L275.527 -145.288L277.087 -144.475L278.641 -143.637L280.189 -142.774L281.728 -141.884L283.257 -140.967L284.773 -140.022L286.273 -139.048L287.757 -138.044L289.222 -137.01L290.666 -135.945L292.087 -134.849L293.482 -133.722L294.851 -132.563L296.19 -131.372L297.498 -130.15L298.773 -128.897L300.014 -127.612L301.218 -126.297L302.384 -124.951L303.51 -123.575L304.595 -122.17L305.638 -120.737L306.637 -119.275L307.591 -117.788L308.499 -116.274L309.361 -114.735L310.175 -113.173L310.94 -111.589L311.657 -109.983L312.325 -108.357L312.943 -106.712L313.512 -105.05L314.032 -103.372L314.503 -101.68L314.925 -99.9746L315.3 -98.2574L315.627 -96.5301L315.909 -94.7939L316.146 -93.0504L316.339 -91.3008L316.489 -89.5466L316.599 -87.7889L316.67 -86.0291L316.703 -84.2682L316.701 -82.5075L316.665 -80.7478L316.597 -78.9903L316.499 -77.2357L316.374 -75.4849L316.223 -73.7384L316.049 -71.9971L315.854 -70.2613L315.639 -68.5315L315.408 -66.8081L315.161 -65.0912L314.902 -63.3811L314.633 -61.6778L314.355 -59.9812L314.07 -58.2912L313.781 -56.6078L313.489 -54.9304L313.195 -53.259L312.902 -51.5929L312.611 -49.9318L312.323 -48.2751L312.04 -46.6221L311.762 -44.9724L311.491 -43.3252L311.227 -41.6798L310.972 -40.0355L310.725 -38.3916L310.487 -36.7474L310.259 -35.102L310.04 -33.4547L309.832 -31.8048L309.633 -30.1516L309.444 -28.4942L309.264 -26.832L309.095 -25.1643L308.934 -23.4902L308.783 -21.8093L308.639 -20.1208L308.504 -18.4242L308.375 -16.7189L308.253 -15.0043L308.137 -13.28L308.026 -11.5456L307.918 -9.80058L307.814 -8.04471L307.711 -6.27766L307.609 -4.49924L307.506 -2.70925L307.403 -0.907584L307.296 0.905802L307.185 2.73089L307.069 4.56764L306.947 6.4159L306.816 8.27546L306.676 10.1461L306.526 12.0275L306.363 13.9192L306.188 15.8208L305.997 17.7318L305.79 19.6518L305.566 21.5799L305.323 23.5156L305.061 25.4581L304.776 27.4066L304.47 29.3604L304.139 31.3185L303.784 33.2801L303.402 35.2441L302.994 37.2095L302.557 39.1754L302.091 41.1406L301.594 43.104L301.067 45.0645L300.508 47.0209L299.916 48.9721L299.291 50.9168L298.631 52.8538L297.937 54.782L297.208 56.7L296.443 58.6067L295.642 60.5007L294.805 62.3809L293.931 64.246L293.02 66.0948L292.072 67.9261L291.087 69.7388L290.065 71.5318L289.007 73.304L287.911 75.0544L286.78 76.7819L285.612 78.4856L284.408 80.1646L283.169 81.8178L281.896 83.4446L280.588 85.044L279.246 86.6153L277.871 88.1577L276.463 89.6706L275.024 91.1531L273.553 92.6048L272.052 94.0249L270.521 95.413L268.961 96.7685L267.373 98.0908L265.757 99.3796L264.115 100.634L262.448 101.855L260.755 103.04L259.038 104.191L257.298 105.306L255.536 106.385L253.752 107.428L251.948 108.435L250.124 109.406L248.281 110.34L246.42 111.236L244.542 112.096L242.647 112.919L240.738 113.704L238.813 114.452L236.875 115.161L234.924 115.834L232.961 116.468L230.987 117.064L229.002 117.623L227.008 118.143L225.005 118.626L222.995 119.071L220.978 119.479L218.954 119.85L216.926 120.183L214.893 120.481L212.857 120.743L210.818 120.969L208.778 121.16L206.736 121.317L204.695 121.441L202.654 121.532L200.615 121.59L198.578 121.618L196.543 121.615L194.512 121.582L192.485 121.521L190.463 121.433L188.446 121.317L186.435 121.177L184.43 121.012L182.432 120.823L180.441 120.612L178.457 120.38L176.481 120.129L174.513 119.858L172.553 119.569L170.601 119.264L168.658 118.943L166.724 118.608L164.798 118.259L162.88 117.899L160.971 117.526L159.071 117.144L157.179 116.752L155.295 116.351L153.419 115.943L151.55 115.528L149.689 115.106L147.835 114.68L145.988 114.248L144.148 113.812L142.314 113.372L140.485 112.928L138.662 112.481L136.845 112.031L135.032 111.579L133.223 111.123L131.419 110.665L129.619 110.204L127.822 109.739L126.028 109.271L124.237 108.8L122.449 108.324L120.664 107.844L118.881 107.36L117.1 106.87L115.321 106.375L113.545 105.874L111.769 105.366L109.996 104.852L108.224 104.33L106.454 103.8L104.686 103.261L102.919 102.713L101.154 102.154L99.3913 101.585L97.6308 101.005L95.8728 100.412L94.1176 99.806L92.3654 99.186L90.6169 98.5512L88.8722 97.9008L87.1321 97.2339L85.3969 96.5496L83.6674 95.8471L81.944 95.1255L80.2274 94.3841L78.5184 93.622L76.8177 92.8385L75.126 92.0329L73.4441 91.2044L71.7728 90.3525L70.1129 89.4766L68.4652 88.5761L66.8305 87.6507L65.2097 86.7L63.6034 85.7237L62.0125 84.7217L60.4377 83.6938L58.8795 82.64L57.3388 81.5605L55.8159 80.4554L54.3116 79.3249L52.8262 78.1693L51.3604 76.9889L49.9147 75.7839L48.4896 74.5546L47.0855 73.3015L45.7029 72.0249L44.3423 70.7251L43.0041 69.4027L41.6885 68.0581L40.3961 66.6917L39.1271 65.3041L37.8818 63.8958L36.6605 62.4674L35.4633 61.0195L34.2906 59.5526L33.1423 58.0674L32.0187 56.5645L30.9198 55.0446L29.8456 53.5083L28.7961 51.9563L27.7714 50.3894L26.7712 48.8081L25.7955 47.2133L24.8442 45.6055L23.917 43.9856L23.0137 42.3542L22.1341 40.7119L21.2778 39.0596L20.4446 37.3978L19.634 35.7272L18.8458 34.0485L18.0795 32.3622L17.3346 30.6691L16.6108 28.9697L15.9076 27.2646L15.2246 25.5542L14.5613 23.8392L13.9171 22.12L13.2917 20.3971L12.6845 18.6709L12.0952 16.9418L11.5232 15.2102L10.9681 13.4763L10.4295 11.7406L9.90699 10.0033L9.4002 8.26458L8.9088 6.52473L8.43246 4.78391L7.97091 3.04227L7.52391 1.29994L7.09126 -0.442964L6.67282 -2.18638L6.26848 -3.93024L5.87817 -5.67451L5.50182 -7.41915L5.13935 -9.16413L4.79065 -10.9094L4.45558 -12.6548L4.13402 -14.4005L3.82582 -16.1462L3.53085 -17.8921L3.24896 -19.6381L2.98004 -21.384L2.72397 -23.13L2.48066 -24.876L2.25004 -26.622L2.03206 -28.3679L1.82671 -30.1139L1.634 -31.8599L1.45397 -33.606L1.2867 -35.3521L1.13231 -37.0983L0.990947 -38.8445L0.862799 -40.5909L0.748089 -42.3373L0.647071 -44.0839L0.560038 -45.8305L0.487306 -47.5772L0.42923 -49.3239L0.386179 -51.0707L0.358552 -52.8173L0.346759 -54.5638L0.351231 -56.31L0.372399 -58.0558L0.4107 -59.8011L0.466565 -61.5457L0.540422 -63.2895L0.632673 -65.0322L0.743706 -66.7736L0.873875 -68.5135L1.0235 -70.2517L1.19284 -71.9879L1.38212 -73.7219L1.59151 -75.4533L1.82114 -77.182L2.07115 -78.9076L2.34173 -80.6299L2.63309 -82.3485L2.94546 -84.0631L3.27909 -85.7734L3.63427 -87.4791L4.01129 -89.1797L4.41046 -90.8749L4.83209 -92.5642L5.27651 -94.2472L5.74405 -95.9235L6.23505 -97.5926L6.74983 -99.2539L7.28872 -100.907L7.85204 -102.551L8.44008 -104.187L9.05315 -105.812L9.6915 -107.426L10.3554 -109.03L11.045 -110.622L11.7606 -112.202L12.5024 -113.769L13.2704 -115.322L14.0648 -116.861L14.8856 -118.385L15.7328 -119.894L16.6065 -121.387L17.5066 -122.863L18.433 -124.321L19.3856 -125.762L20.3641 -127.184L21.3684 -128.587L22.3982 -129.97L23.4531 -131.332L24.5329 -132.674L25.6371 -133.995L26.7652 -135.294L27.9168 -136.57L29.0914 -137.824L30.2884 -139.055L31.5072 -140.262L32.7472 -141.446L34.0077 -142.605L35.288 -143.741L36.5873 -144.851L37.905 -145.937L39.2403 -146.999L40.5924 -148.035L41.9604 -149.047L43.3435 -150.033L44.741 -150.995L46.1519 -151.931L47.5755 -152.843L49.0108 -153.73L50.457 -154.593L51.9132 -155.432L53.3785 -156.247L54.8521 -157.038L56.3329 -157.806L57.8201 -158.551L59.3126 -159.274L60.8096 -159.976L62.31 -160.657L63.813 -161.318L65.3178 -161.96L66.8233 -162.582L68.3287 -163.187L69.8333 -163.775L71.3363 -164.347L72.8369 -164.904L74.3344 -165.447L75.8282 -165.976L77.3177 -166.493L78.8024 -166.998L80.2817 -167.493L81.7551 -167.978L83.2224 -168.455L84.6831 -168.924L86.137 -169.387L87.5839 -169.843L89.0236 -170.294L90.4558 -170.741L91.8807 -171.185L93.2981 -171.626L94.7081 -172.066L96.1107 -172.504L97.5061 -172.942L98.8943 -173.381L100.276 -173.82L101.65 -174.261L103.018 -174.704L104.38 -175.15L105.736 -175.6L107.087 -176.053L108.432 -176.511L109.772 -176.973L111.108 -177.441L112.44 -177.914L113.769 -178.394L115.095 -178.879L116.418 -179.37L117.74 -179.867L119.061 -180.37L120.381 -180.878L121.702 -181.392L123.023 -181.909L124.346 -182.431L125.671 -182.956L126.999 -183.484L128.33 -184.013L129.665 -184.543L131.005 -185.073L132.35 -185.602L133.701 -186.128L135.058 -186.651L136.421 -187.168L137.791 -187.679L139.169 -188.183L140.553 -188.678L141.946 -189.162L143.346 -189.635L144.754 -190.094L146.171 -190.539L147.595 -190.967L149.027 -191.377L150.467 -191.768L151.914 -192.139L153.368 -192.487L154.829 -192.812L156.297 -193.112L157.771 -193.386L159.251 -193.633L160.735 -193.851L162.224 -194.039L163.716 -194.197L165.212 -194.322L166.71 -194.415L168.21 -194.475L169.71 -194.501L171.211 -194.491L172.71 -194.446L174.208 -194.366L175.704 -194.249L177.196 -194.095L178.684 -193.905L180.166 -193.679Z" fill="#E7F5EF"/>
</svg>
