<svg width="70" height="82" viewBox="0 0 70 82" fill="none" xmlns="http://www.w3.org/2000/svg">
<path id="Vector" fill-rule="evenodd" clip-rule="evenodd" d="M69.0674 44.2707L68.9422 44.8695L68.8104 45.4648L68.6721 46.0564L68.5278 46.6443L68.3775 47.2286L68.2215 47.8093L68.0602 48.3863L67.8936 48.9598L67.7221 49.5297L67.5459 50.0961L67.3652 50.6592L67.1801 51.2188L66.991 51.7752L66.7979 52.3285L66.6011 52.8786L66.4007 53.4258L66.1968 53.9701L65.9896 54.5117L65.7791 55.0506L65.5655 55.587L65.3488 56.1209L65.1291 56.6526L64.9064 57.1821L64.6808 57.7094L64.4521 58.2348L64.2204 58.7583L63.9857 59.28L63.7478 59.7999L63.5067 60.3182L63.2623 60.8349L63.0145 61.35L62.7631 61.8635L62.5081 62.3755L62.2491 62.8859L61.9861 63.3948L61.7188 63.9021L61.4472 64.4077L61.1708 64.9116L60.8897 65.4137L60.6034 65.9138L60.3118 66.4118L60.0148 66.9076L59.7119 67.401L59.4031 67.8918L59.088 68.3798L58.7665 68.8647L58.4383 69.3464L58.1033 69.8244L57.7612 70.2987L57.4118 70.7687L57.055 71.2343L56.6905 71.6951L56.3182 72.1507L55.9381 72.6009L55.5498 73.0451L55.1534 73.4831L54.7487 73.9144L54.3357 74.3387L53.9144 74.7554L53.4846 75.1644L53.0464 75.565L52.5997 75.9569L52.1447 76.3398L51.6814 76.7131L51.2099 77.0765L50.7302 77.4295L50.2424 77.7718L49.7469 78.103L49.2436 78.4227L48.7329 78.7306L48.2149 79.0262L47.6898 79.3093L47.158 79.5795L46.6196 79.8365L46.0751 80.08L45.5246 80.3098L44.9687 80.5257L44.4075 80.7273L43.8414 80.9145L43.2709 81.0871L42.6964 81.245L42.1181 81.3881L41.5366 81.5162L40.9523 81.6292L40.3655 81.7272L39.7768 81.8102L39.1865 81.878L38.595 81.9308L38.0029 81.9687L37.4106 81.9917L36.8185 82L36.2269 81.9937L35.6364 81.973L35.0474 81.9381L34.4602 81.8893L33.8752 81.8267L33.2929 81.7507L32.7136 81.6615L32.1376 81.5595L31.5653 81.445L30.9971 81.3183L30.4331 81.1799L29.8738 81.03L29.3194 80.869L28.7701 80.6975L28.2261 80.5156L27.6877 80.3239L27.1551 80.1228L26.6285 79.9125L26.108 79.6936L25.5937 79.4664L25.0857 79.2313L24.5843 78.9887L24.0894 78.7389L23.6012 78.4824L23.1196 78.2196L22.6447 77.9508L22.1766 77.6765L21.7152 77.397L21.2605 77.1127L20.8125 76.8241L20.3711 76.5314L19.9363 76.2351L19.5079 75.9355L19.0859 75.6329L18.6701 75.3277L18.2604 75.0202L17.8567 74.7108L17.4589 74.3995L17.0667 74.0869L16.6801 73.773L16.2988 73.4581L15.9228 73.1425L15.5517 72.8262L15.1854 72.5095L14.8238 72.1926L14.4667 71.8755L14.1138 71.5583L13.7651 71.2411L13.4204 70.924L13.0795 70.607L12.7422 70.2902L12.4084 69.9735L12.0779 69.6569L11.7507 69.3405L11.4266 69.0241L11.1055 68.7078L10.7873 68.3914L10.4719 68.0748L10.1592 67.7581L9.84927 67.4409L9.54198 67.1233L9.23734 66.805L8.93533 66.486L8.63598 66.1661L8.33932 65.8451L8.04541 65.5229L7.7543 65.1992L7.46609 64.874L7.18088 64.547L6.89879 64.2181L6.61996 63.8872L6.34454 63.554L6.07269 63.2183L5.8046 62.8802L5.54045 62.5394L5.28043 62.1957L5.02477 61.8491L4.77367 61.4995L4.52735 61.1468L4.28603 60.7908L4.04995 60.4316L3.8193 60.0691L3.59433 59.7033L3.37522 59.3341L3.16219 58.9617L2.95543 58.5859L2.75511 58.2068L2.5614 57.8246L2.37443 57.4393L2.19432 57.0509L2.02119 56.6597L1.8551 56.2656L1.69613 55.869L1.54434 55.4698L1.39979 55.0682L1.2625 54.6644L1.13253 54.2585L1.00986 53.8507L0.894527 53.4411L0.786505 53.0299L0.685779 52.6172L0.592315 52.2032L0.506068 51.788L0.426982 51.3718L0.354986 50.9548L0.289998 50.5371L0.231926 50.1188L0.180664 49.7L0.136099 49.281L0.098104 48.8619L0.066545 48.4427L0.0412782 48.0236L0.0221522 47.6047L0.00900818 47.1861L0.00168096 46.7678L0 46.3501L0.00379026 45.9329L0.0128712 45.5163L0.0270489 45.1004L0.0461125 44.6852L0.0698368 44.2707L0.0979843 43.857L0.130307 43.444L0.166551 43.0319L0.206453 42.6204L0.249752 42.2097L0.296183 41.7996L0.345482 41.3901L0.397393 40.9811L0.451663 40.5724L0.508048 40.1641L0.566315 39.7559L0.626243 39.3478L0.687626 38.9395L0.750273 38.5309L0.81401 38.1218L0.878684 37.7122L0.94416 37.3016L1.01033 36.8901L1.07709 36.4773L1.14438 36.0631L1.21216 35.6473L1.2804 35.2297L1.34911 34.8101L1.41831 34.3882L1.48806 33.9639L1.55842 33.537L1.62949 33.1073L1.7014 32.6747L1.77428 32.239L1.84829 31.8L1.92361 31.3575L2.00045 30.9116L2.07902 30.462L2.15955 30.0087L2.24228 29.5515L2.32748 29.0905L2.41541 28.6254L2.50636 28.1564L2.60062 27.6834L2.69847 27.2063L2.80022 26.7252L2.90619 26.2402L3.01669 25.7511L3.13207 25.2582L3.25267 24.7616L3.37886 24.2613L3.51099 23.7575L3.64942 23.2504L3.79453 22.7402L3.94669 22.2271L4.10626 21.7114L4.2736 21.1933L4.44908 20.6731L4.63303 20.1513L4.82582 19.628L5.02776 19.1037L5.23917 18.5787L5.46036 18.0535L5.69162 17.5285L5.93321 17.0042L6.18538 16.4809L6.44838 15.9591L6.7224 15.4394L7.00764 14.9222L7.30427 14.4079L7.61242 13.8972L7.93222 13.3905L8.26375 12.8883L8.60707 12.3911L8.96222 11.8993L9.32919 11.4136L9.70795 10.9342L10.0984 10.4617L10.5006 9.99649L10.9143 9.53893L11.3394 9.08943L11.7757 8.64835L12.2232 8.21604L12.6815 7.79282L13.1505 7.37899L13.63 6.97483L14.1198 6.58061L14.6195 6.19658L15.1289 5.82295L15.6478 5.45993L16.1759 5.10771L16.7129 4.76645L17.2586 4.43631L17.8125 4.11743L18.3745 3.80991L18.9443 3.51388L19.5215 3.22942L20.1059 2.95663L20.6972 2.69556L21.2951 2.44629L21.8993 2.20887L22.5094 1.98335L23.1254 1.76977L23.7467 1.56817L24.3733 1.37859L25.0047 1.20105L25.6408 1.03559L26.2813 0.882235L26.9258 0.741021L27.5742 0.611978L28.2261 0.495141L28.8814 0.390547L29.5397 0.298235L30.2007 0.21825L30.8643 0.15064L31.5302 0.0954567L32.198 0.0527538L32.8676 0.0225814L33.5387 0.00498385L34.2109 0L34.8841 0.00766263L35.5579 0.0279982L36.2321 0.0610265L36.9064 0.10676L37.5806 0.165205L38.2543 0.23636L38.9274 0.320214L39.5995 0.41675L40.2703 0.525943L40.9397 0.647759L41.6072 0.782156L42.2728 0.929084L42.9361 1.08848L43.5968 1.26029L44.2548 1.44443L44.9097 1.64082L45.5613 1.84936L46.2094 2.06997L46.8538 2.30254L47.4941 2.54694L48.1303 2.80308L48.762 3.07081L49.389 3.35002L50.0111 3.64057L50.6282 3.94235L51.24 4.25525L51.8462 4.57916L52.4466 4.91399L53.041 5.25964L53.6292 5.61604L54.2109 5.98309L54.7858 6.36071L55.3538 6.74883L55.9144 7.14735L56.4675 7.55619L57.0129 7.97525L57.5501 8.40446L58.079 8.8437L58.5992 9.29287L59.1106 9.75186L59.6127 10.2205L60.1054 10.6988L60.5883 11.1865L61.0612 11.6835L61.5238 12.1895L61.9758 12.7046L62.417 13.2284L62.8471 13.7607L63.2658 14.3015L63.6729 14.8504L64.0683 15.4072L64.4515 15.9716L64.8225 16.5435L65.1811 17.1225L65.527 17.7084L65.8602 18.3008L66.1804 18.8995L66.4875 19.5042L66.7815 20.1145L67.0622 20.73L67.3296 21.3505L67.5837 21.9757L67.8243 22.605L68.0517 23.2382L68.2657 23.8749L68.4665 24.5148L68.6541 25.1574L68.8287 25.8024L68.9905 26.4495L69.1395 27.0982L69.2759 27.7482L69.3999 28.3993L69.5116 29.0511L69.6113 29.7032L69.6992 30.3554L69.7754 31.0074L69.8401 31.6589L69.8936 32.3097L69.936 32.9595L69.9677 33.608L69.9887 34.2551L69.9994 34.9005L70 35.544L69.9906 36.1854L69.9716 36.8246L69.9431 37.4614L69.9054 38.0957L69.8587 38.7272L69.8031 39.3559L69.739 39.9816L69.6665 40.6042L69.5858 41.2237L69.4972 41.8399L69.4009 42.4528L69.297 43.0623L69.1858 43.6682L69.0674 44.2707Z" fill="#3D8361"/>
</svg>
