<svg width="39" height="40" viewBox="0 0 39 40" fill="none" xmlns="http://www.w3.org/2000/svg">
<path fill-rule="evenodd" clip-rule="evenodd" d="M38.1702 16.8607L38.2296 17.0611L38.2872 17.2626L38.3429 17.4655L38.3967 17.6695L38.4486 17.8747L38.4984 18.0811L38.5463 18.2886L38.592 18.4973L38.6356 18.707L38.677 18.9179L38.7162 19.1298L38.7531 19.3428L38.7877 19.5567L38.8198 19.7716L38.8495 19.9874L38.8767 20.2041L38.9014 20.4216L38.9234 20.64L38.9428 20.8591L38.9594 21.079L38.9733 21.2995L38.9843 21.5206L38.9925 21.7423L38.9977 21.9646L39 22.1873L38.9993 22.4104L38.9955 22.6339L38.9886 22.8577L38.9785 23.0817L38.9653 23.3059L38.9489 23.5302L38.9293 23.7546L38.9063 23.9789L38.8801 24.2032L38.8505 24.4273L38.8176 24.6513L38.7813 24.875L38.7416 25.0983L38.6985 25.3212L38.652 25.5437L38.602 25.7656L38.5486 25.987L38.4918 26.2076L38.4315 26.4275L38.3678 26.6466L38.3006 26.8649L38.2299 27.0821L38.1559 27.2984L38.0784 27.5136L37.9975 27.7277L37.9131 27.9405L37.8254 28.1521L37.7343 28.3624L37.6398 28.5712L37.542 28.7786L37.4409 28.9845L37.3365 29.1888L37.2288 29.3914L37.1178 29.5923L37.0036 29.7914L36.8862 29.9888L36.7657 30.1842L36.6421 30.3777L36.5154 30.5692L36.3856 30.7587L36.2529 30.9461L36.1172 31.1313L35.9786 31.3144L35.8372 31.4953L35.693 31.674L35.5461 31.8504L35.3965 32.0244L35.2443 32.1962L35.0895 32.3655L34.9322 32.5325L34.7725 32.6971L34.6104 32.8592L34.446 33.0189L34.2793 33.1761L34.1104 33.3309L33.9394 33.4831L33.7663 33.6329L33.5913 33.7801L33.4142 33.9249L33.2353 34.0672L33.0546 34.2069L32.8721 34.3442L32.688 34.479L32.5021 34.6112L32.3148 34.741L32.1259 34.8684L31.9355 34.9933L31.7438 35.1157L31.5507 35.2357L31.3563 35.3533L31.1607 35.4686L30.9639 35.5814L30.766 35.6919L30.567 35.8001L30.367 35.906L30.166 36.0096L29.964 36.1109L29.7612 36.2101L29.5576 36.3071L29.3532 36.402L29.148 36.4948L28.9422 36.5856L28.7357 36.6744L28.5286 36.7613L28.3209 36.8463L28.1127 36.9295L27.904 37.0109L27.6949 37.0906L27.4853 37.1687L27.2753 37.2452L27.065 37.3201L26.8543 37.3936L26.6433 37.4657L26.4319 37.5364L26.2203 37.6059L26.0084 37.6741L25.7962 37.7411L25.5837 37.807L25.371 37.8719L25.158 37.9357L24.9447 37.9985L24.7311 38.0605L24.5173 38.1216L24.3032 38.1818L24.0888 38.2412L23.8741 38.2999L23.659 38.3579L23.4437 38.4152L23.2279 38.4718L23.0118 38.5278L22.7952 38.5832L22.5782 38.638L22.3608 38.6922L22.1429 38.7458L21.9244 38.7988L21.7055 38.8512L21.4859 38.9031L21.2658 38.9543L21.045 39.005L20.8236 39.055L20.6015 39.1043L20.3787 39.153L20.1551 39.201L19.9308 39.2482L19.7057 39.2946L19.4798 39.3402L19.2531 39.385L19.0255 39.4287L18.797 39.4715L18.5676 39.5132L18.3373 39.5538L18.1061 39.5932L17.874 39.6313L17.641 39.6681L17.407 39.7035L17.172 39.7373L16.9362 39.7695L16.6994 39.8L16.4617 39.8288L16.223 39.8557L15.9835 39.8806L15.7431 39.9034L15.5019 39.9241L15.2599 39.9425L15.017 39.9586L14.7734 39.9722L14.5291 39.9832L14.2841 39.9916L14.0385 39.9972L13.7923 40L13.5456 39.9998L13.2985 39.9966L13.0509 39.9902L12.803 39.9806L12.5548 39.9677L12.3064 39.9513L12.0579 39.9314L11.8094 39.908L11.5609 39.8808L11.3125 39.8499L11.0644 39.8152L10.8165 39.7765L10.5691 39.7339L10.3221 39.6872L10.0757 39.6365L9.83001 39.5815L9.5851 39.5224L9.34108 39.459L9.09806 39.3913L8.85613 39.3192L8.61541 39.2427L8.37601 39.1619L8.13802 39.0765L7.90157 38.9868L7.66676 38.8925L7.43369 38.7938L7.20249 38.6905L6.97325 38.5828L6.74608 38.4706L6.52111 38.3538L6.29845 38.2326L6.0782 38.1069L5.86047 37.9767L5.64539 37.842L5.43306 37.7029L5.22359 37.5594L5.01709 37.4115L4.81368 37.2593L4.61345 37.1028L4.41651 36.942L4.22298 36.777L4.03294 36.6078L3.8465 36.4345L3.66376 36.2571L3.48481 36.0758L3.30973 35.8906L3.13863 35.7015L2.97158 35.5087L2.80867 35.3122L2.64996 35.1121L2.49554 34.9085L2.34547 34.7015L2.19982 34.4912L2.05865 34.2777L1.92201 34.0612L1.78995 33.8416L1.66252 33.6192L1.53976 33.394L1.4217 33.1662L1.30839 32.9359L1.19983 32.7032L1.09605 32.4682L0.99707 32.2311L0.902894 31.992L0.813529 31.751L0.728973 31.5083L0.64922 31.2639L0.57426 31.018L0.504076 30.7708L0.438648 30.5224L0.377949 30.2729L0.321951 30.0224L0.270617 29.7711L0.223909 29.519L0.181784 29.2664L0.144194 29.0134L0.11109 28.76L0.0824155 28.5064L0.0581145 28.2527L0.0381261 27.999L0.0223871 27.7455L0.0108319 27.4922L0.00339273 27.2393L0 26.9868L0.000582584 26.735L0.00506781 26.4838L0.0133801 26.2333L0.0254405 25.9837L0.0411664 25.7351L0.0604723 25.4874L0.0832693 25.241L0.109466 24.9957L0.138968 24.7517L0.171678 24.509L0.207496 24.2678L0.246323 24.0282L0.288054 23.79L0.332583 23.5536L0.379806 23.3188L0.429612 23.0858L0.481894 22.8545L0.536542 22.6252L0.593444 22.3977L0.652489 22.1722L0.713567 21.9486L0.776566 21.7271L0.841374 21.5076L0.907881 21.2902L0.975978 21.0748L1.04555 20.8616L1.1165 20.6505L1.18872 20.4414L1.26209 20.2346L1.33652 20.0298L1.4119 19.8272L1.48814 19.6267L1.56514 19.4283L1.6428 19.2321L1.72103 19.0379L1.79974 18.8458L1.87885 18.6557L1.95827 18.4676L2.03793 18.2816L2.11773 18.0975L2.19763 17.9153L2.27753 17.735L2.35739 17.5566L2.43712 17.38L2.51669 17.2052L2.59601 17.0321L2.67504 16.8607L2.75372 16.691L2.83198 16.5228L2.90978 16.3562L2.98707 16.1911L3.06379 16.0275L3.1399 15.8652L3.21535 15.7043L3.29011 15.5446L3.36412 15.3862L3.43737 15.2289L3.50981 15.0728L3.58141 14.9177L3.65215 14.7635L3.72201 14.6103L3.79097 14.458L3.85902 14.3064L3.92614 14.1556L3.99233 14.0055L4.05758 13.8559L4.12189 13.707L4.18528 13.5585L4.24775 13.4105L4.3093 13.2629L4.36997 13.1156L4.42977 12.9685L4.48872 12.8217L4.54685 12.6751L4.60419 12.5286L4.66079 12.3821L4.71667 12.2357L4.77188 12.0893L4.82647 11.9428L4.88048 11.7962L4.93396 11.6495L4.98698 11.5027L5.03958 11.3556L5.09182 11.2084L5.14378 11.0608L5.19549 10.9131L5.24705 10.765L5.2985 10.6167L5.34992 10.468L5.40138 10.319L5.45294 10.1698L5.50468 10.0201L5.55666 9.8702L5.60897 9.71994L5.66166 9.56936L5.71482 9.41848L5.7685 9.2673L5.82278 9.11584L5.87773 8.96411L5.93342 8.81213L5.9899 8.65993L6.04726 8.50752L6.10553 8.35494L6.1648 8.2022L6.22512 8.04933L6.28654 7.89637L6.34913 7.74334L6.41295 7.59029L6.47804 7.43726L6.54447 7.28428L6.6123 7.13139L6.68156 6.97865L6.75233 6.82609L6.82464 6.67377L6.89854 6.52175L6.97409 6.37006L7.05133 6.21877L7.13029 6.06793L7.21102 5.91761L7.29356 5.76785L7.37794 5.61872L7.4642 5.47028L7.55236 5.32259L7.64246 5.17571L7.73453 5.02971L7.82858 4.88465L7.92464 4.7406L8.02272 4.59762L8.12284 4.45577L8.22502 4.31511L8.32926 4.17572L8.43557 4.03766L8.54395 3.90099L8.65441 3.76576L8.76695 3.63206L8.88155 3.49993L8.99822 3.36944L9.11695 3.24065L9.23773 3.11361L9.36053 2.98839L9.48535 2.86503L9.61216 2.7436L9.74095 2.62415L9.87169 2.50672L10.0044 2.39137L10.1389 2.27814L10.2753 2.16709L10.4136 2.05827L10.5537 1.95172L10.6955 1.84749L10.8392 1.74564L10.9845 1.64621L11.1315 1.54926L11.2801 1.45485L11.4304 1.36301L11.5822 1.2738L11.7356 1.18726L11.8905 1.10346L12.0468 1.02243L12.2045 0.944223L12.3636 0.868882L12.524 0.796451L12.6857 0.726974L12.8486 0.660489L13.0126 0.597036L13.1778 0.536651L13.3441 0.479368L13.5113 0.425219L13.6795 0.374233L13.8486 0.326437L14.0185 0.281855L14.1892 0.240508L14.3606 0.202414L14.5327 0.167588L14.7053 0.136042L14.8785 0.107784L15.0521 0.0828193L15.2261 0.0611501L15.4004 0.0427746L15.575 0.0276877L15.7498 0.0158808L15.9248 0.00734159L16.0998 0.00205444L16.2748 0L16.4497 0.00115543L16.6245 0.00549437L16.7991 0.0129869L16.9735 0.0235998L17.1476 0.0372963L17.3212 0.0540364L17.4945 0.0737768L17.6672 0.0964711L17.8395 0.12207L18.0111 0.15052L18.1821 0.181768L18.3523 0.215754L18.5218 0.252418L18.6906 0.291697L18.8584 0.333527L19.0255 0.377839L19.1915 0.424564L19.3567 0.473632L19.5208 0.52497L19.6839 0.578504L19.846 0.634158L20.007 0.691858L20.1668 0.751525L20.3256 0.81308L20.4832 0.876445L20.6397 0.941537L20.795 1.00828L20.9491 1.07658L21.102 1.14636L21.2537 1.21755L21.4043 1.29004L21.5537 1.36378L21.7018 1.43866L21.8488 1.51461L21.9947 1.59154L22.1394 1.66938L22.2829 1.74805L22.4253 1.82746L22.5667 1.90755L22.707 1.98822L22.8462 2.06942L22.9844 2.15106L23.1216 2.23308L23.2579 2.3154L23.3933 2.39797L23.5278 2.48071L23.6615 2.56357L23.7944 2.64648L23.9265 2.72939L24.0579 2.81225L24.1887 2.895L24.3189 2.9776L24.4485 3.06L24.5776 3.14215L24.7062 3.22403L24.8344 3.3056L24.9623 3.38682L25.0899 3.46766L25.2173 3.5481L25.3444 3.62812L25.4714 3.7077L25.5984 3.78682L25.7253 3.86547L25.8522 3.94365L25.9792 4.02135L26.1064 4.09858L26.2337 4.17535L26.3612 4.25167L26.489 4.32756L26.6171 4.40305L26.7455 4.47816L26.8743 4.55293L27.0035 4.6274L27.1332 4.7016L27.2632 4.77559L27.3938 4.84941L27.5248 4.92312L27.6564 4.99676L27.7885 5.07039L27.9211 5.14407L28.0542 5.21787L28.1879 5.29185L28.322 5.36606L28.4567 5.44058L28.592 5.51547L28.7277 5.5908L28.8639 5.66663L29.0005 5.74303L29.1376 5.82007L29.2751 5.89782L29.413 5.97633L29.5512 6.05569L29.6898 6.13595L29.8286 6.21717L29.9677 6.29942L30.107 6.38276L30.2465 6.46725L30.3861 6.55295L30.5257 6.6399L30.6654 6.72817L30.8051 6.8178L30.9447 6.90885L31.0842 7.00137L31.2235 7.09538L31.3626 7.19095L31.5015 7.2881L31.64 7.38687L31.7781 7.4873L31.9158 7.58942L32.053 7.69325L32.1897 7.79882L32.3258 7.90616L32.4613 8.01528L32.5961 8.12621L32.7302 8.23895L32.8635 8.35352L32.996 8.46992L33.1276 8.58818L33.2584 8.70828L33.3882 8.83023L33.517 8.95404L33.6449 9.0797L33.7717 9.2072L33.8974 9.33654L34.022 9.46772L34.1456 9.60072L34.268 9.73553L34.3892 9.87215L34.5092 10.0106L34.628 10.1508L34.7456 10.2927L34.8619 10.4364L34.977 10.5819L35.0908 10.7291L35.2033 10.878L35.3145 11.0286L35.4243 11.1809L35.5328 11.3348L35.64 11.4905L35.7457 11.6477L35.8501 11.8066L35.9531 11.9671L36.0548 12.1292L36.155 12.2929L36.2537 12.4581L36.3511 12.6249L36.447 12.7932L36.5414 12.9631L36.6344 13.1345L36.726 13.3074L36.816 13.4817L36.9046 13.6576L36.9916 13.8349L37.0772 14.0136L37.1612 14.1938L37.2437 14.3754L37.3247 14.5584L37.4041 14.7429L37.4819 14.9287L37.5581 15.1159L37.6328 15.3044L37.7058 15.4943L37.7772 15.6856L37.8469 15.8782L37.915 16.0721L37.9814 16.2673L38.0461 16.4639L38.109 16.6617L38.1702 16.8607Z" fill="#FFD56F"/>
</svg>
