<svg width="21" height="15" viewBox="0 0 21 15" fill="none" xmlns="http://www.w3.org/2000/svg">
<g id="Tooman">
<g id="&#216;&#170;&#217;&#136;&#217;&#133;&#216;&#167;&#217;&#134;">
<path d="M3.0506 3.22926C2.6419 4.08597 2.43755 4.87586 2.43755 5.59895C2.43755 6.212 2.57903 6.67179 2.86197 6.97832C3.15278 7.28484 3.63615 7.43811 4.31208 7.43811H5.32597C5.82899 7.43811 6.20625 7.39488 6.45776 7.30842C6.70927 7.22197 6.87825 7.07263 6.96471 6.86042C7.05903 6.64821 7.10618 6.33383 7.10618 5.91726V2.21537H8.60345V5.91726C8.60345 6.90758 8.33622 7.68962 7.80176 8.26337C7.27517 8.84498 6.4499 9.13579 5.32597 9.13579H4.31208C3.60471 9.13579 2.99952 8.9786 2.4965 8.66421C1.99348 8.34983 1.61229 7.92541 1.35292 7.39095C1.09355 6.85649 0.963867 6.25916 0.963867 5.59895C0.963867 5.11951 1.04639 4.60863 1.21145 4.06632C1.3765 3.524 1.57299 3.02491 1.80092 2.56905L3.0506 3.22926ZM4.31208 1.13074H5.88008V2.66337H4.31208V1.13074Z" fill="#757575"/>
<path d="M5.36408 14.1817C4.53882 14.1817 3.92969 13.9419 3.53671 13.4625C3.15159 12.9831 2.95903 12.3386 2.95903 11.529V6.3063H4.45629V11.529C4.45629 11.8277 4.47201 12.0399 4.50345 12.1657C4.54275 12.2914 4.62134 12.3779 4.73924 12.425C4.86499 12.4643 5.07327 12.484 5.36408 12.484H5.7885L5.85924 13.3564L5.7885 14.1817H5.36408Z" fill="#757575"/>
<path d="M5.66803 12.484H5.97455C6.13175 12.484 6.24964 12.4486 6.32824 12.3779C6.41469 12.2993 6.47757 12.1735 6.51687 12.0006L6.8234 10.8688C6.99631 10.185 7.28711 9.66237 7.69582 9.30083C8.10452 8.93928 8.59575 8.75851 9.1695 8.75851C9.62536 8.75851 10.0301 8.88427 10.3838 9.13578C10.7454 9.37942 11.0283 9.72132 11.2327 10.1615C11.437 10.5937 11.5392 11.081 11.5392 11.6234C11.5392 12.2757 11.4331 12.8102 11.2209 13.2267C11.0087 13.6354 10.7414 13.9341 10.4192 14.1227C10.1048 14.3035 9.77469 14.3939 9.42887 14.3939C9.16164 14.3939 8.87869 14.3389 8.58003 14.2288C8.28922 14.1267 7.85301 13.938 7.2714 13.6629C7.09062 13.828 6.8902 13.9577 6.67013 14.052C6.45006 14.1384 6.22606 14.1817 5.99813 14.1817H5.66803V12.484ZM7.99055 12.2364C8.41497 12.4329 8.72936 12.5665 8.93371 12.6372C9.13806 12.708 9.32276 12.7434 9.48782 12.7434C9.9201 12.7434 10.1362 12.374 10.1362 11.6351C10.1362 11.2343 10.0498 10.9278 9.87687 10.7156C9.70396 10.4955 9.47996 10.3855 9.20487 10.3855C8.97694 10.3855 8.77652 10.468 8.60361 10.633C8.43069 10.7981 8.30494 11.0378 8.22634 11.3522L7.99055 12.2364Z" fill="#757575"/>
<path d="M13.1779 12.5782C13.6652 12.5782 14.0346 12.535 14.2861 12.4485C14.5377 12.3699 14.7106 12.2324 14.8049 12.0359C14.9071 11.8473 14.966 11.5761 14.9817 11.2224H13.9678C13.2212 11.2224 12.6278 11.0063 12.1876 10.574C11.7553 10.1339 11.5392 9.5208 11.5392 8.73483C11.5392 8.1768 11.6414 7.68164 11.8457 7.24936C12.0579 6.81708 12.3448 6.48305 12.7064 6.24726C13.0758 6.00361 13.4923 5.88178 13.956 5.88178C14.4591 5.88178 14.8992 5.99968 15.2765 6.23547C15.6616 6.47126 15.9563 6.80529 16.1607 7.23757C16.3729 7.66985 16.479 8.16894 16.479 8.73483V9.52473H17.1274L17.2217 10.3854L17.1274 11.2224H16.479C16.4476 12.142 16.1646 12.8808 15.6301 13.4388C15.0957 13.9969 14.2783 14.2759 13.1779 14.2759H11.775V12.5782H13.1779ZM12.9775 8.65231C12.9775 8.97455 13.0561 9.21427 13.2133 9.37147C13.3705 9.5208 13.622 9.59547 13.9678 9.59547H14.9817V8.69947C14.9817 7.88206 14.6398 7.47336 13.956 7.47336C13.6338 7.47336 13.3901 7.5834 13.2251 7.80347C13.06 8.02354 12.9775 8.30648 12.9775 8.65231Z" fill="#757575"/>
<path d="M16.9925 9.52473H18.3011C18.6548 9.52473 18.9063 9.46578 19.0556 9.34789C19.205 9.22213 19.2718 9.04529 19.2561 8.81736C19.2168 8.33006 19.1146 7.67771 18.9495 6.86031L20.3643 6.50663C20.4586 6.92319 20.545 7.36726 20.6236 7.83883C20.7101 8.31041 20.7533 8.69161 20.7533 8.98241C20.7533 9.3754 20.6669 9.74087 20.4939 10.0788C20.321 10.4168 20.0577 10.6919 19.7041 10.9041C19.3582 11.1163 18.9299 11.2224 18.419 11.2224H16.9925V9.52473ZM17.3226 3.79505H18.7255V5.19799H17.3226V3.79505ZM19.5272 3.79505H20.942V5.19799H19.5272V3.79505Z" fill="#757575"/>
</g>
</g>
</svg>
