<svg width="69" height="69" viewBox="0 0 69 69" fill="none" xmlns="http://www.w3.org/2000/svg">
<g clip-path="url(#clip0_5940_24025)">
<path d="M55.7021 34.6444C54.7919 34.598 53.9423 34.1982 53.0427 34.1268C52.1282 34.0749 51.2111 34.1615 50.3225 34.3838C48.8177 34.7885 47.3956 35.4542 46.1209 36.3507C45.665 36.5875 45.2769 36.9364 44.9929 37.3645C44.7894 37.7751 45.1321 38.0535 45.5284 38.0785C46.1539 38.0527 46.7681 37.9022 47.3347 37.6358C48.1606 37.3171 48.9696 36.9561 49.7585 36.5542C51.6005 35.6189 53.5639 34.5908 55.72 34.8764C55.8842 34.8978 55.9235 34.6087 55.7557 34.5837C54.1564 34.3481 52.6179 34.8657 51.1757 35.5225C49.7401 36.2724 48.2635 36.941 46.7528 37.5252C46.5422 37.593 45.3106 38.0249 45.2606 37.5894C45.2463 37.4395 45.457 37.2574 45.5533 37.1682C45.7555 36.9815 45.9728 36.812 46.2031 36.6613C47.3625 35.8282 48.6469 35.1848 50.0084 34.7551C50.9663 34.4741 51.9629 34.3475 52.9606 34.3802C53.8994 34.4195 54.7812 34.8086 55.7343 34.7551C55.7425 34.7548 55.7506 34.753 55.758 34.7496C55.7655 34.7462 55.7723 34.7415 55.7779 34.7355C55.7836 34.7295 55.788 34.7225 55.7909 34.7148C55.7938 34.7072 55.7952 34.699 55.795 34.6908C55.7947 34.6826 55.7929 34.6745 55.7895 34.667C55.7862 34.6595 55.7814 34.6528 55.7754 34.6471C55.7694 34.6415 55.7624 34.6371 55.7547 34.6342C55.7471 34.6313 55.7389 34.6299 55.7307 34.6301L55.7021 34.6444Z" fill="#83C5A5"/>
<path d="M55.7016 34.7872C56.951 35.0728 58.0433 34.4802 59.1678 34.0269C59.789 33.777 60.4172 33.5414 61.0562 33.345C61.7442 33.1446 62.4537 33.0271 63.1695 32.9952C63.2909 32.9881 63.3373 32.7917 63.1981 32.7667C61.9165 32.5561 60.5886 33.1487 59.4213 33.6092C58.254 34.0697 57.0545 34.855 55.7337 34.6551C55.648 34.6408 55.6159 34.7729 55.7016 34.7872Z" fill="#83C5A5"/>
<path d="M53.0706 36.44C53.8964 35.9451 54.7969 35.5871 55.7372 35.3798C56.1804 35.282 56.6168 35.1556 57.0437 35.0014C57.2471 34.9264 57.4399 34.8336 57.6327 34.7408C57.8157 34.6743 57.9782 34.5611 58.1039 34.4124C58.1113 34.3996 58.1152 34.3851 58.1153 34.3703C58.1154 34.3555 58.1117 34.3409 58.1045 34.328C58.0973 34.315 58.0869 34.3042 58.0743 34.2965C58.0617 34.2887 58.0473 34.2844 58.0325 34.2839C57.8451 34.3315 57.6683 34.4138 57.5113 34.5266C57.3078 34.6373 57.0937 34.7372 56.883 34.8336C56.4454 35.0247 55.9898 35.1718 55.523 35.2727C54.6362 35.4717 53.7993 35.8494 53.0634 36.3829C53.042 36.4043 53.0598 36.4436 53.0955 36.415L53.0706 36.44Z" fill="#83C5A5"/>
<path d="M53.7317 35.9438C50.6331 37.4003 46.8314 38.4534 44.9537 41.559C44.6895 42.0088 43.7542 43.4724 44.461 43.9222C45.0036 44.2506 45.5784 43.6973 45.9104 43.3296C46.6315 42.53 47.4561 41.8196 48.2343 41.0771C49.0946 40.2168 49.9549 39.3565 50.8366 38.5176C51.772 37.6439 52.7552 36.8227 53.7817 36.0581C53.8638 35.976 53.7959 35.8296 53.6853 35.8903C51.9575 36.8541 50.5439 38.3605 49.1339 39.7278C48.4199 40.4417 47.656 41.1628 46.9099 41.8732C46.5851 42.198 46.2388 42.5015 45.9211 42.8263C45.6934 43.1258 45.4185 43.3862 45.1072 43.5974C44.9501 43.6759 44.6538 43.7509 44.5396 43.5652C44.4254 43.3796 44.5182 43.2011 44.5574 43.0619C44.7002 42.5897 44.9093 42.1402 45.1786 41.7268C45.8605 40.6202 46.7921 39.6886 47.8987 39.0067C49.7479 37.8144 51.879 37.1683 53.7317 35.9795L53.6996 35.9474L53.7317 35.9438Z" fill="#83C5A5"/>
<path d="M51.1072 41.3662C52.0446 40.172 53.0696 39.0492 54.1736 38.0071C54.6127 37.6109 55.0625 37.2325 55.5087 36.8505C56.0513 36.3864 56.5725 35.901 57.1187 35.4476C57.5113 35.1263 57.904 34.8479 58.3145 34.573C58.6844 34.3703 59.0377 34.1387 59.3712 33.8805C59.4533 33.7984 59.364 33.6806 59.2676 33.6984C58.9069 33.8034 58.5707 33.9794 58.2788 34.216C57.9254 34.4481 57.5899 34.698 57.265 34.9586C56.6689 35.4333 56.1405 35.9759 55.5622 36.4828C54.6153 37.2656 53.7142 38.1024 52.8635 38.9888C52.2028 39.7262 51.5865 40.5022 51.0179 41.3127C50.9751 41.3555 51.0644 41.4234 51.0893 41.3841L51.1072 41.3662Z" fill="#83C5A5"/>
<path d="M51.5678 40.6059C50.8217 41.2306 50.1184 41.8982 49.3617 42.505C48.6049 43.1119 47.8731 43.6152 47.1449 44.1864C46.4051 44.7405 45.7383 45.3858 45.1601 46.1069C44.7391 46.561 44.4095 47.0918 44.1891 47.6705C44.0999 48.031 44.2426 48.4379 44.671 48.3808C45.0715 48.2825 45.4401 48.0834 45.7419 47.8025C46.4345 47.2742 47.1163 46.728 47.7731 46.1569C48.5054 45.5531 49.1882 44.8918 49.815 44.1792C50.2776 43.591 50.675 42.9542 51.0002 42.2801C51.3322 41.634 51.6784 40.9879 51.9497 40.3168C51.9854 40.224 51.8355 40.1669 51.7855 40.2525C51.1858 41.2878 50.6718 42.3658 50.0149 43.3725C49.1368 44.7004 47.8124 45.7392 46.5987 46.7459C46.1517 47.1391 45.6834 47.5074 45.1958 47.8489C45.0405 47.9649 44.865 48.0509 44.6782 48.1024C44.3247 48.1631 44.4069 47.7597 44.5104 47.5562C44.6301 47.3122 44.7748 47.0813 44.9423 46.8673C45.1494 46.5817 45.3386 46.2925 45.5635 46.0248C46.1101 45.402 46.7162 44.8341 47.3733 44.3292C48.8405 43.1761 50.4326 42.1266 51.6606 40.6987C51.6729 40.6864 51.6798 40.6697 51.6798 40.6523C51.6798 40.6349 51.6729 40.6182 51.6606 40.6059C51.6483 40.5936 51.6316 40.5867 51.6142 40.5867C51.5968 40.5867 51.5801 40.5936 51.5678 40.6059Z" fill="#83C5A5"/>
<path d="M37.692 22.468C38.5166 22.9214 39.4448 23.1356 40.273 23.5782C41.1425 24.0924 41.9216 24.746 42.579 25.513C43.2383 26.2473 43.9366 26.9456 44.6709 27.6049C45.3927 28.2345 46.1638 28.8051 46.9769 29.3112C47.9022 29.8953 48.8842 30.3844 49.9077 30.7713C50.0791 30.8355 50.1969 30.5464 50.0326 30.475C48.2084 29.7279 46.5087 28.7072 44.9922 27.4478C44.2562 26.7904 43.5578 26.092 42.9003 25.3559C42.2802 24.6506 41.5583 24.0418 40.7584 23.5497C39.816 23.0213 38.7237 22.8571 37.7599 22.3716C37.7206 22.3324 37.6635 22.4181 37.6992 22.4323L37.692 22.468Z" fill="#83C5A5"/>
<path d="M39.1491 36.8541C40.6309 35.3742 42.3191 34.1165 44.1611 33.1201C45.0856 32.6202 46.0475 32.193 47.0383 31.8422C48.0235 31.4923 49.0338 31.2746 50.0333 30.989C50.2403 30.9319 50.2118 30.5749 49.9833 30.6035C48.9355 30.7647 47.9108 31.0512 46.9312 31.4566C45.9365 31.8355 44.9691 32.2828 44.0361 32.7953C42.1502 33.8059 40.4582 35.1426 39.0385 36.7434C39.0301 36.7579 39.0267 36.7747 39.0289 36.7912C39.031 36.8078 39.0386 36.8232 39.0504 36.835C39.0622 36.8468 39.0776 36.8544 39.0942 36.8566C39.1107 36.8587 39.1276 36.8553 39.142 36.8469L39.1491 36.8541Z" fill="#83C5A5"/>
<path d="M21.4996 34.7194C27.2707 32.5227 33.3468 31.2318 39.5125 30.8926C45.6974 30.5664 51.8991 30.9799 57.986 32.1242C59.7423 32.4526 61.5164 32.7988 63.2299 33.3057C64.0991 33.5534 64.9546 33.8465 65.793 34.1839C66.5962 34.5159 67.353 34.9228 68.1312 35.3084C68.3097 35.3941 68.5346 35.1477 68.3596 35.0085C67.1674 34.059 65.6217 33.5271 64.1866 33.0701C62.6187 32.5776 61.024 32.1747 59.4103 31.8636C56.3585 31.2554 53.2755 30.8157 50.1754 30.5463C43.9343 29.9599 37.6414 30.2688 31.4877 31.4638C28.0469 32.1509 24.6856 33.1891 21.4567 34.5623C21.3782 34.598 21.4317 34.7372 21.5138 34.7051L21.4996 34.7194Z" fill="#83C5A5"/>
<path d="M39.2558 23.0749C38.4902 22.6779 37.6996 22.3309 36.8891 22.0361C36.0966 21.7219 35.2898 21.4292 34.4688 21.1936C33.1516 20.8116 31.6023 20.3047 30.2315 20.6974C29.9995 20.7652 29.7139 20.8937 29.8317 21.19C30.0392 21.4844 30.3283 21.7115 30.6634 21.8433C31.6576 22.3165 32.7123 22.6504 33.7977 22.8357C35.5738 23.2562 37.4073 23.3792 39.2237 23.1998C39.4415 23.1748 39.4415 22.8321 39.2273 22.8607C37.7702 23.0397 36.295 23.0073 34.8472 22.7643C34.1118 22.6429 33.3836 22.4787 32.6554 22.3074C32.2263 22.2151 31.805 22.0898 31.3953 21.9325C31.0391 21.7935 30.6962 21.6226 30.3707 21.4221C30.2351 21.3559 30.1184 21.2564 30.0316 21.1329C29.9531 20.9473 30.2387 20.9259 30.3672 20.8759C31.6487 20.5439 33.0837 21.0151 34.3082 21.34C35.1292 21.5684 35.936 21.854 36.7356 22.161C37.5352 22.468 38.3705 22.8892 39.2201 23.1605C39.2487 23.1891 39.2808 23.0998 39.2487 23.082L39.2558 23.0749Z" fill="#83C5A5"/>
<path d="M41.4086 23.5854C40.7232 21.8719 39.2382 20.5939 37.771 19.5408C36.1075 18.3485 34.237 17.3633 32.7127 15.9532C32.2986 15.5392 31.5382 14.8716 32.038 14.2362C32.5378 13.6008 33.5801 14.122 34.1335 14.3825C35.9933 15.2786 37.3212 16.9064 38.5349 18.5484C39.085 19.3336 39.5595 20.1691 39.9521 21.0437C40.3106 21.9456 40.7391 22.8181 41.2337 23.6532C41.3229 23.7424 41.4943 23.6996 41.4514 23.5639C41.1418 22.7043 40.7708 21.868 40.3412 21.0616C39.9578 20.2077 39.5078 19.3853 38.9954 18.602C38.4008 17.7462 37.7446 16.9349 37.0321 16.1746C36.3071 15.3698 35.4469 14.698 34.4904 14.1898C33.8514 13.8578 32.9911 13.4044 32.2558 13.6829C32.0201 13.7714 31.8224 13.9391 31.6967 14.1572C31.5711 14.3754 31.5251 14.6304 31.5668 14.8787C31.628 15.1932 31.7808 15.4826 32.0059 15.7105C32.3955 16.1178 32.8156 16.495 33.2624 16.8385C34.1198 17.4986 35.0111 18.1134 35.9326 18.6805C36.9868 19.3249 37.9959 20.0405 38.9526 20.8224C39.8846 21.6162 40.6721 22.5656 41.2801 23.6282C41.3301 23.6782 41.43 23.6496 41.4015 23.5782L41.4086 23.5854Z" fill="#83C5A5"/>
<path d="M40.7512 22.5501C40.9766 23.4473 41.4375 24.2681 42.0862 24.9276C42.4075 25.3202 42.7574 25.72 43.1143 26.0984C43.2964 26.2805 43.4713 26.4554 43.6641 26.6482C43.825 26.8454 44.0166 27.0153 44.2317 27.1515C44.2596 27.1676 44.292 27.174 44.3239 27.1697C44.3558 27.1655 44.3854 27.1509 44.4082 27.1281C44.4309 27.1054 44.4456 27.0757 44.4498 27.0438C44.454 27.0119 44.4476 26.9795 44.4316 26.9516C44.3018 26.755 44.1429 26.5793 43.9604 26.4304L43.4106 25.8807C43.0536 25.5237 42.7502 25.1774 42.4325 24.8169C42.1148 24.4564 41.8185 24.1172 41.5472 23.7388C41.2978 23.3423 41.0896 22.9213 40.9261 22.4823C40.8832 22.3752 40.7369 22.4573 40.7512 22.5501Z" fill="#83C5A5"/>
<path d="M47.0093 26.102C46.7273 24.285 45.7563 22.5359 44.7497 21.0294C43.6681 19.4773 42.4674 18.0116 41.1585 16.6458C40.748 16.2352 40.266 15.4749 40.4731 14.8609C40.5541 14.7027 40.6853 14.5758 40.8462 14.5003C41.0071 14.4247 41.1885 14.4046 41.362 14.4432C41.7851 14.5194 42.1715 14.7326 42.4614 15.0501C43.1287 15.6529 43.7295 16.3255 44.2535 17.0563C44.8304 17.9034 45.3185 18.8078 45.7099 19.755C46.1136 20.6782 46.4187 21.6414 46.6202 22.6287C46.8087 23.6376 46.8388 24.6697 46.7094 25.6879C46.688 25.8521 46.9557 25.8843 46.9914 25.7272C47.427 23.8638 46.9058 21.8433 46.2025 20.0906C45.8309 19.1059 45.3634 18.1601 44.8068 17.2669C44.252 16.4375 43.6079 15.6714 42.8862 14.9823C42.3365 14.4325 41.6547 13.9292 40.8551 14.1576C40.7166 14.1932 40.5874 14.2578 40.4757 14.347C40.3641 14.4363 40.2727 14.5482 40.2076 14.6754C40.1425 14.8027 40.1051 14.9423 40.0979 15.085C40.0908 15.2277 40.114 15.3704 40.1661 15.5034C40.3446 16.3031 40.9407 16.8707 41.4583 17.4382C42.1687 18.22 42.8648 19.0161 43.5216 19.8514C44.2555 20.7776 44.9156 21.7599 45.4957 22.7893C46.0588 23.861 46.5293 24.9788 46.9022 26.1306C46.9041 26.1386 46.9075 26.1461 46.9123 26.1527C46.9171 26.1594 46.9231 26.165 46.9301 26.1693C46.937 26.1736 46.9448 26.1765 46.9529 26.1778C46.9609 26.1792 46.9692 26.1789 46.9772 26.177C46.9851 26.1751 46.9927 26.1717 46.9993 26.1669C47.006 26.1621 47.0116 26.1561 47.0159 26.1491C47.0202 26.1422 47.0231 26.1344 47.0244 26.1263C47.0257 26.1183 47.0255 26.11 47.0236 26.102L47.0093 26.102Z" fill="#83C5A5"/>
<path d="M46.752 25.5094C46.7609 26.1428 46.9187 26.7652 47.2125 27.3264C47.4764 27.9281 47.8224 28.4903 48.2406 28.9971C48.652 29.4908 49.126 29.9288 49.6507 30.3C50.1524 30.7226 50.755 31.0079 51.3998 31.1282C51.5498 31.1353 51.5748 30.9533 51.4677 30.8747C51.2184 30.7183 50.9555 30.5844 50.6823 30.4749C49.8464 30.0471 49.1057 29.4545 48.5048 28.7329C48.1126 28.2688 47.7793 27.758 47.5124 27.2122C47.3635 26.9158 47.2359 26.6092 47.1304 26.2948C47.0611 26.0178 46.9764 25.7449 46.877 25.4773C46.8484 25.4059 46.7556 25.4487 46.752 25.5094Z" fill="#83C5A5"/>
<path d="M39.3233 36.5293C38.1275 37.1611 36.9994 37.9108 35.85 38.6247C34.825 39.2301 33.8444 39.9077 32.9156 40.6523C32.4131 41.0679 31.9624 41.5425 31.5734 42.0659C31.295 42.4586 30.9487 43.0119 31.1165 43.5153C31.2842 44.0186 31.9661 44.2007 32.4444 44.1721C32.9621 44.1072 33.4516 43.8996 33.858 43.5724C35.0507 42.6235 36.094 41.5007 36.953 40.2418C37.8347 39.0674 38.6344 37.8465 39.4518 36.6292C39.4641 36.6059 39.4677 36.579 39.4619 36.5533C39.4561 36.5276 39.4415 36.5048 39.4204 36.4889C39.3994 36.4731 39.3735 36.4652 39.3472 36.4667C39.3209 36.4682 39.296 36.479 39.2769 36.4971C38.5416 37.3396 37.9525 38.307 37.285 39.203C36.4527 40.4299 35.5086 41.5771 34.4649 42.63C33.8081 43.2868 32.5694 44.347 31.5805 43.6509C31.1272 43.3332 31.4627 42.7192 31.709 42.3515C32.0615 41.8316 32.4817 41.361 32.9585 40.9522C33.8564 40.2079 34.8152 39.5404 35.825 38.9567C37.0173 38.1999 38.2346 37.4753 39.3769 36.6399C39.4268 36.59 39.3876 36.5007 39.3198 36.54L39.3233 36.5293Z" fill="#83C5A5"/>
<path d="M38.9776 35.2763C39.7357 35.1365 40.4782 34.9225 41.1944 34.6373C41.8874 34.3967 42.5371 34.0459 43.1185 33.5985C43.172 33.5449 43.1042 33.4628 43.0328 33.5128C41.757 34.258 40.3733 34.8011 38.9312 35.1228C38.8277 35.1406 38.8705 35.2977 38.974 35.2798L38.9776 35.2763Z" fill="#83C5A5"/>
<path d="M39.7553 34.9621C38.781 35.0055 37.8051 34.9972 36.8317 34.9371C35.8358 34.9029 34.8408 35.0257 33.8831 35.3012C32.8925 35.6056 31.9269 35.9863 30.9952 36.44C30.0898 36.7845 29.2631 37.3078 28.5642 37.9785C28.2072 38.3355 27.6575 39.0495 27.9288 39.5921C28.1144 39.9633 28.6034 39.8741 28.9319 39.7955C29.4591 39.644 29.9679 39.4345 30.449 39.1708C31.0416 38.871 31.6306 38.5604 32.2267 38.257C33.3262 37.6858 34.4257 37.1147 35.5502 36.5828C36.7014 36.0573 37.8799 35.5938 39.0807 35.1941C39.1046 35.1845 39.1243 35.1665 39.1359 35.1434C39.1475 35.1203 39.1503 35.0938 39.1437 35.0688C39.1371 35.0438 39.1217 35.022 39.1002 35.0077C39.0787 34.9933 39.0527 34.9872 39.0271 34.9907C38.0815 35.1944 37.1627 35.5071 36.2891 35.9224C35.3824 36.3222 34.4971 36.772 33.6154 37.2253C32.3553 37.8715 31.113 38.5783 29.8529 39.1744C29.4258 39.4361 28.9396 39.5859 28.4392 39.6099C27.7289 39.5492 28.4285 38.5211 28.6391 38.2677C29.2601 37.6091 30.0181 37.0949 30.8595 36.7613C31.7576 36.3176 32.6828 35.9313 33.6297 35.6047C34.6655 35.2696 35.7504 35.1115 36.8389 35.137C37.8027 35.1656 38.8165 35.3012 39.7839 35.0478C39.8339 35.0335 39.8267 34.9478 39.7732 34.9514L39.7553 34.9621Z" fill="#83C5A5"/>
<path d="M41.4262 36.3472C42.3186 35.4904 43.1968 34.6194 44.157 33.8377C45.1525 33.0588 46.1944 32.3411 47.277 31.6887C47.3006 31.6754 47.3181 31.6533 47.3254 31.6272C47.3328 31.6011 47.3295 31.5731 47.3163 31.5494C47.303 31.5258 47.2809 31.5084 47.2548 31.501C47.2287 31.4936 47.2007 31.4969 47.177 31.5102C46.0709 32.0917 45.0267 32.7843 44.0606 33.5771C43.0426 34.3512 42.1253 35.2494 41.3298 36.2508C41.3221 36.2643 41.3191 36.2799 41.3212 36.2952C41.3232 36.3106 41.3303 36.3248 41.3412 36.3357C41.3522 36.3467 41.3664 36.3537 41.3818 36.3558C41.3971 36.3579 41.4127 36.3548 41.4262 36.3472Z" fill="#83C5A5"/>
<path d="M41.9581 35.5012C41.2913 36.2834 40.5696 37.017 39.7984 37.6966C39.0706 38.3848 38.4052 39.1362 37.8101 39.9419C37.2127 40.748 36.6905 41.6072 36.2501 42.5086C35.8801 43.1193 35.6271 43.7936 35.504 44.4969C35.479 44.9003 35.6932 45.3644 36.1644 45.2216C36.5867 45.0315 36.9485 44.729 37.2103 44.347C38.1894 43.1527 38.9946 41.8259 39.6021 40.406C39.9162 39.6778 40.2196 38.9388 40.5695 38.2249C41.0231 37.3208 41.5285 36.4435 42.083 35.5976C42.0973 35.5834 42.1052 35.5641 42.1052 35.544C42.1052 35.5239 42.0973 35.5047 42.083 35.4905C42.0688 35.4763 42.0496 35.4683 42.0295 35.4683C42.0094 35.4683 41.9902 35.4763 41.976 35.4905C41.0479 36.6843 40.2921 38.0025 39.7306 39.4065C39.2001 40.6609 38.5623 41.8672 37.8243 43.0119C37.4959 43.5386 37.1143 44.0302 36.6856 44.4791C36.4571 44.7076 35.8681 45.2537 35.8467 44.604C35.8554 44.2757 35.9345 43.9531 36.0787 43.658C36.2251 43.3189 36.3786 42.9798 36.5392 42.6478C37.388 40.8792 38.5503 39.2791 39.9698 37.925C40.7618 37.2237 41.4741 36.4372 42.0937 35.5797C42.1544 35.519 42.0224 35.4084 41.9795 35.4655L41.9581 35.5012Z" fill="#83C5A5"/>
<path d="M35.2973 28.3045C36.2772 29.0297 37.3286 29.6529 38.4351 30.1644C38.9144 30.3646 39.4133 30.5142 39.9237 30.6106C40.4206 30.7486 40.9435 30.7646 41.448 30.657C41.5515 30.6177 41.58 30.4464 41.448 30.4214C41.2103 30.4033 40.9716 30.4033 40.734 30.4214C40.4526 30.4113 40.1723 30.3815 39.8951 30.3322C39.397 30.2363 38.9093 30.0928 38.4387 29.9038C37.3461 29.4465 36.302 28.8808 35.3223 28.2153C35.2759 28.1689 35.2187 28.2688 35.2723 28.3081L35.2973 28.3045Z" fill="#83C5A5"/>
<path d="M35.9643 28.5223C34.3987 27.7138 32.7359 27.1092 31.0167 26.7231C29.4523 26.3357 27.832 26.2258 26.2296 26.3983C25.7334 26.459 24.3305 26.8695 24.2377 26.0056C24.1449 25.1418 25.3658 24.6777 25.9976 24.517C27.6361 24.0994 29.4531 24.717 30.9381 25.3952C31.8366 25.8218 32.7059 26.3071 33.5405 26.8481C34.4935 27.4178 35.3561 28.1264 36.1 28.9507C36.2428 29.0935 36.457 28.8793 36.3213 28.7293C35.6427 27.9697 34.8589 27.3109 33.9938 26.7731C33.1604 26.2135 32.2884 25.7137 31.3843 25.2774C29.8458 24.5527 27.9967 23.903 26.2796 24.2136C25.5061 24.3178 24.7968 24.6997 24.2841 25.2881C23.9307 25.77 23.9735 26.4054 24.5697 26.6446C24.8492 26.7419 25.1483 26.7689 25.4407 26.7231C25.8976 26.6589 26.3439 26.5768 26.8044 26.5447C27.7471 26.4839 28.6936 26.5234 29.628 26.6625C30.6973 26.8237 31.7508 27.0769 32.7765 27.4193C33.8475 27.7762 34.8756 28.2117 35.9286 28.6008C35.9608 28.633 35.9965 28.533 35.9608 28.5187L35.9643 28.5223Z" fill="#83C5A5"/>
<path d="M27.4368 29.6397C28.1008 29.7253 28.7683 29.8146 29.418 29.9645C30.0863 30.1496 30.7401 30.3834 31.3742 30.6642C31.9721 30.9127 32.5959 31.0936 33.234 31.2032C33.8283 31.3309 34.4415 31.343 35.0403 31.2389C35.1546 31.2103 35.1224 31.0568 35.0153 31.0426C34.7155 31.0211 34.4121 31.0675 34.1122 31.0533C33.7674 31.0427 33.4237 31.0069 33.0841 30.9462C32.4439 30.8117 31.8186 30.6144 31.2171 30.3572C30.6173 30.0993 29.9962 29.8939 29.3609 29.7432C28.7334 29.6234 28.0992 29.5423 27.4618 29.5004C27.3797 29.4969 27.344 29.6182 27.4403 29.6432L27.4368 29.6397Z" fill="#83C5A5"/>
<path d="M28.5931 29.604C25.5874 29.0399 22.4603 28.8329 19.6866 30.3429C19.2511 30.5785 18.6085 31.0426 18.6442 31.6137C18.6692 31.9671 19.0547 32.0243 19.3403 32.0171C19.7974 31.9841 20.2517 31.9209 20.7004 31.8279C21.5491 31.6691 22.3872 31.4581 23.2099 31.1961C24.0845 30.9355 24.9484 30.6356 25.8266 30.3857C26.7047 30.1359 27.6686 29.9717 28.6074 29.7825C28.7502 29.7539 28.7109 29.5433 28.5753 29.5433C27.8684 29.554 27.1665 29.6645 26.4905 29.8717C25.7802 30.0609 25.0841 30.2929 24.3951 30.5392C23.0431 31.0139 21.6624 31.4026 20.2613 31.703C19.8723 31.8358 19.4563 31.8689 19.0512 31.7994C18.7977 31.7101 18.8834 31.4817 18.9941 31.2925C19.1947 30.9784 19.4842 30.7311 19.8258 30.5821C21.1072 29.9288 22.5096 29.5472 23.9453 29.4612C25.495 29.4557 27.0436 29.5451 28.5824 29.7289C28.6502 29.7396 28.6752 29.6361 28.6003 29.6111L28.5931 29.604Z" fill="#83C5A5"/>
<path d="M32.8233 33.4986C33.4264 33.2412 34.0481 33.03 34.6832 32.8667C35.3079 32.7061 35.9433 32.5776 36.5537 32.3669C37.1422 32.1459 37.7178 31.892 38.2779 31.6066C38.5742 31.4602 38.8705 31.321 39.1668 31.1818C39.4892 31.0732 39.7883 30.9049 40.0485 30.6856C40.0624 30.6704 40.0719 30.6515 40.0757 30.6312C40.0796 30.6109 40.0777 30.59 40.0703 30.5707C40.0629 30.5514 40.0502 30.5345 40.0337 30.5221C40.0173 30.5096 39.9977 30.5019 39.9771 30.5C39.6921 30.5537 39.4204 30.6629 39.1775 30.8212L38.2315 31.3032C37.6147 31.6431 36.974 31.9378 36.3145 32.1849C35.722 32.3848 35.1079 32.5205 34.5082 32.7061C33.9076 32.8967 33.3237 33.1367 32.7626 33.4236C32.7198 33.4664 32.7555 33.5378 32.8126 33.5093L32.8233 33.4986Z" fill="#83C5A5"/>
<path d="M33.8299 32.9702C33.5479 33.2522 32.9982 33.2022 32.6198 33.2665C32.2414 33.3307 31.8202 33.4093 31.4275 33.5021C30.6731 33.6846 29.9323 33.9196 29.2107 34.2053C27.75 34.7265 26.3712 35.4538 25.1162 36.365C24.6823 36.6557 24.3542 37.079 24.1809 37.5716C24.0917 37.9107 24.1809 38.2855 24.5415 38.3677C24.7809 38.4022 25.0251 38.3584 25.2376 38.2427C25.6189 38.0631 25.9864 37.8555 26.337 37.6216C27.0224 37.1789 27.6579 36.672 28.329 36.2151C29.0858 35.6939 29.9032 35.2548 30.6921 34.7943C31.4811 34.3338 32.4163 33.8698 33.2409 33.3593C33.3159 33.2843 33.2766 33.1237 33.166 33.1701C32.4864 33.4653 31.8301 33.8113 31.2026 34.2053C30.5351 34.5944 29.864 35.0085 29.2071 35.3869C27.9684 36.1187 26.8904 37.0968 25.6481 37.8179C25.3518 37.9928 24.952 38.2713 24.5772 38.1749C24.2023 38.0785 24.3166 37.7644 24.4022 37.5216C24.6839 36.9556 25.1325 36.4896 25.6874 36.1865C26.3058 35.7847 26.9537 35.4302 27.6257 35.1263C28.279 34.8229 28.943 34.523 29.6141 34.2589C30.34 33.9835 31.0844 33.7593 31.8416 33.5878C32.22 33.5021 32.5984 33.4378 32.9839 33.3736C33.3143 33.371 33.6301 33.2375 33.8621 33.0023C33.8678 32.9966 33.8709 32.9889 33.8709 32.9809C33.8709 32.9729 33.8678 32.9652 33.8621 32.9595C33.8564 32.9538 33.8487 32.9506 33.8407 32.9506C33.8326 32.9506 33.8249 32.9538 33.8192 32.9595L33.8299 32.9702Z" fill="#83C5A5"/>
<path d="M22.8419 33.9697C21.4818 34.2232 20.1396 34.5302 18.7723 34.7694C17.4642 34.9632 16.1795 35.2909 14.9384 35.7475C13.7641 36.2248 12.6566 36.8524 11.6436 37.6145C11.1509 37.9857 10.669 38.3748 10.2121 38.7889C9.89357 39.0558 9.62519 39.3773 9.41961 39.7385C9.36276 39.8234 9.32759 39.921 9.31714 40.0226C9.3067 40.1243 9.3213 40.227 9.35968 40.3217C9.39807 40.4164 9.45905 40.5003 9.53733 40.566C9.6156 40.6317 9.70878 40.6773 9.80872 40.6987C10.4346 40.8145 11.0806 40.7463 11.6685 40.5024C12.403 40.2194 13.1025 39.8529 13.7533 39.41C14.6065 38.8853 15.4453 38.3391 16.2914 37.8072C17.373 37.1254 18.4618 36.4579 19.5791 35.8331C20.6964 35.2084 21.7959 34.6944 22.9168 34.1732C23.0239 34.1232 22.949 33.9483 22.8383 33.9804C20.8999 34.598 19.1043 35.7296 17.3837 36.7863C15.813 37.7572 14.2923 38.7996 12.7002 39.7349C12.0874 40.1185 11.402 40.3713 10.6869 40.4774C10.3942 40.5131 9.52313 40.5916 9.58739 40.0919C9.69047 39.7571 9.89352 39.4619 10.1693 39.2458C10.5766 38.8527 11.0082 38.4855 11.4615 38.1463C12.4392 37.386 13.5032 36.7438 14.6314 36.233C15.9045 35.7019 17.2375 35.3279 18.601 35.1192C20.0415 34.8833 21.467 34.5639 22.8704 34.1625C22.8922 34.1528 22.9099 34.1356 22.9202 34.1141C22.9306 34.0926 22.933 34.0681 22.927 34.045C22.921 34.0219 22.907 34.0016 22.8875 33.9879C22.868 33.9741 22.8442 33.9677 22.8204 33.9697L22.8419 33.9697Z" fill="#83C5A5"/>
<path d="M12.9108 31.935C15.0669 32.2919 17.1053 33.1237 19.2435 33.5556C20.0692 33.7395 20.9149 33.8175 21.7602 33.7877C22.5348 33.727 23.3345 33.6413 24.1127 33.5271C24.9156 33.4415 25.7083 33.2777 26.4794 33.038C26.5086 33.027 26.5327 33.0055 26.547 32.9777C26.5614 32.9499 26.5648 32.9178 26.5569 32.8876C26.5489 32.8574 26.5299 32.8313 26.5038 32.8142C26.4776 32.7971 26.446 32.7904 26.4152 32.7953C24.948 33.0416 23.488 33.3307 22.0065 33.4557C20.1288 33.6127 18.2761 33.0808 16.477 32.5954C15.3197 32.2516 14.1417 31.9821 12.9501 31.7886C12.8573 31.7743 12.818 31.9207 12.9144 31.9314L12.9108 31.935Z" fill="#83C5A5"/>
<path d="M15.0493 32.2456C14.0558 31.8128 13.0379 31.4386 12.0007 31.1247C11.0227 30.7719 10.0174 30.4997 8.99499 30.3108C7.53708 30.0448 6.03355 30.2009 4.66131 30.7605C4.24722 30.9319 2.41951 31.6601 3.11205 32.3598C3.38532 32.5752 3.7244 32.6899 4.0723 32.6846C4.47182 32.7286 4.87339 32.7512 5.27531 32.7525C6.17053 32.747 7.0646 32.6874 7.95262 32.574C9.95399 32.2891 11.9689 32.1092 13.9891 32.0349C14.1033 32.0349 14.0926 31.8814 13.9926 31.8672C12.4362 31.6744 10.8084 31.9885 9.26629 32.1956C7.65092 32.4788 6.01183 32.6044 4.37217 32.5704C3.99734 32.5454 3.43332 32.5383 3.18701 32.2063C3.05136 32.0278 3.15132 31.8565 3.29054 31.7172C3.69174 31.3885 4.15394 31.1422 4.65061 30.9926C5.93572 30.4899 7.32855 30.3264 8.69513 30.5178C9.74565 30.6892 10.7789 30.9532 11.783 31.3067C12.8347 31.7188 13.9071 32.0763 14.9957 32.3776C15.0814 32.3991 15.1457 32.2705 15.0564 32.2313L15.0493 32.2456Z" fill="#83C5A5"/>
<path d="M13.222 30.2608C14.5286 30.7248 15.6137 31.5673 16.7632 32.3169C17.2797 32.6588 17.8257 32.9538 18.3946 33.1987C18.6636 33.3093 18.9404 33.4 19.2228 33.47C19.489 33.5598 19.7725 33.5867 20.0509 33.5485C20.1116 33.5306 20.1331 33.4307 20.0688 33.4021C19.7987 33.3095 19.5201 33.2437 19.237 33.2058C18.937 33.1264 18.6424 33.0274 18.3553 32.9095C17.7604 32.6525 17.1852 32.3519 16.6347 32.0099C15.5732 31.2826 14.4362 30.6722 13.2434 30.1894C13.2113 30.1572 13.1828 30.2501 13.222 30.2608Z" fill="#83C5A5"/>
<path d="M13.804 30.3857C12.6082 29.6468 11.3231 29.1184 10.0701 28.4866C9.01897 27.8828 7.83024 27.5595 6.61812 27.5477C6.21993 27.5205 5.82407 27.6273 5.49365 27.8512C5.36551 27.9812 5.29397 28.1566 5.29464 28.3392C5.29531 28.5217 5.36812 28.6966 5.49722 28.8257C5.7048 28.9964 5.94729 29.1195 6.20759 29.1863C6.51719 29.2985 6.83305 29.3927 7.15358 29.4683C7.80433 29.6115 8.46204 29.7211 9.12408 29.7967C9.93085 29.8895 10.7269 29.9716 11.5408 30.0716C12.3547 30.1715 13.0258 30.3643 13.7683 30.5285C13.8933 30.5535 13.9825 30.3714 13.8576 30.3107C12.8259 29.8288 11.5801 29.7681 10.4627 29.6503C9.22488 29.5701 7.99604 29.385 6.78946 29.097C6.42178 28.9935 5.29731 28.7115 5.61502 28.1296C5.80065 27.7941 6.41822 27.7976 6.72522 27.8119C7.85669 27.8461 8.9639 28.1483 9.95584 28.6936C11.2195 29.3005 12.5118 29.8217 13.7505 30.4821C13.7637 30.4897 13.7795 30.4916 13.7942 30.4876C13.8089 30.4836 13.8214 30.4739 13.829 30.4607C13.8366 30.4474 13.8386 30.4317 13.8346 30.417C13.8306 30.4022 13.8208 30.3897 13.8076 30.3821L13.804 30.3857Z" fill="#83C5A5"/>
<path d="M23.1597 36.4935C24.5151 34.9517 26.1126 33.6411 27.8896 32.6132C27.9932 32.5525 27.9253 32.3705 27.8075 32.4097C26.9573 32.7371 26.1735 33.216 25.4943 33.8233C24.5935 34.5878 23.7751 35.4444 23.0526 36.3793C22.9884 36.4435 23.0883 36.5506 23.1526 36.4792L23.1597 36.4935Z" fill="#83C5A5"/>
<path d="M23.028 36.5185C21.9761 37.7027 21.1552 39.0733 20.6077 40.5595C20.0223 42.1159 19.6082 43.7008 18.6372 45.0788C18.3409 45.4964 17.734 46.3175 17.1308 46.2711C16.5275 46.2247 16.8202 45.2465 16.9344 44.9039C17.4257 43.4402 18.1674 42.0729 19.1262 40.8629C20.3415 39.3408 21.6735 37.9158 23.1101 36.6006C23.1779 36.5328 23.0815 36.4435 23.0101 36.5007C21.5209 37.759 20.1699 39.1722 18.9799 40.7165C17.9704 41.9388 17.1871 43.3314 16.6667 44.8289C16.5168 45.2644 16.3097 45.8998 16.6167 46.3068C16.9237 46.7137 17.502 46.5495 17.8697 46.3032C18.4742 45.8459 18.9673 45.2577 19.3119 44.5826C19.7387 43.7984 20.0856 42.9732 20.3471 42.1195C20.6348 41.1469 20.9915 40.1961 21.4145 39.2744C21.8806 38.3198 22.4415 37.4145 23.0887 36.5721C23.1279 36.5328 23.0637 36.4614 23.0244 36.5078L23.028 36.5185Z" fill="#83C5A5"/>
<path d="M21.4639 37.9465C20.9856 38.1821 20.5394 38.4498 20.036 38.7032C19.5327 38.9567 19.0079 39.1744 18.476 39.3851C17.5193 39.7706 16.5484 40.1276 15.6274 40.5988C14.6669 41.0606 13.8059 41.7057 13.0929 42.4979C12.6086 42.9539 12.2497 43.5267 12.0505 44.1614C11.9898 44.5576 12.1719 44.8896 12.5967 44.7932C13.0828 44.6283 13.5307 44.3673 13.9139 44.0257C14.6064 43.4974 15.2883 42.9441 15.9772 42.4122C16.7376 41.8232 17.5015 41.2378 18.2619 40.6416C19.2043 39.9062 20.186 39.203 21.0784 38.4034C21.0935 38.3882 21.102 38.3677 21.102 38.3463C21.102 38.3248 21.0935 38.3043 21.0784 38.2891C21.0632 38.274 21.0427 38.2655 21.0213 38.2655C20.9998 38.2655 20.9793 38.274 20.9642 38.2891C20.1681 38.8139 19.4327 39.4208 18.6795 40.0026C17.9977 40.5345 17.323 41.0664 16.6448 41.6019C15.9665 42.1373 15.2169 42.7228 14.4958 43.2796C14.0924 43.5902 13.6961 43.9079 13.2606 44.1864C13.1 44.2899 12.3539 44.8289 12.2825 44.4505C12.2796 44.1213 12.3977 43.8024 12.6145 43.5545C12.8013 43.2832 13.0027 43.0222 13.2178 42.7727C13.8971 42.0005 14.722 41.3697 15.6452 40.9165C16.6198 40.406 17.6514 40.024 18.6688 39.6064C19.7016 39.2646 20.6651 38.7412 21.5139 38.0607C21.5234 38.0512 21.5287 38.0384 21.5287 38.025C21.5287 38.0116 21.5234 37.9988 21.5139 37.9893C21.5044 37.9798 21.4916 37.9745 21.4782 37.9745C21.4648 37.9745 21.452 37.9798 21.4425 37.9893L21.4639 37.9465Z" fill="#83C5A5"/>
</g>
<defs>
<clipPath id="clip0_5940_24025">
<rect width="49.7064" height="46.5714" fill="white" transform="translate(35.5684 68.0787) rotate(-135)"/>
</clipPath>
</defs>
</svg>
