<svg width="69" height="69" viewBox="0 0 69 69" fill="none" xmlns="http://www.w3.org/2000/svg">
<g clip-path="url(#clip0_5940_3336)">
<path d="M56.2021 35.3909C55.2919 35.3445 54.4423 34.9447 53.5427 34.8733C52.6282 34.8214 51.7111 34.908 50.8225 35.1303C49.3177 35.535 47.8956 36.2007 46.6209 37.0973C46.165 37.3341 45.7769 37.6829 45.4929 38.1111C45.2894 38.5216 45.6321 38.8 46.0284 38.825C46.6539 38.7992 47.2681 38.6487 47.8347 38.3824C48.6606 38.0636 49.4696 37.7026 50.2585 37.3007C52.1005 36.3655 54.0639 35.3374 56.22 35.6229C56.3842 35.6444 56.4235 35.3552 56.2557 35.3302C54.6564 35.0946 53.1179 35.6122 51.6757 36.2691C50.2401 37.019 48.7635 37.6876 47.2528 38.2717C47.0422 38.3395 45.8106 38.7715 45.7606 38.336C45.7463 38.186 45.957 38.004 46.0533 37.9147C46.2555 37.728 46.4728 37.5585 46.7031 37.4078C47.8625 36.5747 49.1469 35.9313 50.5084 35.5016C51.4663 35.2206 52.4629 35.0941 53.4606 35.1268C54.3994 35.166 55.2812 35.5551 56.2343 35.5016C56.2425 35.5013 56.2506 35.4995 56.258 35.4961C56.2655 35.4928 56.2723 35.488 56.2779 35.482C56.2836 35.4761 56.288 35.469 56.2909 35.4614C56.2938 35.4537 56.2952 35.4455 56.295 35.4373C56.2947 35.4291 56.2929 35.421 56.2895 35.4135C56.2862 35.4061 56.2814 35.3993 56.2754 35.3937C56.2694 35.388 56.2624 35.3836 56.2547 35.3807C56.2471 35.3778 56.2389 35.3764 56.2307 35.3766L56.2021 35.3909Z" fill="#ADADAD"/>
<path d="M56.2016 35.5336C57.451 35.8192 58.5433 35.2266 59.6678 34.7733C60.289 34.5234 60.9172 34.2878 61.5562 34.0914C62.2442 33.891 62.9537 33.7735 63.6695 33.7416C63.7909 33.7345 63.8373 33.5381 63.6981 33.5131C62.4165 33.3025 61.0886 33.8951 59.9213 34.3556C58.754 34.8161 57.5545 35.6014 56.2337 35.4015C56.148 35.3872 56.1159 35.5193 56.2016 35.5336Z" fill="#ADADAD"/>
<path d="M53.5706 37.1868C54.3964 36.6918 55.2969 36.3338 56.2372 36.1265C56.6804 36.0288 57.1168 35.9024 57.5437 35.7482C57.7471 35.6732 57.9399 35.5804 58.1327 35.4876C58.3157 35.4211 58.4782 35.3079 58.6039 35.1592C58.6113 35.1463 58.6152 35.1318 58.6153 35.117C58.6154 35.1022 58.6117 35.0877 58.6045 35.0747C58.5973 35.0618 58.5869 35.0509 58.5743 35.0432C58.5617 35.0355 58.5473 35.0312 58.5325 35.0306C58.3451 35.0782 58.1683 35.1606 58.0113 35.2734C57.8078 35.384 57.5937 35.484 57.383 35.5804C56.9454 35.7715 56.4898 35.9186 56.023 36.0195C55.1362 36.2184 54.2993 36.5962 53.5634 37.1296C53.542 37.1511 53.5598 37.1903 53.5955 37.1618L53.5706 37.1868Z" fill="#ADADAD"/>
<path d="M54.2317 36.6905C51.1331 38.147 47.3314 39.2001 45.4537 42.3057C45.1895 42.7555 44.2542 44.2191 44.961 44.6689C45.5036 44.9973 46.0784 44.444 46.4104 44.0763C47.1315 43.2767 47.9561 42.5663 48.7343 41.8238C49.5946 40.9635 50.4549 40.1032 51.3366 39.2643C52.272 38.3906 53.2552 37.5694 54.2817 36.8048C54.3638 36.7227 54.2959 36.5763 54.1853 36.637C52.4575 37.6008 51.0439 39.1073 49.6339 40.4745C48.9199 41.1884 48.156 41.9095 47.4099 42.6199C47.0851 42.9447 46.7388 43.2482 46.4211 43.573C46.1934 43.8725 45.9185 44.1329 45.6072 44.3441C45.4501 44.4226 45.1538 44.4976 45.0396 44.3119C44.9254 44.1263 45.0182 43.9478 45.0574 43.8086C45.2002 43.3364 45.4093 42.8869 45.6786 42.4735C46.3605 41.3669 47.2921 40.4353 48.3987 39.7534C50.2479 38.5611 52.379 37.915 54.2317 36.7262L54.1996 36.6941L54.2317 36.6905Z" fill="#ADADAD"/>
<path d="M51.6072 42.1126C52.5446 40.9184 53.5696 39.7956 54.6736 38.7535C55.1127 38.3573 55.5625 37.9789 56.0087 37.5969C56.5513 37.1328 57.0725 36.6474 57.6187 36.194C58.0113 35.8727 58.404 35.5943 58.8145 35.3194C59.1844 35.1167 59.5377 34.8851 59.8712 34.6269C59.9533 34.5448 59.864 34.427 59.7676 34.4448C59.4069 34.5498 59.0707 34.7258 58.7788 34.9624C58.4254 35.1945 58.0899 35.4444 57.765 35.705C57.1689 36.1797 56.6405 36.7223 56.0622 37.2292C55.1153 38.012 54.2142 38.8487 53.3635 39.7352C52.7028 40.4726 52.0865 41.2486 51.5179 42.0591C51.4751 42.1019 51.5644 42.1698 51.5893 42.1305L51.6072 42.1126Z" fill="#ADADAD"/>
<path d="M52.0678 41.3523C51.3217 41.977 50.6184 42.6445 49.8617 43.2514C49.1049 43.8582 48.3731 44.3616 47.6449 44.9327C46.9051 45.4869 46.2383 46.1322 45.6601 46.8532C45.2391 47.3073 44.9095 47.8382 44.6891 48.4168C44.5999 48.7773 44.7426 49.1843 45.171 49.1272C45.5715 49.0289 45.9401 48.8298 46.2419 48.5489C46.9345 48.0205 47.6163 47.4744 48.2731 46.9032C49.0054 46.2994 49.6882 45.6381 50.315 44.9256C50.7776 44.3373 51.175 43.7005 51.5002 43.0265C51.8322 42.3804 52.1784 41.7342 52.4497 41.0631C52.4854 40.9703 52.3355 40.9132 52.2855 40.9989C51.6858 42.0341 51.1718 43.1121 50.5149 44.1188C49.6368 45.4468 48.3124 46.4856 47.0987 47.4922C46.6517 47.8855 46.1834 48.2537 45.6958 48.5953C45.5405 48.7113 45.365 48.7972 45.1782 48.8487C44.8247 48.9094 44.9069 48.506 45.0104 48.3026C45.1301 48.0585 45.2748 47.8276 45.4423 47.6136C45.6494 47.328 45.8386 47.0389 46.0635 46.7711C46.6101 46.1483 47.2162 45.5804 47.8733 45.0755C49.3405 43.9225 50.9326 42.873 52.1606 41.4451C52.1729 41.4328 52.1798 41.4161 52.1798 41.3987C52.1798 41.3813 52.1729 41.3646 52.1606 41.3523C52.1483 41.3399 52.1316 41.333 52.1142 41.333C52.0968 41.333 52.0801 41.34 52.0678 41.3523Z" fill="#ADADAD"/>
<path d="M38.192 23.2145C39.0166 23.6678 39.9448 23.882 40.773 24.3247C41.6425 24.8388 42.4216 25.4925 43.079 26.2595C43.7383 26.9938 44.4366 27.692 45.1709 28.3514C45.8927 28.9809 46.6638 29.5515 47.4769 30.0577C48.4022 30.6417 49.3842 31.1309 50.4077 31.5177C50.5791 31.582 50.6969 31.2928 50.5326 31.2214C48.7084 30.4744 47.0087 29.4536 45.4922 28.1943C44.7562 27.5368 44.0578 26.8384 43.4003 26.1024C42.7802 25.3971 42.0583 24.7883 41.2584 24.2961C40.316 23.7678 39.2237 23.6036 38.2599 23.1181C38.2206 23.0788 38.1635 23.1645 38.1992 23.1788L38.192 23.2145Z" fill="#ADADAD"/>
<path d="M39.6491 37.6007C41.1309 36.1208 42.8191 34.8632 44.6611 33.8668C45.5856 33.3669 46.5475 32.9396 47.5383 32.5888C48.5235 32.239 49.5338 32.0212 50.5333 31.7356C50.7403 31.6785 50.7118 31.3215 50.4833 31.3501C49.4355 31.5114 48.4108 31.7978 47.4312 32.2033C46.4365 32.5822 45.4691 33.0295 44.5361 33.5419C42.6502 34.5526 40.9582 35.8893 39.5385 37.4901C39.5301 37.5045 39.5267 37.5213 39.5289 37.5379C39.531 37.5545 39.5386 37.5698 39.5504 37.5817C39.5622 37.5935 39.5776 37.601 39.5942 37.6032C39.6107 37.6054 39.6276 37.602 39.642 37.5936L39.6491 37.6007Z" fill="#ADADAD"/>
<path d="M21.9996 35.4659C27.7707 33.2692 33.8468 31.9784 40.0125 31.6391C46.1974 31.313 52.3991 31.7264 58.486 32.8707C60.2423 33.1991 62.0164 33.5454 63.7299 34.0523C64.5991 34.2999 65.4546 34.5931 66.293 34.9304C67.0962 35.2624 67.853 35.6694 68.6312 36.0549C68.8097 36.1406 69.0346 35.8943 68.8596 35.755C67.6674 34.8055 66.1217 34.2736 64.6866 33.8167C63.1187 33.3241 61.524 32.9213 59.9103 32.6101C56.8585 32.0019 53.7755 31.5622 50.6754 31.2929C44.4343 30.7064 38.1414 31.0153 31.9877 32.2103C28.5469 32.8974 25.1856 33.9356 21.9567 35.3088C21.8782 35.3445 21.9317 35.4837 22.0138 35.4516L21.9996 35.4659Z" fill="#ADADAD"/>
<path d="M39.7558 23.8214C38.9902 23.4244 38.1996 23.0774 37.3891 22.7826C36.5966 22.4684 35.7898 22.1757 34.9688 21.9401C33.6516 21.5582 32.1023 21.0513 30.7315 21.4439C30.4995 21.5118 30.2139 21.6403 30.3317 21.9366C30.5392 22.2309 30.8283 22.458 31.1634 22.5898C32.1576 23.063 33.2123 23.397 34.2977 23.5822C36.0738 24.0027 37.9073 24.1257 39.7237 23.9463C39.9415 23.9213 39.9415 23.5786 39.7273 23.6072C38.2702 23.7862 36.795 23.7538 35.3472 23.5108C34.6118 23.3894 33.8836 23.2252 33.1554 23.0539C32.7263 22.9616 32.305 22.8363 31.8953 22.6791C31.5391 22.54 31.1962 22.3691 30.8707 22.1686C30.7351 22.1024 30.6184 22.0029 30.5316 21.8795C30.4531 21.6938 30.7387 21.6724 30.8672 21.6224C32.1487 21.2904 33.5837 21.7616 34.8082 22.0865C35.6292 22.315 36.436 22.6005 37.2356 22.9075C38.0352 23.2145 38.8705 23.6358 39.7201 23.9071C39.7487 23.9356 39.7808 23.8464 39.7487 23.8285L39.7558 23.8214Z" fill="#ADADAD"/>
<path d="M41.9086 24.3319C41.2232 22.6185 39.7382 21.3405 38.271 20.2874C36.6075 19.0951 34.737 18.1099 33.2127 16.6998C32.7986 16.2857 32.0382 15.6182 32.538 14.9828C33.0378 14.3474 34.0801 14.8685 34.6335 15.1291C36.4933 16.0251 37.8212 17.6529 39.0349 19.295C39.585 20.0802 40.0595 20.9157 40.4521 21.7903C40.8106 22.6922 41.2391 23.5647 41.7337 24.3998C41.8229 24.489 41.9943 24.4462 41.9514 24.3105C41.6418 23.4509 41.2708 22.6146 40.8412 21.8081C40.4578 20.9543 40.0078 20.1319 39.4954 19.3486C38.9008 18.4928 38.2446 17.6815 37.5321 16.9211C36.8071 16.1164 35.9469 15.4446 34.9904 14.9364C34.3514 14.6044 33.4911 14.151 32.7558 14.4295C32.5201 14.5179 32.3224 14.6856 32.1967 14.9038C32.0711 15.122 32.0251 15.377 32.0668 15.6253C32.128 15.9398 32.2808 16.2291 32.5059 16.4571C32.8955 16.8644 33.3156 17.2415 33.7624 17.5851C34.6198 18.2452 35.5111 18.86 36.4326 19.4271C37.4868 20.0715 38.4959 20.7871 39.4526 21.569C40.3846 22.3628 41.1721 23.3121 41.7801 24.3748C41.8301 24.4248 41.93 24.3962 41.9015 24.3248L41.9086 24.3319Z" fill="#ADADAD"/>
<path d="M41.2512 23.2965C41.4766 24.1937 41.9375 25.0145 42.5862 25.674C42.9075 26.0666 43.2574 26.4664 43.6143 26.8448C43.7964 27.0269 43.9713 27.2018 44.1641 27.3946C44.325 27.5918 44.5166 27.7617 44.7317 27.8979C44.7596 27.914 44.792 27.9204 44.8239 27.9161C44.8558 27.9119 44.8854 27.8973 44.9082 27.8745C44.9309 27.8518 44.9456 27.8221 44.9498 27.7902C44.954 27.7583 44.9476 27.7259 44.9316 27.698C44.8018 27.5014 44.6429 27.3257 44.4604 27.1768L43.9106 26.6271C43.5536 26.2701 43.2502 25.9238 42.9325 25.5633C42.6148 25.2028 42.3185 24.8636 42.0472 24.4852C41.7978 24.0887 41.5896 23.6677 41.4261 23.2287C41.3832 23.1216 41.2369 23.2037 41.2512 23.2965Z" fill="#ADADAD"/>
<path d="M47.5093 26.8487C47.2273 25.0317 46.2563 23.2826 45.2497 21.7761C44.1681 20.224 42.9674 18.7584 41.6585 17.3925C41.248 16.9819 40.766 16.2216 40.9731 15.6076C41.0541 15.4494 41.1853 15.3226 41.3462 15.247C41.5071 15.1714 41.6885 15.1513 41.862 15.1899C42.2851 15.2661 42.6715 15.4793 42.9614 15.7968C43.6287 16.3996 44.2295 17.0722 44.7535 17.803C45.3304 18.6501 45.8185 19.5545 46.2099 20.5017C46.6136 21.4249 46.9187 22.3881 47.1202 23.3754C47.3087 24.3843 47.3388 25.4164 47.2094 26.4346C47.188 26.5988 47.4557 26.631 47.4914 26.4739C47.927 24.6105 47.4058 22.59 46.7025 20.8373C46.3309 19.8526 45.8634 18.9068 45.3068 18.0136C44.752 17.1842 44.1079 16.4181 43.3862 15.729C42.8365 15.1792 42.1547 14.6759 41.3551 14.9043C41.2166 14.9399 41.0874 15.0045 40.9757 15.0937C40.8641 15.183 40.7727 15.2949 40.7076 15.4222C40.6425 15.5494 40.6051 15.689 40.5979 15.8317C40.5908 15.9744 40.614 16.1171 40.6661 16.2502C40.8446 17.0498 41.4407 17.6174 41.9583 18.1849C42.6687 18.9667 43.3648 19.7628 44.0216 20.5981C44.7555 21.5243 45.4156 22.5066 45.9957 23.536C46.5588 24.6077 47.0293 25.7255 47.4022 26.8773C47.4041 26.8853 47.4075 26.8928 47.4123 26.8994C47.4171 26.9061 47.4231 26.9117 47.4301 26.916C47.437 26.9203 47.4448 26.9232 47.4529 26.9245C47.4609 26.9259 47.4692 26.9256 47.4772 26.9237C47.4851 26.9218 47.4927 26.9184 47.4993 26.9136C47.506 26.9088 47.5116 26.9028 47.5159 26.8958C47.5202 26.8889 47.5231 26.8811 47.5244 26.873C47.5257 26.865 47.5255 26.8567 47.5236 26.8487L47.5093 26.8487Z" fill="#ADADAD"/>
<path d="M47.252 26.2559C47.2609 26.8893 47.4187 27.5117 47.7125 28.0729C47.9764 28.6746 48.3224 29.2368 48.7406 29.7435C49.152 30.2373 49.626 30.6753 50.1507 31.0465C50.6524 31.469 51.255 31.7543 51.8998 31.8747C52.0498 31.8818 52.0748 31.6997 51.9677 31.6212C51.7184 31.4647 51.4555 31.3309 51.1823 31.2214C50.3464 30.7935 49.6057 30.201 49.0048 29.4794C48.6126 29.0152 48.2793 28.5045 48.0124 27.9587C47.8635 27.6623 47.7359 27.3557 47.6304 27.0412C47.5611 26.7643 47.4764 26.4914 47.377 26.2238C47.3484 26.1524 47.2556 26.1952 47.252 26.2559Z" fill="#ADADAD"/>
<path d="M39.8233 37.2758C38.6275 37.9076 37.4994 38.6573 36.35 39.3712C35.325 39.9766 34.3444 40.6542 33.4156 41.3988C32.9131 41.8144 32.4624 42.2891 32.0734 42.8125C31.795 43.2051 31.4487 43.7585 31.6165 44.2618C31.7842 44.7651 32.4661 44.9472 32.9444 44.9186C33.4621 44.8537 33.9516 44.6461 34.358 44.3189C35.5507 43.37 36.594 42.2473 37.453 40.9883C38.3347 39.8139 39.1344 38.593 39.9518 37.3757C39.9641 37.3524 39.9677 37.3255 39.9619 37.2998C39.9561 37.2741 39.9415 37.2513 39.9204 37.2355C39.8994 37.2196 39.8735 37.2117 39.8472 37.2132C39.8209 37.2147 39.796 37.2255 39.7769 37.2437C39.0416 38.0861 38.4525 39.0535 37.785 39.9495C36.9527 41.1764 36.0086 42.3236 34.9649 43.3765C34.3081 44.0333 33.0694 45.0935 32.0805 44.3974C31.6272 44.0797 31.9627 43.4657 32.209 43.0981C32.5615 42.5782 32.9817 42.1076 33.4585 41.6987C34.3564 40.9544 35.3152 40.2869 36.325 39.7032C37.5173 38.9464 38.7346 38.2218 39.8769 37.3865C39.9268 37.3365 39.8876 37.2472 39.8198 37.2865L39.8233 37.2758Z" fill="#ADADAD"/>
<path d="M39.4776 36.0227C40.2357 35.8829 40.9782 35.6689 41.6944 35.3837C42.3874 35.1431 43.0371 34.7923 43.6185 34.3449C43.672 34.2913 43.6042 34.2092 43.5328 34.2592C42.257 35.0044 40.8733 35.5475 39.4312 35.8692C39.3277 35.887 39.3705 36.0441 39.474 36.0262L39.4776 36.0227Z" fill="#ADADAD"/>
<path d="M40.2553 35.7089C39.281 35.7523 38.3051 35.744 37.3317 35.6839C36.3358 35.6496 35.3408 35.7725 34.3831 36.048C33.3925 36.3524 32.4269 36.7331 31.4952 37.1868C30.5898 37.5313 29.7631 38.0546 29.0642 38.7253C28.7072 39.0823 28.1575 39.7962 28.4288 40.3388C28.6144 40.7101 29.1034 40.6208 29.4319 40.5423C29.9591 40.3908 30.4679 40.1812 30.949 39.9176C31.5416 39.6177 32.1306 39.3072 32.7267 39.0038C33.8262 38.4326 34.9257 37.8614 36.0502 37.3295C37.2014 36.8041 38.3799 36.3406 39.5807 35.9409C39.6046 35.9313 39.6243 35.9132 39.6359 35.8901C39.6475 35.8671 39.6503 35.8405 39.6437 35.8155C39.6371 35.7905 39.6217 35.7688 39.6002 35.7544C39.5787 35.74 39.5527 35.734 39.5271 35.7374C38.5815 35.9412 37.6627 36.2538 36.7891 36.6691C35.8824 37.0689 34.9971 37.5187 34.1154 37.9721C32.8553 38.6182 31.613 39.325 30.3529 39.9212C29.9258 40.1829 29.4396 40.3327 28.9392 40.3567C28.2289 40.296 28.9285 39.2679 29.1391 39.0145C29.7601 38.3559 30.5181 37.8416 31.3595 37.508C32.2576 37.0644 33.1828 36.6781 34.1297 36.3514C35.1655 36.0163 36.2504 35.8582 37.3389 35.8838C38.3027 35.9124 39.3165 36.048 40.2839 35.7946C40.3339 35.7803 40.3267 35.6946 40.2732 35.6982L40.2553 35.7089Z" fill="#ADADAD"/>
<path d="M41.9262 37.0939C42.8186 36.2371 43.6968 35.3661 44.657 34.5844C45.6525 33.8055 46.6944 33.0878 47.777 32.4354C47.8006 32.4221 47.8181 32.4 47.8254 32.3739C47.8328 32.3478 47.8295 32.3198 47.8163 32.2961C47.803 32.2725 47.7809 32.2551 47.7548 32.2477C47.7287 32.2403 47.7007 32.2436 47.677 32.2569C46.5709 32.8384 45.5267 33.531 44.5606 34.3238C43.5426 35.0979 42.6253 35.9961 41.8298 36.9975C41.8221 37.011 41.8191 37.0266 41.8212 37.0419C41.8232 37.0573 41.8303 37.0715 41.8412 37.0824C41.8522 37.0934 41.8664 37.1004 41.8818 37.1025C41.8971 37.1046 41.9127 37.1015 41.9262 37.0939Z" fill="#ADADAD"/>
<path d="M42.4581 36.2475C41.7913 37.0297 41.0696 37.7634 40.2984 38.4429C39.5706 39.1311 38.9052 39.8825 38.3101 40.6883C37.7127 41.4943 37.1905 42.3535 36.7501 43.2549C36.3801 43.8656 36.1271 44.5399 36.004 45.2433C35.979 45.6467 36.1932 46.1107 36.6644 45.9679C37.0867 45.7779 37.4485 45.4753 37.7103 45.0933C38.6894 43.899 39.4946 42.5722 40.1021 41.1524C40.4162 40.4241 40.7196 39.6852 41.0695 38.9712C41.5231 38.0671 42.0285 37.1899 42.583 36.3439C42.5973 36.3297 42.6052 36.3104 42.6052 36.2903C42.6052 36.2703 42.5973 36.251 42.583 36.2368C42.5688 36.2226 42.5496 36.2146 42.5295 36.2146C42.5094 36.2146 42.4902 36.2226 42.476 36.2368C41.5479 37.4306 40.7921 38.7488 40.2306 40.1528C39.7001 41.4072 39.0623 42.6135 38.3243 43.7583C37.9959 44.2849 37.6143 44.7765 37.1856 45.2254C36.9571 45.4539 36.3681 46.0001 36.3467 45.3504C36.3554 45.0221 36.4345 44.6994 36.5787 44.4044C36.7251 44.0653 36.8786 43.7261 37.0392 43.3942C37.888 41.6256 39.0503 40.0254 40.4698 38.6714C41.2618 37.9701 41.9741 37.1835 42.5937 36.326C42.6544 36.2654 42.5224 36.1547 42.4795 36.2118L42.4581 36.2475Z" fill="#ADADAD"/>
<path d="M35.7973 29.051C36.7772 29.7761 37.8286 30.3993 38.9351 30.9108C39.4144 31.1111 39.9133 31.2606 40.4237 31.3571C40.9206 31.4951 41.4435 31.511 41.948 31.4035C42.0515 31.3642 42.08 31.1929 41.948 31.1679C41.7103 31.1498 41.4716 31.1498 41.234 31.1679C40.9526 31.1578 40.6723 31.1279 40.3951 31.0786C39.897 30.9827 39.4093 30.8393 38.9387 30.6503C37.8461 30.193 36.802 29.6273 35.8223 28.9618C35.7759 28.9153 35.7187 29.0153 35.7723 29.0546L35.7973 29.051Z" fill="#ADADAD"/>
<path d="M36.4643 29.2687C34.8987 28.4602 33.2359 27.8556 31.5167 27.4695C29.9523 27.0821 28.332 26.9722 26.7296 27.1447C26.2334 27.2054 24.8305 27.6159 24.7377 26.752C24.6449 25.8882 25.8658 25.4241 26.4976 25.2634C28.1361 24.8458 29.9531 25.4634 31.4381 26.1416C32.3366 26.5682 33.2059 27.0535 34.0405 27.5945C34.9935 28.1642 35.8561 28.8728 36.6 29.6971C36.7428 29.8399 36.957 29.6257 36.8213 29.4757C36.1427 28.7161 35.3589 28.0573 34.4938 27.5195C33.6604 26.9599 32.7884 26.4601 31.8843 26.0238C30.3458 25.2991 28.4967 24.6494 26.7796 24.96C26.0061 25.0642 25.2968 25.4461 24.7841 26.0345C24.4307 26.5164 24.4735 27.1518 25.0697 27.391C25.3492 27.4883 25.6483 27.5153 25.9407 27.4695C26.3976 27.4053 26.8439 27.3232 27.3044 27.2911C28.2471 27.2303 29.1936 27.2698 30.128 27.4089C31.1973 27.5701 32.2508 27.8233 33.2765 28.1657C34.3475 28.5226 35.3756 28.9581 36.4286 29.3472C36.4608 29.3794 36.4965 29.2794 36.4608 29.2651L36.4643 29.2687Z" fill="#ADADAD"/>
<path d="M27.9368 30.3859C28.6008 30.4716 29.2683 30.5608 29.918 30.7108C30.5863 30.8959 31.2401 31.1297 31.8742 31.4104C32.4721 31.659 33.0959 31.8398 33.734 31.9495C34.3283 32.0772 34.9415 32.0893 35.5403 31.9852C35.6546 31.9566 35.6224 31.8031 35.5153 31.7888C35.2155 31.7674 34.9121 31.8138 34.6122 31.7995C34.2674 31.789 33.9237 31.7532 33.5841 31.6925C32.9439 31.5579 32.3186 31.3606 31.7171 31.1034C31.1173 30.8456 30.4962 30.6401 29.8609 30.4895C29.2334 30.3697 28.5992 30.2886 27.9618 30.2467C27.8797 30.2431 27.844 30.3645 27.9403 30.3895L27.9368 30.3859Z" fill="#ADADAD"/>
<path d="M29.0931 30.3505C26.0874 29.7865 22.9603 29.5795 20.1866 31.0895C19.7511 31.3251 19.1085 31.7892 19.1442 32.3603C19.1692 32.7137 19.5547 32.7708 19.8403 32.7637C20.2974 32.7307 20.7517 32.6675 21.2004 32.5745C22.0491 32.4157 22.8872 32.2047 23.7099 31.9427C24.5845 31.6821 25.4484 31.3822 26.3266 31.1323C27.2047 30.8824 28.1686 30.7182 29.1074 30.529C29.2502 30.5005 29.2109 30.2899 29.0753 30.2899C28.3684 30.3006 27.6665 30.4111 26.9905 30.6183C26.2802 30.8075 25.5841 31.0395 24.8951 31.2858C23.5431 31.7604 22.1624 32.1491 20.7613 32.4496C20.3723 32.5823 19.9563 32.6155 19.5512 32.5459C19.2977 32.4567 19.3834 32.2282 19.4941 32.039C19.6947 31.725 19.9842 31.4777 20.3258 31.3287C21.6072 30.6754 23.0096 30.2938 24.4453 30.2078C25.995 30.2023 27.5436 30.2917 29.0824 30.4755C29.1502 30.4862 29.1752 30.3827 29.1003 30.3577L29.0931 30.3505Z" fill="#ADADAD"/>
<path d="M33.3233 34.2449C33.9264 33.9876 34.5481 33.7764 35.1832 33.6131C35.8079 33.4525 36.4433 33.324 37.0537 33.1133C37.6422 32.8923 38.2178 32.6384 38.7779 32.353C39.0742 32.2066 39.3705 32.0674 39.6668 31.9282C39.9892 31.8196 40.2883 31.6513 40.5485 31.432C40.5624 31.4168 40.5719 31.3979 40.5757 31.3776C40.5796 31.3573 40.5777 31.3364 40.5703 31.3171C40.5629 31.2978 40.5502 31.2809 40.5337 31.2685C40.5173 31.256 40.4977 31.2483 40.4771 31.2464C40.1921 31.3001 39.9204 31.4093 39.6775 31.5676L38.7315 32.0496C38.1147 32.3895 37.474 32.6842 36.8145 32.9313C36.222 33.1312 35.6079 33.2668 35.0082 33.4525C34.4076 33.6431 33.8237 33.8831 33.2626 34.17C33.2198 34.2128 33.2555 34.2842 33.3126 34.2557L33.3233 34.2449Z" fill="#ADADAD"/>
<path d="M34.3299 33.7166C34.0479 33.9986 33.4982 33.9486 33.1198 34.0129C32.7414 34.0771 32.3202 34.1557 31.9275 34.2485C31.1731 34.431 30.4323 34.666 29.7107 34.9517C28.25 35.4729 26.8712 36.2002 25.6162 37.1114C25.1823 37.4021 24.8542 37.8254 24.6809 38.318C24.5917 38.6571 24.6809 39.0319 25.0415 39.1141C25.2809 39.1486 25.5251 39.1048 25.7376 38.9891C26.1189 38.8095 26.4864 38.6019 26.837 38.368C27.5224 37.9253 28.1579 37.4184 28.829 36.9615C29.5858 36.4403 30.4032 36.0012 31.1921 35.5407C31.9811 35.0802 32.9163 34.6162 33.7409 34.1057C33.8159 34.0307 33.7766 33.8701 33.666 33.9165C32.9864 34.2117 32.3301 34.5577 31.7026 34.9517C31.0351 35.3408 30.364 35.7549 29.7071 36.1333C28.4684 36.8651 27.3904 37.8432 26.1481 38.5643C25.8518 38.7392 25.452 39.0177 25.0772 38.9213C24.7023 38.8249 24.8166 38.5108 24.9022 38.268C25.1839 37.702 25.6325 37.236 26.1874 36.9329C26.8058 36.5311 27.4537 36.1766 28.1257 35.8727C28.779 35.5693 29.443 35.2694 30.1141 35.0053C30.84 34.7299 31.5844 34.5057 32.3416 34.3342C32.72 34.2485 33.0984 34.1842 33.4839 34.12C33.8143 34.1174 34.1301 33.9839 34.3621 33.7487C34.3678 33.743 34.3709 33.7353 34.3709 33.7273C34.3709 33.7193 34.3678 33.7116 34.3621 33.7059C34.3564 33.7002 34.3487 33.697 34.3407 33.697C34.3326 33.697 34.3249 33.7002 34.3192 33.7059L34.3299 33.7166Z" fill="#ADADAD"/>
<path d="M23.3419 34.716C21.9818 34.9695 20.6396 35.2765 19.2723 35.5156C17.9642 35.7094 16.6795 36.0372 15.4384 36.4938C14.2641 36.9711 13.1566 37.5987 12.1436 38.3607C11.6509 38.732 11.169 39.1211 10.7121 39.5352C10.3936 39.802 10.1252 40.1236 9.91961 40.4847C9.86276 40.5697 9.82759 40.6672 9.81714 40.7689C9.8067 40.8706 9.8213 40.9733 9.85968 41.068C9.89807 41.1627 9.95905 41.2466 10.0373 41.3123C10.1156 41.378 10.2088 41.4236 10.3087 41.445C10.9346 41.5607 11.5806 41.4925 12.1685 41.2487C12.903 40.9656 13.6025 40.5991 14.2533 40.1563C15.1065 39.6316 15.9453 39.0854 16.7914 38.5535C17.873 37.8717 18.9618 37.2041 20.0791 36.5794C21.1964 35.9547 22.2959 35.4407 23.4168 34.9195C23.5239 34.8695 23.449 34.6946 23.3383 34.7267C21.3999 35.3443 19.6043 36.4759 17.8837 37.5325C16.313 38.5035 14.7923 39.5459 13.2002 40.4812C12.5874 40.8648 11.902 41.1176 11.1869 41.2237C10.8942 41.2594 10.0231 41.3379 10.0874 40.8381C10.1905 40.5034 10.3935 40.2081 10.6693 39.9921C11.0766 39.599 11.5082 39.2318 11.9615 38.8926C12.9392 38.1323 14.0032 37.4901 15.1314 36.9792C16.4045 36.4482 17.7375 36.0741 19.101 35.8655C20.5415 35.6296 21.967 35.3102 23.3704 34.9088C23.3922 34.8991 23.4099 34.8819 23.4202 34.8604C23.4306 34.8389 23.433 34.8144 23.427 34.7913C23.421 34.7682 23.407 34.7479 23.3875 34.7341C23.368 34.7204 23.3442 34.7139 23.3204 34.716L23.3419 34.716Z" fill="#ADADAD"/>
<path d="M13.4108 32.6815C15.5669 33.0385 17.6053 33.8702 19.7435 34.3021C20.5692 34.486 21.4149 34.564 22.2602 34.5342C23.0348 34.4735 23.8345 34.3878 24.6127 34.2736C25.4156 34.188 26.2083 34.0242 26.9794 33.7845C27.0086 33.7735 27.0327 33.752 27.047 33.7242C27.0614 33.6965 27.0648 33.6644 27.0569 33.6342C27.0489 33.604 27.0299 33.5778 27.0038 33.5607C26.9776 33.5437 26.946 33.5369 26.9152 33.5418C25.448 33.7881 23.988 34.0773 22.5065 34.2022C20.6288 34.3593 18.7761 33.8274 16.977 33.3419C15.8197 32.9981 14.6417 32.7287 13.4501 32.5351C13.3573 32.5209 13.318 32.6672 13.4144 32.6779L13.4108 32.6815Z" fill="#ADADAD"/>
<path d="M15.5493 32.992C14.5558 32.5592 13.5379 32.185 12.5007 31.8711C11.5227 31.5183 10.5174 31.2461 9.49499 31.0571C8.03708 30.7912 6.53355 30.9473 5.16131 31.5069C4.74722 31.6783 2.91951 32.4065 3.61205 33.1062C3.88532 33.3216 4.2244 33.4363 4.5723 33.431C4.97182 33.475 5.37339 33.4976 5.77531 33.4989C6.67053 33.4934 7.5646 33.4338 8.45262 33.3204C10.454 33.0355 12.4689 32.8556 14.4891 32.7813C14.6033 32.7813 14.5926 32.6278 14.4926 32.6136C12.9362 32.4208 11.3084 32.7349 9.76629 32.942C8.15092 33.2252 6.51183 33.3508 4.87217 33.3168C4.49734 33.2918 3.93332 33.2847 3.68701 32.9527C3.55136 32.7742 3.65132 32.6029 3.79054 32.4636C4.19174 32.1349 4.65394 31.8886 5.15061 31.739C6.43572 31.2363 7.82855 31.0728 9.19513 31.2642C10.2456 31.4356 11.2789 31.6996 12.283 32.0531C13.3347 32.4652 14.4071 32.8227 15.4957 33.124C15.5814 33.1454 15.6457 33.0169 15.5564 32.9777L15.5493 32.992Z" fill="#ADADAD"/>
<path d="M13.722 31.0072C15.0286 31.4713 16.1137 32.3138 17.2632 33.0634C17.7797 33.4052 18.3257 33.7003 18.8946 33.9451C19.1636 34.0558 19.4404 34.1465 19.7228 34.2164C19.989 34.3063 20.2725 34.3332 20.5509 34.295C20.6116 34.2771 20.6331 34.1772 20.5688 34.1486C20.2987 34.056 20.0201 33.9902 19.737 33.9523C19.437 33.8729 19.1424 33.7739 18.8553 33.656C18.2604 33.399 17.6852 33.0983 17.1347 32.7564C16.0732 32.029 14.9362 31.4186 13.7434 30.9358C13.7113 30.9037 13.6828 30.9965 13.722 31.0072Z" fill="#ADADAD"/>
<path d="M14.304 31.1324C13.1082 30.3935 11.8231 29.8651 10.5701 29.2333C9.51897 28.6295 8.33024 28.3062 7.11812 28.2944C6.71993 28.2672 6.32407 28.374 5.99365 28.5979C5.86551 28.7279 5.79397 28.9033 5.79464 29.0859C5.79531 29.2684 5.86812 29.4433 5.99722 29.5724C6.2048 29.7431 6.44729 29.8662 6.70759 29.933C7.01719 30.0452 7.33305 30.1394 7.65358 30.215C8.30433 30.3582 8.96204 30.4679 9.62408 30.5434C10.4308 30.6362 11.2269 30.7183 12.0408 30.8183C12.8547 30.9182 13.5258 31.111 14.2683 31.2752C14.3933 31.3002 14.4825 31.1181 14.3576 31.0574C13.3259 30.5755 12.0801 30.5148 10.9627 30.397C9.72488 30.3168 8.49604 30.1317 7.28946 29.8437C6.92178 29.7402 5.79731 29.4582 6.11502 28.8763C6.30065 28.5408 6.91822 28.5443 7.22522 28.5586C8.35669 28.5928 9.4639 28.895 10.4558 29.4403C11.7195 30.0472 13.0118 30.5684 14.2505 31.2288C14.2637 31.2364 14.2795 31.2384 14.2942 31.2343C14.3089 31.2303 14.3214 31.2206 14.329 31.2074C14.3366 31.1941 14.3386 31.1784 14.3346 31.1637C14.3306 31.1489 14.3208 31.1364 14.3076 31.1288L14.304 31.1324Z" fill="#ADADAD"/>
<path d="M23.6597 37.2402C25.0151 35.6983 26.6126 34.3877 28.3896 33.3598C28.4932 33.2992 28.4253 33.1171 28.3075 33.1564C27.4573 33.4837 26.6735 33.9627 25.9943 34.57C25.0935 35.3344 24.2751 36.1911 23.5526 37.1259C23.4884 37.1902 23.5883 37.2973 23.6526 37.2259L23.6597 37.2402Z" fill="#ADADAD"/>
<path d="M23.528 37.2652C22.4761 38.4493 21.6552 39.8199 21.1077 41.3061C20.5223 42.8625 20.1082 44.4475 19.1372 45.8254C18.8409 46.2431 18.234 47.0641 17.6308 47.0177C17.0275 46.9713 17.3202 45.9932 17.4344 45.6505C17.9257 44.1868 18.6674 42.8196 19.6262 41.6095C20.8415 40.0875 22.1735 38.6624 23.6101 37.3473C23.6779 37.2794 23.5815 37.1902 23.5101 37.2473C22.0209 38.5056 20.6699 39.9189 19.4799 41.4632C18.4704 42.6855 17.6871 44.0781 17.1667 45.5755C17.0168 46.011 16.8097 46.6465 17.1167 47.0534C17.4237 47.4604 18.002 47.2962 18.3697 47.0498C18.9742 46.5926 19.4673 46.0043 19.8119 45.3292C20.2387 44.545 20.5856 43.7198 20.8471 42.8661C21.1348 41.8936 21.4915 40.9428 21.9145 40.021C22.3806 39.0664 22.9415 38.1611 23.5887 37.3187C23.6279 37.2794 23.5637 37.208 23.5244 37.2545L23.528 37.2652Z" fill="#ADADAD"/>
<path d="M21.9639 38.6932C21.4856 38.9288 21.0394 39.1965 20.536 39.4499C20.0327 39.7034 19.5079 39.9211 18.976 40.1318C18.0193 40.5173 17.0484 40.8743 16.1274 41.3455C15.1669 41.8073 14.3059 42.4525 13.5929 43.2446C13.1086 43.7006 12.7497 44.2734 12.5505 44.9081C12.4898 45.3043 12.6719 45.6363 13.0967 45.5399C13.5828 45.375 14.0307 45.114 14.4139 44.7724C15.1064 44.2441 15.7883 43.6908 16.4772 43.1589C17.2376 42.5699 18.0015 41.9845 18.7619 41.3883C19.7043 40.6529 20.686 39.9497 21.5784 39.1501C21.5935 39.1349 21.602 39.1144 21.602 39.093C21.602 39.0715 21.5935 39.051 21.5784 39.0358C21.5632 39.0207 21.5427 39.0122 21.5213 39.0122C21.4998 39.0122 21.4793 39.0207 21.4642 39.0358C20.6681 39.5606 19.9327 40.1675 19.1795 40.7493C18.4977 41.2812 17.823 41.8131 17.1448 42.3486C16.4665 42.884 15.7169 43.4695 14.9958 44.0264C14.5924 44.3369 14.1961 44.6546 13.7606 44.9331C13.6 45.0366 12.8539 45.5756 12.7825 45.1972C12.7796 44.868 12.8977 44.5491 13.1145 44.3012C13.3013 44.0299 13.5027 43.7689 13.7178 43.5194C14.3971 42.7472 15.222 42.1164 16.1452 41.6632C17.1198 41.1527 18.1514 40.7708 19.1688 40.3531C20.2016 40.0113 21.1651 39.4879 22.0139 38.8074C22.0234 38.7979 22.0287 38.7851 22.0287 38.7717C22.0287 38.7583 22.0234 38.7455 22.0139 38.736C22.0044 38.7265 21.9916 38.7212 21.9782 38.7212C21.9648 38.7212 21.952 38.7265 21.9425 38.736L21.9639 38.6932Z" fill="#ADADAD"/>
</g>
<defs>
<clipPath id="clip0_5940_3336">
<rect width="49.7064" height="46.5714" fill="white" transform="translate(36.0684 68.8252) rotate(-135)"/>
</clipPath>
</defs>
</svg>
