<svg width="69" height="69" viewBox="0 0 69 69" fill="none" xmlns="http://www.w3.org/2000/svg">
<g clip-path="url(#clip0_5940_24060)">
<path d="M13.2969 33.4343C14.2072 33.4807 15.0568 33.8805 15.9563 33.9519C16.8708 34.0038 17.7879 33.9172 18.6765 33.6949C20.1813 33.2902 21.6035 32.6244 22.8781 31.7279C23.334 31.4911 23.7222 31.1423 24.0061 30.7141C24.2096 30.3036 23.8669 30.0252 23.4707 30.0002C22.8451 30.026 22.231 30.1765 21.6644 30.4428C20.8384 30.7616 20.0294 31.1226 19.2405 31.5245C17.3985 32.4597 15.4352 33.4878 13.279 33.2023C13.1148 33.1808 13.0756 33.47 13.2433 33.495C14.8426 33.7306 16.3811 33.213 17.8233 32.5561C19.2589 31.8062 20.7356 31.1376 22.2462 30.5535C22.4568 30.4857 23.6884 30.0537 23.7384 30.4892C23.7527 30.6392 23.5421 30.8212 23.4457 30.9105C23.2435 31.0972 23.0262 31.2667 22.796 31.4174C21.6366 32.2505 20.3521 32.8939 18.9906 33.3236C18.0327 33.6046 17.0362 33.7311 16.0384 33.6984C15.0996 33.6592 14.2179 33.2701 13.2647 33.3236C13.2565 33.3239 13.2485 33.3257 13.241 33.3291C13.2335 33.3324 13.2267 33.3372 13.2211 33.3432C13.2155 33.3491 13.2111 33.3562 13.2081 33.3638C13.2052 33.3715 13.2038 33.3797 13.2041 33.3879C13.2043 33.3961 13.2061 33.4042 13.2095 33.4116C13.2128 33.4191 13.2177 33.4259 13.2236 33.4315C13.2296 33.4372 13.2366 33.4416 13.2443 33.4445C13.2519 33.4474 13.2601 33.4488 13.2683 33.4486L13.2969 33.4343Z" fill="#83C5A5"/>
<path d="M13.2974 33.2915C12.048 33.0059 10.9557 33.5985 9.83121 34.0518C9.21007 34.3017 8.58179 34.5373 7.94281 34.7336C7.25484 34.9341 6.54537 35.0515 5.82951 35.0835C5.70814 35.0906 5.66174 35.2869 5.80096 35.3119C7.0825 35.5226 8.41045 34.93 9.57776 34.4695C10.7451 34.009 11.9445 33.2236 13.2653 33.4235C13.351 33.4378 13.3831 33.3057 13.2974 33.2915Z" fill="#83C5A5"/>
<path d="M15.9285 31.6387C15.1026 32.1336 14.2021 32.4916 13.2619 32.6989C12.8186 32.7966 12.3822 32.923 11.9554 33.0773C11.7519 33.1522 11.5591 33.2451 11.3663 33.3379C11.1833 33.4043 11.0209 33.5176 10.8951 33.6663C10.8878 33.6791 10.8838 33.6936 10.8837 33.7084C10.8836 33.7232 10.8873 33.7378 10.8945 33.7507C10.9017 33.7636 10.9121 33.7745 10.9247 33.7822C10.9373 33.7899 10.9517 33.7943 10.9665 33.7948C11.1539 33.7472 11.3307 33.6649 11.4877 33.5521C11.6912 33.4414 11.9054 33.3414 12.116 33.2451C12.5537 33.054 13.0093 32.9069 13.4761 32.806C14.3629 32.607 15.1998 32.2292 15.9356 31.6958C15.957 31.6744 15.9392 31.6351 15.9035 31.6637L15.9285 31.6387Z" fill="#83C5A5"/>
<path d="M15.2673 32.1348C18.3659 30.6784 22.1677 29.6253 24.0454 26.5196C24.3095 26.0698 25.2448 24.6062 24.538 24.1565C23.9954 23.828 23.4206 24.3814 23.0887 24.749C22.3676 25.5487 21.543 26.259 20.7648 27.0015C19.9044 27.8618 19.0441 28.7222 18.1624 29.5611C17.227 30.4348 16.2438 31.2559 15.2174 32.0206C15.1353 32.1027 15.2031 32.2491 15.3137 32.1884C17.0415 31.2246 18.4551 29.7181 19.8652 28.3509C20.5791 27.637 21.343 26.9159 22.0891 26.2055C22.414 25.8807 22.7602 25.5772 23.0779 25.2524C23.3056 24.9529 23.5805 24.6925 23.8918 24.4813C24.0489 24.4028 24.3452 24.3278 24.4594 24.5134C24.5737 24.6991 24.4809 24.8775 24.4416 25.0168C24.2989 25.489 24.0897 25.9385 23.8204 26.3519C23.1385 27.4585 22.2069 28.3901 21.1003 29.072C19.2512 30.2643 17.12 30.9104 15.2673 32.0991L15.2995 32.1313L15.2673 32.1348Z" fill="#83C5A5"/>
<path d="M17.8918 26.7124C16.9544 27.9067 15.9295 29.0295 14.8254 30.0716C14.3863 30.4678 13.9365 30.8462 13.4903 31.2282C12.9477 31.6922 12.4265 32.1777 11.8804 32.6311C11.4877 32.9523 11.095 33.2308 10.6845 33.5057C10.3147 33.7084 9.96136 33.94 9.62786 34.1982C9.54575 34.2803 9.635 34.3981 9.73138 34.3802C10.0922 34.2753 10.4283 34.0993 10.7202 33.8626C11.0736 33.6306 11.4092 33.3807 11.734 33.1201C12.3302 32.6453 12.8585 32.1027 13.4368 31.5958C14.3837 30.813 15.2848 29.9763 16.1355 29.0899C16.7962 28.3525 17.4125 27.5765 17.9811 26.766C18.0239 26.7231 17.9347 26.6553 17.9097 26.6946L17.8918 26.7124Z" fill="#83C5A5"/>
<path d="M17.4313 27.4728C18.1773 26.848 18.8806 26.1805 19.6374 25.5736C20.3941 24.9668 21.1259 24.4635 21.8542 23.8923C22.5939 23.3381 23.2607 22.6929 23.839 21.9718C24.2599 21.5177 24.5896 20.9869 24.8099 20.4082C24.8992 20.0477 24.7564 19.6407 24.328 19.6978C23.9276 19.7962 23.5589 19.9952 23.2571 20.2761C22.5645 20.8045 21.8827 21.3506 21.2259 21.9218C20.4937 22.5256 19.8109 23.1869 19.184 23.8994C18.7214 24.4877 18.324 25.1245 17.9988 25.7985C17.6669 26.4447 17.3206 27.0908 17.0493 27.7619C17.0136 27.8547 17.1635 27.9118 17.2135 27.8261C17.8132 26.7909 18.3273 25.7129 18.9841 24.7062C19.8623 23.3783 21.1866 22.3395 22.4003 21.3328C22.8473 20.9395 23.3157 20.5713 23.8033 20.2297C23.9585 20.1137 24.134 20.0278 24.3209 19.9763C24.6743 19.9156 24.5922 20.319 24.4886 20.5225C24.369 20.7665 24.2242 20.9974 24.0567 21.2114C23.8497 21.497 23.6605 21.7861 23.4356 22.0539C22.889 22.6767 22.2828 23.2446 21.6257 23.7495C20.1585 24.9025 18.5664 25.952 17.3384 27.3799C17.3261 27.3922 17.3192 27.4089 17.3192 27.4263C17.3192 27.4438 17.3261 27.4604 17.3384 27.4728C17.3508 27.4851 17.3674 27.492 17.3849 27.492C17.4023 27.492 17.419 27.4851 17.4313 27.4728Z" fill="#83C5A5"/>
<path d="M31.307 45.6107C30.4824 45.1573 29.5543 44.9431 28.7261 44.5005C27.8565 43.9863 27.0774 43.3326 26.42 42.5656C25.7607 41.8314 25.0624 41.1331 24.3281 40.4738C23.6064 39.8442 22.8352 39.2736 22.0221 38.7674C21.0968 38.1834 20.1149 37.6942 19.0913 37.3074C18.92 37.2432 18.8022 37.5323 18.9664 37.6037C20.7906 38.3508 22.4903 39.3715 24.0069 40.6308C24.7429 41.2883 25.4413 41.9867 26.0987 42.7227C26.7188 43.4281 27.4407 44.0369 28.2406 44.529C29.183 45.0573 30.2753 45.2215 31.2392 45.707C31.2784 45.7463 31.3356 45.6606 31.2999 45.6463L31.307 45.6107Z" fill="#83C5A5"/>
<path d="M29.8499 31.2246C28.3681 32.7045 26.68 33.9622 24.838 34.9585C23.9134 35.4584 22.9515 35.8857 21.9607 36.2365C20.9755 36.5864 19.9653 36.8041 18.9657 37.0897C18.7587 37.1468 18.7872 37.5038 19.0157 37.4752C20.0635 37.3139 21.0882 37.0275 22.0678 36.6221C23.0626 36.2431 24.0299 35.7958 24.9629 35.2834C26.8488 34.2728 28.5409 32.9361 29.9606 31.3353C29.9689 31.3208 29.9723 31.304 29.9702 31.2874C29.968 31.2709 29.9604 31.2555 29.9486 31.2437C29.9368 31.2318 29.9214 31.2243 29.9049 31.2221C29.8883 31.22 29.8715 31.2233 29.857 31.2317L29.8499 31.2246Z" fill="#83C5A5"/>
<path d="M47.4994 33.3593C41.7283 35.556 35.6522 36.8468 29.4865 37.1861C23.3016 37.5122 17.0999 37.0988 11.0131 35.9545C9.25674 35.6261 7.48258 35.2798 5.7691 34.7729C4.89996 34.5253 4.04442 34.2321 3.20602 33.8948C2.40283 33.5628 1.64604 33.1558 0.867831 32.7703C0.689345 32.6846 0.464457 32.9309 0.639375 33.0702C1.83167 34.0197 3.37736 34.5516 4.8124 35.0085C6.3803 35.5011 7.975 35.9039 9.58872 36.2151C12.6405 36.8233 15.7235 37.263 18.8237 37.5323C25.0648 38.1188 31.3577 37.8099 37.5113 36.6149C40.9521 35.9278 44.3134 34.8895 47.5423 33.5164C47.6208 33.4807 47.5673 33.3415 47.4852 33.3736L47.4994 33.3593Z" fill="#83C5A5"/>
<path d="M29.7432 45.0038C30.5088 45.4008 31.2994 45.7478 32.1099 46.0426C32.9024 46.3567 33.7092 46.6495 34.5302 46.8851C35.8475 47.267 37.3967 47.7739 38.7675 47.3813C38.9995 47.3134 39.2851 47.1849 39.1673 46.8886C38.9599 46.5943 38.6707 46.3672 38.3356 46.2354C37.3414 45.7622 36.2867 45.4282 35.2013 45.243C33.4252 44.8225 31.5917 44.6994 29.7753 44.8789C29.5576 44.9039 29.5576 45.2466 29.7717 45.218C31.2288 45.0389 32.7041 45.0714 34.1518 45.3144C34.8872 45.4358 35.6154 45.6 36.3437 45.7713C36.7727 45.8636 37.194 45.9889 37.6038 46.1461C37.9599 46.2852 38.3028 46.4561 38.6283 46.6566C38.7639 46.7228 38.8806 46.8223 38.9674 46.9457C39.046 47.1314 38.7604 47.1528 38.6319 47.2028C37.3503 47.5348 35.9153 47.0636 34.6909 46.7387C33.8698 46.5102 33.0631 46.2247 32.2634 45.9177C31.4638 45.6107 30.6285 45.1894 29.7789 44.9181C29.7503 44.8896 29.7182 44.9788 29.7503 44.9967L29.7432 45.0038Z" fill="#83C5A5"/>
<path d="M27.5904 44.4933C28.2758 46.2068 29.7608 47.4848 31.228 48.5378C32.8915 49.7301 34.762 50.7154 36.2863 52.1254C36.7004 52.5395 37.4608 53.2071 36.961 53.8425C36.4612 54.4779 35.4189 53.9567 34.8656 53.6961C33.0057 52.8001 31.6778 51.1723 30.4641 49.5302C29.914 48.7451 29.4395 47.9096 29.0469 47.035C28.6884 46.1331 28.2599 45.2606 27.7653 44.4255C27.6761 44.3362 27.5047 44.3791 27.5476 44.5147C27.8572 45.3744 28.2282 46.2107 28.6578 47.0171C29.0412 47.871 29.4912 48.6934 30.0036 49.4767C30.5982 50.3324 31.2544 51.1437 31.9669 51.9041C32.6919 52.7089 33.5521 53.3806 34.5086 53.8889C35.1476 54.2209 36.0079 54.6742 36.7433 54.3958C36.979 54.3073 37.1766 54.1396 37.3023 53.9215C37.428 53.7033 37.4739 53.4482 37.4322 53.1999C37.371 52.8855 37.2183 52.5961 36.9931 52.3682C36.6035 51.9608 36.1835 51.5837 35.7366 51.2401C34.8792 50.5801 33.9879 49.9653 33.0664 49.3982C32.0122 48.7537 31.0032 48.0381 30.0464 47.2563C29.1144 46.4624 28.3269 45.5131 27.7189 44.4505C27.669 44.4005 27.569 44.4291 27.5976 44.5005L27.5904 44.4933Z" fill="#83C5A5"/>
<path d="M28.2479 45.5286C28.0225 44.6313 27.5616 43.8106 26.9128 43.1511C26.5915 42.7584 26.2417 42.3586 25.8847 41.9802C25.7026 41.7982 25.5277 41.6233 25.335 41.4305C25.174 41.2333 24.9824 41.0633 24.7674 40.9272C24.7395 40.9111 24.707 40.9047 24.6751 40.9089C24.6432 40.9132 24.6136 40.9278 24.5908 40.9505C24.5681 40.9733 24.5535 41.0029 24.5492 41.0348C24.545 41.0668 24.5514 41.0992 24.5675 41.1271C24.6972 41.3236 24.8561 41.4994 25.0387 41.6482L25.5884 42.198C25.9454 42.555 26.2488 42.9012 26.5665 43.2618C26.8842 43.6223 27.1805 43.9614 27.4518 44.3398C27.7012 44.7364 27.9094 45.1574 28.0729 45.5964C28.1158 45.7035 28.2621 45.6214 28.2479 45.5286Z" fill="#83C5A5"/>
<path d="M21.9897 41.9766C22.2717 43.7936 23.2427 45.5428 24.2494 47.0493C25.3309 48.6014 26.5316 50.067 27.8405 51.4329C28.2511 51.8434 28.733 52.6038 28.5259 53.2178C28.4449 53.376 28.3137 53.5028 28.1528 53.5784C27.992 53.654 27.8105 53.6741 27.6371 53.6354C27.2139 53.5593 26.8275 53.3461 26.5376 53.0286C25.8703 52.4258 25.2696 51.7532 24.7456 51.0224C24.1686 50.1753 23.6805 49.2709 23.2891 48.3237C22.8854 47.4005 22.5803 46.4373 22.3788 45.45C22.1903 44.4411 22.1602 43.4089 22.2896 42.3907C22.311 42.2265 22.0433 42.1944 22.0076 42.3515C21.5721 44.2149 22.0933 46.2354 22.7965 47.9881C23.1681 48.9728 23.6356 49.9185 24.1923 50.8118C24.7471 51.6412 25.3911 52.4073 26.1128 53.0964C26.6625 53.6462 27.3443 54.1495 28.144 53.921C28.2824 53.8855 28.4117 53.8209 28.5233 53.7316C28.6349 53.6424 28.7263 53.5304 28.7914 53.4032C28.8565 53.276 28.8939 53.1364 28.9011 52.9937C28.9082 52.851 28.885 52.7083 28.8329 52.5752C28.6544 51.7756 28.0583 51.208 27.5407 50.6404C26.8303 49.8587 26.1342 49.0626 25.4774 48.2273C24.7435 47.3011 24.0835 46.3188 23.5033 45.2894C22.9403 44.2177 22.4697 43.0998 22.0968 41.9481C22.0949 41.9401 22.0915 41.9326 22.0867 41.926C22.082 41.9193 22.0759 41.9137 22.0689 41.9094C22.062 41.9051 22.0542 41.9022 22.0462 41.9008C22.0381 41.8995 22.0298 41.8998 22.0219 41.9017C22.0139 41.9036 22.0064 41.907 21.9997 41.9118C21.9931 41.9166 21.9874 41.9226 21.9831 41.9296C21.9788 41.9365 21.9759 41.9443 21.9746 41.9523C21.9733 41.9604 21.9736 41.9687 21.9754 41.9767L21.9897 41.9766Z" fill="#83C5A5"/>
<path d="M22.247 42.5693C22.2381 41.9359 22.0804 41.3134 21.7865 40.7523C21.5226 40.1506 21.1766 39.5883 20.7584 39.0816C20.347 38.5879 19.873 38.1499 19.3484 37.7787C18.8466 37.3561 18.244 37.0708 17.5992 36.9505C17.4492 36.9433 17.4243 37.1254 17.5314 37.2039C17.7807 37.3604 18.0435 37.4942 18.3167 37.6037C19.1526 38.0316 19.8933 38.6242 20.4942 39.3458C20.8864 39.8099 21.2197 40.3207 21.4866 40.8665C21.6355 41.1629 21.7631 41.4695 21.8686 41.7839C21.938 42.0609 22.0226 42.3338 22.122 42.6014C22.1506 42.6728 22.2434 42.6299 22.247 42.5693Z" fill="#83C5A5"/>
<path d="M29.6757 31.5494C30.8716 30.9176 31.9996 30.1679 33.1491 29.454C34.1741 28.8486 35.1547 28.171 36.0834 27.4263C36.586 27.0108 37.0366 26.5361 37.4256 26.0127C37.7041 25.6201 38.0503 25.0667 37.8826 24.5634C37.7148 24.0601 37.033 23.878 36.5546 23.9066C36.0369 23.9715 35.5474 24.1791 35.141 24.5063C33.9484 25.4552 32.905 26.5779 32.046 27.8369C31.1643 29.0113 30.3647 30.2322 29.5472 31.4494C29.5349 31.4728 29.5314 31.4997 29.5371 31.5254C29.5429 31.5511 29.5576 31.5739 29.5786 31.5897C29.5996 31.6056 29.6256 31.6135 29.6519 31.612C29.6781 31.6105 29.703 31.5997 29.7221 31.5815C30.4575 30.7391 31.0465 29.7717 31.714 28.8757C32.5464 27.6488 33.4904 26.5016 34.5341 25.4487C35.191 24.7919 36.4297 23.7316 37.4185 24.4277C37.8718 24.7455 37.5363 25.3595 37.29 25.7271C36.9375 26.247 36.5174 26.7176 36.0406 27.1265C35.1427 27.8708 34.1838 28.5383 33.1741 29.122C31.9818 29.8788 30.7645 30.6034 29.6222 31.4387C29.5722 31.4887 29.6114 31.578 29.6793 31.5387L29.6757 31.5494Z" fill="#83C5A5"/>
<path d="M30.0214 32.8024C29.2633 32.9421 28.5208 33.1562 27.8046 33.4414C27.1116 33.682 26.4619 34.0328 25.8805 34.4802C25.827 34.5337 25.8948 34.6158 25.9662 34.5659C27.2421 33.8206 28.6257 33.2775 30.0678 32.9559C30.1714 32.9381 30.1285 32.781 30.025 32.7988L30.0214 32.8024Z" fill="#83C5A5"/>
<path d="M29.2437 33.1166C30.218 33.0731 31.1939 33.0815 32.1673 33.1415C33.1632 33.1758 34.1583 33.0529 35.1159 32.7774C36.1065 32.4731 37.0721 32.0923 38.0039 31.6387C38.9092 31.2941 39.7359 30.7709 40.4348 30.1001C40.7918 29.7432 41.3416 29.0292 41.0703 28.4866C40.8846 28.1154 40.3956 28.2046 40.0672 28.2831C39.5399 28.4347 39.0311 28.6442 38.55 28.9078C37.9574 29.2077 37.3684 29.5183 36.7723 29.8217C35.6728 30.3928 34.5733 30.964 33.4488 31.4959C32.2976 32.0213 31.1191 32.4849 29.9184 32.8845C29.8944 32.8941 29.8747 32.9122 29.8631 32.9353C29.8515 32.9584 29.8487 32.9849 29.8553 33.0099C29.8619 33.0349 29.8774 33.0566 29.8988 33.071C29.9203 33.0854 29.9463 33.0914 29.9719 33.088C30.9175 32.8842 31.8363 32.5716 32.7099 32.1563C33.6166 31.7565 34.5019 31.3067 35.3836 30.8533C36.6438 30.2072 37.886 29.5004 39.1462 28.9043C39.5733 28.6425 40.0595 28.4927 40.5598 28.4688C41.2702 28.5294 40.5705 29.5575 40.3599 29.811C39.7389 30.4696 38.9809 30.9838 38.1395 31.3174C37.2415 31.761 36.3162 32.1473 35.3694 32.474C34.3335 32.8091 33.2486 32.9672 32.1602 32.9416C31.1963 32.9131 30.1825 32.7774 29.2151 33.0309C29.1651 33.0452 29.1723 33.1308 29.2258 33.1273L29.2437 33.1166Z" fill="#83C5A5"/>
<path d="M27.5729 31.7315C26.6804 32.5882 25.8023 33.4592 24.842 34.241C23.8465 35.0199 22.8046 35.7376 21.722 36.39C21.6984 36.4033 21.6809 36.4254 21.6736 36.4515C21.6662 36.4776 21.6695 36.5056 21.6828 36.5292C21.696 36.5529 21.7181 36.5703 21.7443 36.5777C21.7704 36.5851 21.7983 36.5817 21.822 36.5685C22.9282 35.9869 23.9723 35.2944 24.9384 34.5016C25.9564 33.7275 26.8738 32.8293 27.6692 31.8279C27.6769 31.8144 27.6799 31.7988 27.6779 31.7835C27.6758 31.7681 27.6687 31.7539 27.6578 31.7429C27.6468 31.732 27.6326 31.7249 27.6173 31.7229C27.6019 31.7208 27.5863 31.7238 27.5729 31.7315Z" fill="#83C5A5"/>
<path d="M27.0409 32.5775C27.7077 31.7953 28.4295 31.0616 29.2006 30.3821C29.9285 29.6939 30.5938 28.9425 31.189 28.1367C31.7863 27.3307 32.3085 26.4715 32.7489 25.5701C33.1189 24.9594 33.3719 24.2851 33.495 23.5817C33.52 23.1784 33.3058 22.7143 32.8346 22.8571C32.4124 23.0471 32.0505 23.3497 31.7887 23.7317C30.8096 24.926 30.0044 26.2528 29.397 27.6727C29.0828 28.4009 28.7794 29.1398 28.4296 29.8538C27.9759 30.7579 27.4705 31.6351 26.916 32.4811C26.9018 32.4953 26.8938 32.5146 26.8938 32.5347C26.8938 32.5547 26.9018 32.574 26.916 32.5882C26.9302 32.6024 26.9494 32.6104 26.9695 32.6104C26.9896 32.6104 27.0089 32.6024 27.0231 32.5882C27.9511 31.3944 28.7069 30.0762 29.2684 28.6722C29.799 27.4178 30.4367 26.2115 31.1747 25.0667C31.5032 24.5401 31.8847 24.0485 32.3134 23.5996C32.5419 23.3711 33.1309 22.8249 33.1523 23.4746C33.1436 23.803 33.0645 24.1256 32.9203 24.4206C32.7739 24.7598 32.6204 25.0989 32.4598 25.4309C31.611 27.1994 30.4487 28.7996 29.0293 30.1536C28.2372 30.855 27.5249 31.6415 26.9053 32.499C26.8446 32.5596 26.9767 32.6703 27.0195 32.6132L27.0409 32.5775Z" fill="#83C5A5"/>
<path d="M33.7017 39.7741C32.7218 39.049 31.6704 38.4258 30.5639 37.9143C30.0847 37.714 29.5858 37.5645 29.0754 37.4681C28.5784 37.33 28.0555 37.3141 27.5511 37.4217C27.4475 37.4609 27.419 37.6323 27.5511 37.6573C27.7887 37.6753 28.0274 37.6753 28.265 37.6573C28.5464 37.6674 28.8267 37.6972 29.1039 37.7465C29.602 37.8424 30.0897 37.9859 30.5604 38.1749C31.653 38.6322 32.697 39.1978 33.6768 39.8634C33.7232 39.9098 33.7803 39.8098 33.7267 39.7706L33.7017 39.7741Z" fill="#83C5A5"/>
<path d="M33.0347 39.5564C34.6004 40.3649 36.2631 40.9695 37.9824 41.3555C39.5468 41.743 41.167 41.8529 42.7694 41.6804C43.2656 41.6197 44.6685 41.2092 44.7613 42.073C44.8541 42.9369 43.6333 43.401 43.0014 43.5616C41.3629 43.9793 39.5459 43.3617 38.0609 42.6835C37.1624 42.2569 36.2931 41.7716 35.4586 41.2306C34.5056 40.6609 33.6429 39.9523 32.899 39.128C32.7563 38.9852 32.5421 39.1994 32.6777 39.3493C33.3564 40.109 34.1401 40.7677 35.0052 41.3056C35.8386 41.8652 36.7106 42.365 37.6147 42.8013C39.1532 43.5259 41.0024 44.1756 42.7194 43.8651C43.4929 43.7609 44.2022 43.379 44.7149 42.7906C45.0683 42.3086 45.0255 41.6732 44.4293 41.4341C44.1498 41.3368 43.8507 41.3098 43.5583 41.3555C43.1014 41.4198 42.6552 41.5019 42.1947 41.534C41.2519 41.5948 40.3054 41.5553 39.371 41.4162C38.3017 41.2549 37.2483 41.0017 36.2225 40.6594C35.1516 40.3024 34.1235 39.8669 33.0704 39.4778C33.0383 39.4457 33.0026 39.5457 33.0383 39.5599L33.0347 39.5564Z" fill="#83C5A5"/>
<path d="M41.5622 38.439C40.8983 38.3533 40.2307 38.2641 39.581 38.1142C38.9127 37.9291 38.2589 37.6952 37.6248 37.4145C37.027 37.1659 36.4031 36.9851 35.765 36.8755C35.1707 36.7478 34.5575 36.7357 33.9587 36.8398C33.8445 36.8683 33.8766 37.0218 33.9837 37.0361C34.2835 37.0575 34.587 37.0111 34.8868 37.0254C35.2317 37.036 35.5753 37.0718 35.9149 37.1325C36.5551 37.267 37.1804 37.4643 37.7819 37.7215C38.3817 37.9794 39.0028 38.1848 39.6382 38.3355C40.2656 38.4553 40.8998 38.5363 41.5372 38.5782C41.6194 38.5818 41.6551 38.4604 41.5587 38.4355L41.5622 38.439Z" fill="#83C5A5"/>
<path d="M40.4059 38.4747C43.4116 39.0387 46.5387 39.2458 49.3124 37.7358C49.7479 37.5002 50.3905 37.0361 50.3548 36.4649C50.3298 36.1115 49.9443 36.0544 49.6587 36.0616C49.2017 36.0945 48.7473 36.1578 48.2986 36.2508C47.4499 36.4095 46.6118 36.6205 45.7891 36.8826C44.9145 37.1432 44.0506 37.4431 43.1725 37.6929C42.2943 37.9428 41.3305 38.107 40.3916 38.2962C40.2488 38.3248 40.2881 38.5354 40.4237 38.5354C41.1307 38.5247 41.8325 38.4141 42.5085 38.207C43.2189 38.0178 43.915 37.7857 44.6039 37.5394C45.9559 37.0648 47.3366 36.6761 48.7377 36.3757C49.1267 36.2429 49.5427 36.2098 49.9478 36.2793C50.2013 36.3686 50.1156 36.597 50.005 36.7862C49.8043 37.1003 49.5148 37.3476 49.1732 37.4966C47.8919 38.1499 46.4894 38.5315 45.0537 38.6175C43.504 38.6229 41.9554 38.5335 40.4166 38.3498C40.3488 38.3391 40.3238 38.4426 40.3988 38.4676L40.4059 38.4747Z" fill="#83C5A5"/>
<path d="M36.1757 34.5801C35.5726 34.8375 34.9509 35.0487 34.3159 35.212C33.6912 35.3726 33.0557 35.5011 32.4453 35.7117C31.8569 35.9328 31.2812 36.1867 30.7211 36.4721C30.4248 36.6184 30.1286 36.7577 29.8323 36.8969C29.5098 37.0055 29.2107 37.1738 28.9505 37.3931C28.9366 37.4083 28.9271 37.4271 28.9233 37.4474C28.9194 37.4678 28.9213 37.4887 28.9287 37.508C28.9362 37.5273 28.9488 37.5441 28.9653 37.5566C28.9817 37.5691 29.0014 37.5768 29.0219 37.5787C29.3069 37.525 29.5786 37.4158 29.8216 37.2574L30.7675 36.7755C31.3843 36.4356 32.025 36.1409 32.6845 35.8938C33.2771 35.6939 33.8911 35.5582 34.4908 35.3726C35.0915 35.182 35.6753 34.942 36.2364 34.6551C36.2792 34.6122 36.2435 34.5408 36.1864 34.5694L36.1757 34.5801Z" fill="#83C5A5"/>
<path d="M35.1691 35.1085C35.4511 34.8265 36.0008 34.8764 36.3792 34.8122C36.7576 34.7479 37.1788 34.6694 37.5715 34.5766C38.3259 34.3941 39.0667 34.1591 39.7883 33.8733C41.2491 33.3521 42.6278 32.6249 43.8828 31.7136C44.3167 31.423 44.6448 30.9997 44.8181 30.5071C44.9074 30.1679 44.8181 29.7931 44.4576 29.711C44.2181 29.6764 43.9739 29.7203 43.7615 29.836C43.3801 30.0155 43.0126 30.2232 42.662 30.4571C41.9766 30.8997 41.3412 31.4067 40.6701 31.8636C39.9133 32.3848 39.0958 32.8238 38.3069 33.2843C37.518 33.7448 36.5827 34.2089 35.7581 34.7194C35.6831 34.7943 35.7224 34.955 35.8331 34.9086C36.5126 34.6134 37.1689 34.2673 37.7964 33.8733C38.464 33.4842 39.1351 33.0701 39.7919 32.6918C41.0306 31.96 42.1087 30.9819 43.3509 30.2608C43.6472 30.0858 44.047 29.8074 44.4219 29.9038C44.7967 30.0002 44.6825 30.3143 44.5968 30.557C44.3151 31.1231 43.8665 31.5891 43.3117 31.8921C42.6933 32.294 42.0453 32.6484 41.3733 32.9523C40.72 33.2558 40.0561 33.5556 39.385 33.8198C38.659 34.0951 37.9147 34.3194 37.1574 34.4909C36.779 34.5766 36.4006 34.6408 36.0151 34.7051C35.6848 34.7076 35.3689 34.8412 35.1369 35.0764C35.1313 35.082 35.1281 35.0897 35.1281 35.0978C35.1281 35.1058 35.1313 35.1135 35.1369 35.1192C35.1426 35.1249 35.1503 35.1281 35.1584 35.1281C35.1664 35.1281 35.1741 35.1249 35.1798 35.1192L35.1691 35.1085Z" fill="#83C5A5"/>
<path d="M46.1572 34.1089C47.5172 33.8555 48.8595 33.5485 50.2267 33.3093C51.5348 33.1155 52.8195 32.7878 54.0606 32.3312C55.2349 31.8538 56.3424 31.2263 57.3555 30.4642C57.8481 30.093 58.33 29.7039 58.7869 29.2898C59.1055 29.0229 59.3738 28.7014 59.5794 28.3402C59.6363 28.2553 59.6714 28.1577 59.6819 28.056C59.6923 27.9544 59.6777 27.8517 59.6393 27.757C59.601 27.6623 59.54 27.5784 59.4617 27.5127C59.3834 27.4469 59.2902 27.4014 59.1903 27.38C58.5644 27.2642 57.9184 27.3324 57.3305 27.5763C56.596 27.8593 55.8965 28.2258 55.2457 28.6686C54.3926 29.1934 53.5537 29.7396 52.7076 30.2715C51.626 30.9533 50.5372 31.6208 49.4199 32.2455C48.3026 32.8702 47.2031 33.3843 46.0822 33.9055C45.9751 33.9554 46.0501 34.1304 46.1607 34.0982C48.0991 33.4807 49.8947 32.349 51.6153 31.2924C53.186 30.3214 54.7067 29.2791 56.2988 28.3438C56.9116 27.9602 57.597 27.7074 58.3121 27.6013C58.6049 27.5656 59.4759 27.4871 59.4116 27.9868C59.3085 28.3216 59.1055 28.6168 58.8298 28.8328C58.4224 29.226 57.9908 29.5932 57.5375 29.9323C56.5599 30.6927 55.4958 31.3349 54.3676 31.8457C53.0945 32.3768 51.7615 32.7508 50.398 32.9595C48.9575 33.1954 47.532 33.5148 46.1286 33.9162C46.1068 33.9259 46.0892 33.9431 46.0788 33.9646C46.0685 33.9861 46.0661 34.0106 46.0721 34.0337C46.0781 34.0568 46.092 34.077 46.1115 34.0908C46.131 34.1046 46.1548 34.111 46.1786 34.1089L46.1572 34.1089Z" fill="#83C5A5"/>
<path d="M56.0882 36.1437C53.9321 35.7867 51.8938 34.955 49.7555 34.5231C48.9299 34.3392 48.0842 34.2612 47.2388 34.291C46.4642 34.3517 45.6646 34.4374 44.8864 34.5516C44.0834 34.6372 43.2907 34.801 42.5196 35.0407C42.4904 35.0517 42.4663 35.0732 42.452 35.101C42.4377 35.1287 42.4342 35.1608 42.4422 35.191C42.4502 35.2212 42.4691 35.2474 42.4953 35.2645C42.5214 35.2815 42.553 35.2883 42.5839 35.2834C44.051 35.0371 45.5111 34.7479 46.9925 34.623C48.8702 34.4659 50.7229 34.9978 52.522 35.4833C53.6793 35.8271 54.8573 36.0965 56.049 36.2901C56.1418 36.3043 56.181 36.158 56.0846 36.1473L56.0882 36.1437Z" fill="#83C5A5"/>
<path d="M53.9497 35.8331C54.9432 36.2658 55.9611 36.6401 56.9983 36.954C57.9764 37.3068 58.9816 37.579 60.004 37.7679C61.4619 38.0338 62.9655 37.8778 64.3377 37.3181C64.7518 37.1468 66.5795 36.4186 65.887 35.7189C65.6137 35.5035 65.2746 35.3888 64.9267 35.394C64.5272 35.3501 64.1256 35.3275 63.7237 35.3262C62.8285 35.3317 61.9344 35.3913 61.0464 35.5047C59.045 35.7895 57.0301 35.9694 55.01 36.0437C54.8957 36.0437 54.9064 36.1972 55.0064 36.2115C56.5628 36.4043 58.1906 36.0901 59.7327 35.8831C61.3481 35.5998 62.9872 35.4743 64.6269 35.5083C65.0017 35.5333 65.5657 35.5404 65.812 35.8724C65.9477 36.0509 65.8477 36.2222 65.7085 36.3614C65.3073 36.6902 64.8451 36.9365 64.3484 37.0861C63.0633 37.5887 61.6705 37.7522 60.3039 37.5609C59.2534 37.3894 58.2201 37.1254 57.2161 36.772C56.1643 36.3599 55.092 36.0024 54.0033 35.701C53.9176 35.6796 53.8534 35.8081 53.9426 35.8474L53.9497 35.8331Z" fill="#83C5A5"/>
<path d="M55.777 37.8179C54.4705 37.3538 53.3853 36.5114 52.2358 35.7617C51.7193 35.4199 51.1734 35.1249 50.6044 34.88C50.3354 34.7693 50.0586 34.6786 49.7763 34.6087C49.51 34.5189 49.2265 34.492 48.9481 34.5302C48.8874 34.548 48.866 34.648 48.9302 34.6765C49.2003 34.7692 49.479 34.8349 49.762 34.8729C50.0621 34.9523 50.3566 35.0512 50.6437 35.1692C51.2387 35.4261 51.8138 35.7268 52.3643 36.0687C53.4258 36.7961 54.5628 37.4065 55.7556 37.8893C55.7877 37.9214 55.8163 37.8286 55.777 37.8179Z" fill="#83C5A5"/>
<path d="M55.195 37.693C56.3909 38.4319 57.676 38.9602 58.929 39.5921C59.9801 40.1959 61.1688 40.5192 62.3809 40.5309C62.7791 40.5582 63.1749 40.4514 63.5054 40.2275C63.6335 40.0975 63.7051 39.9221 63.7044 39.7395C63.7037 39.5569 63.6309 39.3821 63.5018 39.253C63.2942 39.0823 63.0517 38.9592 62.7914 38.8924C62.4818 38.7801 62.166 38.686 61.8454 38.6104C61.1947 38.4671 60.537 38.3575 59.8749 38.282C59.0682 38.1892 58.2721 38.1071 57.4582 38.0071C56.6443 37.9072 55.9732 37.7144 55.2307 37.5502C55.1058 37.5252 55.0165 37.7073 55.1415 37.7679C56.1731 38.2499 57.4189 38.3105 58.5363 38.4283C59.7741 38.5086 61.003 38.6937 62.2096 38.9817C62.5772 39.0852 63.7017 39.3672 63.384 39.9491C63.1984 40.2846 62.5808 40.281 62.2738 40.2668C61.1423 40.2326 60.0351 39.9304 59.0432 39.385C57.7795 38.7782 56.4873 38.257 55.2486 37.5966C55.2353 37.589 55.2196 37.587 55.2048 37.591C55.1901 37.5951 55.1776 37.6048 55.17 37.618C55.1624 37.6313 55.1604 37.647 55.1644 37.6617C55.1685 37.6764 55.1782 37.689 55.1914 37.6965L55.195 37.693Z" fill="#83C5A5"/>
<path d="M45.8393 31.5852C44.484 33.127 42.8864 34.4376 41.1094 35.4655C41.0059 35.5262 41.0737 35.7082 41.1915 35.6689C42.0417 35.3416 42.8255 34.8627 43.5047 34.2553C44.4055 33.4909 45.2239 32.6342 45.9464 31.6994C46.0106 31.6351 45.9107 31.528 45.8464 31.5994L45.8393 31.5852Z" fill="#83C5A5"/>
<path d="M45.971 31.5602C47.0229 30.376 47.8438 29.0054 48.3913 27.5192C48.9768 25.9628 49.3909 24.3778 50.3618 22.9999C50.6581 22.5822 51.265 21.7612 51.8683 21.8076C52.4716 21.854 52.1788 22.8321 52.0646 23.1748C51.5733 24.6385 50.8317 26.0057 49.8728 27.2158C48.6575 28.7378 47.3256 30.1629 45.8889 31.478C45.8211 31.5459 45.9175 31.6351 45.9889 31.578C47.4781 30.3197 48.8291 28.9064 50.0191 27.3621C51.0286 26.1398 51.812 24.7472 52.3323 23.2498C52.4823 22.8143 52.6893 22.1789 52.3823 21.7719C52.0753 21.365 51.497 21.5292 51.1293 21.7755C50.5248 22.2327 50.0318 22.821 49.6871 23.4961C49.2603 24.2803 48.9135 25.1055 48.6519 25.9592C48.3643 26.9318 48.0076 27.8825 47.5846 28.8043C47.1184 29.7589 46.5576 30.6642 45.9103 31.5066C45.8711 31.5459 45.9353 31.6173 45.9746 31.5709L45.971 31.5602Z" fill="#83C5A5"/>
<path d="M47.5351 30.1322C48.0135 29.8966 48.4597 29.6289 48.963 29.3754C49.4663 29.122 49.9911 28.9042 50.523 28.6936C51.4797 28.3081 52.4506 27.9511 53.3716 27.4799C54.3322 27.0181 55.1931 26.3729 55.9062 25.5808C56.3904 25.1248 56.7493 24.5519 56.9485 23.9173C57.0092 23.5211 56.8272 23.1891 56.4024 23.2854C55.9162 23.4503 55.4683 23.7114 55.0851 24.0529C54.3926 24.5813 53.7108 25.1346 53.0218 25.6665C52.2614 26.2555 51.4975 26.8409 50.7372 27.4371C49.7948 28.1724 48.8131 28.8757 47.9206 29.6753C47.9055 29.6904 47.897 29.711 47.897 29.7324C47.897 29.7538 47.9055 29.7744 47.9206 29.7895C47.9358 29.8047 47.9563 29.8132 47.9778 29.8132C47.9992 29.8132 48.0197 29.8047 48.0349 29.7895C48.8309 29.2648 49.5663 28.6579 50.3195 28.076C51.0013 27.5442 51.676 27.0123 52.3543 26.4768C53.0325 25.9413 53.7822 25.3559 54.5033 24.799C54.9066 24.4885 55.3029 24.1707 55.7384 23.8923C55.899 23.7888 56.6451 23.2497 56.7165 23.6281C56.7194 23.9574 56.6013 24.2763 56.3845 24.5242C56.1977 24.7955 55.9963 25.0564 55.7812 25.3059C55.1019 26.0782 54.2771 26.709 53.3538 27.1622C52.3792 27.6727 51.3476 28.0546 50.3302 28.4723C49.2974 28.814 48.3339 29.3375 47.4851 30.018C47.4757 30.0275 47.4703 30.0403 47.4703 30.0537C47.4703 30.0671 47.4757 30.0799 47.4851 30.0894C47.4946 30.0989 47.5074 30.1042 47.5208 30.1042C47.5342 30.1042 47.5471 30.0989 47.5565 30.0894L47.5351 30.1322Z" fill="#83C5A5"/>
</g>
<defs>
<clipPath id="clip0_5940_24060">
<rect width="49.7064" height="46.5714" fill="white" transform="translate(33.4307) rotate(45)"/>
</clipPath>
</defs>
</svg>
