<svg width="69" height="69" viewBox="0 0 69 69" fill="none" xmlns="http://www.w3.org/2000/svg">
<g clip-path="url(#clip0_5940_3371)">
<path d="M12.7969 34.1809C13.7072 34.2273 14.5568 34.6271 15.4563 34.6985C16.3708 34.7504 17.2879 34.6637 18.1765 34.4415C19.6813 34.0368 21.1035 33.371 22.3781 32.4745C22.834 32.2377 23.2222 31.8888 23.5061 31.4607C23.7096 31.0502 23.3669 30.7718 22.9707 30.7468C22.3451 30.7725 21.731 30.923 21.1644 31.1894C20.3384 31.5082 19.5294 31.8692 18.7405 32.271C16.8985 33.2063 14.9352 34.2344 12.779 33.9488C12.6148 33.9274 12.5756 34.2166 12.7433 34.2415C14.3426 34.4771 15.8811 33.9595 17.3233 33.3027C18.7589 32.5528 20.2356 31.8842 21.7462 31.3001C21.9568 31.2323 23.1884 30.8003 23.2384 31.2358C23.2527 31.3858 23.0421 31.5678 22.9457 31.6571C22.7435 31.8437 22.5262 32.0133 22.296 32.164C21.1366 32.997 19.8521 33.6405 18.4906 34.0702C17.5327 34.3512 16.5362 34.4777 15.5384 34.445C14.5996 34.4058 13.7179 34.0167 12.7647 34.0702C12.7565 34.0704 12.7485 34.0723 12.741 34.0757C12.7335 34.079 12.7267 34.0838 12.7211 34.0898C12.7155 34.0957 12.7111 34.1027 12.7081 34.1104C12.7052 34.1181 12.7038 34.1263 12.7041 34.1345C12.7043 34.1427 12.7061 34.1507 12.7095 34.1582C12.7128 34.1657 12.7177 34.1725 12.7236 34.1781C12.7296 34.1837 12.7366 34.1882 12.7443 34.1911C12.7519 34.194 12.7601 34.1954 12.7683 34.1951L12.7969 34.1809Z" fill="#ADADAD"/>
<path d="M12.7974 34.0382C11.548 33.7526 10.4557 34.3452 9.33121 34.7985C8.71007 35.0484 8.08179 35.284 7.44281 35.4803C6.75484 35.6808 6.04537 35.7982 5.32951 35.8302C5.20814 35.8373 5.16174 36.0337 5.30096 36.0586C6.5825 36.2693 7.91045 35.6767 9.07776 35.2162C10.2451 34.7557 11.4445 33.9703 12.7653 34.1703C12.851 34.1845 12.8831 34.0525 12.7974 34.0382Z" fill="#ADADAD"/>
<path d="M15.4285 32.385C14.6026 32.8799 13.7021 33.238 12.7619 33.4452C12.3186 33.543 11.8822 33.6694 11.4554 33.8236C11.2519 33.8986 11.0591 33.9914 10.8663 34.0842C10.6833 34.1507 10.5209 34.2639 10.3951 34.4126C10.3878 34.4255 10.3838 34.44 10.3837 34.4548C10.3836 34.4695 10.3873 34.4841 10.3945 34.4971C10.4017 34.51 10.4121 34.5208 10.4247 34.5286C10.4373 34.5363 10.4517 34.5406 10.4665 34.5411C10.6539 34.4936 10.8307 34.4112 10.9877 34.2984C11.1912 34.1877 11.4054 34.0878 11.616 33.9914C12.0537 33.8003 12.5093 33.6532 12.9761 33.5523C13.8629 33.3533 14.6998 32.9756 15.4356 32.4421C15.457 32.4207 15.4392 32.3814 15.4035 32.41L15.4285 32.385Z" fill="#ADADAD"/>
<path d="M14.7673 32.8812C17.8659 31.4248 21.6677 30.3717 23.5454 27.266C23.8095 26.8162 24.7448 25.3526 24.038 24.9029C23.4954 24.5744 22.9206 25.1278 22.5887 25.4954C21.8676 26.2951 21.043 27.0054 20.2648 27.7479C19.4044 28.6082 18.5441 29.4686 17.6624 30.3075C16.727 31.1812 15.7438 32.0023 14.7174 32.767C14.6353 32.8491 14.7031 32.9955 14.8137 32.9348C16.5415 31.971 17.9551 30.4645 19.3652 29.0973C20.0791 28.3834 20.843 27.6623 21.5891 26.9519C21.914 26.6271 22.2602 26.3236 22.5779 25.9988C22.8056 25.6993 23.0805 25.4389 23.3918 25.2277C23.5489 25.1492 23.8452 25.0742 23.9594 25.2598C24.0737 25.4455 23.9809 25.6239 23.9416 25.7632C23.7989 26.2354 23.5897 26.6849 23.3204 27.0983C22.6385 28.2049 21.7069 29.1365 20.6003 29.8184C18.7512 31.0107 16.62 31.6568 14.7673 32.8455L14.7995 32.8777L14.7673 32.8812Z" fill="#ADADAD"/>
<path d="M17.3918 27.4591C16.4544 28.6534 15.4295 29.7762 14.3254 30.8183C13.8863 31.2145 13.4365 31.5929 12.9903 31.9749C12.4477 32.4389 11.9265 32.9244 11.3804 33.3778C10.9877 33.699 10.595 33.9775 10.1845 34.2524C9.81467 34.4551 9.46136 34.6867 9.12786 34.9449C9.04575 35.027 9.135 35.1448 9.23138 35.1269C9.59216 35.022 9.92834 34.846 10.2202 34.6093C10.5736 34.3773 10.9092 34.1274 11.234 33.8668C11.8302 33.392 12.3585 32.8495 12.9368 32.3425C13.8837 31.5597 14.7848 30.723 15.6355 29.8366C16.2962 29.0992 16.9125 28.3232 17.4811 27.5127C17.5239 27.4698 17.4347 27.402 17.4097 27.4413L17.3918 27.4591Z" fill="#ADADAD"/>
<path d="M16.9313 28.2195C17.6773 27.5948 18.3806 26.9273 19.1374 26.3204C19.8941 25.7136 20.6259 25.2102 21.3542 24.6391C22.0939 24.0849 22.7607 23.4396 23.339 22.7185C23.7599 22.2645 24.0896 21.7336 24.3099 21.155C24.3992 20.7944 24.2564 20.3875 23.828 20.4446C23.4276 20.5429 23.0589 20.742 22.7571 21.0229C22.0645 21.5512 21.3827 22.0974 20.7259 22.6686C19.9937 23.2723 19.3109 23.9337 18.684 24.6462C18.2214 25.2345 17.824 25.8712 17.4988 26.5453C17.1669 27.1914 16.8206 27.8376 16.5493 28.5087C16.5136 28.6015 16.6635 28.6586 16.7135 28.5729C17.3132 27.5377 17.8273 26.4596 18.4841 25.453C19.3623 24.125 20.6866 23.0862 21.9003 22.0795C22.3473 21.6863 22.8157 21.3181 23.3033 20.9765C23.4585 20.8605 23.634 20.7745 23.8209 20.723C24.1743 20.6624 24.0922 21.0657 23.9886 21.2692C23.869 21.5132 23.7242 21.7441 23.5567 21.9582C23.3497 22.2438 23.1605 22.5329 22.9356 22.8006C22.389 23.4235 21.7828 23.9914 21.1257 24.4963C19.6585 25.6493 18.0664 26.6988 16.8384 28.1267C16.8261 28.139 16.8192 28.1557 16.8192 28.1731C16.8192 28.1905 16.8261 28.2072 16.8384 28.2195C16.8508 28.2318 16.8674 28.2387 16.8849 28.2387C16.9023 28.2387 16.919 28.2318 16.9313 28.2195Z" fill="#ADADAD"/>
<path d="M30.807 46.3573C29.9824 45.9039 29.0543 45.6897 28.2261 45.2471C27.3565 44.7329 26.5774 44.0793 25.92 43.3123C25.2607 42.578 24.5624 41.8797 23.8281 41.2204C23.1064 40.5909 22.3352 40.0202 21.5221 39.5141C20.5968 38.93 19.6149 38.4409 18.5913 38.0541C18.42 37.9898 18.3022 38.279 18.4664 38.3504C20.2906 39.0974 21.9903 40.1182 23.5069 41.3775C24.2429 42.035 24.9413 42.7334 25.5987 43.4694C26.2188 44.1747 26.9407 44.7835 27.7406 45.2757C28.683 45.804 29.7753 45.9682 30.7392 46.4537C30.7784 46.4929 30.8356 46.4073 30.7999 46.393L30.807 46.3573Z" fill="#ADADAD"/>
<path d="M29.3499 31.9711C27.8681 33.4509 26.18 34.7086 24.338 35.705C23.4134 36.2049 22.4515 36.6322 21.4607 36.983C20.4755 37.3328 19.4653 37.5506 18.4657 37.8362C18.2587 37.8933 18.2872 38.2502 18.5157 38.2217C19.5635 38.0604 20.5882 37.774 21.5678 37.3685C22.5626 36.9896 23.5299 36.5423 24.4629 36.0299C26.3488 35.0192 28.0409 33.6825 29.4606 32.0817C29.4689 32.0673 29.4723 32.0505 29.4702 32.0339C29.468 32.0173 29.4604 32.0019 29.4486 31.9901C29.4368 31.9783 29.4214 31.9707 29.4049 31.9686C29.3883 31.9664 29.3715 31.9698 29.357 31.9782L29.3499 31.9711Z" fill="#ADADAD"/>
<path d="M46.9994 34.1059C41.2283 36.3026 35.1522 37.5934 28.9865 37.9327C22.8016 38.2588 16.5999 37.8454 10.5131 36.7011C8.75674 36.3727 6.98258 36.0264 5.2691 35.5195C4.39996 35.2719 3.54442 34.9787 2.70602 34.6413C1.90283 34.3094 1.14604 33.9024 0.367831 33.5169C0.189345 33.4312 -0.0355428 33.6775 0.139375 33.8167C1.33167 34.7663 2.87736 35.2982 4.3124 35.7551C5.8803 36.2477 7.475 36.6505 9.08872 36.9617C12.1405 37.5699 15.2235 38.0096 18.3237 38.2789C24.5648 38.8654 30.8577 38.5564 37.0113 37.3615C40.4521 36.6744 43.8134 35.6361 47.0423 34.263C47.1208 34.2273 47.0673 34.088 46.9852 34.1202L46.9994 34.1059Z" fill="#ADADAD"/>
<path d="M29.2432 45.7504C30.0088 46.1474 30.7994 46.4944 31.6099 46.7892C32.4024 47.1033 33.2092 47.396 34.0302 47.6316C35.3475 48.0136 36.8967 48.5205 38.2675 48.1278C38.4995 48.06 38.7851 47.9315 38.6673 47.6352C38.4599 47.3409 38.1707 47.1138 37.8356 46.982C36.8414 46.5088 35.7867 46.1748 34.7013 45.9896C32.9252 45.5691 31.0917 45.446 29.2753 45.6255C29.0576 45.6504 29.0576 45.9931 29.2717 45.9646C30.7288 45.7855 32.2041 45.818 33.6518 46.061C34.3872 46.1823 35.1154 46.3465 35.8437 46.5179C36.2727 46.6102 36.694 46.7355 37.1038 46.8927C37.4599 47.0318 37.8028 47.2027 38.1283 47.4032C38.2639 47.4694 38.3806 47.5688 38.4674 47.6923C38.546 47.878 38.2604 47.8994 38.1319 47.9494C36.8503 48.2813 35.4153 47.8101 34.1909 47.4853C33.3698 47.2568 32.5631 46.9712 31.7634 46.6642C30.9638 46.3573 30.1285 45.936 29.2789 45.6647C29.2503 45.6362 29.2182 45.7254 29.2503 45.7433L29.2432 45.7504Z" fill="#ADADAD"/>
<path d="M27.0904 45.2398C27.7758 46.9533 29.2608 48.2313 30.728 49.2844C32.3915 50.4767 34.262 51.4619 35.7863 52.872C36.2004 53.286 36.9608 53.9536 36.461 54.589C35.9612 55.2244 34.9189 54.7032 34.3656 54.4427C32.5057 53.5466 31.1778 51.9188 29.9641 50.2768C29.414 49.4916 28.9395 48.6561 28.5469 47.7815C28.1884 46.8796 27.7599 46.0071 27.2653 45.172C27.1761 45.0828 27.0047 45.1256 27.0476 45.2613C27.3572 46.1209 27.7282 46.9572 28.1578 47.7636C28.5412 48.6175 28.9912 49.4399 29.5036 50.2232C30.0982 51.079 30.7544 51.8903 31.4669 52.6506C32.1919 53.4554 33.0521 54.1271 34.0086 54.6354C34.6476 54.9674 35.5079 55.4208 36.2433 55.1423C36.479 55.0538 36.6766 54.8861 36.8023 54.668C36.928 54.4498 36.9739 54.1948 36.9322 53.9465C36.871 53.632 36.7183 53.3426 36.4931 53.1147C36.1035 52.7073 35.6835 52.3302 35.2366 51.9867C34.3792 51.3266 33.4879 50.7118 32.5664 50.1447C31.5122 49.5003 30.5032 48.7846 29.5464 48.0028C28.6144 47.209 27.8269 46.2596 27.2189 45.197C27.169 45.147 27.069 45.1756 27.0976 45.247L27.0904 45.2398Z" fill="#ADADAD"/>
<path d="M27.7479 46.2753C27.5225 45.378 27.0616 44.5573 26.4128 43.8978C26.0915 43.5051 25.7417 43.1053 25.3847 42.7269C25.2026 42.5449 25.0277 42.37 24.835 42.1772C24.674 41.98 24.4824 41.81 24.2674 41.6739C24.2395 41.6578 24.207 41.6514 24.1751 41.6556C24.1432 41.6599 24.1136 41.6745 24.0908 41.6972C24.0681 41.72 24.0535 41.7496 24.0492 41.7815C24.045 41.8135 24.0514 41.8459 24.0675 41.8738C24.1972 42.0703 24.3561 42.2461 24.5387 42.395L25.0884 42.9447C25.4454 43.3017 25.7488 43.6479 26.0665 44.0085C26.3842 44.369 26.6805 44.7081 26.9518 45.0865C27.2012 45.4831 27.4094 45.9041 27.5729 46.3431C27.6158 46.4502 27.7621 46.3681 27.7479 46.2753Z" fill="#ADADAD"/>
<path d="M21.4897 42.723C21.7717 44.54 22.7427 46.2892 23.7494 47.7957C24.8309 49.3478 26.0316 50.8134 27.3405 52.1793C27.7511 52.5898 28.233 53.3502 28.0259 53.9642C27.9449 54.1224 27.8137 54.2492 27.6528 54.3248C27.492 54.4004 27.3105 54.4205 27.1371 54.3818C26.7139 54.3057 26.3275 54.0925 26.0376 53.775C25.3703 53.1722 24.7696 52.4996 24.2456 51.7688C23.6686 50.9217 23.1805 50.0173 22.7891 49.0701C22.3854 48.1469 22.0803 47.1837 21.8788 46.1964C21.6903 45.1875 21.6602 44.1553 21.7896 43.1371C21.811 42.9729 21.5433 42.9408 21.5076 43.0979C21.0721 44.9613 21.5933 46.9818 22.2965 48.7345C22.6681 49.7192 23.1356 50.6649 23.6923 51.5582C24.2471 52.3876 24.8911 53.1537 25.6128 53.8428C26.1625 54.3926 26.8443 54.8959 27.644 54.6674C27.7824 54.6319 27.9117 54.5673 28.0233 54.478C28.1349 54.3888 28.2263 54.2768 28.2914 54.1496C28.3565 54.0224 28.3939 53.8828 28.4011 53.7401C28.4082 53.5974 28.385 53.4547 28.3329 53.3216C28.1544 52.522 27.5583 51.9544 27.0407 51.3868C26.3303 50.6051 25.6342 49.809 24.9774 48.9737C24.2435 48.0475 23.5835 47.0652 23.0033 46.0358C22.4403 44.9641 21.9697 43.8462 21.5968 42.6945C21.5949 42.6865 21.5915 42.679 21.5867 42.6724C21.582 42.6657 21.5759 42.6601 21.5689 42.6558C21.562 42.6515 21.5542 42.6486 21.5462 42.6472C21.5381 42.6459 21.5298 42.6462 21.5219 42.6481C21.5139 42.65 21.5064 42.6534 21.4997 42.6582C21.4931 42.663 21.4874 42.669 21.4831 42.676C21.4788 42.6829 21.4759 42.6907 21.4746 42.6987C21.4733 42.7068 21.4736 42.7151 21.4754 42.7231L21.4897 42.723Z" fill="#ADADAD"/>
<path d="M21.747 43.3159C21.7381 42.6825 21.5804 42.0601 21.2865 41.4989C21.0226 40.8972 20.6766 40.335 20.2584 39.8283C19.847 39.3345 19.373 38.8965 18.8484 38.5253C18.3466 38.1028 17.744 37.8174 17.0992 37.6971C16.9492 37.69 16.9243 37.872 17.0314 37.9506C17.2807 38.1071 17.5435 38.2409 17.8167 38.3504C18.6526 38.7783 19.3933 39.3708 19.9942 40.0924C20.3864 40.5565 20.7197 41.0673 20.9866 41.6131C21.1355 41.9095 21.2631 42.2161 21.3686 42.5306C21.438 42.8075 21.5226 43.0804 21.622 43.348C21.6506 43.4194 21.7434 43.3766 21.747 43.3159Z" fill="#ADADAD"/>
<path d="M29.1757 32.296C30.3716 31.6641 31.4996 30.9145 32.6491 30.2005C33.6741 29.5952 34.6547 28.9176 35.5834 28.1729C36.086 27.7573 36.5366 27.2827 36.9256 26.7593C37.2041 26.3666 37.5503 25.8133 37.3826 25.31C37.2148 24.8066 36.533 24.6246 36.0546 24.6532C35.5369 24.718 35.0474 24.9257 34.641 25.2529C33.4484 26.2018 32.405 27.3245 31.546 28.5834C30.6643 29.7579 29.8647 30.9787 29.0472 32.196C29.0349 32.2193 29.0314 32.2462 29.0371 32.2719C29.0429 32.2976 29.0576 32.3205 29.0786 32.3363C29.0996 32.3522 29.1256 32.3601 29.1519 32.3586C29.1781 32.3571 29.203 32.3463 29.2221 32.3281C29.9575 31.4856 30.5465 30.5182 31.214 29.6222C32.0464 28.3954 32.9904 27.2482 34.0341 26.1953C34.691 25.5385 35.9297 24.4782 36.9185 25.1743C37.3718 25.492 37.0363 26.106 36.79 26.4737C36.4375 26.9936 36.0174 27.4642 35.5406 27.8731C34.6427 28.6174 33.6838 29.2849 32.6741 29.8686C31.4818 30.6253 30.2645 31.35 29.1222 32.1853C29.0722 32.2353 29.1114 32.3245 29.1793 32.2853L29.1757 32.296Z" fill="#ADADAD"/>
<path d="M29.5214 33.5491C28.7633 33.6888 28.0208 33.9029 27.3046 34.1881C26.6116 34.4287 25.9619 34.7795 25.3805 35.2269C25.327 35.2804 25.3948 35.3625 25.4662 35.3126C26.7421 34.5673 28.1257 34.0242 29.5678 33.7026C29.6714 33.6848 29.6285 33.5277 29.525 33.5455L29.5214 33.5491Z" fill="#ADADAD"/>
<path d="M28.7437 33.8629C29.718 33.8195 30.6939 33.8278 31.6673 33.8879C32.6632 33.9221 33.6583 33.7993 34.6159 33.5238C35.6065 33.2194 36.5721 32.8387 37.5039 32.385C38.4092 32.0405 39.2359 31.5172 39.9348 30.8465C40.2918 30.4895 40.8416 29.7755 40.5703 29.2329C40.3846 28.8617 39.8956 28.9509 39.5672 29.0295C39.0399 29.181 38.5311 29.3905 38.05 29.6542C37.4574 29.954 36.8684 30.2646 36.2723 30.568C35.1728 31.1392 34.0733 31.7103 32.9488 32.2422C31.7976 32.7677 30.6191 33.2312 29.4184 33.6309C29.3944 33.6405 29.3747 33.6585 29.3631 33.6816C29.3515 33.7047 29.3487 33.7312 29.3553 33.7562C29.3619 33.7812 29.3774 33.803 29.3988 33.8174C29.4203 33.8317 29.4463 33.8378 29.4719 33.8343C30.4175 33.6306 31.3363 33.3179 32.2099 32.9026C33.1166 32.5028 34.0019 32.053 34.8836 31.5997C36.1438 30.9536 37.386 30.2467 38.6462 29.6506C39.0733 29.3889 39.5595 29.2391 40.0598 29.2151C40.7702 29.2758 40.0705 30.3039 39.8599 30.5573C39.2389 31.2159 38.4809 31.7302 37.6395 32.0638C36.7415 32.5074 35.8162 32.8937 34.8694 33.2203C33.8335 33.5554 32.7486 33.7135 31.6602 33.688C30.6963 33.6594 29.6825 33.5238 28.7151 33.7772C28.6651 33.7915 28.6723 33.8772 28.7258 33.8736L28.7437 33.8629Z" fill="#ADADAD"/>
<path d="M27.0729 32.4779C26.1804 33.3346 25.3023 34.2056 24.342 34.9874C23.3465 35.7663 22.3046 36.484 21.222 37.1364C21.1984 37.1497 21.1809 37.1718 21.1736 37.1979C21.1662 37.224 21.1695 37.252 21.1828 37.2756C21.196 37.2993 21.2181 37.3167 21.2443 37.3241C21.2704 37.3315 21.2983 37.3281 21.322 37.3149C22.4282 36.7333 23.4723 36.0408 24.4384 35.248C25.4564 34.4739 26.3738 33.5757 27.1692 32.5743C27.1769 32.5608 27.1799 32.5452 27.1779 32.5299C27.1758 32.5145 27.1687 32.5003 27.1578 32.4893C27.1468 32.4784 27.1326 32.4713 27.1173 32.4693C27.1019 32.4672 27.0863 32.4702 27.0729 32.4779Z" fill="#ADADAD"/>
<path d="M26.5409 33.3243C27.2077 32.5421 27.9295 31.8084 28.7006 31.1289C29.4285 30.4406 30.0938 29.6892 30.689 28.8835C31.2863 28.0774 31.8085 27.2183 32.2489 26.3168C32.6189 25.7061 32.8719 25.0319 32.995 24.3285C33.02 23.9251 32.8058 23.461 32.3346 23.6038C31.9124 23.7939 31.5505 24.0965 31.2887 24.4784C30.3096 25.6728 29.5044 26.9996 28.897 28.4194C28.5828 29.1477 28.2794 29.8866 27.9296 30.6005C27.4759 31.5047 26.9705 32.3819 26.416 33.2279C26.4018 33.2421 26.3938 33.2613 26.3938 33.2814C26.3938 33.3015 26.4018 33.3208 26.416 33.335C26.4302 33.3492 26.4494 33.3572 26.4695 33.3572C26.4896 33.3572 26.5089 33.3492 26.5231 33.335C27.4511 32.1412 28.2069 30.8229 28.7684 29.419C29.299 28.1646 29.9367 26.9583 30.6747 25.8135C31.0032 25.2868 31.3847 24.7952 31.8134 24.3464C32.0419 24.1179 32.6309 23.5717 32.6523 24.2214C32.6436 24.5497 32.5645 24.8723 32.4203 25.1674C32.2739 25.5065 32.1204 25.8456 31.9598 26.1776C31.111 27.9462 29.9487 29.5463 28.5293 30.9004C27.7372 31.6017 27.0249 32.3882 26.4053 33.2457C26.3446 33.3064 26.4767 33.4171 26.5195 33.36L26.5409 33.3243Z" fill="#ADADAD"/>
<path d="M33.2017 40.5208C32.2218 39.7956 31.1704 39.1725 30.0639 38.6609C29.5847 38.4607 29.0858 38.3111 28.5754 38.2147C28.0784 38.0767 27.5555 38.0607 27.0511 38.1683C26.9475 38.2076 26.919 38.3789 27.0511 38.4039C27.2887 38.422 27.5274 38.422 27.765 38.4039C28.0464 38.414 28.3267 38.4438 28.6039 38.4932C29.102 38.5891 29.5897 38.7325 30.0604 38.9215C31.153 39.3788 32.197 39.9445 33.1768 40.61C33.2232 40.6564 33.2803 40.5565 33.2267 40.5172L33.2017 40.5208Z" fill="#ADADAD"/>
<path d="M32.5347 40.3031C34.1004 41.1116 35.7631 41.7162 37.4824 42.1022C39.0468 42.4897 40.667 42.5996 42.2694 42.4271C42.7656 42.3664 44.1685 41.9559 44.2613 42.8197C44.3541 43.6836 43.1333 44.1477 42.5014 44.3083C40.8629 44.726 39.0459 44.1084 37.5609 43.4302C36.6624 43.0036 35.7931 42.5183 34.9586 41.9773C34.0056 41.4076 33.1429 40.699 32.399 39.8747C32.2563 39.7319 32.0421 39.9461 32.1777 40.096C32.8564 40.8557 33.6401 41.5144 34.5052 42.0523C35.3386 42.6119 36.2106 43.1117 37.1147 43.548C38.6532 44.2726 40.5024 44.9223 42.2194 44.6118C42.9929 44.5076 43.7022 44.1257 44.2149 43.5373C44.5683 43.0553 44.5255 42.4199 43.9293 42.1808C43.6498 42.0835 43.3507 42.0565 43.0583 42.1022C42.6014 42.1665 42.1552 42.2486 41.6947 42.2807C40.7519 42.3415 39.8054 42.302 38.871 42.1629C37.8017 42.0016 36.7483 41.7484 35.7225 41.4061C34.6516 41.0491 33.6235 40.6136 32.5704 40.2245C32.5383 40.1924 32.5026 40.2924 32.5383 40.3066L32.5347 40.3031Z" fill="#ADADAD"/>
<path d="M41.0622 39.1858C40.3983 39.1002 39.7307 39.0109 39.081 38.861C38.4127 38.6759 37.7589 38.4421 37.1248 38.1613C36.527 37.9128 35.9031 37.7319 35.265 37.6223C34.6707 37.4946 34.0575 37.4825 33.4587 37.5866C33.3445 37.6152 33.3766 37.7687 33.4837 37.7829C33.7835 37.8044 34.087 37.758 34.3868 37.7722C34.7317 37.7828 35.0753 37.8186 35.4149 37.8793C36.0551 38.0138 36.6804 38.2111 37.2819 38.4683C37.8817 38.7262 38.5028 38.9316 39.1382 39.0823C39.7656 39.2021 40.3998 39.2832 41.0372 39.3251C41.1194 39.3286 41.1551 39.2073 41.0587 39.1823L41.0622 39.1858Z" fill="#ADADAD"/>
<path d="M39.9059 39.2212C42.9116 39.7853 46.0387 39.9923 48.8124 38.4823C49.2479 38.2467 49.8905 37.7826 49.8548 37.2115C49.8298 36.8581 49.4443 36.8009 49.1587 36.8081C48.7017 36.8411 48.2473 36.9043 47.7986 36.9973C46.9499 37.1561 46.1118 37.3671 45.2891 37.6291C44.4145 37.8897 43.5506 38.1896 42.6725 38.4395C41.7943 38.6893 40.8305 38.8535 39.8916 39.0427C39.7488 39.0713 39.7881 39.2819 39.9237 39.2819C40.6307 39.2712 41.3325 39.1607 42.0085 38.9535C42.7189 38.7643 43.415 38.5323 44.1039 38.286C45.4559 37.8113 46.8366 37.4226 48.2377 37.1222C48.6267 36.9894 49.0427 36.9563 49.4478 37.0258C49.7013 37.1151 49.6156 37.3435 49.505 37.5327C49.3043 37.8468 49.0148 38.0941 48.6732 38.2431C47.3919 38.8964 45.9894 39.278 44.5537 39.364C43.004 39.3694 41.4554 39.28 39.9166 39.0963C39.8488 39.0856 39.8238 39.1891 39.8988 39.2141L39.9059 39.2212Z" fill="#ADADAD"/>
<path d="M35.6757 35.3268C35.0726 35.5842 34.4509 35.7954 33.8159 35.9587C33.1912 36.1193 32.5557 36.2478 31.9453 36.4584C31.3569 36.6795 30.7812 36.9334 30.2211 37.2188C29.9248 37.3651 29.6286 37.5044 29.3323 37.6436C29.0098 37.7522 28.7107 37.9205 28.4505 38.1398C28.4366 38.155 28.4271 38.1738 28.4233 38.1942C28.4194 38.2145 28.4213 38.2354 28.4287 38.2547C28.4362 38.274 28.4488 38.2908 28.4653 38.3033C28.4817 38.3158 28.5014 38.3235 28.5219 38.3254C28.8069 38.2717 29.0786 38.1625 29.3216 38.0041L30.2675 37.5222C30.8843 37.1823 31.525 36.8876 32.1845 36.6405C32.7771 36.4406 33.3911 36.3049 33.9908 36.1193C34.5915 35.9287 35.1753 35.6887 35.7364 35.4018C35.7792 35.359 35.7435 35.2876 35.6864 35.3161L35.6757 35.3268Z" fill="#ADADAD"/>
<path d="M34.6691 35.8552C34.9511 35.5732 35.5008 35.6231 35.8792 35.5589C36.2576 35.4946 36.6788 35.4161 37.0715 35.3233C37.8259 35.1408 38.5667 34.9058 39.2883 34.6201C40.7491 34.0988 42.1278 33.3716 43.3828 32.4603C43.8167 32.1697 44.1448 31.7464 44.3181 31.2538C44.4074 30.9146 44.3181 30.5398 43.9576 30.4577C43.7181 30.4232 43.4739 30.467 43.2615 30.5827C42.8801 30.7622 42.5126 30.9699 42.162 31.2038C41.4766 31.6464 40.8412 32.1534 40.1701 32.6103C39.4133 33.1315 38.5958 33.5705 37.8069 34.031C37.018 34.4915 36.0827 34.9556 35.2581 35.4661C35.1831 35.541 35.2224 35.7017 35.3331 35.6553C36.0126 35.3601 36.6689 35.014 37.2964 34.6201C37.964 34.2309 38.6351 33.8168 39.2919 33.4385C40.5306 32.7067 41.6087 31.7286 42.8509 31.0075C43.1472 30.8326 43.547 30.5541 43.9219 30.6505C44.2967 30.7469 44.1825 31.061 44.0968 31.3038C43.8151 31.8698 43.3665 32.3358 42.8117 32.6388C42.1933 33.0407 41.5453 33.3951 40.8733 33.6991C40.22 34.0025 39.5561 34.3023 38.885 34.5665C38.159 34.8418 37.4147 35.0661 36.6574 35.2376C36.279 35.3233 35.9006 35.3875 35.5151 35.4518C35.1848 35.4543 34.8689 35.5879 34.6369 35.8231C34.6313 35.8287 34.6281 35.8364 34.6281 35.8445C34.6281 35.8525 34.6313 35.8602 34.6369 35.8659C34.6426 35.8716 34.6503 35.8748 34.6584 35.8748C34.6664 35.8748 34.6741 35.8716 34.6798 35.8659L34.6691 35.8552Z" fill="#ADADAD"/>
<path d="M45.6572 34.8558C47.0172 34.6023 48.3595 34.2953 49.7267 34.0561C51.0348 33.8623 52.3195 33.5346 53.5606 33.078C54.7349 32.6007 55.8424 31.9731 56.8555 31.211C57.3481 30.8398 57.83 30.4507 58.2869 30.0366C58.6055 29.7697 58.8738 29.4482 59.0794 29.0871C59.1363 29.0021 59.1714 28.9045 59.1819 28.8029C59.1923 28.7012 59.1777 28.5985 59.1393 28.5038C59.101 28.4091 59.04 28.3252 58.9617 28.2595C58.8834 28.1938 58.7902 28.1482 58.6903 28.1268C58.0644 28.011 57.4184 28.0792 56.8305 28.3231C56.096 28.6061 55.3965 28.9726 54.7457 29.4155C53.8926 29.9402 53.0537 30.4864 52.2076 31.0183C51.126 31.7001 50.0372 32.3676 48.9199 32.9924C47.8026 33.6171 46.7031 34.1311 45.5822 34.6523C45.4751 34.7023 45.5501 34.8772 45.6607 34.8451C47.5991 34.2275 49.3947 33.0959 51.1153 32.0392C52.686 31.0683 54.2067 30.0259 55.7988 29.0906C56.4116 28.707 57.097 28.4542 57.8121 28.3481C58.1049 28.3124 58.9759 28.2339 58.9116 28.7336C58.8085 29.0684 58.6055 29.3636 58.3298 29.5797C57.9224 29.9728 57.4908 30.34 57.0375 30.6792C56.0599 31.4395 54.9958 32.0817 53.8676 32.5925C52.5945 33.1236 51.2615 33.4976 49.898 33.7063C48.4575 33.9422 47.032 34.2616 45.6286 34.663C45.6068 34.6727 45.5892 34.6899 45.5788 34.7114C45.5685 34.7329 45.5661 34.7574 45.5721 34.7805C45.5781 34.8036 45.592 34.8239 45.6115 34.8376C45.631 34.8514 45.6548 34.8578 45.6786 34.8558L45.6572 34.8558Z" fill="#ADADAD"/>
<path d="M55.5882 36.8903C53.4321 36.5333 51.3938 35.7016 49.2555 35.2696C48.4299 35.0857 47.5842 35.0078 46.7388 35.0376C45.9642 35.0983 45.1646 35.184 44.3864 35.2982C43.5834 35.3837 42.7907 35.5475 42.0196 35.7872C41.9904 35.7983 41.9663 35.8198 41.952 35.8475C41.9377 35.8753 41.9342 35.9074 41.9422 35.9376C41.9502 35.9678 41.9691 35.994 41.9953 36.011C42.0214 36.0281 42.053 36.0349 42.0839 36.03C43.551 35.7837 45.0111 35.4945 46.4925 35.3696C48.3702 35.2125 50.2229 35.7444 52.022 36.2299C53.1793 36.5737 54.3573 36.8431 55.549 37.0366C55.6418 37.0509 55.681 36.9046 55.5846 36.8939L55.5882 36.8903Z" fill="#ADADAD"/>
<path d="M53.4497 36.5798C54.4432 37.0125 55.4611 37.3868 56.4983 37.7007C57.4764 38.0535 58.4816 38.3257 59.504 38.5146C60.9619 38.7805 62.4655 38.6245 63.8377 38.0648C64.2518 37.8935 66.0795 37.1653 65.387 36.4656C65.1137 36.2502 64.7746 36.1355 64.4267 36.1407C64.0272 36.0968 63.6256 36.0742 63.2237 36.0729C62.3285 36.0784 61.4344 36.138 60.5464 36.2514C58.545 36.5362 56.5301 36.7162 54.51 36.7904C54.3957 36.7904 54.4064 36.9439 54.5064 36.9582C56.0628 37.151 57.6906 36.8369 59.2327 36.6298C60.8481 36.3466 62.4872 36.221 64.1269 36.255C64.5017 36.28 65.0657 36.2871 65.312 36.6191C65.4477 36.7976 65.3477 36.9689 65.2085 37.1081C64.8073 37.4369 64.3451 37.6832 63.8484 37.8328C62.5633 38.3354 61.1705 38.4989 59.8039 38.3076C58.7534 38.1361 57.7201 37.8721 56.7161 37.5187C55.6643 37.1066 54.592 36.7491 53.5033 36.4477C53.4176 36.4263 53.3534 36.5548 53.4426 36.5941L53.4497 36.5798Z" fill="#ADADAD"/>
<path d="M55.277 38.5646C53.9705 38.1005 52.8853 37.258 51.7358 36.5084C51.2193 36.1666 50.6734 35.8715 50.1044 35.6267C49.8354 35.516 49.5586 35.4253 49.2763 35.3554C49.01 35.2655 48.7265 35.2386 48.4481 35.2768C48.3874 35.2947 48.366 35.3946 48.4302 35.4232C48.7003 35.5158 48.979 35.5816 49.262 35.6195C49.5621 35.6989 49.8566 35.7979 50.1437 35.9158C50.7387 36.1728 51.3138 36.4734 51.8643 36.8154C52.9258 37.5427 54.0628 38.1532 55.2556 38.636C55.2877 38.6681 55.3163 38.5753 55.277 38.5646Z" fill="#ADADAD"/>
<path d="M54.695 38.4394C55.8909 39.1783 57.176 39.7066 58.429 40.3385C59.4801 40.9423 60.6688 41.2656 61.8809 41.2773C62.2791 41.3046 62.6749 41.1978 63.0054 40.9739C63.1335 40.8439 63.2051 40.6685 63.2044 40.4859C63.2037 40.3033 63.1309 40.1285 63.0018 39.9994C62.7942 39.8287 62.5517 39.7056 62.2914 39.6388C61.9818 39.5265 61.666 39.4324 61.3454 39.3568C60.6947 39.2135 60.037 39.1039 59.3749 39.0284C58.5682 38.9356 57.7721 38.8535 56.9582 38.7535C56.1443 38.6536 55.4732 38.4608 54.7307 38.2966C54.6058 38.2716 54.5165 38.4537 54.6415 38.5143C55.6731 38.9963 56.9189 39.0569 58.0363 39.1747C59.2741 39.255 60.503 39.4401 61.7096 39.7281C62.0772 39.8316 63.2017 40.1136 62.884 40.6955C62.6984 41.031 62.0808 41.0274 61.7738 41.0132C60.6423 40.979 59.5351 40.6768 58.5432 40.1314C57.2795 39.5246 55.9873 39.0034 54.7486 38.343C54.7353 38.3354 54.7196 38.3334 54.7048 38.3374C54.6901 38.3415 54.6776 38.3512 54.67 38.3644C54.6624 38.3777 54.6604 38.3934 54.6644 38.4081C54.6685 38.4228 54.6782 38.4354 54.6914 38.4429L54.695 38.4394Z" fill="#ADADAD"/>
<path d="M45.3393 32.3316C43.984 33.8735 42.3864 35.1841 40.6094 36.2119C40.5059 36.2726 40.5737 36.4547 40.6915 36.4154C41.5417 36.0881 42.3255 35.6091 43.0047 35.0018C43.9055 34.2374 44.7239 33.3807 45.4464 32.4459C45.5106 32.3816 45.4107 32.2745 45.3464 32.3459L45.3393 32.3316Z" fill="#ADADAD"/>
<path d="M45.471 32.3066C46.5229 31.1225 47.3438 29.7519 47.8913 28.2657C48.4768 26.7093 48.8909 25.1243 49.8618 23.7464C50.1581 23.3287 50.765 22.5077 51.3683 22.5541C51.9716 22.6005 51.6788 23.5786 51.5646 23.9213C51.0733 25.3849 50.3317 26.7522 49.3728 27.9622C48.1575 29.4843 46.8256 30.9094 45.3889 32.2245C45.3211 32.2923 45.4175 32.3816 45.4889 32.3245C46.9781 31.0662 48.3291 29.6529 49.5191 28.1086C50.5286 26.8863 51.312 25.4937 51.8323 23.9962C51.9823 23.5607 52.1893 22.9253 51.8823 22.5184C51.5753 22.1114 50.997 22.2756 50.6293 22.5219C50.0248 22.9792 49.5318 23.5675 49.1871 24.2426C48.7603 25.0268 48.4135 25.852 48.1519 26.7057C47.8643 27.6782 47.5076 28.629 47.0846 29.5508C46.6184 30.5054 46.0576 31.4107 45.4103 32.2531C45.3711 32.2923 45.4353 32.3637 45.4746 32.3173L45.471 32.3066Z" fill="#ADADAD"/>
<path d="M47.0351 30.8786C47.5135 30.643 47.9597 30.3753 48.463 30.1218C48.9663 29.8684 49.4911 29.6506 50.023 29.44C50.9797 29.0545 51.9506 28.6975 52.8716 28.2263C53.8322 27.7645 54.6931 27.1193 55.4062 26.3272C55.8904 25.8711 56.2493 25.2983 56.4485 24.6637C56.5092 24.2675 56.3272 23.9355 55.9024 24.0318C55.4162 24.1967 54.9683 24.4578 54.5851 24.7993C53.8926 25.3277 53.2108 25.881 52.5218 26.4129C51.7614 27.0019 50.9975 27.5873 50.2372 28.1835C49.2948 28.9188 48.3131 29.6221 47.4206 30.4217C47.4055 30.4368 47.397 30.4574 47.397 30.4788C47.397 30.5002 47.4055 30.5208 47.4206 30.5359C47.4358 30.5511 47.4563 30.5596 47.4778 30.5596C47.4992 30.5596 47.5197 30.5511 47.5349 30.5359C48.3309 30.0112 49.0663 29.4043 49.8195 28.8224C50.5013 28.2906 51.176 27.7587 51.8543 27.2232C52.5325 26.6877 53.2822 26.1023 54.0033 25.5454C54.4066 25.2349 54.8029 24.9171 55.2384 24.6387C55.399 24.5352 56.1451 23.9961 56.2165 24.3745C56.2194 24.7038 56.1013 25.0227 55.8845 25.2706C55.6977 25.5419 55.4963 25.8028 55.2812 26.0523C54.6019 26.8246 53.7771 27.4554 52.8538 27.9086C51.8792 28.4191 50.8476 28.801 49.8302 29.2187C48.7974 29.5604 47.8339 30.0839 46.9851 30.7644C46.9757 30.7739 46.9703 30.7867 46.9703 30.8001C46.9703 30.8135 46.9757 30.8263 46.9851 30.8358C46.9946 30.8453 47.0074 30.8506 47.0208 30.8506C47.0342 30.8506 47.0471 30.8453 47.0565 30.8358L47.0351 30.8786Z" fill="#ADADAD"/>
</g>
<defs>
<clipPath id="clip0_5940_3371">
<rect width="49.7064" height="46.5714" fill="white" transform="translate(32.9307 0.746582) rotate(45)"/>
</clipPath>
</defs>
</svg>
