<svg width="24" height="24" viewBox="0 0 24 24" fill="none" xmlns="http://www.w3.org/2000/svg">
<g id="vuesax/bulk/box">
<g id="box">
<path id="Vector" d="M20.1004 6.93998C20.1004 7.47998 19.8104 7.96995 19.3504 8.21995L17.6104 9.15995L16.1304 9.94999L13.0604 11.61C12.7304 11.79 12.3704 11.88 12.0004 11.88C11.6304 11.88 11.2704 11.79 10.9404 11.61L4.65039 8.21995C4.19039 7.96995 3.90039 7.47998 3.90039 6.93998C3.90039 6.39998 4.19039 5.90995 4.65039 5.65995L6.62039 4.59996L8.1904 3.74998L10.9404 2.27C11.6004 1.91 12.4004 1.91 13.0604 2.27L19.3504 5.65995C19.8104 5.90995 20.1004 6.39998 20.1004 6.93998Z" fill="#3D8361"/>
<path id="Vector_2" d="M9.89972 12.79L4.04971 9.86001C3.59971 9.63001 3.07972 9.66001 2.64972 9.92001C2.21972 10.18 1.96973 10.64 1.96973 11.14V16.67C1.96973 17.63 2.49971 18.49 3.35971 18.92L9.20972 21.8401C9.40972 21.9401 9.62973 21.99 9.84973 21.99C10.1097 21.99 10.3697 21.92 10.5997 21.77C11.0297 21.51 11.2797 21.05 11.2797 20.55V15.02C11.2897 14.08 10.7597 13.22 9.89972 12.79Z" fill="#3D8361"/>
<path id="Vector_3" d="M22.03 11.15V16.68C22.03 17.63 21.5 18.49 20.64 18.92L14.79 21.85C14.59 21.95 14.37 22 14.15 22C13.89 22 13.63 21.93 13.39 21.78C12.97 21.52 12.71 21.06 12.71 20.56V15.04C12.71 14.08 13.24 13.22 14.1 12.79L16.25 11.72L17.75 10.97L19.95 9.87C20.4 9.64 20.92 9.66 21.35 9.93C21.77 10.19 22.03 10.65 22.03 11.15Z" fill="#3D8361"/>
<path id="Vector_4" d="M17.6101 9.15997L16.1301 9.95001L6.62012 4.59998L8.19012 3.75L17.3701 8.92999C17.4701 8.98999 17.5501 9.06997 17.6101 9.15997Z" fill="#FFD56F"/>
<path id="Vector_5" d="M17.75 10.97V13.24C17.75 13.65 17.41 13.99 17 13.99C16.59 13.99 16.25 13.65 16.25 13.24V11.72L17.75 10.97Z" fill="#FFD56F"/>
</g>
</g>
</svg>
