<svg width="24" height="24" viewBox="0 0 24 24" fill="none" xmlns="http://www.w3.org/2000/svg">
<path d="M16.25 22.5C17.2165 22.5 18 21.7165 18 20.75C18 19.7835 17.2165 19 16.25 19C15.2835 19 14.5 19.7835 14.5 20.75C14.5 21.7165 15.2835 22.5 16.25 22.5Z" fill="white"/>
<path d="M8.25 22.5C9.2165 22.5 10 21.7165 10 20.75C10 19.7835 9.2165 19 8.25 19C7.2835 19 6.5 19.7835 6.5 20.75C6.5 21.7165 7.2835 22.5 8.25 22.5Z" fill="white"/>
<path opacity="0.4" d="M4.84 3.94002L4.64 6.39001C4.6 6.86001 4.97 7.25002 5.44 7.25002H20.75C21.17 7.25002 21.52 6.93001 21.55 6.51001C17 6.50002 15.2116 6.39001 15.2116 3.30002H6.28999C6.18999 2.86002 5.98999 2.44001 5.67999 2.09001C5.18999 1.56001 4.49 1.25002 3.77 1.25002H2C1.59 1.25002 1.25 1.59002 1.25 2.00002C1.25 2.41002 1.59 2.75002 2 2.75002H3.74001C4.05001 2.75002 4.34 2.88002 4.55 3.10002C4.76 3.33002 4.86 3.63002 4.84 3.94002Z" fill="white"/>
<path d="M20.5101 8.75002H5.17006C4.75006 8.75002 4.41005 9.07001 4.37005 9.48001L4.01005 13.83C3.87005 15.53 5.21006 17 6.92006 17H18.0401C19.5401 17 20.8601 15.77 20.9701 14.27L21.3001 9.60002C21.3401 9.14002 20.9801 8.75002 20.5101 8.75002Z" fill="white"/>
<path d="M21.93 1.28004C21.83 1.17004 21.72 1.05999 21.6 0.969986C20.9 0.359986 20 1.52588e-05 19 1.52588e-05C18.29 1.52588e-05 17.62 0.190035 17.04 0.520035C16.85 0.620035 16.67 0.74002 16.5 0.88002C15.58 1.61002 15 2.74002 15 4.00002C15 4.75002 15.21 5.46001 15.58 6.06001C15.67 6.22001 15.78 6.37003 15.9 6.51003C15.92 6.54003 15.95 6.56004 15.97 6.59004C16.69 7.45004 17.78 8.00002 19 8.00002C20.01 8.00002 20.93 7.63002 21.63 7.00002C21.67 6.97002 21.7 6.94004 21.73 6.90004C22 6.67004 22.23 6.38001 22.42 6.06001C22.79 5.46001 23 4.75002 23 4.00002C23 2.95002 22.59 2.00004 21.93 1.28004ZM20.5 4.73H19.75V5.51003C19.75 5.92002 19.41 6.26003 19 6.26003C18.59 6.26003 18.25 5.92002 18.25 5.51003V4.73H17.5C17.09 4.73 16.75 4.39 16.75 3.98C16.75 3.57 17.09 3.23 17.5 3.23H18.25V2.52003C18.25 2.11003 18.59 1.77003 19 1.77003C19.41 1.77003 19.75 2.11003 19.75 2.52003V3.23H20.5C20.91 3.23 21.25 3.57 21.25 3.98C21.25 4.39 20.91 4.73 20.5 4.73Z" fill="white"/>
</svg>
