<svg width="20" height="20" viewBox="0 0 20 20" fill="none" xmlns="http://www.w3.org/2000/svg">
<path opacity="0.4" d="M13.4915 1.66663H6.50817C3.47484 1.66663 1.6665 3.47496 1.6665 6.50829V13.4833C1.6665 16.525 3.47484 18.3333 6.50817 18.3333H13.4832C16.5165 18.3333 18.3248 16.525 18.3248 13.4916V6.50829C18.3332 3.47496 16.5248 1.66663 13.4915 1.66663Z" fill="#3D8361"/>
<path d="M15 9.375H10.625V5C10.625 4.65833 10.3417 4.375 10 4.375C9.65833 4.375 9.375 4.65833 9.375 5V9.375H5C4.65833 9.375 4.375 9.65833 4.375 10C4.375 10.3417 4.65833 10.625 5 10.625H9.375V15C9.375 15.3417 9.65833 15.625 10 15.625C10.3417 15.625 10.625 15.3417 10.625 15V10.625H15C15.3417 10.625 15.625 10.3417 15.625 10C15.625 9.65833 15.3417 9.375 15 9.375Z" fill="#3D8361"/>
</svg>
