<svg width="21" height="20" viewBox="0 0 21 20" fill="none" xmlns="http://www.w3.org/2000/svg">
<path d="M7.92467 17.225C7.76634 17.225 7.60801 17.1667 7.48301 17.0417C7.24134 16.8 7.24134 16.4 7.48301 16.1583L12.9163 10.725C13.3163 10.325 13.3163 9.67502 12.9163 9.27502L7.48301 3.84168C7.24134 3.60002 7.24134 3.20002 7.48301 2.95835C7.72467 2.71668 8.12467 2.71668 8.36634 2.95835L13.7997 8.39168C14.2247 8.81668 14.4663 9.39168 14.4663 10C14.4663 10.6084 14.233 11.1834 13.7997 11.6084L8.36634 17.0417C8.24134 17.1584 8.08301 17.225 7.92467 17.225Z" fill="#3D8361"/>
</svg>
