<svg width="40" height="40" viewBox="0 0 40 40" fill="none" xmlns="http://www.w3.org/2000/svg">
<g clip-path="url(#clip0_2293_42702)">
<path d="M20.0201 28.53C17.6901 28.53 15.3601 28.16 13.1501 27.42C12.3101 27.13 11.6701 26.54 11.3901 25.77C11.1001 25 11.2001 24.15 11.6601 23.39L12.8101 21.48C13.0501 21.08 13.2701 20.28 13.2701 19.81V16.92C13.2701 13.2 16.3001 10.17 20.0201 10.17C23.7401 10.17 26.7701 13.2 26.7701 16.92V19.81C26.7701 20.27 26.9901 21.08 27.2301 21.49L28.3701 23.39C28.8001 24.11 28.8801 24.98 28.5901 25.77C28.3001 26.56 27.6701 27.16 26.8801 27.42C24.6801 28.16 22.3501 28.53 20.0201 28.53ZM20.0201 11.67C17.1301 11.67 14.7701 14.02 14.7701 16.92V19.81C14.7701 20.54 14.4701 21.62 14.1001 22.25L12.9501 24.16C12.7301 24.53 12.6701 24.92 12.8001 25.25C12.9201 25.59 13.2201 25.85 13.6301 25.99C17.8101 27.39 22.2401 27.39 26.4201 25.99C26.7801 25.87 27.0601 25.6 27.1901 25.24C27.3201 24.88 27.2901 24.49 27.0901 24.16L25.9401 22.25C25.5601 21.6 25.2701 20.53 25.2701 19.8V16.92C25.2701 14.02 22.9201 11.67 20.0201 11.67Z" fill="#3D8361"/>
<path d="M21.8801 11.9401C21.8101 11.9401 21.7401 11.9301 21.6701 11.9101C21.3801 11.8301 21.1001 11.7701 20.8301 11.7301C19.9801 11.6201 19.1601 11.6801 18.3901 11.9101C18.1101 12.0001 17.8101 11.9101 17.6201 11.7001C17.4301 11.4901 17.3701 11.1901 17.4801 10.9201C17.8901 9.87005 18.8901 9.18005 20.0301 9.18005C21.1701 9.18005 22.1701 9.86005 22.5801 10.9201C22.6801 11.1901 22.6301 11.4901 22.4401 11.7001C22.2901 11.8601 22.0801 11.9401 21.8801 11.9401Z" fill="#3D8361"/>
<path d="M20.02 30.8101C19.03 30.8101 18.07 30.4101 17.37 29.7101C16.67 29.0101 16.27 28.0501 16.27 27.0601H17.77C17.77 27.6501 18.01 28.2301 18.43 28.6501C18.85 29.0701 19.43 29.3101 20.02 29.3101C21.26 29.3101 22.27 28.3001 22.27 27.0601H23.77C23.77 29.1301 22.09 30.8101 20.02 30.8101Z" fill="#3D8361"/>
</g>
<defs>
<clipPath id="clip0_2293_42702">
<rect width="40" height="40" rx="8" fill="white"/>
</clipPath>
</defs>
</svg>
