<svg width="101" height="101" viewBox="0 0 101 101" fill="none" xmlns="http://www.w3.org/2000/svg">
<g id="vuesax/bulk/moneys">
<g id="moneys">
<path id="Vector" opacity="0.4" d="M80.8268 33.0228V54.4812C80.8268 67.3145 73.4935 72.8144 62.4935 72.8144H25.8685C23.9935 72.8144 22.2018 72.6479 20.5351 72.2729C19.4935 72.1063 18.4935 71.8146 17.5768 71.4813C11.3268 69.1479 7.53516 63.7312 7.53516 54.4812V33.0228C7.53516 20.1894 14.8685 14.6896 25.8685 14.6896H62.4935C71.8268 14.6896 78.5352 18.6479 80.3268 27.6896C80.6185 29.3562 80.8268 31.0644 80.8268 33.0228Z" fill="white"/>
<path id="Vector_2" d="M93.3268 45.5228V66.9812C93.3268 79.8145 85.9935 85.3144 74.9935 85.3144H38.3685C35.2852 85.3144 32.4935 84.8979 30.0769 83.9813C25.1185 82.1479 21.7435 78.3563 20.5352 72.273C22.2018 72.648 23.9935 72.8144 25.8685 72.8144H62.4935C73.4935 72.8144 80.8268 67.3145 80.8268 54.4812V33.0228C80.8268 31.0644 80.6602 29.3146 80.3268 27.6896C88.2435 29.3562 93.3268 34.9394 93.3268 45.5228Z" fill="white"/>
<path id="Vector_3" d="M44.1602 54.7728C50.2353 54.7728 55.1603 49.8479 55.1603 43.7728C55.1603 37.6976 50.2353 32.7727 44.1602 32.7727C38.0851 32.7727 33.1602 37.6976 33.1602 43.7728C33.1602 49.8479 38.0851 54.7728 44.1602 54.7728Z" fill="white"/>
<path id="Vector_4" d="M20.3271 34.3978C18.6188 34.3978 17.2021 35.8145 17.2021 37.5228V50.0228C17.2021 51.7312 18.6188 53.1478 20.3271 53.1478C22.0355 53.1478 23.4521 51.7312 23.4521 50.0228V37.5228C23.4521 35.8145 22.0771 34.3978 20.3271 34.3978Z" fill="white"/>
<path id="Vector_5" d="M67.9521 34.3978C66.2438 34.3978 64.8271 35.8145 64.8271 37.5228V50.0228C64.8271 51.7312 66.2438 53.1478 67.9521 53.1478C69.6605 53.1478 71.0771 51.7312 71.0771 50.0228V37.5228C71.0771 35.8145 69.7021 34.3978 67.9521 34.3978Z" fill="white"/>
</g>
</g>
</svg>
