<svg width="65" height="65" viewBox="0 0 65 65" fill="none" xmlns="http://www.w3.org/2000/svg">
<path opacity="0.4" d="M55.3201 22.6313C52.5201 10.3113 41.7734 4.76459 32.3334 4.76459C32.3334 4.76459 32.3334 4.76459 32.3067 4.76459C22.8934 4.76459 12.1201 10.2846 9.32005 22.6046C6.20005 36.3646 14.6267 48.0179 22.2534 55.3512C25.0801 58.0713 28.7067 59.4313 32.3334 59.4313C35.9601 59.4313 39.5867 58.0713 42.3867 55.3512C50.0134 48.0179 58.4401 36.3913 55.3201 22.6313Z" fill="#3D8361"/>
<path d="M32.3333 35.9912C36.9725 35.9912 40.7333 32.2304 40.7333 27.5912C40.7333 22.952 36.9725 19.1912 32.3333 19.1912C27.6942 19.1912 23.9333 22.952 23.9333 27.5912C23.9333 32.2304 27.6942 35.9912 32.3333 35.9912Z" fill="#3D8361"/>
</svg>
