<svg width="18" height="19" viewBox="0 0 18 19" fill="none" xmlns="http://www.w3.org/2000/svg">
<g id="vuesax/bold/calendar-2">
<g id="calendar-2">
<path id="Vector" d="M12.5627 2.75936V1.58936C12.5627 1.28186 12.3077 1.02686 12.0002 1.02686C11.6927 1.02686 11.4377 1.28186 11.4377 1.58936V2.71436H6.56267V1.58936C6.56267 1.28186 6.30767 1.02686 6.00017 1.02686C5.69267 1.02686 5.43767 1.28186 5.43767 1.58936V2.75936C3.41267 2.94686 2.43017 4.15436 2.28017 5.94686C2.26517 6.16436 2.44517 6.34436 2.65517 6.34436H15.3452C15.5627 6.34436 15.7427 6.15686 15.7202 5.94686C15.5702 4.15436 14.5877 2.94686 12.5627 2.75936Z" fill="#FFB70A"/>
<path id="Vector_2" d="M15 7.46924H3C2.5875 7.46924 2.25 7.80674 2.25 8.21924V12.8392C2.25 15.0892 3.375 16.5892 6 16.5892H12C14.625 16.5892 15.75 15.0892 15.75 12.8392V8.21924C15.75 7.80674 15.4125 7.46924 15 7.46924ZM6.9075 13.7467C6.8325 13.8142 6.75 13.8667 6.66 13.9042C6.57 13.9417 6.4725 13.9642 6.375 13.9642C6.2775 13.9642 6.18 13.9417 6.09 13.9042C6 13.8667 5.9175 13.8142 5.8425 13.7467C5.7075 13.6042 5.625 13.4092 5.625 13.2142C5.625 13.0192 5.7075 12.8242 5.8425 12.6817C5.9175 12.6142 6 12.5617 6.09 12.5242C6.27 12.4492 6.48 12.4492 6.66 12.5242C6.75 12.5617 6.8325 12.6142 6.9075 12.6817C7.0425 12.8242 7.125 13.0192 7.125 13.2142C7.125 13.4092 7.0425 13.6042 6.9075 13.7467ZM7.065 10.8742C7.0275 10.9642 6.975 11.0467 6.9075 11.1217C6.8325 11.1892 6.75 11.2417 6.66 11.2792C6.57 11.3167 6.4725 11.3392 6.375 11.3392C6.2775 11.3392 6.18 11.3167 6.09 11.2792C6 11.2417 5.9175 11.1892 5.8425 11.1217C5.775 11.0467 5.7225 10.9642 5.685 10.8742C5.6475 10.7842 5.625 10.6867 5.625 10.5892C5.625 10.4917 5.6475 10.3942 5.685 10.3042C5.7225 10.2142 5.775 10.1317 5.8425 10.0567C5.9175 9.98924 6 9.93674 6.09 9.89924C6.27 9.82424 6.48 9.82424 6.66 9.89924C6.75 9.93674 6.8325 9.98924 6.9075 10.0567C6.975 10.1317 7.0275 10.2142 7.065 10.3042C7.1025 10.3942 7.125 10.4917 7.125 10.5892C7.125 10.6867 7.1025 10.7842 7.065 10.8742ZM9.5325 11.1217C9.4575 11.1892 9.375 11.2417 9.285 11.2792C9.195 11.3167 9.0975 11.3392 9 11.3392C8.9025 11.3392 8.805 11.3167 8.715 11.2792C8.625 11.2417 8.5425 11.1892 8.4675 11.1217C8.3325 10.9792 8.25 10.7842 8.25 10.5892C8.25 10.3942 8.3325 10.1992 8.4675 10.0567C8.5425 9.98924 8.625 9.93674 8.715 9.89924C8.895 9.81674 9.105 9.81674 9.285 9.89924C9.375 9.93674 9.4575 9.98924 9.5325 10.0567C9.6675 10.1992 9.75 10.3942 9.75 10.5892C9.75 10.7842 9.6675 10.9792 9.5325 11.1217Z" fill="#FFB70A"/>
</g>
</g>
</svg>
