<svg width="16" height="16" viewBox="0 0 16 16" fill="none" xmlns="http://www.w3.org/2000/svg">
<g id="vuesax/outline/call">
<g id="call">
<path id="Vector" d="M11.6335 15.1663C10.8802 15.1663 10.0868 14.9863 9.26683 14.6397C8.46683 14.2997 7.66016 13.833 6.8735 13.2663C6.0935 12.693 5.34016 12.053 4.62683 11.353C3.92016 10.6397 3.28016 9.88634 2.7135 9.11301C2.14016 8.31301 1.68016 7.51301 1.3535 6.73967C1.00683 5.91301 0.833496 5.11301 0.833496 4.35967C0.833496 3.83967 0.926829 3.34634 1.10683 2.88634C1.2935 2.41301 1.5935 1.97301 2.00016 1.59301C2.5135 1.08634 3.10016 0.833008 3.72683 0.833008C3.98683 0.833008 4.2535 0.893008 4.48016 0.999674C4.74016 1.11967 4.96016 1.29967 5.12016 1.53967L6.66683 3.71967C6.80683 3.91301 6.9135 4.09967 6.98683 4.28634C7.0735 4.48634 7.12016 4.68634 7.12016 4.87967C7.12016 5.13301 7.04683 5.37967 6.90683 5.61301C6.80683 5.79301 6.6535 5.98634 6.46016 6.17967L6.00683 6.65301C6.0135 6.67301 6.02016 6.68634 6.02683 6.69967C6.10683 6.83967 6.26683 7.07967 6.5735 7.43967C6.90016 7.81301 7.20683 8.15301 7.5135 8.46634C7.90683 8.85301 8.2335 9.15967 8.54016 9.41301C8.92016 9.73301 9.16683 9.89301 9.3135 9.96634L9.30016 9.99967L9.78683 9.51967C9.9935 9.31301 10.1935 9.15967 10.3868 9.05967C10.7535 8.83301 11.2202 8.79301 11.6868 8.98634C11.8602 9.05967 12.0468 9.15967 12.2468 9.29967L14.4602 10.873C14.7068 11.0397 14.8868 11.253 14.9935 11.5063C15.0935 11.7597 15.1402 11.993 15.1402 12.2263C15.1402 12.5463 15.0668 12.8663 14.9268 13.1663C14.7868 13.4663 14.6135 13.7263 14.3935 13.9663C14.0135 14.3863 13.6002 14.6863 13.1202 14.8797C12.6602 15.0663 12.1602 15.1663 11.6335 15.1663ZM3.72683 1.83301C3.36016 1.83301 3.02016 1.99301 2.6935 2.31301C2.38683 2.59967 2.1735 2.91301 2.04016 3.25301C1.90016 3.59967 1.8335 3.96634 1.8335 4.35967C1.8335 4.97967 1.98016 5.65301 2.2735 6.34634C2.5735 7.05301 2.9935 7.78634 3.52683 8.51967C4.06016 9.25301 4.66683 9.96634 5.3335 10.6397C6.00016 11.2997 6.72016 11.913 7.46016 12.453C8.18016 12.9797 8.92016 13.4063 9.6535 13.713C10.7935 14.1997 11.8602 14.313 12.7402 13.9463C13.0802 13.8063 13.3802 13.593 13.6535 13.2863C13.8068 13.1197 13.9268 12.9397 14.0268 12.7263C14.1068 12.5597 14.1468 12.3863 14.1468 12.213C14.1468 12.1063 14.1268 11.9997 14.0735 11.8797C14.0535 11.8397 14.0135 11.7663 13.8868 11.6797L11.6735 10.1063C11.5402 10.013 11.4202 9.94634 11.3068 9.89968C11.1602 9.83967 11.1002 9.77967 10.8735 9.91967C10.7402 9.98634 10.6202 10.0863 10.4868 10.2197L9.98016 10.7197C9.72016 10.973 9.32016 11.033 9.0135 10.9197L8.8335 10.8397C8.56016 10.693 8.24016 10.4663 7.88683 10.1663C7.56683 9.89301 7.22016 9.57301 6.80016 9.15967C6.4735 8.82634 6.14683 8.47301 5.80683 8.07967C5.4935 7.71301 5.26683 7.39967 5.12683 7.13967L5.04683 6.93967C5.00683 6.78634 4.9935 6.69967 4.9935 6.60634C4.9935 6.36634 5.08016 6.15301 5.24683 5.98634L5.74683 5.46634C5.88016 5.33301 5.98016 5.20634 6.04683 5.09301C6.10016 5.00634 6.12016 4.93301 6.12016 4.86634C6.12016 4.81301 6.10016 4.73301 6.06683 4.65301C6.02016 4.54634 5.94683 4.42634 5.8535 4.29967L4.30683 2.11301C4.24016 2.01967 4.16016 1.95301 4.06016 1.90634C3.9535 1.85967 3.84016 1.83301 3.72683 1.83301ZM9.30016 10.0063L9.1935 10.4597L9.3735 9.99301C9.34016 9.98634 9.3135 9.99301 9.30016 10.0063Z" fill="#3D8361"/>
</g>
</g>
</svg>
