<svg width="65" height="65" viewBox="0 0 65 65" fill="none" xmlns="http://www.w3.org/2000/svg">
<path opacity="0.4" d="M32.1067 37.9912L23.3867 46.7112C22.4267 45.8579 21.4933 44.9779 20.5867 44.0712C17.84 41.2979 15.36 38.3912 13.1467 35.3512C10.96 32.3112 9.2 29.2712 7.92 26.2579C6.64 23.2179 6 20.3112 6 17.5379C6 15.7245 6.32 13.9912 6.96 12.3912C7.6 10.7645 8.61333 9.27121 10.0267 7.93788C11.7333 6.25788 13.6 5.43121 15.5733 5.43121C16.32 5.43121 17.0667 5.59121 17.7333 5.91121C18.4267 6.23121 19.04 6.71121 19.52 7.40455L25.7067 16.1245C26.1867 16.7912 26.5333 17.4045 26.7733 17.9912C27.0133 18.5512 27.1467 19.1112 27.1467 19.6179C27.1467 20.2579 26.96 20.8979 26.5867 21.5112C26.24 22.1245 25.7333 22.7645 25.0933 23.4045L23.0667 25.5112C22.7733 25.8045 22.64 26.1512 22.64 26.5779C22.64 26.7912 22.6667 26.9779 22.72 27.1912C22.8 27.4045 22.88 27.5645 22.9333 27.7245C23.4133 28.6045 24.24 29.7512 25.4133 31.1379C26.6133 32.5245 27.8933 33.9379 29.28 35.3512C30.24 36.2845 31.1733 37.1912 32.1067 37.9912Z" fill="#3D8361"/>
<path d="M59.2535 48.9779C59.2535 49.7246 59.1202 50.4979 58.8535 51.2446C58.7735 51.4579 58.6935 51.6712 58.5868 51.8846C58.1335 52.8446 57.5468 53.7512 56.7735 54.6046C55.4668 56.0446 54.0268 57.0846 52.4002 57.7512C52.3735 57.7512 52.3468 57.7779 52.3202 57.7779C50.7468 58.4179 49.0402 58.7646 47.2002 58.7646C44.4802 58.7646 41.5735 58.1246 38.5068 56.8179C35.4402 55.5112 32.3735 53.7512 29.3335 51.5379C28.2935 50.7646 27.2535 49.9912 26.2668 49.1646L34.9868 40.4446C35.7335 41.0046 36.4002 41.4312 36.9602 41.7246C37.0935 41.7779 37.2535 41.8579 37.4402 41.9379C37.6535 42.0179 37.8668 42.0446 38.1068 42.0446C38.5602 42.0446 38.9068 41.8846 39.2002 41.5912L41.2268 39.5912C41.8935 38.9246 42.5335 38.4179 43.1468 38.0979C43.7602 37.7246 44.3735 37.5379 45.0402 37.5379C45.5468 37.5379 46.0802 37.6446 46.6668 37.8846C47.2535 38.1246 47.8668 38.4712 48.5335 38.9246L57.3602 45.1912C58.0535 45.6712 58.5335 46.2312 58.8268 46.8979C59.0935 47.5646 59.2535 48.2312 59.2535 48.9779Z" fill="#3D8361"/>
</svg>
