<svg width="32" height="33" viewBox="0 0 32 33" fill="none" xmlns="http://www.w3.org/2000/svg">
<g id="vuesax/bulk/cards">
<g id="cards">
<path id="Vector" opacity="0.4" d="M25.3332 14.2067V23.7401C25.2932 27.5401 24.2531 28.5001 20.2931 28.5001H7.70654C3.67988 28.5001 2.6665 27.5001 2.6665 23.5267V14.2067C2.6665 10.6067 3.5065 9.44673 6.6665 9.26007C6.9865 9.24673 7.33321 9.2334 7.70654 9.2334H20.2931C24.3198 9.2334 25.3332 10.2334 25.3332 14.2067Z" fill="#3D8361"/>
<path id="Vector_2" d="M29.3332 9.47333V18.7933C29.3332 22.3933 28.4932 23.5533 25.3332 23.74V14.2067C25.3332 10.2333 24.3198 9.23333 20.2931 9.23333H7.70654C7.33321 9.23333 6.9865 9.24667 6.6665 9.26C6.7065 5.46 7.74654 4.5 11.7065 4.5H24.2931C28.3198 4.5 29.3332 5.5 29.3332 9.47333Z" fill="#3D8361"/>
<g id="Group">
<path id="Vector_3" d="M9.28019 25.2466H6.98682C6.44015 25.2466 5.98682 24.7932 5.98682 24.2466C5.98682 23.6999 6.44015 23.2466 6.98682 23.2466H9.28019C9.82686 23.2466 10.2802 23.6999 10.2802 24.2466C10.2802 24.7932 9.84019 25.2466 9.28019 25.2466Z" fill="#3D8361"/>
</g>
<g id="Group_2">
<path id="Vector_4" d="M16.7332 25.2466H12.1465C11.5998 25.2466 11.1465 24.7932 11.1465 24.2466C11.1465 23.6999 11.5998 23.2466 12.1465 23.2466H16.7332C17.2798 23.2466 17.7332 23.6999 17.7332 24.2466C17.7332 24.7932 17.2932 25.2466 16.7332 25.2466Z" fill="#3D8361"/>
</g>
<g id="Group_3">
<path id="Vector_5" d="M25.3332 16.3132H2.6665V18.3132H25.3332V16.3132Z" fill="#3D8361"/>
</g>
</g>
</g>
</svg>
