<svg width="24" height="24" viewBox="0 0 24 24" fill="none" xmlns="http://www.w3.org/2000/svg">
<path d="M21.25 22H2.75C2.34 22 2 21.66 2 21.25C2 20.84 2.34 20.5 2.75 20.5H21.25C21.66 20.5 22 20.84 22 21.25C22 21.66 21.66 22 21.25 22Z" fill="white"/>
<path opacity="0.4" d="M20.5899 13.7L13.3599 20.93C11.9399 22.35 9.64988 22.35 8.23988 20.94L3.62988 16.33L15.9899 3.96997L20.5999 8.57997C22.0099 9.98997 22.0099 12.28 20.5899 13.7Z" fill="white"/>
<path d="M15.9901 3.97004L3.62006 16.33L2.71006 15.42C1.30006 14.01 1.30006 11.72 2.72006 10.3L9.95006 3.07004C11.3701 1.65004 13.6601 1.65004 15.0701 3.06004L15.9901 3.97004Z" fill="white"/>
<path d="M12.8898 17.6L11.5398 18.95C11.2598 19.23 10.8098 19.23 10.5298 18.95C10.2498 18.67 10.2498 18.22 10.5298 17.94L11.8798 16.59C12.1598 16.31 12.6098 16.31 12.8898 16.59C13.1698 16.87 13.1698 17.32 12.8898 17.6Z" fill="white"/>
<path d="M17.2699 13.22L14.5799 15.91C14.2999 16.19 13.8499 16.19 13.5699 15.91C13.2899 15.63 13.2899 15.18 13.5699 14.9L16.2599 12.21C16.5399 11.93 16.9899 11.93 17.2699 12.21C17.5399 12.49 17.5399 12.94 17.2699 13.22Z" fill="white"/>
</svg>
