<svg width="64" height="64" viewBox="0 0 64 64" fill="none" xmlns="http://www.w3.org/2000/svg">
<g id="Bold Duotone / Notes / Clipboard Remove">
<path id="Vector" opacity="0.5" d="M56 42.6621V26.6621V26.662C56 19.1196 56 15.3483 53.6569 13.0052C51.6078 10.9562 48.4667 10.699 42.6667 10.6667H21.3333C15.5333 10.699 12.3922 10.9562 10.3431 13.0052C8 15.3483 8 19.1196 8 26.6621V42.6621C8 50.2045 8 53.9758 10.3431 56.3189C12.6863 58.6621 16.4575 58.6621 24 58.6621H40C47.5425 58.6621 51.3137 58.6621 53.6569 56.3189C56 53.9758 56 50.2045 56 42.6621V42.6621Z" fill="#ADADAD"/>
<path id="Vector_2" d="M21.333 9.33331C21.333 7.12417 23.1239 5.33331 25.333 5.33331H38.6663C40.8755 5.33331 42.6663 7.12417 42.6663 9.33331V12C42.6663 14.2091 40.8755 16 38.6663 16H25.333C23.1239 16 21.333 14.2091 21.333 12V9.33331Z" fill="#ADADAD"/>
<path id="Vector_3" fill-rule="evenodd" clip-rule="evenodd" d="M23.9188 27.9192C24.6998 27.1381 25.9662 27.1381 26.7472 27.9192L31.9997 33.1716L37.2521 27.9192C38.0332 27.1382 39.2995 27.1382 40.0806 27.9192C40.8616 28.7003 40.8616 29.9666 40.0806 30.7476L34.8281 36.0001L40.0805 41.2524C40.8615 42.0335 40.8615 43.2998 40.0805 44.0809C39.2994 44.8619 38.0331 44.8619 37.2521 44.0809L31.9997 38.8285L26.7473 44.0809C25.9662 44.862 24.6999 44.862 23.9189 44.0809C23.1378 43.2999 23.1378 42.0335 23.9189 41.2525L29.1713 36.0001L23.9188 30.7476C23.1377 29.9665 23.1377 28.7002 23.9188 27.9192Z" fill="#ADADAD"/>
</g>
</svg>
