<svg width="18" height="19" viewBox="0 0 18 19" fill="none" xmlns="http://www.w3.org/2000/svg">
<g id="vuesax/bold/clock">
<g id="clock">
<path id="Vector" d="M9 1.58936C4.8675 1.58936 1.5 4.95686 1.5 9.08936C1.5 13.2219 4.8675 16.5894 9 16.5894C13.1325 16.5894 16.5 13.2219 16.5 9.08936C16.5 4.95686 13.1325 1.58936 9 1.58936ZM12.2625 11.7669C12.1575 11.9469 11.97 12.0444 11.775 12.0444C11.6775 12.0444 11.58 12.0219 11.49 11.9619L9.165 10.5744C8.5875 10.2294 8.16 9.47186 8.16 8.80436V5.72936C8.16 5.42186 8.415 5.16686 8.7225 5.16686C9.03 5.16686 9.285 5.42186 9.285 5.72936V8.80436C9.285 9.07436 9.51 9.47186 9.7425 9.60686L12.0675 10.9944C12.3375 11.1519 12.4275 11.4969 12.2625 11.7669Z" fill="#FFB70A"/>
</g>
</g>
</svg>
