<svg width="32" height="33" viewBox="0 0 32 33" fill="none" xmlns="http://www.w3.org/2000/svg">
<g id="vuesax/bulk/wallet-3">
<g id="wallet-3">
<path id="Vector" d="M19.9993 8.70011H7.99935C5.05268 8.70011 2.66602 11.0868 2.66602 14.0334V9.22005C2.66602 6.50005 4.86602 4.30005 7.58602 4.30005H15.0793C17.7993 4.30005 19.9993 5.98011 19.9993 8.70011Z" fill="#CBCBCB"/>
<path id="Vector_2" opacity="0.4" d="M23.306 16.7666C22.6393 17.4199 22.3194 18.4066 22.586 19.4066C22.9194 20.6466 24.146 21.4333 25.426 21.4333H26.666V23.3666C26.666 26.3133 24.2793 28.7 21.3327 28.7H7.99935C5.05268 28.7 2.66602 26.3133 2.66602 23.3666V14.0333C2.66602 11.0866 5.05268 8.69995 7.99935 8.69995H21.3327C24.266 8.69995 26.666 11.1 26.666 14.0333V15.9666H25.226C24.4793 15.9666 23.7993 16.2599 23.306 16.7666Z" fill="#CBCBCB"/>
<path id="Vector_3" d="M29.333 17.3266V20.0732C29.333 20.8199 28.7196 21.4333 27.9596 21.4333H25.3863C23.9463 21.4333 22.6263 20.3799 22.5063 18.9399C22.4263 18.0999 22.7463 17.3133 23.3063 16.7666C23.7996 16.2599 24.4796 15.9666 25.2263 15.9666H27.9596C28.7196 15.9666 29.333 16.5799 29.333 17.3266Z" fill="#CBCBCB"/>
<g id="Group">
<path id="Vector_4" d="M17.333 16.3667H9.33301C8.78634 16.3667 8.33301 15.9134 8.33301 15.3667C8.33301 14.82 8.78634 14.3667 9.33301 14.3667H17.333C17.8797 14.3667 18.333 14.82 18.333 15.3667C18.333 15.9134 17.8797 16.3667 17.333 16.3667Z" fill="#CBCBCB"/>
</g>
</g>
</g>
</svg>
