<svg width="32" height="32" viewBox="0 0 32 32" fill="none" xmlns="http://www.w3.org/2000/svg">
<g id="vuesax/bulk/cards">
<g id="cards">
<path id="Vector" opacity="0.4" d="M25.3332 13.7066V23.2399C25.2932 27.0399 24.2531 27.9999 20.2931 27.9999H7.70654C3.67988 27.9999 2.6665 26.9999 2.6665 23.0266V13.7066C2.6665 10.1066 3.5065 8.94661 6.6665 8.75994C6.9865 8.74661 7.33321 8.73328 7.70654 8.73328H20.2931C24.3198 8.73328 25.3332 9.73328 25.3332 13.7066Z" fill="#ADADAD"/>
<path id="Vector_2" d="M29.3332 8.97333V18.2933C29.3332 21.8933 28.4932 23.0533 25.3332 23.24V13.7067C25.3332 9.73333 24.3198 8.73333 20.2931 8.73333H7.70654C7.33321 8.73333 6.9865 8.74667 6.6665 8.76C6.7065 4.96 7.74654 4 11.7065 4H24.2931C28.3198 4 29.3332 5 29.3332 8.97333Z" fill="#ADADAD"/>
<g id="Group">
<path id="Vector_3" d="M9.28019 24.7467H6.98682C6.44015 24.7467 5.98682 24.2934 5.98682 23.7467C5.98682 23.2 6.44015 22.7467 6.98682 22.7467H9.28019C9.82686 22.7467 10.2802 23.2 10.2802 23.7467C10.2802 24.2934 9.84019 24.7467 9.28019 24.7467Z" fill="#ADADAD"/>
</g>
<g id="Group_2">
<path id="Vector_4" d="M16.7332 24.7467H12.1465C11.5998 24.7467 11.1465 24.2934 11.1465 23.7467C11.1465 23.2 11.5998 22.7467 12.1465 22.7467H16.7332C17.2798 22.7467 17.7332 23.2 17.7332 23.7467C17.7332 24.2934 17.2932 24.7467 16.7332 24.7467Z" fill="#ADADAD"/>
</g>
<g id="Group_3">
<path id="Vector_5" d="M25.3332 15.8134H2.6665V17.8134H25.3332V15.8134Z" fill="#ADADAD"/>
</g>
</g>
</g>
</svg>
