<svg width="16" height="17" viewBox="0 0 16 17" fill="none" xmlns="http://www.w3.org/2000/svg">
<g id="vuesax/outline/dislike">
<g id="dislike">
<path id="Vector" d="M7.20035 15.4012C7.00702 15.4012 6.81368 15.3679 6.63368 15.3012C5.80035 15.0279 5.26702 14.1079 5.45368 13.2546L5.78035 11.1546C5.78702 11.1079 5.78702 11.0412 5.74035 10.9879C5.70702 10.9546 5.66035 10.9346 5.60702 10.9346H2.94035C2.28702 10.9346 1.72035 10.6612 1.38702 10.1879C1.06035 9.7279 0.993685 9.12124 1.20702 8.53457L2.80035 3.68124C3.04702 2.71457 4.08035 1.93457 5.14702 1.93457H7.68035C8.05368 1.93457 8.86702 2.0479 9.30035 2.48124L11.3204 4.04124L10.707 4.83457L8.64035 3.23457C8.47368 3.0679 8.05368 2.93457 7.68035 2.93457H5.14702C4.54702 2.93457 3.90035 3.41457 3.76702 3.95457L2.15368 8.85457C2.04702 9.1479 2.06702 9.41457 2.20702 9.6079C2.35368 9.81457 2.62035 9.93457 2.94702 9.93457H5.61368C5.96035 9.93457 6.28035 10.0812 6.50035 10.3346C6.72702 10.5946 6.82702 10.9412 6.77368 11.3012L6.44035 13.4412C6.36035 13.8146 6.61368 14.2346 6.97368 14.3546C7.29368 14.4746 7.72035 14.3012 7.86702 14.0879L10.6004 10.0212L11.427 10.5812L8.69368 14.6479C8.38035 15.1146 7.78702 15.4012 7.20035 15.4012Z" fill="#ADADAD"/>
<path id="Vector_2" d="M13.0801 12.7346H12.4134C11.1801 12.7346 10.5801 12.1546 10.5801 10.968V4.43464C10.5801 3.24797 11.1801 2.66797 12.4134 2.66797H13.0801C14.3134 2.66797 14.9134 3.24797 14.9134 4.43464V10.968C14.9134 12.1546 14.3134 12.7346 13.0801 12.7346ZM12.4134 3.66797C11.6867 3.66797 11.5801 3.8413 11.5801 4.43464V10.968C11.5801 11.5613 11.6867 11.7346 12.4134 11.7346H13.0801C13.8067 11.7346 13.9134 11.5613 13.9134 10.968V4.43464C13.9134 3.8413 13.8067 3.66797 13.0801 3.66797H12.4134Z" fill="#ADADAD"/>
</g>
</g>
</svg>
