<svg width="64" height="64" viewBox="0 0 64 64" fill="none" xmlns="http://www.w3.org/2000/svg">
<path opacity="0.4" d="M54.6667 27.1734H46.9601C40.6401 27.1734 35.4934 22.0267 35.4934 15.7067V8.00004C35.4934 6.53337 34.2934 5.33337 32.8267 5.33337H21.5201C13.3067 5.33337 6.66675 10.6667 6.66675 20.1867V43.8134C6.66675 53.3334 13.3067 58.6667 21.5201 58.6667H42.4801C50.6934 58.6667 57.3334 53.3334 57.3334 43.8134V29.84C57.3334 28.3734 56.1334 27.1734 54.6667 27.1734Z" fill="#3D8361"/>
<path d="M42.1334 5.89327C41.0401 4.79994 39.1467 5.54661 39.1467 7.06661V16.3733C39.1467 20.2666 42.4534 23.4933 46.4801 23.4933C49.0134 23.5199 52.5334 23.5199 55.5467 23.5199C57.0667 23.5199 57.8667 21.7333 56.8001 20.6666C52.9601 16.7999 46.0801 9.83994 42.1334 5.89327Z" fill="#3D8361"/>
<path d="M30.7467 33.2534L25.4133 27.92C25.3867 27.8934 25.36 27.8934 25.36 27.8667C25.2 27.7067 24.9867 27.5734 24.7733 27.4667C24.7467 27.4667 24.7467 27.4667 24.72 27.4667C24.5067 27.3867 24.2933 27.36 24.08 27.3334C24 27.3334 23.9467 27.3334 23.8667 27.3334C23.7067 27.3334 23.52 27.3867 23.36 27.44C23.28 27.4667 23.2267 27.4934 23.1733 27.52C22.96 27.6267 22.7467 27.7334 22.5867 27.92L17.2533 33.2534C16.48 34.0267 16.48 35.3067 17.2533 36.08C18.0267 36.8534 19.3067 36.8534 20.08 36.08L22 34.16V45.3334C22 46.4267 22.9067 47.3334 24 47.3334C25.0933 47.3334 26 46.4267 26 45.3334V34.16L27.92 36.08C28.32 36.48 28.8267 36.6667 29.3333 36.6667C29.84 36.6667 30.3467 36.48 30.7467 36.08C31.52 35.3067 31.52 34.0267 30.7467 33.2534Z" fill="#3D8361"/>
</svg>
