<svg width="20" height="21" viewBox="0 0 20 21" fill="none" xmlns="http://www.w3.org/2000/svg">
<g id="vuesax/outline/edit">
<g id="edit">
<path id="Vector" d="M12.4998 19.4587H7.49984C2.97484 19.4587 1.0415 17.5253 1.0415 13.0003V8.00033C1.0415 3.47533 2.97484 1.54199 7.49984 1.54199H9.1665C9.50817 1.54199 9.7915 1.82533 9.7915 2.16699C9.7915 2.50866 9.50817 2.79199 9.1665 2.79199H7.49984C3.65817 2.79199 2.2915 4.15866 2.2915 8.00033V13.0003C2.2915 16.842 3.65817 18.2087 7.49984 18.2087H12.4998C16.3415 18.2087 17.7082 16.842 17.7082 13.0003V11.3337C17.7082 10.992 17.9915 10.7087 18.3332 10.7087C18.6748 10.7087 18.9582 10.992 18.9582 11.3337V13.0003C18.9582 17.5253 17.0248 19.4587 12.4998 19.4587Z" fill="#3D8361"/>
<path id="Vector_2" d="M7.08311 15.2415C6.57478 15.2415 6.10811 15.0581 5.76645 14.7248C5.35811 14.3165 5.18311 13.7248 5.27478 13.0998L5.63311 10.5915C5.69978 10.1081 6.01645 9.48314 6.35811 9.14147L12.9248 2.5748C14.5831 0.916471 16.2664 0.916471 17.9248 2.5748C18.8331 3.48314 19.2414 4.40814 19.1581 5.33314C19.0831 6.08314 18.6831 6.81647 17.9248 7.56647L11.3581 14.1331C11.0164 14.4748 10.3914 14.7915 9.90812 14.8581L7.39978 15.2165C7.29145 15.2415 7.18311 15.2415 7.08311 15.2415ZM13.8081 3.45814L7.24145 10.0248C7.08311 10.1831 6.89978 10.5498 6.86645 10.7665L6.50811 13.2748C6.47478 13.5165 6.52478 13.7165 6.64978 13.8415C6.77478 13.9665 6.97478 14.0165 7.21645 13.9831L9.72478 13.6248C9.94145 13.5915 10.3164 13.4081 10.4664 13.2498L17.0331 6.68314C17.5748 6.14147 17.8581 5.65814 17.8998 5.20814C17.9498 4.66647 17.6664 4.09147 17.0331 3.4498C15.6998 2.11647 14.7831 2.49147 13.8081 3.45814Z" fill="#3D8361"/>
<path id="Vector_3" d="M16.5418 8.69124C16.4835 8.69124 16.4251 8.68291 16.3751 8.66624C14.1835 8.04957 12.4418 6.30791 11.8251 4.11624C11.7335 3.78291 11.9251 3.44124 12.2585 3.34124C12.5918 3.24957 12.9335 3.44124 13.0251 3.77457C13.5251 5.54957 14.9335 6.95791 16.7085 7.45791C17.0418 7.54957 17.2335 7.89957 17.1418 8.23291C17.0668 8.51624 16.8168 8.69124 16.5418 8.69124Z" fill="#3D8361"/>
</g>
</g>
</svg>
