<svg width="20" height="21" viewBox="0 0 20 21" fill="none" xmlns="http://www.w3.org/2000/svg">
<g id="vuesax/outline/edit">
<g id="edit">
<path id="Vector" d="M12.5003 19.4583H7.50033C2.97533 19.4583 1.04199 17.525 1.04199 13V7.99996C1.04199 3.47496 2.97533 1.54163 7.50033 1.54163H9.16699C9.50866 1.54163 9.79199 1.82496 9.79199 2.16663C9.79199 2.50829 9.50866 2.79163 9.16699 2.79163H7.50033C3.65866 2.79163 2.29199 4.15829 2.29199 7.99996V13C2.29199 16.8416 3.65866 18.2083 7.50033 18.2083H12.5003C16.342 18.2083 17.7087 16.8416 17.7087 13V11.3333C17.7087 10.9916 17.992 10.7083 18.3337 10.7083C18.6753 10.7083 18.9587 10.9916 18.9587 11.3333V13C18.9587 17.525 17.0253 19.4583 12.5003 19.4583Z" fill="#3D8361"/>
<path id="Vector_2" d="M7.08311 15.2417C6.57478 15.2417 6.10811 15.0584 5.76645 14.725C5.35811 14.3167 5.18311 13.725 5.27478 13.1L5.63311 10.5917C5.69978 10.1084 6.01645 9.48338 6.35811 9.14171L12.9248 2.57505C14.5831 0.916716 16.2664 0.916716 17.9248 2.57505C18.8331 3.48338 19.2414 4.40838 19.1581 5.33338C19.0831 6.08338 18.6831 6.81672 17.9248 7.56672L11.3581 14.1334C11.0164 14.475 10.3914 14.7917 9.90812 14.8584L7.39978 15.2167C7.29145 15.2417 7.18311 15.2417 7.08311 15.2417ZM13.8081 3.45838L7.24145 10.025C7.08311 10.1834 6.89978 10.55 6.86645 10.7667L6.50811 13.275C6.47478 13.5167 6.52478 13.7167 6.64978 13.8417C6.77478 13.9667 6.97478 14.0167 7.21645 13.9834L9.72478 13.625C9.94145 13.5917 10.3164 13.4084 10.4664 13.25L17.0331 6.68338C17.5748 6.14172 17.8581 5.65838 17.8998 5.20838C17.9498 4.66672 17.6664 4.09172 17.0331 3.45005C15.6998 2.11672 14.7831 2.49172 13.8081 3.45838Z" fill="#3D8361"/>
<path id="Vector_3" d="M16.5413 8.69161C16.483 8.69161 16.4246 8.68327 16.3746 8.66661C14.183 8.04994 12.4413 6.30827 11.8246 4.11661C11.733 3.78327 11.9246 3.44161 12.258 3.34161C12.5913 3.24994 12.933 3.44161 13.0246 3.77494C13.5246 5.54994 14.933 6.95827 16.708 7.45827C17.0413 7.54994 17.233 7.89994 17.1413 8.23327C17.0663 8.51661 16.8163 8.69161 16.5413 8.69161Z" fill="#3D8361"/>
</g>
</g>
</svg>
