<svg width="20" height="21" viewBox="0 0 20 21" fill="none" xmlns="http://www.w3.org/2000/svg">
<path opacity="0.4" d="M12.8998 3H6.2665C3.3915 3 1.6665 4.71667 1.6665 7.6V14.225C1.6665 17.1167 3.3915 18.8333 6.2665 18.8333H12.8915C15.7748 18.8333 17.4915 17.1167 17.4915 14.2333V7.6C17.4998 4.71667 15.7748 3 12.8998 3Z" fill="#3D8361"/>
<path d="M17.5167 2.98336C16.0251 1.48336 14.5667 1.45003 13.0334 2.98336L12.0917 3.91669C12.0084 4.00003 11.9834 4.11669 12.0167 4.22503C12.6001 6.26669 14.2334 7.90003 16.2751 8.48336C16.3001 8.49169 16.3417 8.49169 16.3667 8.49169C16.4501 8.49169 16.5334 8.45836 16.5917 8.40003L17.5167 7.46669C18.2751 6.70836 18.6501 5.98336 18.6501 5.24169C18.6501 4.49169 18.2751 3.75003 17.5167 2.98336Z" fill="#3D8361"/>
<path d="M14.8831 9.18328C14.6581 9.07495 14.4414 8.96662 14.2414 8.84162C14.0748 8.74162 13.9081 8.63328 13.7498 8.51662C13.6164 8.43328 13.4664 8.30828 13.3164 8.18328C13.2998 8.17495 13.2498 8.13328 13.1831 8.06662C12.9248 7.85828 12.6498 7.57495 12.3914 7.26662C12.3748 7.24995 12.3248 7.19995 12.2831 7.12495C12.1998 7.03328 12.0748 6.87495 11.9664 6.69995C11.8748 6.58328 11.7664 6.41662 11.6664 6.24162C11.5414 6.03328 11.4331 5.82495 11.3331 5.60828C11.2248 5.37495 11.1414 5.15828 11.0664 4.94995L6.58309 9.43328C6.29142 9.72495 6.00809 10.275 5.94976 10.6833L5.59142 13.1666C5.51642 13.6916 5.65809 14.1833 5.98309 14.5083C6.25809 14.7833 6.63309 14.9249 7.04976 14.9249C7.14142 14.9249 7.23309 14.9166 7.32476 14.9083L9.79976 14.5583C10.2081 14.5 10.7581 14.225 11.0498 13.925L15.5331 9.44162C15.3248 9.37495 15.1164 9.28328 14.8831 9.18328Z" fill="#3D8361"/>
</svg>
