<svg width="20" height="20" viewBox="0 0 20 20" fill="none" xmlns="http://www.w3.org/2000/svg">
<path opacity="0.4" d="M17.167 3.41667V5.25C17.167 5.91667 16.7503 6.75 16.3337 7.16667L12.7503 10.3333C12.2503 10.75 11.917 11.5833 11.917 12.25V15.8333C11.917 16.3333 11.5837 17 11.167 17.25L10.0003 18C8.91699 18.6667 7.41699 17.9167 7.41699 16.5833V12.1667C7.41699 11.5833 7.08366 10.8333 6.75033 10.4167L5.91699 9.54167L10.767 1.75H15.5003C16.417 1.75 17.167 2.5 17.167 3.41667Z" fill="#3D8361"/>
<path d="M9.41634 1.75L5.09967 8.675L3.58301 7.08333C3.16634 6.66667 2.83301 5.91667 2.83301 5.41667V3.5C2.83301 2.5 3.58301 1.75 4.49967 1.75H9.41634Z" fill="#3D8361"/>
</svg>
