<svg width="20" height="20" viewBox="0 0 20 20" fill="none" xmlns="http://www.w3.org/2000/svg">
<path d="M4.29175 18.9584C3.95008 18.9584 3.66675 18.6751 3.66675 18.3334V1.66675C3.66675 1.32508 3.95008 1.04175 4.29175 1.04175C4.63341 1.04175 4.91675 1.32508 4.91675 1.66675V18.3334C4.91675 18.6751 4.63341 18.9584 4.29175 18.9584Z" fill="#3D8361"/>
<path d="M13.6251 13.9584H4.29175C3.95008 13.9584 3.66675 13.675 3.66675 13.3334C3.66675 12.9917 3.95008 12.7084 4.29175 12.7084H13.6251C14.5334 12.7084 14.9584 12.4667 15.0417 12.2584C15.1251 12.05 15.0001 11.5834 14.3501 10.9417L13.3501 9.94171C12.9417 9.58337 12.6917 9.04171 12.6667 8.44171C12.6417 7.80837 12.8917 7.18337 13.3501 6.72504L14.3501 5.72504C14.9667 5.10837 15.1584 4.60837 15.0667 4.39171C14.9751 4.17504 14.5001 3.95837 13.6251 3.95837H4.29175C3.94175 3.95837 3.66675 3.67504 3.66675 3.33337C3.66675 2.99171 3.95008 2.70837 4.29175 2.70837H13.6251C15.4501 2.70837 16.0334 3.46671 16.2251 3.91671C16.4084 4.36671 16.5334 5.31671 15.2334 6.61671L14.2334 7.61671C14.0251 7.82504 13.9084 8.11671 13.9167 8.40837C13.9251 8.65837 14.0251 8.88337 14.2001 9.04171L15.2334 10.0667C16.5084 11.3417 16.3834 12.2917 16.2001 12.75C16.0084 13.1917 15.4167 13.9584 13.6251 13.9584Z" fill="#3D8361"/>
</svg>
