<svg width="40" height="41" viewBox="0 0 40 41" fill="none" xmlns="http://www.w3.org/2000/svg">
<g clip-path="url(#clip0_2006_18266)">
<path d="M20.545 21.99C22.635 21.44 24.735 20.9 26.805 20.28C28.5702 19.8916 30.1996 19.0389 31.525 17.81C32.835 16.42 32.985 14.67 33.085 12.81C33.185 10.95 33.085 9.03004 33.015 7.13004C33.015 6.45004 33.015 5.08002 32.125 5.02002C31.1297 5.04405 30.1458 5.23679 29.215 5.59003C27.905 5.97003 26.605 6.41003 25.335 6.91003C24.0498 7.32366 22.8671 8.00535 21.865 8.91003C20.405 10.4 19.985 12.8 19.725 14.8C19.4159 17.0926 19.5141 19.4216 20.015 21.68C20.105 22.1 20.735 21.92 20.655 21.51C20.2757 19.6421 20.1546 17.7309 20.295 15.83C20.3735 13.9885 20.8047 12.1791 21.565 10.5C22.765 8.14003 25.765 7.25003 28.105 6.44003C29.1153 6.08161 30.1474 5.78768 31.195 5.56003C31.5145 5.44288 31.8577 5.40514 32.195 5.45004C32.595 5.58004 32.545 6.45004 32.555 6.76004C32.555 7.47004 32.555 8.17004 32.555 8.88004C32.555 9.78004 32.555 10.68 32.555 11.58C32.475 13.3 32.555 15.29 31.555 16.76C30.555 18.23 28.505 19.05 26.725 19.59C24.645 20.21 22.575 20.8434 20.515 21.49C20.4635 21.5116 20.4217 21.5512 20.3972 21.6013C20.3727 21.6515 20.3673 21.7088 20.382 21.7627C20.3967 21.8165 20.4305 21.8632 20.477 21.894C20.5236 21.9247 20.5797 21.9376 20.635 21.93L20.545 21.99Z" fill="#ADADAD"/>
<path d="M20.5253 21.48C20.3353 20.73 20.0853 20.01 19.9653 19.23C19.8453 18.45 19.7753 17.58 19.7053 16.75C19.6263 15.3803 19.3362 14.0311 18.8453 12.75C18.2487 11.4616 17.3928 10.31 16.3313 9.36713C15.2697 8.42426 14.0251 7.71035 12.6753 7.26999C11.9319 6.99278 11.1741 6.75578 10.4053 6.56C10.1447 6.44115 9.86167 6.37964 9.57528 6.37964C9.28889 6.37964 9.00586 6.44115 8.74529 6.56C8.33214 6.9832 8.04476 7.51292 7.91528 8.09C7.62683 8.86354 7.40275 9.65958 7.24529 10.47C7.10224 11.2391 7.01866 12.0181 6.99529 12.8C6.92861 13.4747 7.00354 14.1559 7.21529 14.8C7.8688 16.0127 8.81387 17.0437 9.96529 17.8C12.8753 19.99 16.4553 20.93 19.9653 21.8C20.0634 21.8265 20.168 21.813 20.2562 21.7623C20.3443 21.7117 20.4088 21.6281 20.4353 21.53C20.4618 21.4319 20.4482 21.3272 20.3976 21.2391C20.347 21.1509 20.2634 21.0865 20.1653 21.06C17.334 20.4648 14.5914 19.5069 12.0053 18.21C10.8529 17.5883 9.80099 16.796 8.88528 15.86C8.37174 15.405 7.99443 14.8166 7.79528 14.16C7.6853 13.4073 7.6853 12.6427 7.79528 11.89C7.89687 10.369 8.29073 8.8819 8.95528 7.51001C9.14528 7.14001 9.22529 7.01001 9.67529 7.07001C10.1253 7.13001 10.2953 7.22002 10.5953 7.30002C11.2553 7.48002 11.9153 7.68001 12.5953 7.92001C13.9106 8.35038 15.1172 9.06031 16.1321 10.0011C17.1471 10.9418 17.9465 12.0911 18.4753 13.37C18.9272 14.7947 19.2059 16.2687 19.3053 17.76C19.3403 19.1241 19.7409 20.4537 20.4653 21.61C20.5253 21.69 20.6453 21.61 20.6253 21.52L20.5253 21.48Z" fill="#ADADAD"/>
<path d="M20.6551 21.8301C24.2851 20.8301 28.3451 19.34 32.0551 20.92C35.0551 22.21 36.7351 25.39 39.5751 27L39.4751 26.6101C38.316 28.1683 36.7017 29.3283 34.8551 29.93C33.8703 30.3718 32.8412 30.707 31.7851 30.93C30.6736 31.1045 29.5354 30.9444 28.5151 30.47C26.6962 29.5645 25.0802 28.2989 23.7651 26.75C23.1032 26.0101 22.4981 25.2212 21.9551 24.39C21.3951 23.54 20.9551 22.6 20.4251 21.75C20.3914 21.6998 20.3413 21.6629 20.2833 21.6456C20.2253 21.6284 20.1631 21.632 20.1074 21.6556C20.0518 21.6793 20.0061 21.7217 19.9783 21.7754C19.9505 21.8292 19.9423 21.8909 19.9551 21.95C20.5196 23.5427 21.3892 25.0101 22.5151 26.27C23.5949 27.6235 24.853 28.8244 26.2551 29.84C27.5583 30.8864 29.1564 31.4984 30.8251 31.59C32.5704 31.4581 34.2711 30.9751 35.8251 30.17C37.4731 29.5135 38.8967 28.3955 39.9251 26.95C39.9598 26.8842 39.9688 26.8079 39.9503 26.7358C39.9318 26.6637 39.8872 26.6011 39.8251 26.56C36.8251 24.87 35.1251 21.49 31.8251 20.29C30.0303 19.6952 28.1141 19.5645 26.2551 19.91C25.239 20.0772 24.2364 20.3178 23.2551 20.63C22.3109 20.8935 21.3936 21.245 20.5151 21.68C20.4151 21.74 20.5151 21.92 20.6051 21.88L20.6551 21.8301Z" fill="#ADADAD"/>
<path d="M20.2551 21.8999C20.4886 23.1587 21.0354 24.3383 21.8451 25.3299C22.7881 26.3251 23.5526 27.4753 24.1051 28.7299C24.5462 29.9939 24.6156 31.3578 24.3051 32.6599C23.8608 34.0834 23.2569 35.4521 22.5051 36.7399L21.5051 38.6699C21.3943 39.0266 21.2291 39.3639 21.0151 39.6699C20.6951 39.9599 20.2251 39.4599 19.9551 39.2799C18.698 38.4435 17.5078 37.5107 16.3951 36.4899C15.3852 35.6427 14.6823 34.4865 14.3951 33.1999C14.2192 31.7388 14.5359 30.2607 15.2951 28.9999C15.9991 27.6684 16.7701 26.3734 17.6051 25.1199C18.0101 24.495 18.4508 23.894 18.9251 23.3199C19.3951 22.7599 19.9251 22.2699 20.3851 21.6899C20.5851 21.4399 20.2051 21.1199 19.9651 21.2699C18.7759 22.1472 17.7845 23.2647 17.0551 24.5499C16.2251 25.7899 15.4551 27.0999 14.7351 28.4199C13.954 29.7047 13.5583 31.1868 13.5951 32.6899C13.6903 34.0297 14.2655 35.2901 15.2151 36.2399C16.3575 37.3553 17.6031 38.3598 18.9351 39.2399C19.4737 39.7016 20.0767 40.0822 20.7251 40.3699C21.3251 40.5499 21.5451 39.9199 21.7251 39.4999C22.5051 37.9399 23.3151 36.3799 24.0551 34.7999C24.706 33.5472 25.0326 32.1514 25.0051 30.7399C24.9346 29.1921 24.3939 27.7026 23.4551 26.4699C22.8851 25.7399 22.2351 25.0899 21.7351 24.3099C21.2511 23.5236 20.8426 22.6933 20.5151 21.8299C20.5045 21.7915 20.4791 21.7588 20.4444 21.7391C20.4097 21.7194 20.3686 21.7143 20.3301 21.7249C20.2917 21.7355 20.259 21.761 20.2393 21.7957C20.2196 21.8304 20.2145 21.8715 20.2251 21.9099L20.2551 21.8999Z" fill="#ADADAD"/>
<path d="M19.5651 21.73C18.5032 22.7756 17.5485 23.9246 16.7151 25.16C15.8347 26.2552 14.721 27.1401 13.4551 27.75C12.0265 28.4094 10.3961 28.4812 8.91507 27.95C7.38944 27.3397 5.89733 26.6487 4.44507 25.88C3.63913 25.5932 2.80918 25.379 1.96509 25.24C1.86509 25.24 1.50508 25.15 1.45508 25.04C1.40508 24.93 1.54507 24.82 1.63507 24.71C2.03555 24.1911 2.49913 23.7242 3.01508 23.32C4.05153 22.483 5.13677 21.7083 6.26508 21C7.43767 20.1174 8.81301 19.5432 10.2651 19.33C12.0051 19.17 13.4851 20 15.0551 20.58C16.5259 21.1602 18.0498 21.5956 19.6051 21.88C20.0951 21.96 20.3051 21.21 19.8151 21.13C18.2278 20.8429 16.6734 20.3974 15.1751 19.8C13.6251 19.23 12.1751 18.44 10.4751 18.54C8.9034 18.6821 7.39821 19.2414 6.11508 20.16C4.84614 20.9592 3.62412 21.8307 2.45508 22.77C1.96061 23.1729 1.50524 23.6216 1.09506 24.11C0.835063 24.45 0.50508 24.84 0.67508 25.29C0.98508 26.08 2.31507 26.09 3.00507 26.21C3.58492 26.3372 4.14382 26.5459 4.66507 26.83C5.53507 27.25 6.39509 27.72 7.27509 28.12C8.74199 28.9465 10.4511 29.2359 12.1083 28.9384C13.7655 28.6409 15.2672 27.7751 16.3551 26.49C17.6951 25.14 18.4451 23.3 19.8751 22.06C20.1151 21.86 19.7751 21.54 19.5451 21.73H19.5651Z" fill="#ADADAD"/>
<path d="M34.6551 22.44C35.1361 22.4465 35.6116 22.3372 36.0415 22.1214C36.4713 21.9056 36.843 21.5896 37.1251 21.2C37.502 20.6082 37.8075 19.9737 38.0351 19.31C38.3351 18.51 38.6251 17.7 38.9051 16.89C39.2182 16.2948 39.3271 15.6132 39.2152 14.95C38.9752 14.33 38.2151 14.19 37.6551 14.01C36.0693 13.5171 34.443 13.1657 32.7951 12.96C32.3751 12.91 32.3851 13.56 32.7951 13.61C34.1673 13.7898 35.5243 14.0706 36.8551 14.45L37.8551 14.75C38.1451 14.85 38.5551 14.92 38.6551 15.24C38.6898 15.5192 38.6483 15.8025 38.5351 16.06C38.4251 16.41 38.2952 16.76 38.1752 17.12C37.9452 17.76 37.7052 18.41 37.4652 19.05C37.2777 19.6231 37.0331 20.1759 36.7352 20.7C36.4625 21.1697 36.0292 21.5249 35.5151 21.7C35.2251 21.8 34.9251 21.86 34.6351 21.97C34.5812 21.9916 34.536 22.0307 34.5069 22.081C34.4777 22.1313 34.4663 22.1899 34.4743 22.2475C34.4824 22.305 34.5095 22.3582 34.5513 22.3986C34.5932 22.4389 34.6473 22.4641 34.7052 22.47L34.6551 22.44Z" fill="#ADADAD"/>
<path d="M32.7949 30.93C33.0175 31.6406 33.0755 32.3925 32.9646 33.1288C32.8537 33.8651 32.5768 34.5665 32.1549 35.18C31.5149 36.25 30.4349 37.23 30.1549 38.49C30.0949 38.74 30.1549 39.02 30.1049 39.27V39.4501C29.9849 39.6301 29.8449 39.67 29.7049 39.6C29.5013 39.5426 29.3037 39.4656 29.1149 39.37C28.4049 39.09 27.7049 38.79 27.0049 38.47C26.3049 38.15 25.7049 37.83 25.0749 37.47C24.7849 37.31 24.4849 37.15 24.2049 36.97C23.9035 36.745 23.6284 36.4867 23.3849 36.2001C23.3545 36.1667 23.3137 36.1446 23.2692 36.1374C23.2246 36.1302 23.1789 36.1382 23.1396 36.1602C23.1002 36.1822 23.0694 36.2169 23.0522 36.2586C23.035 36.3004 23.0324 36.3467 23.0449 36.3901C23.2049 37.0501 23.9649 37.39 24.5049 37.72C25.2949 38.15 26.1049 38.56 26.9349 38.93C27.7649 39.3 28.5249 39.61 29.3349 39.93C29.8949 40.13 30.4449 40.2201 30.5349 39.4801C30.5284 39.1109 30.562 38.742 30.6349 38.38C30.7814 37.9703 30.9905 37.5857 31.2549 37.24C31.7249 36.56 32.2549 35.93 32.6949 35.24C33.167 34.6066 33.4644 33.8604 33.5574 33.0759C33.6504 32.2914 33.5358 31.4963 33.2249 30.77C33.0949 30.52 32.6849 30.6901 32.7749 30.9501L32.7949 30.93Z" fill="#ADADAD"/>
<path d="M14.1049 33.86C13.819 33.9917 13.5161 34.0826 13.2049 34.13C12.8979 34.1903 12.5872 34.2304 12.2749 34.25C11.6049 34.3 10.9249 34.34 10.2749 34.41C8.96761 34.5095 7.6897 34.8485 6.50491 35.41L6.97491 35.53C6.28576 34.2759 5.89564 32.8797 5.83493 31.45C5.80648 30.7503 5.8534 30.0496 5.97491 29.36C6.03491 29.04 6.10491 28.72 6.19491 28.41C6.28491 28.1 6.51491 27.84 6.50491 27.52C6.50491 27.38 6.38491 27.21 6.22491 27.23C5.52491 27.32 5.39493 28.31 5.27493 28.88C5.11299 29.6792 5.05583 30.496 5.10492 31.31C5.17796 32.9096 5.61213 34.472 6.3749 35.88C6.3976 35.919 6.42787 35.9532 6.46389 35.9804C6.49992 36.0076 6.54099 36.0274 6.58474 36.0386C6.6285 36.0497 6.67405 36.0521 6.71872 36.0455C6.76338 36.0388 6.80627 36.0234 6.84491 36C8.13171 35.4081 9.52018 35.0686 10.9349 35C11.5649 34.94 12.2049 34.9 12.8349 34.8C13.1101 34.762 13.379 34.6881 13.6349 34.58C13.8924 34.46 14.1133 34.2736 14.2749 34.04C14.3649 33.94 14.2749 33.77 14.1349 33.85L14.1049 33.86Z" fill="#ADADAD"/>
<path d="M7.24499 12.4999C6.70657 12.2602 6.12536 12.1313 5.53607 12.121C4.94678 12.1107 4.36145 12.2192 3.81497 12.4399C2.61497 12.7699 1.46497 13.2999 0.224974 13.5199C-0.0450257 13.5699 -0.0650098 13.91 0.0849902 14.08C1.97499 16.45 3.08498 19.51 5.85498 21.08C5.89372 21.1023 5.93647 21.1167 5.9808 21.1225C6.02514 21.1283 6.07019 21.1253 6.11337 21.1137C6.15655 21.1021 6.19703 21.0821 6.23248 21.0549C6.26793 21.0277 6.29765 20.9937 6.31998 20.955C6.3423 20.9162 6.35678 20.8734 6.36258 20.8291C6.36838 20.7848 6.3654 20.7397 6.35379 20.6966C6.34218 20.6534 6.32217 20.6129 6.29492 20.5775C6.26767 20.542 6.23372 20.5123 6.19498 20.4899C3.53498 18.9599 2.40499 15.8899 0.554991 13.5999L0.404967 14.1599C1.52812 13.9084 2.63115 13.5742 3.70499 13.1599C4.26067 12.9617 4.83812 12.8307 5.42499 12.7699C6.00234 12.7449 6.58074 12.765 7.15497 12.83C7.33497 12.83 7.37499 12.5999 7.24499 12.5099V12.4999Z" fill="#ADADAD"/>
<path d="M24.9352 7.38998C24.8652 5.72998 23.5552 4.38998 22.2952 3.38998C20.7352 2.21998 18.8952 1.45999 17.5152 0.0499878C17.4864 0.0209621 17.4521 -0.00210181 17.4143 -0.0178223C17.3766 -0.0335427 17.3361 -0.041626 17.2952 -0.041626C17.2543 -0.041626 17.2138 -0.0335427 17.1761 -0.0178223C17.1383 -0.00210181 17.104 0.0209621 17.0752 0.0499878C14.9777 2.08487 13.5775 4.73109 13.0752 7.60999C13.0752 8.00998 13.6552 8.00998 13.7052 7.60999C14.0352 4.83999 15.7052 2.48998 17.5252 0.47998H17.0852C18.3829 1.63871 19.8088 2.64525 21.3352 3.47998C22.8894 4.34846 24.0839 5.7415 24.7052 7.40997C24.7552 7.52997 24.9552 7.51997 24.9452 7.40997L24.9352 7.38998Z" fill="#ADADAD"/>
<path d="M13.2853 7.68997C13.2986 7.68997 13.3113 7.6847 13.3207 7.67532C13.3301 7.66595 13.3354 7.65324 13.3354 7.63998C13.3354 7.62672 13.3301 7.61399 13.3207 7.60461C13.3113 7.59524 13.2986 7.58997 13.2853 7.58997C13.2721 7.58997 13.2594 7.59524 13.25 7.60461C13.2406 7.61399 13.2354 7.62672 13.2354 7.63998C13.2354 7.65324 13.2406 7.66595 13.25 7.67532C13.2594 7.6847 13.2721 7.68997 13.2853 7.68997Z" fill="#ADADAD"/>
<path d="M27.9752 12.49C27.2611 14.2028 26.2713 15.7871 25.0452 17.18C24.4631 17.8438 23.8312 18.4622 23.1552 19.03C22.4552 19.61 21.6752 20.03 20.9552 20.62C20.7952 20.75 20.9552 20.96 21.1652 20.89C21.9848 20.462 22.7418 19.9236 23.4152 19.29C24.1352 18.6789 24.8041 18.01 25.4152 17.29C26.5909 15.8773 27.5298 14.2833 28.1952 12.57C28.2552 12.44 28.0352 12.38 27.9752 12.51V12.49Z" fill="#ADADAD"/>
<path d="M24.2452 13.92C23.3978 15.0009 22.6827 16.1792 22.1152 17.43C21.8352 18.06 21.6052 18.71 21.3552 19.35C21.2352 19.69 21.1052 20.03 20.9752 20.35C20.8197 20.6717 20.6926 21.0063 20.5952 21.35C20.5952 21.49 20.7552 21.63 20.8652 21.5C21.24 20.9552 21.5174 20.3496 21.6852 19.71C21.9252 19.05 22.1352 18.39 22.4052 17.71C22.9311 16.4087 23.602 15.1709 24.4052 14.02C24.4852 13.91 24.2952 13.76 24.2152 13.87L24.2452 13.92Z" fill="#ADADAD"/>
<path d="M32.5149 24.6C30.5687 23.5825 28.4828 22.8581 26.3249 22.45C25.2649 22.27 24.1949 22.18 23.1249 22.01C22.0873 21.8214 21.0672 21.5471 20.0749 21.19C19.8749 21.12 19.7849 21.41 19.9449 21.52C21.6149 22.67 23.9449 22.61 25.8549 22.91C28.1062 23.2479 30.294 23.9221 32.3449 24.91C32.5449 25 32.7249 24.71 32.5149 24.6Z" fill="#ADADAD"/>
<path d="M21.0254 21.8C22.5283 23.2342 24.3032 24.3528 26.2454 25.09C27.2954 25.51 28.3854 25.85 29.4654 26.19C30.5454 26.53 31.6854 26.97 32.8154 27.19C32.8549 27.1967 32.8957 27.19 32.931 27.1709C32.9663 27.1518 32.9942 27.1215 33.0103 27.0847C33.0264 27.0479 33.0297 27.0068 33.0198 26.9679C33.0098 26.929 32.9872 26.8945 32.9554 26.87C32.0376 26.3609 31.0601 25.9679 30.0454 25.7C28.9654 25.36 27.8754 25.05 26.8054 24.7C24.8031 23.9175 22.9107 22.8788 21.1754 21.61C21.0554 21.53 20.9254 21.71 21.0254 21.81V21.8Z" fill="#ADADAD"/>
<path d="M20.0052 22.16C19.7699 23.9222 19.8104 25.7103 20.1251 27.46C20.2751 28.37 20.4752 29.26 20.5952 30.17C20.7204 31.1309 20.7001 32.1052 20.5352 33.06C20.5352 33.22 20.7252 33.34 20.8152 33.18C21.5752 31.64 21.0652 29.74 20.7552 28.18C20.4199 26.1974 20.246 24.1908 20.2352 22.18C20.2352 22.05 20.0252 22.01 20.0052 22.18V22.16Z" fill="#ADADAD"/>
<path d="M19.7152 22.02C19.071 23.7242 18.5889 25.4853 18.2752 27.28C17.908 29.0314 17.7735 30.8235 17.8752 32.61C17.8752 32.81 18.2352 32.9 18.2752 32.66C18.5152 30.89 18.5952 29.11 18.8952 27.35C19.1964 25.587 19.6038 23.8439 20.1152 22.13C20.1952 21.87 19.8052 21.77 19.7152 22.02Z" fill="#ADADAD"/>
<path d="M19.7953 21.65C17.7953 21.77 16.2853 23.19 14.5653 23.98C13.564 24.433 12.5138 24.7685 11.4354 24.98C10.4354 25.2 9.35533 25.2 8.31533 25.35C8.16533 25.35 8.17533 25.62 8.31533 25.65C9.2716 25.815 10.2491 25.815 11.2053 25.65C12.2526 25.4962 13.277 25.2141 14.2553 24.81C15.1727 24.4163 16.0529 23.9411 16.8853 23.39C17.7406 22.7316 18.7365 22.2798 19.7953 22.07C20.0353 22.07 20.0453 21.68 19.7953 21.69V21.65Z" fill="#ADADAD"/>
<path d="M19.0252 21.6499C16.9152 21.5499 14.8052 21.4399 12.6952 21.4399C11.1252 21.4399 9.02519 21.5499 7.84519 22.7499C7.71519 22.8899 7.8452 23.0699 8.0452 22.9999C8.82884 22.6242 9.6501 22.3326 10.4952 22.1299C11.3746 21.9881 12.2645 21.9212 13.1552 21.9299C15.1052 21.9299 17.0652 21.9299 19.0252 21.9299C19.0524 21.9222 19.0763 21.9058 19.0933 21.8832C19.1103 21.8607 19.1195 21.8332 19.1195 21.8049C19.1195 21.7767 19.1103 21.7492 19.0933 21.7267C19.0763 21.7041 19.0524 21.6877 19.0252 21.6799V21.6499Z" fill="#ADADAD"/>
<path d="M20.3451 21.0199C18.7551 19.6499 17.9351 17.6799 16.9751 15.8699C16.556 15.0347 16.0534 14.244 15.4751 13.5099C14.9413 12.7423 14.1886 12.1533 13.3151 11.8199C13.2801 11.813 13.2438 11.8171 13.2114 11.8319C13.1789 11.8467 13.1519 11.8713 13.1342 11.9023C13.1165 11.9333 13.109 11.969 13.1128 12.0045C13.1165 12.0399 13.1313 12.0733 13.1551 12.0999C13.4751 12.4199 13.8851 12.6599 14.2151 12.9799C14.5801 13.3201 14.9147 13.6915 15.2151 14.0899C15.7793 14.862 16.2809 15.6779 16.7151 16.5299C17.4993 18.3332 18.6583 19.949 20.1151 21.2699C20.2851 21.4099 20.5451 21.1699 20.3651 21.0199H20.3451Z" fill="#ADADAD"/>
<path d="M19.4851 20.9099C18.2466 20.1671 17.0483 19.3593 15.8951 18.4899C14.7634 17.6002 13.7547 16.5646 12.8951 15.4099C12.8685 15.3662 12.8257 15.3348 12.776 15.3226C12.7263 15.3104 12.6738 15.3184 12.63 15.3449C12.5863 15.3715 12.5549 15.4143 12.5427 15.464C12.5305 15.5137 12.5385 15.5662 12.565 15.61C13.273 16.9017 14.2645 18.0163 15.4651 18.8699C16.6598 19.7643 17.9162 20.573 19.225 21.29C19.2751 21.3148 19.3328 21.3196 19.3863 21.3035C19.4398 21.2874 19.4852 21.2515 19.5132 21.2031C19.5412 21.1547 19.5497 21.0975 19.5371 21.043C19.5244 20.9886 19.4915 20.941 19.445 20.9099H19.4851Z" fill="#ADADAD"/>
</g>
<defs>
<clipPath id="clip0_2006_18266">
<rect width="40.01" height="40.39" fill="white" transform="translate(-0.00488281)"/>
</clipPath>
</defs>
</svg>
