<svg width="100" height="101" viewBox="0 0 100 101" fill="none" xmlns="http://www.w3.org/2000/svg">
<g id="vuesax/bulk/truck-tick">
<g id="truck-tick">
<path id="Vector" opacity="0.4" d="M62.5094 12.5229V50.0229C62.5094 54.6062 58.7594 58.3562 54.1761 58.3562H8.34277V31.7728C11.3844 35.3978 16.0512 37.6479 21.2179 37.5229C25.4262 37.4395 29.2178 35.8145 32.0511 33.1062C33.3428 32.0229 34.4262 30.6478 35.2595 29.1478C36.7595 26.6062 37.5928 23.6061 37.5094 20.4811C37.3844 15.6061 35.2178 11.3145 31.8428 8.3562H58.3428C60.6344 8.3562 62.5094 10.2312 62.5094 12.5229Z" fill="white"/>
<path id="Vector_2" d="M91.6761 58.3562V70.8562C91.6761 77.7729 86.0928 83.3562 79.1761 83.3562H75.0094C75.0094 78.7729 71.2594 75.0229 66.6761 75.0229C62.0928 75.0229 58.3428 78.7729 58.3428 83.3562H41.6761C41.6761 78.7729 37.9261 75.0229 33.3428 75.0229C28.7594 75.0229 25.0094 78.7729 25.0094 83.3562H20.8428C13.9261 83.3562 8.34277 77.7729 8.34277 70.8562V58.3562H54.1761C58.7594 58.3562 62.5094 54.6062 62.5094 50.0229V20.8562H70.1762C73.1762 20.8562 75.9262 22.4812 77.4262 25.0646L84.551 37.5229H79.1761C76.8844 37.5229 75.0094 39.3979 75.0094 41.6895V54.1895C75.0094 56.4812 76.8844 58.3562 79.1761 58.3562H91.6761Z" fill="white"/>
<path id="Vector_3" opacity="0.4" d="M33.3431 91.6895C37.9455 91.6895 41.6764 87.9585 41.6764 83.3562C41.6764 78.7538 37.9455 75.0228 33.3431 75.0228C28.7407 75.0228 25.0098 78.7538 25.0098 83.3562C25.0098 87.9585 28.7407 91.6895 33.3431 91.6895Z" fill="white"/>
<path id="Vector_4" opacity="0.4" d="M66.6761 91.6895C71.2785 91.6895 75.0094 87.9585 75.0094 83.3562C75.0094 78.7538 71.2785 75.0228 66.6761 75.0228C62.0737 75.0228 58.3428 78.7538 58.3428 83.3562C58.3428 87.9585 62.0737 91.6895 66.6761 91.6895Z" fill="white"/>
<path id="Vector_5" opacity="0.4" d="M91.6764 52.2313V58.3562H79.1764C76.8848 58.3562 75.0098 56.4812 75.0098 54.1895V41.6895C75.0098 39.3978 76.8848 37.5228 79.1764 37.5228H84.5513L90.5931 48.1061C91.3014 49.3561 91.6764 50.7729 91.6764 52.2313Z" fill="white"/>
<path id="Vector_6" d="M31.8434 8.3562C28.8434 5.68954 24.8432 4.1062 20.4682 4.18954C16.5515 4.27287 12.9683 5.73117 10.135 8.0645C6.38496 11.1895 4.05166 15.9813 4.17666 21.2313C4.25999 24.3563 5.17668 27.2729 6.80168 29.7312C7.26001 30.4396 7.75999 31.1478 8.34333 31.7728C11.385 35.3978 16.0518 37.6479 21.2184 37.5229C25.4268 37.4395 29.2183 35.8145 32.0517 33.1062C33.3433 32.0229 34.4268 30.6478 35.2601 29.1478C36.7601 26.6062 37.5933 23.6061 37.51 20.4811C37.385 15.6061 35.2184 11.3145 31.8434 8.3562ZM29.4266 18.8563L20.7182 27.2728C20.0932 27.8561 19.3434 28.1479 18.5517 28.1479C17.76 28.1479 17.01 27.8561 16.385 27.2728L12.1766 23.2729C10.9266 22.0646 10.8851 20.1063 12.0934 18.8563C13.3018 17.6063 15.2601 17.5645 16.5101 18.7729L18.5517 20.7311L25.0934 14.3979C26.3434 13.1896 28.3017 13.2311 29.5101 14.4811C30.7184 15.6894 30.6766 17.648 29.4266 18.8563Z" fill="white"/>
</g>
</g>
</svg>
