<svg width="24" height="24" viewBox="0 0 24 24" fill="none" xmlns="http://www.w3.org/2000/svg">
<path d="M18.5116 10.077C18.5116 10.8157 17.8869 11.4145 17.1163 11.4145C16.3457 11.4145 15.7209 10.8157 15.7209 10.077C15.7209 9.33838 16.3457 8.73957 17.1163 8.73957C17.8869 8.73957 18.5116 9.33838 18.5116 10.077Z" fill="#ADADAD"/>
<path fill-rule="evenodd" clip-rule="evenodd" d="M18.0363 5.53242C16.9766 5.39585 15.6225 5.39586 13.9129 5.39587H10.0871C8.37751 5.39586 7.02343 5.39585 5.9637 5.53242C4.87308 5.67297 3.99033 5.9691 3.29418 6.63638C2.59803 7.30366 2.28908 8.14979 2.14245 9.19518C1.99997 10.211 1.99999 11.5089 2 13.1475V13.2481C1.99999 14.8868 1.99997 16.1847 2.14245 17.2005C2.28908 18.2459 2.59803 19.092 3.29418 19.7593C3.99033 20.4266 4.87307 20.7227 5.9637 20.8632C7.02344 20.9998 8.37751 20.9998 10.0871 20.9998H13.9129C15.6225 20.9998 16.9766 20.9998 18.0363 20.8632C19.1269 20.7227 20.0097 20.4266 20.7058 19.7593C21.402 19.092 21.7109 18.2459 21.8575 17.2005C22 16.1847 22 14.8868 22 13.2481V13.1475C22 11.5089 22 10.211 21.8575 9.19518C21.7109 8.14979 21.402 7.30366 20.7058 6.63638C20.0097 5.9691 19.1269 5.67297 18.0363 5.53242ZM6.14963 6.85797C5.21373 6.97858 4.67452 7.20476 4.28084 7.58212C3.88716 7.95947 3.65119 8.47631 3.52536 9.3734C3.42443 10.0929 3.40184 10.9923 3.3968 12.1686L3.86764 11.7737C4.99175 10.8309 6.68596 10.885 7.74215 11.8974L11.7326 15.7223C12.1321 16.1053 12.7611 16.1575 13.2234 15.8461L13.5008 15.6592C14.8313 14.7629 16.6314 14.8668 17.8402 15.9096L20.2479 17.9866C20.3463 17.7225 20.4206 17.4075 20.4746 17.0223C20.6032 16.1059 20.6047 14.898 20.6047 13.1978C20.6047 11.4976 20.6032 10.2897 20.4746 9.3734C20.3488 8.47631 20.1128 7.95947 19.7192 7.58212C19.3255 7.20476 18.7863 6.97858 17.8504 6.85797C16.8944 6.73477 15.6343 6.73335 13.8605 6.73335H10.1395C8.36575 6.73335 7.10559 6.73477 6.14963 6.85797Z" fill="#ADADAD"/>
<g opacity="0.5">
<path d="M17.0866 2.61039C16.2268 2.49997 15.1321 2.49998 13.7675 2.5H10.6778C9.31314 2.49998 8.21844 2.49997 7.35863 2.61039C6.46826 2.72473 5.72591 2.96835 5.13712 3.53075C4.79755 3.8551 4.56886 4.22833 4.41309 4.64928C4.91729 4.41928 5.48734 4.28374 6.12735 4.20084C7.21173 4.06037 8.5973 4.06038 10.3466 4.06039H14.2615C16.0108 4.06038 17.3963 4.06037 18.4807 4.20084C19.0397 4.27325 19.5453 4.38581 20.0003 4.56638C19.8457 4.17917 19.6253 3.83365 19.3081 3.53075C18.7193 2.96835 17.977 2.72473 17.0866 2.61039Z" fill="#ADADAD"/>
</g>
</svg>
