<svg width="101" height="101" viewBox="0 0 101 101" fill="none" xmlns="http://www.w3.org/2000/svg">
<g id="vuesax/bulk/tick-square">
<g id="tick-square">
<path id="Vector" opacity="0.4" d="M68.0684 8.3562H33.1517C17.985 8.3562 8.94336 17.3979 8.94336 32.5645V67.4395C8.94336 82.6479 17.985 91.6895 33.1517 91.6895H68.0267C83.1934 91.6895 92.235 82.6479 92.235 67.4812V32.5645C92.2767 17.3979 83.235 8.3562 68.0684 8.3562Z" fill="white"/>
<path id="Vector_2" d="M44.6934 64.9395C43.86 64.9395 43.0684 64.6062 42.485 64.0229L30.6934 52.2312C29.485 51.0229 29.485 49.0229 30.6934 47.8145C31.9017 46.6062 33.9017 46.6062 35.11 47.8145L44.6934 57.3979L66.11 35.9812C67.3184 34.7729 69.3184 34.7729 70.5267 35.9812C71.735 37.1895 71.735 39.1895 70.5267 40.3979L46.9017 64.0229C46.3184 64.6062 45.5267 64.9395 44.6934 64.9395Z" fill="white"/>
</g>
</g>
</svg>
