<svg width="24" height="24" viewBox="0 0 24 24" fill="none" xmlns="http://www.w3.org/2000/svg">
<g id="vuesax/bulk/home-2">
<g id="home-2">
<path id="Vector" opacity="0.4" d="M20.0402 6.82006L14.2802 2.79006C12.7102 1.69006 10.3002 1.75006 8.79023 2.92006L3.78023 6.83006C2.78023 7.61006 1.99023 9.21006 1.99023 10.4701V17.3701C1.99023 19.9201 4.06023 22.0001 6.61023 22.0001H17.3902C19.9402 22.0001 22.0102 19.9301 22.0102 17.3801V10.6001C22.0102 9.25006 21.1402 7.59006 20.0402 6.82006Z" fill="#3D8361"/>
<path id="Vector_2" d="M12 18.75C11.59 18.75 11.25 18.41 11.25 18V15C11.25 14.59 11.59 14.25 12 14.25C12.41 14.25 12.75 14.59 12.75 15V18C12.75 18.41 12.41 18.75 12 18.75Z" fill="#3D8361"/>
</g>
</g>
</svg>
