<svg width="20" height="20" viewBox="0 0 20 20" fill="none" xmlns="http://www.w3.org/2000/svg">
<path d="M13.5666 18.4167H10.3999C9.93322 18.4167 8.91655 18.275 8.37489 17.7334L5.84989 15.7834L6.61655 14.7917L9.19989 16.7917C9.40822 16.9917 9.93322 17.1584 10.3999 17.1584H13.5666C14.3166 17.1584 15.1249 16.5584 15.2916 15.8834L17.3082 9.75837C17.4416 9.3917 17.4166 9.05837 17.2416 8.8167C17.0582 8.55837 16.7249 8.40837 16.3166 8.40837H12.9832C12.5499 8.40837 12.1499 8.22503 11.8749 7.90837C11.5916 7.58337 11.4666 7.15003 11.5332 6.70003L11.9499 4.02503C12.0499 3.55837 11.7332 3.03337 11.2832 2.88337C10.8749 2.73337 10.3499 2.95003 10.1666 3.2167L6.74989 8.30003L5.71655 7.60837L9.13322 2.52503C9.65822 1.7417 10.8082 1.3667 11.7082 1.70837C12.7499 2.05003 13.4166 3.20003 13.1832 4.2667L12.7749 6.8917C12.7666 6.95003 12.7666 7.03337 12.8249 7.10003C12.8666 7.1417 12.9249 7.1667 12.9916 7.1667H16.3249C17.1416 7.1667 17.8499 7.50837 18.2666 8.10003C18.6749 8.67503 18.7582 9.43337 18.4916 10.1667L16.4999 16.2334C16.1916 17.4417 14.9082 18.4167 13.5666 18.4167Z" fill="#3D8361"/>
<path d="M4.4834 17.5001H3.65007C2.1084 17.5001 1.3584 16.7751 1.3584 15.2917V7.12508C1.3584 5.64175 2.1084 4.91675 3.65007 4.91675H4.4834C6.02507 4.91675 6.77507 5.64175 6.77507 7.12508V15.2917C6.77507 16.7751 6.02507 17.5001 4.4834 17.5001ZM3.65007 6.16675C2.74173 6.16675 2.6084 6.38341 2.6084 7.12508V15.2917C2.6084 16.0334 2.74173 16.2501 3.65007 16.2501H4.4834C5.39173 16.2501 5.52507 16.0334 5.52507 15.2917V7.12508C5.52507 6.38341 5.39173 6.16675 4.4834 6.16675H3.65007Z" fill="#3D8361"/>
</svg>
