<svg width="16" height="17" viewBox="0 0 16 17" fill="none" xmlns="http://www.w3.org/2000/svg">
<g id="vuesax/outline/like">
<g id="like">
<path id="Vector" d="M10.8532 15.4011H8.31991C7.94658 15.4011 7.13324 15.2878 6.69991 14.8545L4.67991 13.2945L5.29324 12.5011L7.35991 14.1011C7.52658 14.2611 7.94658 14.3945 8.31991 14.3945H10.8532C11.4532 14.3945 12.0999 13.9145 12.2332 13.3745L13.8466 8.47447C13.9532 8.18113 13.9332 7.91447 13.7932 7.72113C13.6466 7.51447 13.3799 7.39447 13.0532 7.39447H10.3866C10.0399 7.39447 9.71991 7.2478 9.49991 6.99447C9.27324 6.73447 9.17324 6.3878 9.22658 6.0278L9.55991 3.8878C9.63991 3.51447 9.38658 3.09447 9.02658 2.97447C8.69991 2.85447 8.27991 3.0278 8.13324 3.24113L5.39991 7.3078L4.57324 6.75447L7.30658 2.6878C7.72658 2.06113 8.64658 1.76113 9.36658 2.03447C10.1999 2.3078 10.7332 3.2278 10.5466 4.08113L10.2199 6.18113C10.2132 6.2278 10.2132 6.29447 10.2599 6.3478C10.2932 6.38113 10.3399 6.40113 10.3932 6.40113H13.0599C13.7132 6.40113 14.2799 6.67447 14.6132 7.1478C14.9399 7.6078 15.0066 8.21447 14.7932 8.80113L13.1999 13.6545C12.9532 14.6211 11.9266 15.4011 10.8532 15.4011Z" fill="#ADADAD"/>
<path id="Vector_2" d="M3.58691 14.6677H2.92025C1.68691 14.6677 1.08691 14.0877 1.08691 12.9011V6.36774C1.08691 5.18107 1.68691 4.60107 2.92025 4.60107H3.58691C4.82025 4.60107 5.42025 5.18107 5.42025 6.36774V12.9011C5.42025 14.0877 4.82025 14.6677 3.58691 14.6677ZM2.92025 5.60107C2.19358 5.60107 2.08691 5.77441 2.08691 6.36774V12.9011C2.08691 13.4944 2.19358 13.6677 2.92025 13.6677H3.58691C4.31358 13.6677 4.42025 13.4944 4.42025 12.9011V6.36774C4.42025 5.77441 4.31358 5.60107 3.58691 5.60107H2.92025Z" fill="#ADADAD"/>
</g>
</g>
</svg>
