<svg width="14" height="15" viewBox="0 0 14 15" fill="none" xmlns="http://www.w3.org/2000/svg">
<path d="M5.10203 3.10632C5.94646 1.59149 6.36868 0.834068 6.99992 0.834068C7.63116 0.834068 8.05338 1.59148 8.89781 3.10632L9.11627 3.49822C9.35624 3.92869 9.47622 4.14393 9.66329 4.28594C9.85036 4.42795 10.0834 4.48067 10.5493 4.5861L10.9736 4.68209C12.6133 5.05311 13.4332 5.23861 13.6283 5.86589C13.8234 6.49316 13.2644 7.14678 12.1465 8.45402L11.8573 8.79222C11.5396 9.16369 11.3808 9.34943 11.3093 9.57921C11.2379 9.809 11.2619 10.0568 11.3099 10.5524L11.3537 11.0037C11.5227 12.7478 11.6072 13.6199 11.0965 14.0075C10.5858 14.3952 9.81814 14.0418 8.2828 13.3348L7.8856 13.152C7.4493 12.9511 7.23115 12.8506 6.99992 12.8506C6.76868 12.8506 6.55054 12.9511 6.11424 13.152L5.71703 13.3348C4.1817 14.0418 3.41404 14.3952 2.90335 14.0075C2.39267 13.6199 2.47717 12.7478 2.64618 11.0037L2.68991 10.5524C2.73794 10.0568 2.76195 9.809 2.69049 9.57921C2.61904 9.34943 2.4602 9.16369 2.14253 8.79222L1.85332 8.45402C0.735418 7.14678 0.176468 6.49316 0.371533 5.86589C0.566597 5.23861 1.38649 5.05311 3.02628 4.68209L3.45051 4.5861C3.91649 4.48067 4.14947 4.42795 4.33655 4.28594C4.52362 4.14393 4.6436 3.92869 4.88356 3.49822L5.10203 3.10632Z" fill="#FFC436"/>
</svg>
