<svg width="18" height="18" viewBox="0 0 18 18" fill="none" xmlns="http://www.w3.org/2000/svg">
<path d="M13.7166 17.8917C13.2749 17.8917 12.7083 17.75 11.9999 17.3333L9.50827 15.8583C9.24994 15.7083 8.74994 15.7083 8.49994 15.8583L5.99994 17.3333C4.52493 18.2083 3.65827 17.8583 3.2666 17.575C2.88327 17.2917 2.28327 16.5667 2.67494 14.9L3.2666 12.3417C3.33327 12.075 3.19994 11.6167 2.99994 11.4167L0.933269 9.35001C-0.100065 8.31667 -0.0167312 7.43334 0.124935 7.00001C0.266602 6.56667 0.716602 5.80001 2.14994 5.55834L4.80827 5.11667C5.05827 5.07501 5.4166 4.80834 5.52494 4.58334L6.99994 1.64167C7.6666 0.300006 8.5416 0.100006 8.99994 0.100006C9.45827 0.100006 10.3333 0.300006 10.9999 1.64167L12.4666 4.57501C12.5833 4.80001 12.9416 5.06667 13.1916 5.10834L15.8499 5.55001C17.2916 5.79167 17.7416 6.55834 17.8749 6.99167C18.0083 7.42501 18.0916 8.30834 17.0666 9.34167L14.9999 11.4167C14.7999 11.6167 14.6749 12.0667 14.7333 12.3417L15.3249 14.9C15.7083 16.5667 15.1166 17.2917 14.7333 17.575C14.5249 17.725 14.1916 17.8917 13.7166 17.8917ZM8.99994 14.4917C9.40827 14.4917 9.8166 14.5917 10.1416 14.7833L12.6333 16.2583C13.3583 16.6917 13.8166 16.6917 13.9916 16.5667C14.1666 16.4417 14.2916 16 14.1083 15.1833L13.5166 12.625C13.3583 11.9333 13.6166 11.0417 14.1166 10.5333L16.1833 8.46667C16.5916 8.05834 16.7749 7.65834 16.6916 7.38334C16.5999 7.10834 16.2166 6.88334 15.6499 6.79167L12.9916 6.35001C12.3499 6.24167 11.6499 5.72501 11.3583 5.14167L9.8916 2.20834C9.62494 1.67501 9.2916 1.35834 8.99994 1.35834C8.70827 1.35834 8.37494 1.67501 8.1166 2.20834L6.6416 5.14167C6.34994 5.72501 5.64994 6.24167 5.00827 6.35001L2.35827 6.79167C1.7916 6.88334 1.40827 7.10834 1.3166 7.38334C1.22494 7.65834 1.4166 8.06667 1.82494 8.46667L3.8916 10.5333C4.3916 11.0333 4.64994 11.9333 4.4916 12.625L3.89994 15.1833C3.70827 16.0083 3.8416 16.4417 4.0166 16.5667C4.1916 16.6917 4.6416 16.6833 5.37494 16.2583L7.8666 14.7833C8.18327 14.5917 8.5916 14.4917 8.99994 14.4917Z" fill="#FFC436"/>
</svg>
