<svg width="20" height="20" viewBox="0 0 20 20" fill="none" xmlns="http://www.w3.org/2000/svg">
<g id="vuesax/outline/location-add">
<g id="location-add">
<path id="Vector" d="M12.2913 9.79163H7.70801C7.36634 9.79163 7.08301 9.50829 7.08301 9.16663C7.08301 8.82496 7.36634 8.54163 7.70801 8.54163H12.2913C12.633 8.54163 12.9163 8.82496 12.9163 9.16663C12.9163 9.50829 12.633 9.79163 12.2913 9.79163Z" fill="#3D8361"/>
<path id="Vector_2" d="M10 12.0833C9.65833 12.0833 9.375 11.8 9.375 11.4583V6.875C9.375 6.53333 9.65833 6.25 10 6.25C10.3417 6.25 10.625 6.53333 10.625 6.875V11.4583C10.625 11.8 10.3417 12.0833 10 12.0833Z" fill="#3D8361"/>
<path id="Vector_3" d="M10.0004 18.9666C8.76706 18.9666 7.52539 18.5 6.55872 17.575C4.10039 15.2083 1.38372 11.4333 2.40872 6.94163C3.33372 2.86663 6.89206 1.04163 10.0004 1.04163C10.0004 1.04163 10.0004 1.04163 10.0087 1.04163C13.1171 1.04163 16.6754 2.86663 17.6004 6.94996C18.6171 11.4416 15.9004 15.2083 13.4421 17.575C12.4754 18.5 11.2337 18.9666 10.0004 18.9666ZM10.0004 2.29163C7.57539 2.29163 4.45872 3.58329 3.63372 7.21663C2.73372 11.1416 5.20039 14.525 7.43372 16.6666C8.87539 18.0583 11.1337 18.0583 12.5754 16.6666C14.8004 14.525 17.2671 11.1416 16.3837 7.21663C15.5504 3.58329 12.4254 2.29163 10.0004 2.29163Z" fill="#3D8361"/>
</g>
</g>
</svg>
