<svg width="13" height="20" viewBox="0 0 13 20" fill="none" xmlns="http://www.w3.org/2000/svg">
<path opacity="0.5" d="M6.99978 -3.0597e-07L5.99978 -2.62259e-07C3.17135 -1.38624e-07 1.75759 0.000226898 0.878912 0.878906C0.000232436 1.75759 0.000233268 3.1718 0.000233515 6.00023L0.000233865 14.0002C0.000234112 16.8287 0.000233991 18.2429 0.878913 19.1215C1.75737 20 3.17062 20 5.99759 20L5.99978 20L6.99978 20C9.82821 20 11.2424 20 12.1211 19.1213C12.9998 18.2426 12.9998 16.8284 12.9998 14L12.9998 6L12.9998 5.99998C12.9998 3.17157 12.9998 1.75736 12.1211 0.878679C11.2424 -4.91422e-07 9.82821 -4.29605e-07 6.99978 -3.0597e-07Z" fill="white"/>
</svg>
