<svg width="40" height="40" viewBox="0 0 40 40" fill="none" xmlns="http://www.w3.org/2000/svg">
<g clip-path="url(#clip0_2293_42700)">
<path d="M20 29.65C19.69 29.65 19.39 29.61 19.14 29.52C15.32 28.21 9.25 23.56 9.25 16.69C9.25 13.19 12.08 10.35 15.56 10.35C17.25 10.35 18.83 11.01 20 12.19C21.17 11.01 22.75 10.35 24.44 10.35C27.92 10.35 30.75 13.2 30.75 16.69C30.75 23.57 24.68 28.21 20.86 29.52C20.61 29.61 20.31 29.65 20 29.65ZM15.56 11.85C12.91 11.85 10.75 14.02 10.75 16.69C10.75 23.52 17.32 27.32 19.63 28.11C19.81 28.17 20.2 28.17 20.38 28.11C22.68 27.32 29.26 23.53 29.26 16.69C29.26 14.02 27.1 11.85 24.45 11.85C22.93 11.85 21.52 12.56 20.61 13.79C20.33 14.17 19.69 14.17 19.41 13.79C18.48 12.55 17.08 11.85 15.56 11.85Z" fill="#3D8361"/>
</g>
<defs>
<clipPath id="clip0_2293_42700">
<rect width="40" height="40" rx="8" fill="white"/>
</clipPath>
</defs>
</svg>
