<svg width="64" height="65" viewBox="0 0 64 65" fill="none" xmlns="http://www.w3.org/2000/svg">
<path opacity="0.4" d="M45.3334 54.7645H18.6667C10.6667 54.7645 5.33337 50.7645 5.33337 41.4312V22.7645C5.33337 13.4312 10.6667 9.43121 18.6667 9.43121H45.3334C53.3334 9.43121 58.6667 13.4312 58.6667 22.7645V41.4312C58.6667 50.7645 53.3334 54.7645 45.3334 54.7645Z" fill="#3D8361"/>
<path d="M32 34.4179C29.76 34.4179 27.4933 33.7246 25.76 32.3112L17.4133 25.6446C16.56 24.9512 16.4 23.6979 17.0933 22.8445C17.7867 21.9912 19.04 21.8312 19.8933 22.5246L28.24 29.1912C30.2666 30.8179 33.7066 30.8179 35.7333 29.1912L44.08 22.5246C44.9333 21.8312 46.2133 21.9645 46.88 22.8445C47.5733 23.6979 47.44 24.9779 46.56 25.6446L38.2133 32.3112C36.5066 33.7246 34.24 34.4179 32 34.4179Z" fill="#3D8361"/>
</svg>
