<svg width="16" height="16" viewBox="0 0 16 16" fill="none" xmlns="http://www.w3.org/2000/svg">
<g id="Outline / Messages, Conversation  / Mailbox" clip-path="url(#clip0_2043_21646)">
<path id="Vector" fill-rule="evenodd" clip-rule="evenodd" d="M12.2473 2.01962C11.962 1.90966 11.6515 1.88204 11.3513 1.93989L11.1663 1.97553V3.079C11.6492 2.98679 12.1482 3.03159 12.6069 3.20837C12.8917 3.31811 13.2009 3.34566 13.4997 3.28873V2.1832C13.0955 2.2361 12.683 2.18752 12.3001 2.03996L12.2473 2.01962ZM11.1663 4.09739L11.3513 4.06176C11.6515 4.0039 11.962 4.03152 12.2473 4.14148C12.7459 4.33361 13.2911 4.36951 13.8105 4.24439L13.8549 4.2337C14.2331 4.14261 14.4997 3.80424 14.4997 3.41522V1.93422C14.4997 1.42134 14.02 1.04348 13.5214 1.16358C13.235 1.23254 12.9345 1.21276 12.6597 1.10685L12.6069 1.08651C12.1468 0.909208 11.6462 0.864665 11.1621 0.957956L10.838 1.0204C10.4481 1.09553 10.1663 1.43677 10.1663 1.83386V4.16662H4.66634C4.63527 4.16662 4.60486 4.16945 4.57535 4.17488C4.49528 4.1694 4.41447 4.16662 4.33301 4.16662C2.40001 4.16662 0.833008 5.73362 0.833008 7.66662V11.1782C0.833008 12.2764 1.72323 13.1666 2.82138 13.1666H6.49967V14.6666C6.49967 14.9428 6.72353 15.1666 6.99967 15.1666C7.27582 15.1666 7.49967 14.9428 7.49967 14.6666V13.1666H9.16634V14.6666C9.16634 14.9428 9.3902 15.1666 9.66634 15.1666C9.94248 15.1666 10.1663 14.9428 10.1663 14.6666V13.1666H13.1951C14.2838 13.1666 15.1663 12.2841 15.1663 11.1954V7.66662C15.1663 5.73362 13.5993 4.16662 11.6663 4.16662H11.1663V4.09739ZM10.1663 5.16662V7.33328C10.1663 7.60942 10.3902 7.83328 10.6663 7.83328C10.9425 7.83328 11.1663 7.60942 11.1663 7.33328V5.16662H11.6663C13.0471 5.16662 14.1663 6.2859 14.1663 7.66662V11.1954C14.1663 11.7318 13.7315 12.1666 13.1951 12.1666H7.83301V7.66662C7.83301 6.68727 7.43077 5.80187 6.7825 5.16662H10.1663ZM6.83301 12.1666V7.66662C6.83301 6.2859 5.71372 5.16662 4.33301 5.16662C2.9523 5.16662 1.83301 6.2859 1.83301 7.66662V11.1782C1.83301 11.7241 2.27552 12.1666 2.82138 12.1666H6.83301ZM2.83301 10.6666C2.83301 10.3905 3.05687 10.1666 3.33301 10.1666H5.33301C5.60915 10.1666 5.83301 10.3905 5.83301 10.6666C5.83301 10.9428 5.60915 11.1666 5.33301 11.1666H3.33301C3.05687 11.1666 2.83301 10.9428 2.83301 10.6666Z" fill="#3D8361"/>
</g>
<defs>
<clipPath id="clip0_2043_21646">
<rect width="16" height="16" fill="white"/>
</clipPath>
</defs>
</svg>
