<svg width="20" height="20" viewBox="0 0 20 20" fill="none" xmlns="http://www.w3.org/2000/svg">
<path d="M17.5 6.45837H2.5C2.15833 6.45837 1.875 6.17504 1.875 5.83337C1.875 5.49171 2.15833 5.20837 2.5 5.20837H17.5C17.8417 5.20837 18.125 5.49171 18.125 5.83337C18.125 6.17504 17.8417 6.45837 17.5 6.45837Z" fill="#3D8361"/>
<path d="M17.5 10.625H2.5C2.15833 10.625 1.875 10.3417 1.875 10C1.875 9.65833 2.15833 9.375 2.5 9.375H17.5C17.8417 9.375 18.125 9.65833 18.125 10C18.125 10.3417 17.8417 10.625 17.5 10.625Z" fill="#3D8361"/>
<path d="M17.5 14.7916H2.5C2.15833 14.7916 1.875 14.5083 1.875 14.1666C1.875 13.825 2.15833 13.5416 2.5 13.5416H17.5C17.8417 13.5416 18.125 13.825 18.125 14.1666C18.125 14.5083 17.8417 14.7916 17.5 14.7916Z" fill="#3D8361"/>
</svg>
