<svg width="33" height="32" viewBox="0 0 33 32" fill="none" xmlns="http://www.w3.org/2000/svg">
<path opacity="0.4" d="M26.2331 10.56V17.4267C26.2331 21.5333 23.8865 23.2933 20.3665 23.2933H8.64644C8.04644 23.2933 7.47311 23.24 6.93978 23.12C6.60645 23.0667 6.28646 22.9734 5.99312 22.8667C3.99312 22.12 2.77979 20.3867 2.77979 17.4267V10.56C2.77979 6.45331 5.12644 4.69336 8.64644 4.69336H20.3665C23.3531 4.69336 25.4998 5.96002 26.0731 8.85335C26.1665 9.38669 26.2331 9.93331 26.2331 10.56Z" fill="#757575"/>
<path d="M30.2333 14.56V21.4267C30.2333 25.5334 27.8866 27.2933 24.3666 27.2933H12.6466C11.6599 27.2933 10.7666 27.1601 9.99329 26.8667C8.40662 26.2801 7.32661 25.0667 6.93994 23.1201C7.47327 23.2401 8.04661 23.2933 8.64661 23.2933H20.3666C23.8866 23.2933 26.2333 21.5334 26.2333 17.4267V10.56C26.2333 9.93335 26.18 9.37339 26.0733 8.85339C28.6066 9.38673 30.2333 11.1734 30.2333 14.56Z" fill="#757575"/>
<path d="M14.5 17.52C16.444 17.52 18.02 15.944 18.02 14C18.02 12.056 16.444 10.48 14.5 10.48C12.556 10.48 10.98 12.056 10.98 14C10.98 15.944 12.556 17.52 14.5 17.52Z" fill="#757575"/>
<path d="M6.87354 11C6.32687 11 5.87354 11.4533 5.87354 12V16C5.87354 16.5467 6.32687 17 6.87354 17C7.4202 17 7.87354 16.5467 7.87354 16V12C7.87354 11.4533 7.43354 11 6.87354 11Z" fill="#757575"/>
<path d="M22.1133 11C21.5666 11 21.1133 11.4533 21.1133 12V16C21.1133 16.5467 21.5666 17 22.1133 17C22.6599 17 23.1133 16.5467 23.1133 16V12C23.1133 11.4533 22.6733 11 22.1133 11Z" fill="#757575"/>
</svg>
