<svg width="16" height="8" viewBox="0 0 16 8" fill="none" xmlns="http://www.w3.org/2000/svg">
<path fill-rule="evenodd" clip-rule="evenodd" d="M0.250976 3.99901C0.250976 3.5848 0.586763 3.24901 1.00098 3.24901L12.9735 3.24901L11.0129 1.56845C10.6984 1.29889 10.662 0.82541 10.9315 0.510916C11.2011 0.196422 11.6746 0.16 11.9891 0.429567L15.4891 3.42957C15.6553 3.57205 15.751 3.78006 15.751 3.99901C15.751 4.21795 15.6553 4.42596 15.4891 4.56845L11.9891 7.56845C11.6746 7.83802 11.2011 7.8016 10.9315 7.4871C10.662 7.17261 10.6984 6.69913 11.0129 6.42957L12.9735 4.74901L1.00098 4.74901C0.586763 4.74901 0.250976 4.41322 0.250976 3.99901Z" fill="white"/>
</svg>
