<svg width="40" height="40" viewBox="0 0 40 40" fill="none" xmlns="http://www.w3.org/2000/svg">
<g clip-path="url(#clip0_2293_42701)">
<path d="M28.6199 21.07C28.2399 21.07 27.9199 20.78 27.8699 20.4C27.6299 18.14 26.4099 16.09 24.5299 14.79C24.1899 14.55 24.1099 14.09 24.3399 13.75C24.5799 13.41 25.0499 13.33 25.3799 13.56C27.6199 15.11 29.0599 17.55 29.3499 20.24C29.3899 20.65 29.0999 21.02 28.6799 21.07C28.6699 21.07 28.6399 21.07 28.6199 21.07Z" fill="#3D8361"/>
<path d="M11.4899 21.12C11.4599 21.12 11.4399 21.12 11.4099 21.12C10.9999 21.07 10.6999 20.7 10.7399 20.29C11.0099 17.6 12.4399 15.17 14.6499 13.6C14.9899 13.36 15.4599 13.44 15.6999 13.78C15.9399 14.12 15.8599 14.59 15.5199 14.83C13.6599 16.14 12.4599 18.19 12.2299 20.45C12.1999 20.83 11.8699 21.12 11.4899 21.12Z" fill="#3D8361"/>
<path d="M20.06 30.61C18.58 30.61 17.17 30.27 15.85 29.61C15.48 29.42 15.33 28.97 15.52 28.6C15.71 28.23 16.16 28.08 16.53 28.27C18.69 29.36 21.29 29.38 23.47 28.33C23.84 28.15 24.29 28.31 24.47 28.68C24.65 29.05 24.49 29.5 24.12 29.68C22.84 30.3 21.48 30.61 20.06 30.61Z" fill="#3D8361"/>
<path d="M20.06 16.44C18.11 16.44 16.53 14.86 16.53 12.91C16.53 10.96 18.11 9.38 20.06 9.38C22.01 9.38 23.59 10.96 23.59 12.91C23.59 14.86 22 16.44 20.06 16.44ZM20.06 10.89C18.94 10.89 18.03 11.8 18.03 12.92C18.03 14.04 18.94 14.95 20.06 14.95C21.18 14.95 22.09 14.04 22.09 12.92C22.09 11.8 21.17 10.89 20.06 10.89Z" fill="#3D8361"/>
<path d="M12.83 28.67C10.88 28.67 9.30005 27.09 9.30005 25.14C9.30005 23.2 10.88 21.61 12.83 21.61C14.78 21.61 16.36 23.19 16.36 25.14C16.36 27.08 14.78 28.67 12.83 28.67ZM12.83 23.11C11.71 23.11 10.8 24.02 10.8 25.14C10.8 26.26 11.71 27.17 12.83 27.17C13.95 27.17 14.86 26.26 14.86 25.14C14.86 24.02 13.95 23.11 12.83 23.11Z" fill="#3D8361"/>
<path d="M27.1699 28.67C25.2199 28.67 23.6399 27.09 23.6399 25.14C23.6399 23.2 25.2199 21.61 27.1699 21.61C29.1199 21.61 30.6999 23.19 30.6999 25.14C30.6899 27.08 29.1099 28.67 27.1699 28.67ZM27.1699 23.11C26.0499 23.11 25.1399 24.02 25.1399 25.14C25.1399 26.26 26.0499 27.17 27.1699 27.17C28.2899 27.17 29.1999 26.26 29.1999 25.14C29.1899 24.02 28.2899 23.11 27.1699 23.11Z" fill="#3D8361"/>
</g>
<defs>
<clipPath id="clip0_2293_42701">
<rect width="40" height="40" rx="8" fill="white"/>
</clipPath>
</defs>
</svg>
