<svg width="20" height="21" viewBox="0 0 20 21" fill="none" xmlns="http://www.w3.org/2000/svg">
<path d="M15.1587 15.7415H6.28365C5.45865 15.7415 4.66699 15.3915 4.10865 14.7831C3.55032 14.1748 3.26699 13.3581 3.33366 12.5331L4.02533 4.23312C4.05033 3.97479 3.95865 3.72479 3.78365 3.53313C3.60865 3.34146 3.36699 3.24146 3.10866 3.24146H1.66699C1.32533 3.24146 1.04199 2.95812 1.04199 2.61646C1.04199 2.27479 1.32533 1.99146 1.66699 1.99146H3.117C3.72533 1.99146 4.30032 2.24979 4.70865 2.69145C4.93365 2.94145 5.10032 3.23313 5.19199 3.55813H15.6003C16.442 3.55813 17.217 3.89146 17.7837 4.49146C18.342 5.09979 18.6253 5.89146 18.5587 6.73312L18.1087 12.9831C18.017 14.5081 16.6837 15.7415 15.1587 15.7415ZM5.23366 4.79978L4.58366 12.6331C4.54199 13.1164 4.70032 13.5748 5.02532 13.9331C5.35032 14.2914 5.80032 14.4831 6.28365 14.4831H15.1587C16.0253 14.4831 16.8087 13.7498 16.8753 12.8831L17.3253 6.63313C17.3587 6.14146 17.2003 5.6748 16.8753 5.33313C16.5503 4.98313 16.1003 4.79144 15.6087 4.79144H5.23366V4.79978Z" fill="#3D8361"/>
<path d="M13.5417 19.908C12.625 19.908 11.875 19.158 11.875 18.2414C11.875 17.3247 12.625 16.5747 13.5417 16.5747C14.4583 16.5747 15.2083 17.3247 15.2083 18.2414C15.2083 19.158 14.4583 19.908 13.5417 19.908ZM13.5417 17.8247C13.3083 17.8247 13.125 18.008 13.125 18.2414C13.125 18.4747 13.3083 18.658 13.5417 18.658C13.775 18.658 13.9583 18.4747 13.9583 18.2414C13.9583 18.008 13.775 17.8247 13.5417 17.8247Z" fill="#3D8361"/>
<path d="M6.87467 19.908C5.95801 19.908 5.20801 19.158 5.20801 18.2414C5.20801 17.3247 5.95801 16.5747 6.87467 16.5747C7.79134 16.5747 8.54134 17.3247 8.54134 18.2414C8.54134 19.158 7.79134 19.908 6.87467 19.908ZM6.87467 17.8247C6.64134 17.8247 6.45801 18.008 6.45801 18.2414C6.45801 18.4747 6.64134 18.658 6.87467 18.658C7.10801 18.658 7.29134 18.4747 7.29134 18.2414C7.29134 18.008 7.10801 17.8247 6.87467 17.8247Z" fill="#3D8361"/>
<path d="M17.5 8.24146H7.5C7.15833 8.24146 6.875 7.95812 6.875 7.61646C6.875 7.27479 7.15833 6.99146 7.5 6.99146H17.5C17.8417 6.99146 18.125 7.27479 18.125 7.61646C18.125 7.95812 17.8417 8.24146 17.5 8.24146Z" fill="#3D8361"/>
</svg>
