<svg width="16" height="16" viewBox="0 0 16 16" fill="none" xmlns="http://www.w3.org/2000/svg">
<g id="vuesax/outline/signpost">
<g id="signpost">
<path id="Vector" d="M11.48 6.50004H5.97335C5.60001 6.50004 5.22668 6.37338 4.93335 6.13338L3.47335 4.96672C3.07335 4.64672 2.84668 4.17337 2.84668 3.66671C2.84668 3.16004 3.07335 2.68003 3.47335 2.3667L4.93335 1.20003C5.22668 0.966699 5.60001 0.833374 5.97335 0.833374H11.48C12.4 0.833374 13.1466 1.58004 13.1466 2.50004V4.83337C13.1466 5.75337 12.4 6.50004 11.48 6.50004ZM5.97335 1.83337C5.82001 1.83337 5.67335 1.88671 5.56002 1.98004L4.10002 3.14671C3.94002 3.27337 3.84668 3.46671 3.84668 3.66671C3.84668 3.86671 3.94002 4.06004 4.10002 4.18671L5.56002 5.35337C5.68002 5.44671 5.82668 5.50004 5.97335 5.50004H11.48C11.8466 5.50004 12.1466 5.20004 12.1466 4.83337V2.50004C12.1466 2.13337 11.8466 1.83337 11.48 1.83337H5.97335Z" fill="#3D8361"/>
<path id="Vector_2" d="M10.0396 13.1667H4.53288C3.61288 13.1667 2.86621 12.42 2.86621 11.5V9.16667C2.86621 8.24667 3.61288 7.5 4.53288 7.5H10.0396C10.4196 7.5 10.7862 7.62666 11.0795 7.86666L12.5396 9.03333C12.9396 9.35333 13.1662 9.82667 13.1662 10.3333C13.1662 10.84 12.9396 11.32 12.5396 11.6333L11.0795 12.8C10.7862 13.04 10.4196 13.1667 10.0396 13.1667ZM4.53288 8.5C4.16621 8.5 3.86621 8.8 3.86621 9.16667V11.5C3.86621 11.8667 4.16621 12.1667 4.53288 12.1667H10.0396C10.1929 12.1667 10.3395 12.1133 10.4529 12.02L11.9129 10.8533C12.0729 10.7267 12.1662 10.5333 12.1662 10.3333C12.1662 10.1333 12.0729 9.94 11.9129 9.81333L10.4529 8.64667C10.3329 8.55333 10.1862 8.5 10.0396 8.5H4.53288Z" fill="#3D8361"/>
<path id="Vector_3" d="M8 8.5C7.72667 8.5 7.5 8.27333 7.5 8V6C7.5 5.72667 7.72667 5.5 8 5.5C8.27333 5.5 8.5 5.72667 8.5 6V8C8.5 8.27333 8.27333 8.5 8 8.5Z" fill="#3D8361"/>
<path id="Vector_4" d="M8 15.1666C7.72667 15.1666 7.5 14.94 7.5 14.6666V12.6666C7.5 12.3933 7.72667 12.1666 8 12.1666C8.27333 12.1666 8.5 12.3933 8.5 12.6666V14.6666C8.5 14.94 8.27333 15.1666 8 15.1666Z" fill="#3D8361"/>
<path id="Vector_5" d="M10 15.1666H6C5.72667 15.1666 5.5 14.94 5.5 14.6666C5.5 14.3933 5.72667 14.1666 6 14.1666H10C10.2733 14.1666 10.5 14.3933 10.5 14.6666C10.5 14.94 10.2733 15.1666 10 15.1666Z" fill="#3D8361"/>
</g>
</g>
</svg>
