<svg width="24" height="24" viewBox="0 0 24 24" fill="none" xmlns="http://www.w3.org/2000/svg">
<g id="vuesax/bulk/heart">
<g id="heart">
<path id="Vector" d="M22 8.68998C22 9.87998 21.81 10.98 21.48 12H2.52C2.19 10.98 2 9.87998 2 8.68998C2 5.59998 4.49 3.09998 7.56 3.09998C9.37 3.09998 10.99 3.97998 12 5.32998C13.01 3.97998 14.63 3.09998 16.44 3.09998C19.51 3.09998 22 5.59998 22 8.68998Z" fill="#3D8361"/>
<path id="Vector_2" d="M21.4795 12C19.8995 17 15.0295 19.99 12.6195 20.81C12.2795 20.93 11.7195 20.93 11.3795 20.81C8.96953 19.99 4.09953 17 2.51953 12H21.4795Z" fill="#3D8361"/>
</g>
</g>
</svg>
