<svg width="20" height="20" viewBox="0 0 20 20" fill="none" xmlns="http://www.w3.org/2000/svg">
<path opacity="0.4" d="M13.492 1.66663H6.50866C3.47533 1.66663 1.66699 3.47496 1.66699 6.50829V13.4833C1.66699 16.525 3.47533 18.3333 6.50866 18.3333H13.4837C16.517 18.3333 18.3253 16.525 18.3253 13.4916V6.50829C18.3337 3.47496 16.5253 1.66663 13.492 1.66663Z" fill="#3D8361"/>
<path d="M15 7.08337H5C4.65833 7.08337 4.375 6.80004 4.375 6.45837C4.375 6.11671 4.65833 5.83337 5 5.83337H15C15.3417 5.83337 15.625 6.11671 15.625 6.45837C15.625 6.80004 15.3417 7.08337 15 7.08337Z" fill="#3D8361"/>
<path d="M13.3337 10.625H6.66699C6.32533 10.625 6.04199 10.3417 6.04199 10C6.04199 9.65833 6.32533 9.375 6.66699 9.375H13.3337C13.6753 9.375 13.9587 9.65833 13.9587 10C13.9587 10.3417 13.6753 10.625 13.3337 10.625Z" fill="#3D8361"/>
<path d="M11.1088 14.1666H8.88379C8.54212 14.1666 8.25879 13.8833 8.25879 13.5416C8.25879 13.2 8.54212 12.9166 8.88379 12.9166H11.1088C11.4505 12.9166 11.7338 13.2 11.7338 13.5416C11.7338 13.8833 11.4588 14.1666 11.1088 14.1666Z" fill="#3D8361"/>
</svg>
