<svg width="16" height="17" viewBox="0 0 16 17" fill="none" xmlns="http://www.w3.org/2000/svg">
<g id="vuesax/outline/star">
<g id="star">
<path id="Vector" d="M11.7731 15.7812C11.4198 15.7812 10.9664 15.6679 10.3998 15.3345L8.40642 14.1545C8.19975 14.0345 7.79975 14.0345 7.59975 14.1545L5.59975 15.3345C4.41975 16.0345 3.72642 15.7545 3.41309 15.5279C3.10642 15.3012 2.62642 14.7212 2.93975 13.3879L3.41309 11.3412C3.46642 11.1279 3.35975 10.7612 3.19975 10.6012L1.54642 8.94785C0.719753 8.12119 0.78642 7.41452 0.899753 7.06785C1.01309 6.72119 1.37309 6.10785 2.51975 5.91452L4.64642 5.56118C4.84642 5.52785 5.13309 5.31452 5.21975 5.13452L6.39975 2.78118C6.93309 1.70785 7.63309 1.54785 7.99975 1.54785C8.36642 1.54785 9.06642 1.70785 9.59975 2.78118L10.7731 5.12785C10.8664 5.30785 11.1531 5.52118 11.3531 5.55452L13.4798 5.90785C14.6331 6.10118 14.9931 6.71452 15.0998 7.06119C15.2064 7.40785 15.2731 8.11452 14.4531 8.94118L12.7998 10.6012C12.6398 10.7612 12.5398 11.1212 12.5864 11.3412L13.0598 13.3879C13.3664 14.7212 12.8931 15.3012 12.5864 15.5279C12.4198 15.6479 12.1531 15.7812 11.7731 15.7812ZM7.99975 13.0612C8.32642 13.0612 8.65309 13.1412 8.91309 13.2945L10.9064 14.4745C11.4864 14.8212 11.8531 14.8212 11.9931 14.7212C12.1331 14.6212 12.2331 14.2679 12.0864 13.6145L11.6131 11.5679C11.4864 11.0145 11.6931 10.3012 12.0931 9.89452L13.7464 8.24119C14.0731 7.91452 14.2198 7.59452 14.1531 7.37452C14.0798 7.15452 13.7731 6.97452 13.3198 6.90119L11.1931 6.54785C10.6798 6.46118 10.1198 6.04785 9.88642 5.58118L8.71309 3.23452C8.49975 2.80785 8.23309 2.55452 7.99975 2.55452C7.76642 2.55452 7.49975 2.80785 7.29309 3.23452L6.11309 5.58118C5.87975 6.04785 5.31975 6.46118 4.80642 6.54785L2.68642 6.90119C2.23309 6.97452 1.92642 7.15452 1.85309 7.37452C1.77975 7.59452 1.93309 7.92119 2.25975 8.24119L3.91309 9.89452C4.31309 10.2945 4.51975 11.0145 4.39309 11.5679L3.91975 13.6145C3.76642 14.2745 3.87309 14.6212 4.01309 14.7212C4.15309 14.8212 4.51309 14.8145 5.09975 14.4745L7.09309 13.2945C7.34642 13.1412 7.67309 13.0612 7.99975 13.0612Z" fill="#FFC436"/>
</g>
</g>
</svg>
