<svg width="33" height="32" viewBox="0 0 33 32" fill="none" xmlns="http://www.w3.org/2000/svg">
<path opacity="0.4" d="M22.0865 2.66663H10.9132C6.05984 2.66663 3.1665 5.55996 3.1665 10.4133V21.5733C3.1665 26.44 6.05984 29.3333 10.9132 29.3333H22.0732C26.9265 29.3333 29.8198 26.44 29.8198 21.5866V10.4133C29.8332 5.55996 26.9398 2.66663 22.0865 2.66663Z" fill="#757575"/>
<path d="M14.6064 20.7733C14.3398 20.7733 14.0864 20.6667 13.8998 20.48L10.1264 16.7067C9.73976 16.32 9.73976 15.68 10.1264 15.2933C10.5131 14.9067 11.1531 14.9067 11.5398 15.2933L14.6064 18.36L21.4598 11.5067C21.8464 11.12 22.4864 11.12 22.8731 11.5067C23.2598 11.8933 23.2598 12.5333 22.8731 12.92L15.3131 20.48C15.1264 20.6667 14.8731 20.7733 14.6064 20.7733Z" fill="#757575"/>
</svg>
