<svg width="20" height="21" viewBox="0 0 20 21" fill="none" xmlns="http://www.w3.org/2000/svg">
<g id="Tooman Square light">
<g id="&#216;&#170;&#217;&#136;&#217;&#133;&#216;&#167;&#217;&#134;">
<path d="M4.65658 3.78002C4.18458 4.76402 3.94858 5.65602 3.94858 6.45602C3.94858 7.20002 4.13658 7.80802 4.51258 8.28002C4.89658 8.76002 5.46458 9.00002 6.21658 9.00002H7.50058C8.05258 9.00002 8.48858 8.93202 8.80858 8.79602C9.12858 8.66002 9.35658 8.44802 9.49258 8.16002C9.63658 7.87202 9.70858 7.48802 9.70858 7.00802V3.18002H10.4526V7.00802C10.4526 8.89602 9.46858 9.84002 7.50058 9.84002H6.21658C5.57658 9.84002 5.02858 9.68002 4.57258 9.36002C4.11658 9.04802 3.77258 8.63202 3.54058 8.11202C3.31658 7.60002 3.20458 7.04802 3.20458 6.45602C3.20458 5.52002 3.47658 4.51602 4.02058 3.44402L4.65658 3.78002ZM6.62793 2.5H7.69593V3.568H6.62793V2.5Z" fill="#757575"/>
<path d="M4.016 17.328C3.288 17.328 2.772 17.136 2.468 16.752C2.164 16.368 2.012 15.796 2.012 15.036L2 9.54001H2.744L2.756 15.036C2.756 15.436 2.788 15.736 2.852 15.936C2.924 16.136 3.048 16.28 3.224 16.368C3.4 16.448 3.664 16.488 4.016 16.488H4.172L4.232 16.92L4.172 17.328H4.016Z" fill="#757575"/>
<path d="M3.67526 16.488H4.01126C4.21126 16.488 4.37926 16.436 4.51526 16.332C4.65926 16.228 4.75526 16.084 4.80326 15.9L5.18726 14.52C5.35526 13.92 5.61526 13.452 5.96726 13.116C6.31926 12.772 6.74326 12.6 7.23926 12.6C7.63926 12.6 7.99126 12.716 8.29526 12.948C8.59926 13.18 8.83527 13.492 9.00326 13.884C9.17126 14.276 9.25526 14.704 9.25526 15.168C9.25526 15.728 9.17527 16.192 9.01527 16.56C8.85527 16.92 8.65127 17.18 8.40327 17.34C8.15527 17.508 7.88726 17.592 7.59926 17.592C7.30326 17.592 6.99926 17.532 6.68726 17.412C6.38326 17.292 5.89526 17.06 5.22326 16.716C5.07126 16.908 4.88726 17.06 4.67126 17.172C4.46326 17.276 4.24326 17.328 4.01126 17.328H3.67526V16.488ZM5.55926 15.972C6.19126 16.292 6.63126 16.504 6.87926 16.608C7.12726 16.704 7.36726 16.752 7.59926 16.752C7.88726 16.752 8.11126 16.64 8.27126 16.416C8.43126 16.184 8.51126 15.768 8.51126 15.168C8.51126 14.64 8.39927 14.22 8.17527 13.908C7.95927 13.596 7.64726 13.44 7.23926 13.44C6.91926 13.44 6.64726 13.548 6.42326 13.764C6.19926 13.98 6.02726 14.304 5.90726 14.736L5.55926 15.972Z" fill="#757575"/>
<path d="M11.2086 16.764C11.7766 16.764 12.2206 16.688 12.5406 16.536C12.8686 16.392 13.0966 16.176 13.2246 15.888C13.3606 15.6 13.4286 15.224 13.4286 14.76V14.568H12.0126C11.3726 14.568 10.8526 14.384 10.4526 14.016C10.0606 13.64 9.86458 13.104 9.86458 12.408C9.86458 11.928 9.95258 11.496 10.1286 11.112C10.3126 10.72 10.5686 10.412 10.8966 10.188C11.2246 9.95601 11.5926 9.84001 12.0006 9.84001C12.6566 9.84001 13.1806 10.08 13.5726 10.56C13.9726 11.032 14.1726 11.648 14.1726 12.408V13.728H14.8446L14.9046 14.16L14.8446 14.568H14.1726V14.76C14.1726 15.64 13.9366 16.332 13.4646 16.836C13.0006 17.348 12.2486 17.604 11.2086 17.604H10.0206V16.764H11.2086ZM10.6086 12.408C10.6086 12.88 10.7246 13.22 10.9566 13.428C11.1886 13.628 11.5406 13.728 12.0126 13.728H13.4286V12.408C13.4286 11.864 13.3046 11.44 13.0566 11.136C12.8166 10.824 12.4646 10.668 12.0006 10.668C11.5686 10.668 11.2286 10.828 10.9806 11.148C10.7326 11.46 10.6086 11.88 10.6086 12.408Z" fill="#757575"/>
<path d="M14.1726 13.728H15.1278C15.5918 13.728 15.9198 13.64 16.1118 13.464C16.3118 13.28 16.4118 13.044 16.4118 12.756C16.4118 12.532 16.3718 12.2 16.2918 11.76C16.2198 11.312 16.1358 10.892 16.0398 10.5L16.7598 10.308C16.8558 10.724 16.9438 11.168 17.0238 11.64C17.1118 12.112 17.1558 12.484 17.1558 12.756C17.1558 13.06 17.0838 13.352 16.9398 13.632C16.7958 13.904 16.5718 14.128 16.2678 14.304C15.9638 14.48 15.5838 14.568 15.1278 14.568H14.1726V13.728ZM13.6358 7.788H14.7038V8.856H13.6358V7.788ZM15.6278 7.788H16.6958V8.856H15.6278V7.788Z" fill="#757575"/>
</g>
</g>
</svg>
