<svg width="20" height="21" viewBox="0 0 20 21" fill="none" xmlns="http://www.w3.org/2000/svg">
<g id="vuesax/outline/trash">
<g id="trash">
<path id="Vector" d="M17.5001 6.10827C17.4834 6.10827 17.4584 6.10827 17.4334 6.10827C13.0251 5.66661 8.62505 5.49994 4.26672 5.94161L2.56672 6.10827C2.21672 6.14161 1.90839 5.89161 1.87505 5.54161C1.84172 5.19161 2.09172 4.89161 2.43339 4.85827L4.13339 4.69161C8.56672 4.24161 13.0584 4.41661 17.5584 4.85827C17.9001 4.89161 18.1501 5.19994 18.1167 5.54161C18.0917 5.86661 17.8167 6.10827 17.5001 6.10827Z" fill="#C62020"/>
<path id="Vector_2" d="M7.08363 5.26663C7.05029 5.26663 7.01696 5.26663 6.97529 5.25829C6.64196 5.19996 6.40863 4.87496 6.46696 4.54163L6.65029 3.44996C6.78363 2.64996 6.96696 1.54163 8.90863 1.54163H11.092C13.042 1.54163 13.2253 2.69163 13.3503 3.45829L13.5336 4.54163C13.592 4.88329 13.3586 5.20829 13.0253 5.25829C12.6836 5.31663 12.3586 5.08329 12.3086 4.74996L12.1253 3.66663C12.0086 2.94163 11.9836 2.79996 11.1003 2.79996H8.91696C8.03363 2.79996 8.01696 2.91663 7.89196 3.65829L7.70029 4.74163C7.65029 5.04996 7.38363 5.26663 7.08363 5.26663Z" fill="#C62020"/>
<path id="Vector_3" d="M12.675 19.4583H7.325C4.41666 19.4583 4.3 17.8499 4.20833 16.5499L3.66666 8.15827C3.64166 7.81661 3.90833 7.51661 4.25 7.49161C4.6 7.47494 4.89166 7.73327 4.91666 8.07494L5.45833 16.4666C5.55 17.7333 5.58333 18.2083 7.325 18.2083H12.675C14.425 18.2083 14.4583 17.7333 14.5417 16.4666L15.0833 8.07494C15.1083 7.73327 15.4083 7.47494 15.75 7.49161C16.0917 7.51661 16.3583 7.80827 16.3333 8.15827L15.7917 16.5499C15.7 17.8499 15.5833 19.4583 12.675 19.4583Z" fill="#C62020"/>
<path id="Vector_4" d="M11.3834 14.875H8.6084C8.26673 14.875 7.9834 14.5917 7.9834 14.25C7.9834 13.9083 8.26673 13.625 8.6084 13.625H11.3834C11.7251 13.625 12.0084 13.9083 12.0084 14.25C12.0084 14.5917 11.7251 14.875 11.3834 14.875Z" fill="#C62020"/>
<path id="Vector_5" d="M12.0837 11.5416H7.91699C7.57533 11.5416 7.29199 11.2583 7.29199 10.9166C7.29199 10.575 7.57533 10.2916 7.91699 10.2916H12.0837C12.4253 10.2916 12.7087 10.575 12.7087 10.9166C12.7087 11.2583 12.4253 11.5416 12.0837 11.5416Z" fill="#C62020"/>
</g>
</g>
</svg>
