<svg width="33" height="32" viewBox="0 0 33 32" fill="none" xmlns="http://www.w3.org/2000/svg">
<path opacity="0.4" d="M22.06 13.4134H10.9399C9.36659 13.4134 8.81993 12.3601 9.73993 11.0801L15.3 3.29338C15.9533 2.36005 17.0466 2.36005 17.6999 3.29338L23.26 11.0801C24.18 12.3601 23.6333 13.4134 22.06 13.4134Z" fill="#757575"/>
<path d="M23.9533 24H9.04662C6.93996 24 6.21995 22.6 7.45995 20.8933L12.7799 13.4133H20.22L25.54 20.8933C26.78 22.6 26.0599 24 23.9533 24Z" fill="#757575"/>
<path d="M17.5 24V29.3333C17.5 29.88 17.0467 30.3333 16.5 30.3333C15.9533 30.3333 15.5 29.88 15.5 29.3333V24H17.5Z" fill="#757575"/>
</svg>
