<svg width="101" height="101" viewBox="0 0 101 101" fill="none" xmlns="http://www.w3.org/2000/svg">
<g id="vuesax/bulk/tree">
<g id="tree">
<path id="Vector" opacity="0.4" d="M68.1845 41.9395H33.4344C28.5177 41.9395 26.8094 38.6478 29.6844 34.6478L47.0595 10.3145C49.1011 7.39779 52.5178 7.39779 54.5594 10.3145L71.9345 34.6478C74.8095 38.6478 73.1012 41.9395 68.1845 41.9395Z" fill="white"/>
<path id="Vector_2" d="M74.1015 75.0228H27.5182C20.9349 75.0228 18.6849 70.6478 22.5599 65.3145L39.1848 41.9395H62.4349L79.0598 65.3145C82.9348 70.6478 80.6848 75.0228 74.1015 75.0228Z" fill="white"/>
<g id="Group">
<path id="Vector_3" d="M53.9346 75.0228V91.6895C53.9346 93.3978 52.5179 94.8145 50.8096 94.8145C49.1012 94.8145 47.6846 93.3978 47.6846 91.6895V75.0228H53.9346Z" fill="white"/>
</g>
</g>
</g>
</svg>
