<svg width="33" height="32" viewBox="0 0 33 32" fill="none" xmlns="http://www.w3.org/2000/svg">
<path d="M7.16683 1.33337C5.9135 1.33337 4.7535 1.77338 3.8335 2.50671C2.60683 3.48005 1.8335 4.98671 1.8335 6.66671C1.8335 9.61337 4.22016 12 7.16683 12C8.5135 12 9.74018 11.4934 10.6868 10.6667C11.7935 9.69337 12.5002 8.26671 12.5002 6.66671C12.5002 3.72004 10.1135 1.33337 7.16683 1.33337ZM8.50016 7.00004C8.50016 7.34671 8.31352 7.68006 8.02018 7.85339L6.35352 8.85339C6.19352 8.94673 6.02018 9.00004 5.84684 9.00004C5.51351 9.00004 5.18016 8.82673 4.99349 8.52006C4.71349 8.04006 4.86017 7.42669 5.34017 7.14669L6.52686 6.44006V5.00004C6.52686 4.45337 6.98019 4.00004 7.52686 4.00004C8.07352 4.00004 8.52686 4.45337 8.52686 5.00004V7.00004H8.50016Z" fill="#757575"/>
<path opacity="0.4" d="M20.4998 3.99996V16C20.4998 17.4666 19.2998 18.6666 17.8332 18.6666H3.1665V10.16C4.13984 11.32 5.63321 12.04 7.28654 12C8.63321 11.9733 9.84651 11.4533 10.7532 10.5866C11.1665 10.24 11.5132 9.79995 11.7799 9.31995C12.2599 8.50661 12.5265 7.54659 12.4998 6.54659C12.4598 4.98659 11.7665 3.61329 10.6865 2.66663H19.1665C19.8998 2.66663 20.4998 3.26663 20.4998 3.99996Z" fill="#757575"/>
<path d="M29.8332 18.6666V22.6666C29.8332 24.88 28.0465 26.6666 25.8332 26.6666H24.4998C24.4998 25.2 23.2998 24 21.8332 24C20.3665 24 19.1665 25.2 19.1665 26.6666H13.8332C13.8332 25.2 12.6332 24 11.1665 24C9.69984 24 8.49984 25.2 8.49984 26.6666H7.1665C4.95317 26.6666 3.1665 24.88 3.1665 22.6666V18.6666H17.8332C19.2998 18.6666 20.4998 17.4666 20.4998 16V6.66663H22.9532C23.9132 6.66663 24.7932 7.18664 25.2732 8.01331L27.5531 12H25.8332C25.0998 12 24.4998 12.6 24.4998 13.3333V17.3333C24.4998 18.0666 25.0998 18.6666 25.8332 18.6666H29.8332Z" fill="#757575"/>
<path opacity="0.4" d="M11.1667 29.3333C12.6394 29.3333 13.8333 28.1394 13.8333 26.6667C13.8333 25.1939 12.6394 24 11.1667 24C9.69391 24 8.5 25.1939 8.5 26.6667C8.5 28.1394 9.69391 29.3333 11.1667 29.3333Z" fill="#757575"/>
<path opacity="0.4" d="M21.8332 29.3333C23.3059 29.3333 24.4998 28.1394 24.4998 26.6667C24.4998 25.1939 23.3059 24 21.8332 24C20.3604 24 19.1665 25.1939 19.1665 26.6667C19.1665 28.1394 20.3604 29.3333 21.8332 29.3333Z" fill="#757575"/>
<path opacity="0.4" d="M29.8333 16.7067V18.6667H25.8333C25.1 18.6667 24.5 18.0667 24.5 17.3333V13.3333C24.5 12.6 25.1 12 25.8333 12H27.5533L29.4867 15.3866C29.7133 15.7866 29.8333 16.24 29.8333 16.7067Z" fill="#292D32"/>
</svg>
