<svg width="25" height="24" viewBox="0 0 25 24" fill="none" xmlns="http://www.w3.org/2000/svg">
<path d="M15.76 22.25H9.23998C4.32998 22.25 2.22998 20.15 2.22998 15.24V15.11C2.22998 10.67 3.97998 8.53003 7.89998 8.16003C8.29998 8.13003 8.67998 8.43003 8.71998 8.84003C8.75998 9.25003 8.45998 9.62003 8.03998 9.66003C4.89998 9.95003 3.72998 11.43 3.72998 15.12V15.25C3.72998 19.32 5.16998 20.76 9.23998 20.76H15.76C19.83 20.76 21.27 19.32 21.27 15.25V15.12C21.27 11.41 20.08 9.93003 16.88 9.66003C16.47 9.62003 16.16 9.26003 16.2 8.85003C16.24 8.44003 16.59 8.13003 17.01 8.17003C20.99 8.51003 22.77 10.66 22.77 15.13V15.26C22.77 20.15 20.67 22.25 15.76 22.25Z" fill="#3D8361"/>
<path d="M12.5 15.75C12.09 15.75 11.75 15.41 11.75 15V3.62C11.75 3.21 12.09 2.87 12.5 2.87C12.91 2.87 13.25 3.21 13.25 3.62V15C13.25 15.41 12.91 15.75 12.5 15.75Z" fill="#3D8361"/>
<path d="M15.8501 6.59994C15.6601 6.59994 15.4701 6.52994 15.3201 6.37994L12.5001 3.55994L9.68009 6.37994C9.39009 6.66994 8.91009 6.66994 8.62009 6.37994C8.33009 6.08994 8.33009 5.60994 8.62009 5.31994L11.9701 1.96994C12.2601 1.67994 12.7401 1.67994 13.0301 1.96994L16.3801 5.31994C16.6701 5.60994 16.6701 6.08994 16.3801 6.37994C16.2401 6.52994 16.0401 6.59994 15.8501 6.59994Z" fill="#3D8361"/>
</svg>
