<svg width="32" height="33" viewBox="0 0 32 33" fill="none" xmlns="http://www.w3.org/2000/svg">
<g id="vuesax/bulk/wallet-3">
<g id="wallet-3">
<path id="Vector" d="M19.9998 8.69999H7.99984C5.05317 8.69999 2.6665 11.0867 2.6665 14.0333V9.21993C2.6665 6.49993 4.86651 4.29993 7.58651 4.29993H15.0798C17.7998 4.29993 19.9998 5.97999 19.9998 8.69999Z" fill="#3D8361"/>
<path id="Vector_2" opacity="0.4" d="M23.3065 16.7667C22.6398 17.4201 22.3198 18.4067 22.5865 19.4067C22.9198 20.6467 24.1465 21.4334 25.4265 21.4334H26.6665V23.3667C26.6665 26.3134 24.2798 28.7001 21.3332 28.7001H7.99984C5.05317 28.7001 2.6665 26.3134 2.6665 23.3667V14.0334C2.6665 11.0867 5.05317 8.70007 7.99984 8.70007H21.3332C24.2665 8.70007 26.6665 11.1001 26.6665 14.0334V15.9667H25.2265C24.4798 15.9667 23.7998 16.2601 23.3065 16.7667Z" fill="#3D8361"/>
<path id="Vector_3" d="M29.3335 17.3267V20.0734C29.3335 20.82 28.7201 21.4334 27.9601 21.4334H25.3868C23.9468 21.4334 22.6268 20.3801 22.5068 18.9401C22.4268 18.1001 22.7468 17.3134 23.3068 16.7667C23.8001 16.2601 24.4801 15.9667 25.2268 15.9667H27.9601C28.7201 15.9667 29.3335 16.58 29.3335 17.3267Z" fill="#3D8361"/>
<g id="Group">
<path id="Vector_4" d="M17.3335 16.3667H9.3335C8.78683 16.3667 8.3335 15.9134 8.3335 15.3667C8.3335 14.82 8.78683 14.3667 9.3335 14.3667H17.3335C17.8802 14.3667 18.3335 14.82 18.3335 15.3667C18.3335 15.9134 17.8802 16.3667 17.3335 16.3667Z" fill="#3D8361"/>
</g>
</g>
</g>
</svg>
