<svg width="32" height="32" viewBox="0 0 32 32" fill="none" xmlns="http://www.w3.org/2000/svg">
<g clip-path="url(#clip0_1783_9385)">
<rect x="2" y="2" width="28" height="28" rx="12" fill="white"/>
<path d="M8.80521 29.9318C7.8241 29.7829 6.88048 29.4544 6.02377 28.9635C4.09155 27.8797 2.64954 25.9384 2.18676 23.7999C2.00666 22.9635 1.984 21.9065 2.00785 15.3919C2.03051 8.38157 2.01381 8.74323 2.35493 7.58826C2.5243 7.0131 2.99543 6.02495 3.33655 5.5268C4.59488 3.69516 6.44599 2.51919 8.73961 2.09336C9.19762 2.0082 9.86078 2.00003 15.9628 2.00003C23.4185 2.00003 23.1728 1.98953 24.3906 2.36636C25.573 2.74053 26.6518 3.37521 27.5439 4.22148C28.4359 5.06776 29.1175 6.10305 29.536 7.2476C29.9296 8.34074 29.9487 8.51574 29.9761 11.395L30 13.9966L29.5336 14.3093C28.8681 14.7538 27.995 15.5459 26.7713 16.8176C25.3615 18.2829 23.9374 19.6409 23.2146 20.209C21.6533 21.4352 20.2232 22.1351 18.7705 22.3836C18.0143 22.512 16.7643 22.4618 16.0248 22.2728C15.3652 22.1048 15.4082 22.0768 15.1589 22.8141C14.9563 23.3976 14.8289 24.0035 14.7796 24.6178L14.7426 25.0926L14.5685 25.0576C13.1193 24.7764 11.6833 23.5585 11.1286 22.141C10.9411 21.6883 10.8362 21.207 10.8185 20.7188L10.7995 20.3222L10.4309 19.9909C9.66278 19.3025 9.16303 18.4602 9.00559 17.5864C8.75273 16.1946 9.41112 14.6208 10.84 13.2045C12.3476 11.7077 14.5697 10.5329 16.7476 10.0779C17.5324 9.91455 18.916 9.87138 19.6137 9.99038C20.971 10.2214 22.0791 10.8922 22.7685 11.9025C22.9856 12.2187 23.0011 12.2642 22.9796 12.55C22.9741 12.7601 22.8973 12.9624 22.7613 13.1252C22.2067 13.8846 20.5572 14.6978 18.7824 15.0851C15.6515 15.7676 13.6608 14.9194 13.9721 13.033C14.0031 12.8428 14.0198 12.6783 14.0091 12.6678C13.9709 12.6305 13.6596 12.7892 13.3233 13.0178C12.752 13.4075 12.2462 14.1658 12.0709 14.8926C12.028 15.0746 12.0113 15.3663 12.0303 15.6509C12.0542 16.0371 12.0936 16.1806 12.2594 16.5096C12.3691 16.7266 12.5874 17.0346 12.746 17.1967L13.0322 17.4896L12.9177 17.6319C12.5801 18.0647 12.3081 18.5429 12.1103 19.0517C11.8858 19.7358 11.8427 20.4644 11.985 21.1692C12.1079 21.707 12.4872 22.4466 12.8665 22.8818C13.1551 23.2143 13.8171 23.7731 13.9232 23.7731C13.9518 23.7731 13.9757 23.7171 13.9757 23.6494C13.9769 23.3811 14.1952 22.5143 14.3645 22.1013C14.869 20.867 15.9759 19.8147 17.728 18.9047C18.0202 18.753 18.8635 18.3564 19.603 18.0216C21.2251 17.2866 22.1113 16.8374 22.5979 16.4991C24.0006 15.5273 24.8677 14.09 25.1504 12.27C25.2529 11.605 25.2529 10.3637 25.1504 9.69522C24.7114 6.85094 22.5323 4.91664 19.4038 4.59698C15.9151 4.23882 11.4745 6.87544 8.73842 10.9284C7.40733 12.9 6.50802 15.0874 6.12992 17.2784C5.98321 18.1277 5.92835 19.705 6.019 20.4867C6.24919 22.4746 6.99942 24.0776 8.28876 25.3353C8.93443 25.9701 9.68945 26.4886 10.5192 26.8671C13.3435 28.1854 16.4709 28.2145 19.2201 26.9499C20.4081 26.4027 21.5746 25.5546 22.8257 24.3249C24.0423 23.1291 24.8653 22.1316 27.11 19.124C28.3505 17.4639 29.3333 16.3614 29.8199 16.0849L29.9988 15.9846L29.9761 19.5907C29.9547 23.0825 29.9499 23.2155 29.8294 23.7451C29.1138 26.8694 26.7999 29.1537 23.6332 29.8607L23.075 29.9855L16.187 29.9972C10.5406 30.0065 9.21074 29.9948 8.80521 29.9318Z" fill="#EF7C00"/>
</g>
<defs>
<clipPath id="clip0_1783_9385">
<rect width="28" height="28" fill="white" transform="translate(2 2)"/>
</clipPath>
</defs>
</svg>
