<svg width="45" height="44" viewBox="0 0 45 44" fill="none" xmlns="http://www.w3.org/2000/svg">
<g clip-path="url(#clip0_5179_3591)">
<rect x="3.33887" y="2.7334" width="38.2673" height="38.2673" rx="16.4003" fill="white"/>
<path d="M12.6395 40.9076C11.2986 40.704 10.009 40.255 8.83811 39.5842C6.19737 38.103 4.22659 35.4498 3.59411 32.5272C3.34797 31.384 3.31699 29.9394 3.3496 21.036C3.38057 11.455 3.35775 11.9493 3.82395 10.3708C4.05543 9.58476 4.69931 8.23426 5.16552 7.55344C6.88526 5.05016 9.41517 3.44297 12.5498 2.86099C13.1758 2.7446 14.0821 2.73344 22.4217 2.73344C32.6114 2.73344 32.2756 2.71909 33.9399 3.23409C35.5559 3.74548 37.0302 4.61288 38.2494 5.76948C39.4686 6.92608 40.4001 8.341 40.9721 9.90524C41.51 11.3992 41.5361 11.6384 41.5736 15.5735L41.6062 19.1291L40.9688 19.5564C40.0593 20.1639 38.866 21.2465 37.1936 22.9845C35.2668 24.9871 33.3205 26.843 32.3326 27.6195C30.1988 29.2953 28.2444 30.2519 26.2589 30.5915C25.2254 30.7669 23.5171 30.6984 22.5064 30.4401C21.605 30.2105 21.6637 30.1722 21.323 31.1799C21.0461 31.9773 20.872 32.8053 20.8046 33.6449L20.7541 34.2938L20.5161 34.246C18.5355 33.8617 16.5729 32.1971 15.8149 30.2599C15.5586 29.6412 15.4152 28.9834 15.3911 28.3163L15.365 27.7742L14.8613 27.3213C13.8115 26.3806 13.1285 25.2294 12.9133 24.0352C12.5678 22.133 13.4676 19.9821 15.4204 18.0465C17.4809 16.0008 20.5177 14.3952 23.4943 13.7734C24.5669 13.5501 26.4578 13.4911 27.4114 13.6538C29.2664 13.9695 30.7808 14.8863 31.723 16.2671C32.0196 16.6992 32.0408 16.7613 32.0115 17.152C32.004 17.4391 31.899 17.7156 31.7132 17.938C30.9552 18.976 28.7008 20.0873 26.2752 20.6167C21.9962 21.5495 19.2756 20.3903 19.701 17.8121C19.7434 17.5522 19.7662 17.3274 19.7516 17.313C19.6994 17.262 19.274 17.4788 18.8143 17.7914C18.0335 18.3239 17.3423 19.3603 17.1027 20.3536C17.044 20.6024 17.0212 21.001 17.0473 21.39C17.0799 21.9178 17.1337 22.1139 17.3602 22.5635C17.5102 22.8601 17.8085 23.281 18.0253 23.5026L18.4165 23.9029L18.26 24.0974C17.7986 24.6888 17.4269 25.3424 17.1565 26.0378C16.8497 26.9727 16.7908 27.9685 16.9853 28.9317C17.1532 29.6668 17.6716 30.6776 18.19 31.2724C18.5844 31.7268 19.4891 32.4905 19.6342 32.4905C19.6733 32.4905 19.7059 32.414 19.7059 32.3215C19.7076 31.9548 20.0059 30.7701 20.2373 30.2057C20.9269 28.5188 22.4396 27.0806 24.8342 25.8369C25.2336 25.6296 26.3861 25.0875 27.3967 24.6299C29.6136 23.6254 30.8248 23.0116 31.4899 22.5492C33.4069 21.221 34.5919 19.2566 34.9783 16.7693C35.1185 15.8605 35.1185 14.164 34.9783 13.2504C34.3784 9.36313 31.4002 6.71954 27.1245 6.28267C22.3565 5.79317 16.2876 9.39661 12.5482 14.9357C10.729 17.6303 9.49993 20.6199 8.98319 23.6143C8.78269 24.775 8.70771 26.9307 8.83159 27.999C9.1462 30.7159 10.1715 32.9067 11.9337 34.6255C12.8161 35.4931 13.848 36.2018 14.9819 36.719C18.842 38.5207 23.1161 38.5606 26.8734 36.8322C28.497 36.0844 30.0912 34.9252 31.8012 33.2447C33.4639 31.6104 34.5887 30.2471 37.6565 26.1367C39.3518 23.8678 40.695 22.361 41.3601 21.9831L41.6046 21.846L41.5736 26.7744C41.5443 31.5466 41.5378 31.7284 41.3731 32.4523C40.3951 36.7222 37.2327 39.8441 32.9048 40.8103L32.1419 40.9809L22.7281 40.9969C15.0113 41.0096 13.1937 40.9937 12.6395 40.9076Z" fill="#3D8361"/>
</g>
<defs>
<clipPath id="clip0_5179_3591">
<rect width="38.2673" height="38.2673" fill="white" transform="translate(3.33887 2.7334)"/>
</clipPath>
</defs>
</svg>
