<svg width="45" height="44" viewBox="0 0 45 44" fill="none" xmlns="http://www.w3.org/2000/svg">
<rect x="3.33887" y="2.86621" width="38.2673" height="38.2673" rx="8.20015" fill="#3D8361"/>
<rect x="3.33887" y="2.86621" width="38.2673" height="38.2673" rx="8.20015" fill="#3D8361"/>
<rect x="3.33887" y="2.86621" width="38.2673" height="38.2673" rx="8.20015" fill="#3D8361"/>
<path d="M32.0394 14.4831C32.0394 15.6153 31.1216 16.5332 29.9894 16.5332C28.8572 16.5332 27.9393 15.6153 27.9393 14.4831C27.9393 13.3509 28.8572 12.4331 29.9894 12.4331C31.1216 12.4331 32.0394 13.3509 32.0394 14.4831Z" fill="white"/>
<path fill-rule="evenodd" clip-rule="evenodd" d="M22.4726 28.8334C26.2466 28.8334 29.306 25.7739 29.306 21.9999C29.306 18.2259 26.2466 15.1665 22.4726 15.1665C18.6986 15.1665 15.6391 18.2259 15.6391 21.9999C15.6391 25.7739 18.6986 28.8334 22.4726 28.8334ZM22.4726 26.1C24.737 26.1 26.5726 24.2643 26.5726 21.9999C26.5726 19.7355 24.737 17.8998 22.4726 17.8998C20.2082 17.8998 18.3725 19.7355 18.3725 21.9999C18.3725 24.2643 20.2082 26.1 22.4726 26.1Z" fill="white"/>
<path fill-rule="evenodd" clip-rule="evenodd" d="M8.80566 21.4532C8.80566 16.8607 8.80566 14.5645 9.69943 12.8104C10.4856 11.2674 11.7401 10.0129 13.283 9.22677C15.0371 8.33301 17.3334 8.33301 21.9259 8.33301H23.0193C27.6118 8.33301 29.908 8.33301 31.6621 9.22677C33.2051 10.0129 34.4595 11.2674 35.2457 12.8104C36.1395 14.5645 36.1395 16.8607 36.1395 21.4532V22.5466C36.1395 27.1391 36.1395 29.4354 35.2457 31.1895C34.4595 32.7324 33.2051 33.9869 31.6621 34.7731C29.908 35.6668 27.6118 35.6668 23.0193 35.6668H21.9259C17.3334 35.6668 15.0371 35.6668 13.283 34.7731C11.7401 33.9869 10.4856 32.7324 9.69943 31.1895C8.80566 29.4354 8.80566 27.1391 8.80566 22.5466V21.4532ZM21.9259 11.0664H23.0193C25.3606 11.0664 26.9522 11.0685 28.1825 11.169C29.3809 11.2669 29.9937 11.4444 30.4212 11.6622C31.4498 12.1863 32.2861 13.0227 32.8103 14.0513C33.0281 14.4788 33.2056 15.0916 33.3035 16.29C33.404 17.5203 33.4061 19.1119 33.4061 21.4532V22.5466C33.4061 24.888 33.404 26.4796 33.3035 27.7099C33.2056 28.9082 33.0281 29.521 32.8103 29.9485C32.2861 30.9772 31.4498 31.8135 30.4212 32.3376C29.9937 32.5554 29.3809 32.7329 28.1825 32.8308C26.9522 32.9313 25.3606 32.9334 23.0193 32.9334H21.9259C19.5845 32.9334 17.9929 32.9313 16.7626 32.8308C15.5643 32.7329 14.9515 32.5554 14.524 32.3376C13.4953 31.8135 12.659 30.9772 12.1349 29.9485C11.9171 29.521 11.7396 28.9082 11.6417 27.7099C11.5412 26.4796 11.539 24.888 11.539 22.5466V21.4532C11.539 19.1119 11.5412 17.5203 11.6417 16.29C11.7396 15.0916 11.9171 14.4788 12.1349 14.0513C12.659 13.0227 13.4953 12.1863 14.524 11.6622C14.9515 11.4444 15.5643 11.2669 16.7626 11.169C17.9929 11.0685 19.5845 11.0664 21.9259 11.0664Z" fill="white"/>
</svg>
