<svg width="66" height="580" viewBox="0 0 66 580" fill="none" xmlns="http://www.w3.org/2000/svg">
<path fill-rule="evenodd" clip-rule="evenodd" d="M-100.022 64.1065L-97.5759 63.5895L-95.0891 63.0315L-92.5603 62.436L-89.9883 61.8068L-87.3719 61.1479L-84.7105 60.4634L-82.0033 59.7573L-79.2498 59.0339L-76.4499 58.2974L-73.6033 57.5521L-70.7103 56.8026L-67.7712 56.0531L-64.7865 55.3083L-61.7571 54.5727L-58.6842 53.8515L-55.5693 53.1497L-52.4144 52.473L-49.2218 51.8269L-45.9941 51.2171L-42.7343 50.6496L-39.4456 50.1299L-36.1318 49.6641L-32.7967 49.2577L-29.4446 48.9164L-26.0798 48.6456L-22.7073 48.4506L-19.3318 48.3364L-15.9586 48.3081L-12.5931 48.3701L-9.24087 48.5269L-5.90759 48.7826L-2.59908 49.141L0.678594 49.6054L3.9194 50.1791L7.11736 50.8646L10.2665 51.6642L13.3612 52.5792L16.3959 53.6106L19.3652 54.7591L22.264 56.0245L25.0875 57.4063L27.8311 58.9034L30.4907 60.5144L33.0624 62.2372L35.5426 64.0696L37.9282 66.0088L40.2164 68.0516L42.4048 70.1945L44.4914 72.4338L46.4746 74.7655L48.3533 77.185L50.1266 79.688L51.7942 82.2697L53.3562 84.9251L54.8129 87.6494L56.1651 90.4374L57.4139 93.284L58.561 96.1838L59.6081 99.1319L60.5573 102.123L61.4112 105.152L62.1724 108.214L62.8439 111.304L63.429 114.417L63.9309 117.548L64.3532 120.694L64.6997 123.85L64.9741 127.012L65.1802 130.176L65.3222 133.338L65.4039 136.495L65.4294 139.645L65.4026 142.783L65.3274 145.908L65.2079 149.017L65.0478 152.108L64.8507 155.18L64.6204 158.229L64.3603 161.256L64.0737 164.259L63.7638 167.236L63.4336 170.188L63.0859 173.113L62.7235 176.012L62.3488 178.883L61.9641 181.727L61.5715 184.545L61.1729 187.336L60.77 190.1L60.3642 192.838L59.957 195.551L59.5492 198.239L59.1419 200.903L58.7359 203.544L58.3316 206.162L57.9295 208.759L57.5299 211.335L57.133 213.892L56.7388 216.429L56.3473 218.948L55.9584 221.45L55.572 223.936L55.188 226.406L54.8066 228.862L54.4281 231.303L54.0529 233.732L53.6816 236.148L53.3149 238.553L52.9534 240.947L52.5982 243.331L52.2502 245.707L51.9103 248.074L51.5798 250.434L51.2598 252.789L50.9514 255.138L50.656 257.484L50.3748 259.827L50.1092 262.169L49.8604 264.511L49.6298 266.854L49.4187 269.2L49.2284 271.551L49.0602 273.908L48.9151 276.272L48.7939 278.646L48.6976 281.031L48.6266 283.429L48.5815 285.841L48.5624 288.27L48.5694 290.717L48.6024 293.184L48.6611 295.672L48.745 298.183L48.8535 300.72L48.9856 303.282L49.1403 305.873L49.3163 308.493L49.5123 311.143L49.7267 313.825L49.9578 316.541L50.2037 319.29L50.4626 322.075L50.7322 324.895L51.0106 327.753L51.2952 330.647L51.5838 333.58L51.8738 336.55L52.1626 339.559L52.4476 342.607L52.7258 345.693L52.9945 348.818L53.2509 351.98L53.4918 355.18L53.7145 358.416L53.9156 361.689L54.0921 364.997L54.241 368.338L54.3592 371.712L54.4436 375.118L54.491 378.553L54.4985 382.016L54.4631 385.504L54.3818 389.017L54.2519 392.552L54.0705 396.107L53.8349 399.679L53.5427 403.266L53.1914 406.866L52.7787 410.476L52.3024 414.093L51.7605 417.715L51.1513 421.339L50.4729 424.962L49.7239 428.582L48.9028 432.195L48.0086 435.8L47.0402 439.393L45.9966 442.972L44.877 446.534L43.6811 450.077L42.4082 453.597L41.0581 457.092L39.6306 460.56L38.1257 463.998L36.5437 467.404L34.8848 470.776L33.1495 474.11L31.3383 477.406L29.4519 480.661L27.4911 483.874L25.4569 487.041L23.3506 490.163L21.1737 493.238L18.9282 496.266L16.6161 499.247L14.2395 502.18L11.8007 505.067L9.30191 507.908L6.74532 510.704L4.13327 513.456L1.46776 516.165L-1.24923 518.832L-4.01582 521.459L-6.83033 524.045L-9.69129 526.593L-12.5974 529.101L-15.5476 531.572L-18.541 534.003L-21.577 536.396L-24.6551 538.748L-27.7751 541.059L-30.9366 543.325L-34.1396 545.546L-37.3836 547.719L-40.6685 549.842L-43.9937 551.913L-47.3589 553.929L-50.7637 555.887L-54.2073 557.786L-57.6892 559.623L-61.2086 561.395L-64.7646 563.099L-68.3563 564.732L-71.9826 566.293L-75.6423 567.779L-79.3341 569.187L-83.0567 570.515L-86.8085 571.76L-90.5879 572.921L-94.3932 573.995L-98.2225 574.98L-102.074 575.875L-105.946 576.678L-109.835 577.387L-113.741 578.002L-117.661 578.522L-121.591 578.945L-125.531 579.272L-129.478 579.502L-133.43 579.635L-137.383 579.672L-141.336 579.613L-145.287 579.46L-149.233 579.213L-153.172 578.874L-157.102 578.444L-161.022 577.927L-164.928 577.323L-168.819 576.635L-172.693 575.867L-176.55 575.02L-180.387 574.098L-184.203 573.104L-187.997 572.04L-191.768 570.912L-195.515 569.72L-199.238 568.47L-202.935 567.165L-206.607 565.807L-210.253 564.401L-213.873 562.948L-217.467 561.454L-221.035 559.92L-224.577 558.349L-228.094 556.744L-231.586 555.108L-235.053 553.444L-238.495 551.752L-241.914 550.036L-245.31 548.296L-248.683 546.535L-252.034 544.753L-255.363 542.952L-258.67 541.133L-261.957 539.294L-265.223 537.438L-268.468 535.563L-271.692 533.67L-274.895 531.757L-278.078 529.824L-281.24 527.872L-284.381 525.899L-287.502 523.908L-290.602 521.897L-293.683 519.867L-296.745 517.82L-299.788 515.757L-302.813 513.677L-305.822 511.583L-308.815 509.475L-311.793 507.354L-314.757 505.221L-317.708 503.078L-320.648 500.926L-323.579 498.765L-326.501 496.597L-329.416 494.423L-332.327 492.245L-335.235 490.063L-338.143 487.88L-341.052 485.697L-343.965 483.513L-346.884 481.33L-349.809 479.148L-352.742 476.966L-355.685 474.784L-358.638 472.6L-361.601 470.413L-364.574 468.222L-367.558 466.024L-370.551 463.818L-373.554 461.602L-376.564 459.373L-379.58 457.127L-382.601 454.864L-385.625 452.579L-388.648 450.27L-391.668 447.935L-394.683 445.569L-397.688 443.171L-400.68 440.736L-403.656 438.263L-406.61 435.749L-409.54 433.192L-412.441 430.588L-415.307 427.936L-418.135 425.233L-420.919 422.478L-423.656 419.67L-426.339 416.806L-428.965 413.886L-431.529 410.91L-434.026 407.876L-436.451 404.785L-438.801 401.635L-441.071 398.429L-443.257 395.167L-445.355 391.848L-447.362 388.475L-449.274 385.049L-451.088 381.571L-452.802 378.044L-454.413 374.469L-455.919 370.849L-457.318 367.186L-458.608 363.482L-459.788 359.741L-460.857 355.965L-461.815 352.158L-462.66 348.321L-463.393 344.459L-464.014 340.575L-464.524 336.671L-464.922 332.751L-465.211 328.819L-465.391 324.877L-465.465 320.928L-465.433 316.976L-465.298 313.024L-465.062 309.074L-464.728 305.131L-464.298 301.195L-463.775 297.271L-463.161 293.361L-462.46 289.467L-461.674 285.591L-460.807 281.737L-459.862 277.905L-458.842 274.098L-457.752 270.318L-456.596 266.566L-455.38 262.844L-454.11 259.153L-452.79 255.495L-451.428 251.87L-450.03 248.278L-448.602 244.721L-447.151 241.197L-445.683 237.707L-444.206 234.25L-442.726 230.824L-441.249 227.43L-439.783 224.065L-438.332 220.727L-436.905 217.415L-435.506 214.126L-434.142 210.857L-432.819 207.605L-431.542 204.369L-430.315 201.143L-429.144 197.925L-428.031 194.711L-426.979 191.498L-425.992 188.283L-425.069 185.06L-424.213 181.828L-423.422 178.582L-422.698 175.32L-422.037 172.038L-421.439 168.733L-420.901 165.403L-420.419 162.045L-419.989 158.657L-419.608 155.238L-419.27 151.786L-418.97 148.3L-418.702 144.78L-418.459 141.225L-418.236 137.636L-418.025 134.013L-417.819 130.357L-417.61 126.67L-417.392 122.954L-417.156 119.211L-416.896 115.444L-416.602 111.656L-416.269 107.851L-415.887 104.034L-415.449 100.207L-414.949 96.3761L-414.38 92.5464L-413.733 88.7231L-413.004 84.9119L-412.185 81.1185L-411.272 77.349L-410.258 73.6097L-409.14 69.9069L-407.911 66.247L-406.57 62.6365L-405.111 59.0819L-403.533 55.5896L-401.833 52.166L-400.009 48.8173L-398.06 45.5497L-395.986 42.3691L-393.786 39.281L-391.462 36.2909L-389.014 33.4038L-386.444 30.6246L-383.754 27.9575L-380.948 25.4065L-378.027 22.9752L-374.996 20.6667L-371.86 18.4837L-368.621 16.4283L-365.286 14.5025L-361.859 12.7075L-358.345 11.044L-354.751 9.51239L-351.082 8.11246L-347.345 6.84354L-343.545 5.70443L-339.689 4.69349L-335.783 3.80859L-331.834 3.04711L-327.848 2.40611L-323.832 1.88226L-319.791 1.47236L-315.731 1.17332L-311.658 0.982066L-307.575 0.895718L-303.488 0.911477L-299.401 1.02657L-295.317 1.2384L-291.241 1.5442L-287.176 1.94144L-283.125 2.42759L-279.092 3.00001L-275.08 3.65627L-271.091 4.39363L-267.128 5.20954L-263.194 6.10121L-259.291 7.06601L-255.422 8.10096L-251.589 9.20305L-247.794 10.3692L-244.039 11.5959L-240.327 12.8801L-236.659 14.2179L-233.036 15.6059L-229.462 17.0402L-225.936 18.517L-222.46 20.0324L-219.037 21.5823L-215.666 23.1625L-212.348 24.769L-209.085 26.3974L-205.877 28.0433L-202.724 29.7023L-199.627 31.37L-196.586 33.0418L-193.6 34.7132L-190.67 36.3798L-187.794 38.037L-184.973 39.6804L-182.206 41.3057L-179.491 42.9086L-176.827 44.485L-174.213 46.0306L-171.648 47.5417L-169.129 49.0145L-166.656 50.4452L-164.225 51.8304L-161.835 53.1668L-159.483 54.4512L-157.167 55.6807L-154.885 56.8526L-152.633 57.9641L-150.41 59.0131L-148.211 59.9973L-146.035 60.915L-143.878 61.7644L-141.737 62.5442L-139.61 63.2531L-137.492 63.8902L-135.381 64.4548L-133.273 64.9466L-131.166 65.3653L-129.056 65.7112L-126.939 65.9845L-124.814 66.186L-122.677 66.3165L-120.524 66.3773L-118.354 66.3697L-116.162 66.2956L-113.947 66.1568L-111.705 65.9556L-109.435 65.6944L-107.134 65.3759L-104.799 65.003L-102.429 64.5788L-100.022 64.1065Z" fill="#E0F1E9"/>
</svg>
