<svg width="77" height="469" viewBox="0 0 77 469" fill="none" xmlns="http://www.w3.org/2000/svg">
<path fill-rule="evenodd" clip-rule="evenodd" d="M338.614 123.632L339.956 125.544L341.241 127.495L342.465 129.484L343.63 131.509L344.735 133.567L345.781 135.656L346.769 137.772L347.701 139.914L348.58 142.079L349.41 144.262L350.194 146.461L350.938 148.674L351.646 150.898L352.323 153.13L352.976 155.368L353.611 157.61L354.234 159.854L354.852 162.1L355.472 164.347L356.099 166.593L356.742 168.839L357.405 171.086L358.096 173.334L358.82 175.585L359.583 177.839L360.39 180.1L361.245 182.37L362.151 184.65L363.112 186.946L364.13 189.258L365.206 191.592L366.341 193.95L367.533 196.336L368.782 198.754L370.085 201.208L371.439 203.7L372.841 206.234L374.287 208.813L375.771 211.441L377.29 214.119L378.836 216.85L380.404 219.635L381.988 222.478L383.579 225.378L385.171 228.336L386.756 231.353L388.326 234.429L389.872 237.563L391.386 240.754L392.86 244.001L394.285 247.301L395.652 250.653L396.953 254.052L398.18 257.497L399.324 260.982L400.378 264.503L401.333 268.057L402.183 271.637L402.921 275.239L403.54 278.857L404.035 282.484L404.399 286.115L404.628 289.744L404.719 293.364L404.667 296.968L404.469 300.55L404.124 304.104L403.629 307.623L402.984 311.1L402.19 314.53L401.245 317.907L400.152 321.224L398.913 324.478L397.53 327.663L396.006 330.774L394.346 333.807L392.555 336.76L390.637 339.63L388.599 342.414L386.447 345.112L384.189 347.722L381.831 350.246L379.382 352.683L376.849 355.036L374.24 357.306L371.564 359.496L368.827 361.61L366.039 363.651L363.206 365.623L360.337 367.533L357.438 369.384L354.517 371.184L351.578 372.936L348.63 374.648L345.676 376.326L342.722 377.977L339.771 379.605L336.828 381.218L333.895 382.822L330.976 384.422L328.07 386.024L325.18 387.632L322.305 389.251L319.446 390.885L316.601 392.536L313.77 394.208L310.95 395.903L308.14 397.623L305.338 399.37L302.541 401.144L299.747 402.948L296.954 404.781L294.158 406.643L291.356 408.535L288.546 410.455L285.724 412.402L282.887 414.375L280.032 416.372L277.156 418.39L274.255 420.427L271.327 422.479L268.369 424.543L265.379 426.616L262.352 428.693L259.288 430.77L256.184 432.843L253.038 434.907L249.848 436.956L246.613 438.987L243.332 440.993L240.003 442.97L236.626 444.912L233.2 446.813L229.726 448.668L226.203 450.472L222.632 452.22L219.014 453.905L215.349 455.523L211.64 457.07L207.887 458.539L204.092 459.926L200.257 461.226L196.385 462.436L192.478 463.551L188.539 464.567L184.57 465.481L180.575 466.289L176.557 466.989L172.518 467.579L168.463 468.056L164.395 468.421L160.316 468.672L156.231 468.808L152.142 468.83L148.053 468.737L143.967 468.531L139.887 468.211L135.816 467.779L131.757 467.236L127.713 466.583L123.687 465.822L119.681 464.953L115.699 463.98L111.742 462.903L107.814 461.724L103.916 460.444L100.051 459.066L96.2224 457.591L92.4316 456.019L88.6813 454.353L84.9741 452.593L81.3126 450.74L77.6994 448.797L74.1373 446.762L70.6291 444.637L67.1778 442.423L63.7863 440.12L60.4577 437.728L57.1948 435.25L54.0008 432.686L50.8785 430.036L47.8309 427.303L44.8609 424.487L41.9713 421.59L39.165 418.614L36.4446 415.561L33.8128 412.432L31.272 409.23L28.8248 405.957L26.4732 402.616L24.2195 399.209L22.0654 395.739L20.0129 392.209L18.0634 388.623L16.2183 384.982L14.4786 381.292L12.8452 377.556L11.3189 373.776L9.89989 369.958L8.58837 366.105L7.38417 362.22L6.28691 358.309L5.29588 354.374L4.41014 350.421L3.62845 346.453L2.94935 342.474L2.37108 338.489L1.89165 334.501L1.50882 330.515L1.22013 326.534L1.0229 322.562L0.914234 318.603L0.891072 314.66L0.950161 310.737L1.08812 306.837L1.30143 302.962L1.58643 299.117L1.93939 295.303L2.35647 291.522L2.83382 287.778L3.36754 284.072L3.95373 280.406L4.58852 276.782L5.26806 273.2L5.98856 269.663L6.74632 266.17L7.53769 262.723L8.35913 259.322L9.20718 255.967L10.0785 252.659L10.9699 249.397L11.8781 246.182L12.8002 243.012L13.7331 239.888L14.674 236.808L15.6201 233.772L16.5686 230.779L17.5166 227.827L18.4616 224.917L19.4007 222.045L20.3312 219.211L21.25 216.414L22.1544 213.651L23.0412 210.921L23.9071 208.223L24.7489 205.553L25.5633 202.909L26.3474 200.29L27.0987 197.693L27.815 195.115L28.4944 192.553L29.1355 190.004L29.737 187.465L30.2982 184.935L30.8187 182.408L31.2983 179.884L31.7375 177.358L32.1368 174.828L32.4973 172.291L32.8203 169.744L33.1075 167.186L33.3609 164.613L33.5829 162.023L33.7759 159.414L33.9429 156.784L34.0869 154.132L34.2114 151.456L34.32 148.754L34.4162 146.027L34.5042 143.272L34.588 140.489L34.6717 137.679L34.7597 134.841L34.8563 131.975L34.9659 129.083L35.093 126.164L35.242 123.219L35.4173 120.251L35.6234 117.26L35.8643 114.248L36.1445 111.218L36.468 108.171L36.8386 105.11L37.2603 102.037L37.7367 98.9554L38.2711 95.8681L38.8669 92.7781L39.527 89.6885L40.254 86.6026L41.0503 83.5235L41.9179 80.4546L42.8587 77.3992L43.874 74.3605L44.9651 71.3418L46.133 68.3463L47.3782 65.3772L48.7013 62.4376L50.1024 59.5305L51.5815 56.659L53.1384 53.8261L54.7728 51.0346L56.4841 48.2874L58.2715 45.5872L60.1343 42.9369L62.0715 40.3391L64.0819 37.7965L66.1646 35.3118L68.3183 32.8878L70.5416 30.5271L72.8333 28.2324L75.1919 26.0066L77.6161 23.8526L80.1043 21.7732L82.655 19.7715L85.2668 17.8507L87.938 16.0141L90.667 14.265L93.4519 12.6068L96.2906 11.0424L99.181 9.57481L102.12 8.20676L105.106 6.94075L108.136 5.77908L111.206 4.72378L114.313 3.77665L117.455 2.9392L120.627 2.21264L123.826 1.59794L127.048 1.09574L130.29 0.706348L133.548 0.429764L136.818 0.265673L140.096 0.213436L143.378 0.272101L146.661 0.44034L149.939 0.716551L153.211 1.09881L156.471 1.58486L159.716 2.17215L162.943 2.85783L166.149 3.63881L169.329 4.51168L172.481 5.47281L175.602 6.51836L178.69 7.64423L181.741 8.84617L184.753 10.1197L187.725 11.4604L190.653 12.8633L193.538 14.3238L196.377 15.8369L199.169 17.3978L201.914 19.0015L204.61 20.643L207.257 22.3174L209.856 24.02L212.406 25.7457L214.907 27.4902L217.361 29.2489L219.768 31.0179L222.128 32.7932L224.444 34.5714L226.716 36.349L228.945 38.1231L231.133 39.8908L233.281 41.6496L235.392 43.3972L237.467 45.1315L239.507 46.8508L241.514 48.5532L243.491 50.2376L245.439 51.9026L247.36 53.5474L249.256 55.1709L251.129 56.7725L252.98 58.3518L254.812 59.9083L256.627 61.4417L258.425 62.9519L260.21 64.4386L261.983 65.9018L263.746 67.3415L265.501 68.7576L267.249 70.15L268.994 71.5188L270.737 72.8638L272.48 74.1847L274.225 75.4817L275.975 76.7549L277.731 78.005L279.496 79.233L281.27 80.4401L283.056 81.6279L284.853 82.7982L286.663 83.9531L288.487 85.0952L290.324 86.2268L292.175 87.3509L294.039 88.4705L295.915 89.5885L297.804 90.7084L299.702 91.8333L301.609 92.9667L303.523 94.112L305.441 95.2725L307.362 96.4515L309.282 97.6523L311.199 98.8781L313.109 100.132L315.01 101.416L316.897 102.734L318.768 104.088L320.618 105.48L322.444 106.911L324.242 108.384L326.009 109.9L327.741 111.46L329.434 113.065L331.086 114.715L332.693 116.409L334.251 118.149L335.759 119.934L337.214 121.762L338.614 123.632Z" fill="#E0F1E9"/>
</svg>
