<svg width="313" height="358" viewBox="0 0 313 358" fill="none" xmlns="http://www.w3.org/2000/svg">
<g clip-path="url(#clip0_2500_26341)">
<path d="M40.5338 67.7387C44.9278 72.6109 47.2156 78.9738 51.4281 83.9188C55.8155 88.8404 60.9209 93.0697 66.5711 96.463C76.2838 102.066 86.9036 105.918 97.9468 107.844C101.47 108.959 105.219 109.16 108.841 108.425C111.964 107.371 111.637 104.208 109.749 102.062C106.436 99.0078 102.547 96.6467 98.3099 95.1177C92.4873 92.5347 86.5361 90.2531 80.4796 88.282C66.3533 83.6643 51.1375 78.9012 41.6232 66.4661C40.8969 65.5207 39.2265 66.7932 39.9527 67.775C46.8888 77.1195 57.3473 82.319 68.0237 86.3186C79.1401 89.8107 90.0516 93.926 100.707 98.6446C102.123 99.3718 110.584 103.444 108.623 105.917C107.933 106.753 105.936 106.607 104.992 106.571C103.014 106.492 101.046 106.249 99.1088 105.844C88.9742 104.182 79.168 100.917 70.0573 96.1721C63.7558 92.7247 58.0434 88.2939 53.1349 83.0462C48.5593 78.0649 46.0535 71.5928 40.9332 67.0114C40.8903 66.9709 40.8397 66.9392 40.7846 66.9181C40.7294 66.8971 40.6707 66.887 40.6117 66.8887C40.5527 66.8904 40.4946 66.9037 40.4407 66.9279C40.3868 66.9521 40.3383 66.9867 40.2977 67.0296C40.2572 67.0726 40.2254 67.1231 40.2044 67.1783C40.1834 67.2336 40.1735 67.2925 40.1752 67.3515C40.1768 67.4106 40.1901 67.4688 40.2143 67.5228C40.2384 67.5767 40.2729 67.6253 40.3158 67.6659L40.5338 67.7387Z" fill="#E3E3E3"/>
<path d="M41.2601 67.0114C36.3576 59.194 27.7875 56.6488 19.762 53.2309C15.3317 51.3402 10.9376 49.3404 6.68884 47.0861C2.16999 44.6033 -2.03608 41.5883 -5.83966 38.1052C-6.49332 37.5234 -7.72795 38.287 -7.14693 39.1233C-1.69977 46.7225 8.0688 50.4676 16.3485 54.0673C24.6282 57.6669 34.7236 59.7758 40.4249 67.5205C40.7881 68.0295 41.6232 67.5204 41.2601 67.0114Z" fill="#E3E3E3"/>
<path d="M63.0479 71.9927C56.3298 70.3072 49.9284 67.5445 44.0917 63.8117C41.3401 62.0522 38.4774 60.4734 35.5216 59.085C34.1053 58.4305 32.6528 57.9214 31.2002 57.4123C29.9311 56.8187 28.5289 56.568 27.133 56.6852C27.0303 56.713 26.9365 56.7669 26.8607 56.8416C26.7849 56.9164 26.7297 57.0096 26.7005 57.1121C26.6712 57.2145 26.6689 57.3227 26.6938 57.4263C26.7187 57.5299 26.7699 57.6253 26.8424 57.7033C28.0376 58.4152 29.3557 58.8962 30.7281 59.1212C32.3259 59.5939 33.9237 60.1757 35.4853 60.7575C38.6835 62.0132 41.749 63.5844 44.6364 65.448C50.1593 68.9508 56.3376 71.2891 62.7936 72.3199C63.0115 72.3199 63.1205 72.0291 62.7936 71.9927L63.0479 71.9927Z" fill="#E3E3E3"/>
<path d="M57.165 71.1565C80.3335 79.5193 105.027 93.5178 130.375 87.2639C134.006 86.3185 146.208 83.6279 144.9 77.7376C143.811 73.3017 138.073 73.1926 134.515 73.3744C126.78 73.7743 118.972 73.1926 111.237 73.0108C102.485 73.0108 93.7336 73.0108 84.9818 72.7926C75.7798 72.4789 66.6023 71.6535 57.4918 70.3202C56.6566 70.3202 56.2571 71.4109 57.1286 71.6655C70.8191 75.556 85.6717 75.0833 99.798 75.3014C107.061 75.3014 114.614 75.5197 122.022 75.7015C125.327 75.7015 128.632 75.9196 131.9 75.8832C134.581 75.5177 137.304 75.5914 139.962 76.1014C141.16 76.5013 143.048 77.6285 142.685 79.1556C142.322 80.6827 140.942 81.119 140.034 81.628C136.907 83.306 133.556 84.5303 130.084 85.264C120.987 87.4271 111.51 87.4271 102.413 85.264C86.9427 81.9189 72.8164 74.3561 57.3465 70.9746L57.3465 71.3018L57.165 71.1565Z" fill="#E3E3E3"/>
<path d="M98.0915 56.9033C87.2492 58.2114 76.3247 58.7097 65.4086 58.3941C61.1598 58.1759 56.9473 57.8123 52.7349 57.4851C47.6146 57.0851 42.4942 56.9033 37.4102 56.4306C33.7788 56.067 30.3652 55.4853 26.8791 54.7945C23.9666 53.9436 20.9917 53.3235 17.982 52.9401C17.1468 52.9401 17.0016 53.9945 17.5826 54.3945C19.9517 55.6972 22.5567 56.5131 25.2449 56.7943C28.2227 57.4124 31.2005 57.8487 34.1783 58.1759C39.6255 58.7941 45.0726 58.7213 50.5924 59.0849C59.3906 59.9209 68.2297 60.2486 77.0656 60.0666C84.1767 59.6763 91.2584 58.8629 98.2731 57.6306C98.7089 57.6306 98.6 56.8306 98.2731 56.9033L98.0915 56.9033Z" fill="#E3E3E3"/>
<path d="M91.8813 58.4304C98.8537 59.0486 105.826 59.2303 112.762 59.9939C119.698 60.7574 125.981 61.921 132.59 62.7209C139.171 63.6658 145.845 63.7758 152.454 63.0481C156.904 62.8795 161.281 61.8548 165.345 60.0302C167.633 58.6485 168.977 55.8488 166.507 53.9581C163.97 52.4194 161.083 51.5558 158.119 51.4493C151.909 50.613 145.663 49.9221 139.417 49.4858C132.621 48.8317 125.785 48.7223 118.972 49.1586C113.627 49.7985 108.367 51.0177 103.284 52.7946C98.309 54.3944 93.2613 55.9216 88.4678 57.9577C87.8141 58.2486 88.2863 59.303 88.9762 59.1212C97.2922 56.9032 105.39 54.0308 113.852 52.2492C125.073 49.9585 137.093 51.4129 148.386 52.4674C152.66 52.7408 156.915 53.2507 161.133 53.9945C162.512 54.1943 163.843 54.6506 165.055 55.3398C167.161 56.8306 164.692 58.4668 163.13 58.9758C161.28 59.609 159.369 60.0476 157.429 60.2847C154.923 60.6847 152.49 61.1937 149.984 61.4119C144.036 61.8001 138.064 61.6052 132.154 60.8301C118.827 59.2303 105.39 56.467 91.8813 57.485C91.7561 57.485 91.6361 57.5349 91.5476 57.6235C91.459 57.7122 91.4092 57.8324 91.4092 57.9577C91.4092 58.0831 91.459 58.2033 91.5476 58.292C91.6361 58.3806 91.7561 58.4304 91.8813 58.4304Z" fill="#E3E3E3"/>
<path d="M70.2022 221.468C68.3138 214.96 64.6824 209.142 62.7214 202.67C60.9137 195.623 60.2757 188.327 60.8331 181.072C61.2144 173.975 61.2144 166.863 60.8331 159.766C60.364 152.883 59.344 146.05 57.7827 139.331C56.0469 131.645 53.5405 124.153 50.3018 116.97C49.7571 115.77 47.6872 116.643 48.1593 117.843C53.6383 130.938 57.0915 144.792 58.4 158.929C58.7994 166.026 58.7994 173.14 58.4 180.236C57.9663 186.986 58.5416 193.763 60.1068 200.343C62.213 207.833 66.9338 214.233 69.3669 221.614C69.3669 222.014 70.0932 221.868 69.9843 221.614L70.2022 221.468Z" fill="#E3E3E3"/>
<path d="M135.968 140.786C120.904 140.776 105.92 138.584 91.4828 134.277C84.2377 132.115 77.1714 129.392 70.3478 126.133C63.557 122.897 57.3109 118.861 50.7743 115.225C49.4307 114.461 47.7602 116.425 49.0675 117.443C55.2176 121.958 61.8866 125.718 68.9315 128.642C75.9185 131.778 83.1139 134.426 90.466 136.568C105.199 141.026 120.604 142.835 135.968 141.913C136.084 141.882 136.187 141.814 136.26 141.718C136.333 141.623 136.373 141.506 136.373 141.386C136.373 141.265 136.333 141.148 136.26 141.053C136.187 140.958 136.084 140.889 135.968 140.858L135.968 140.786Z" fill="#E3E3E3"/>
<path d="M214.879 241.539C174.351 223.335 136.88 198.965 103.793 169.292C70.6752 139.455 41.2338 105.765 16.0938 68.9385C8.83097 58.3214 1.56807 47.5224 -4.56904 36.2145C-7.73016 30.5269 -10.5908 24.677 -13.1392 18.689C-15.5359 12.9078 -17.3154 6.98106 -19.3127 1.05439C-19.7847 -0.290928 -22.1815 -0.181826 -21.9999 1.41801C-20.7652 12.326 -15.6087 22.9067 -10.6336 32.5421C-5.16397 43.0356 0.898257 53.2087 7.52359 63.0118C19.953 81.6513 33.3976 99.5917 47.7963 116.752C76.5581 151.523 110.138 181.998 147.516 207.252C168.512 221.276 190.89 233.106 214.298 242.557C214.879 242.775 215.315 241.794 214.733 241.539L214.879 241.539Z" fill="#E3E3E3"/>
<path d="M65.3356 210.415C67.2107 216.336 69.4669 222.13 72.09 227.759C74.5231 233.394 77.1378 238.994 80.1156 244.375C84.8728 253.029 90.1746 263.501 99.1443 268.482C100.669 269.318 102.776 270.118 103.684 268.009C104.126 265.454 103.81 262.824 102.776 260.446C100.126 252.973 96.4598 245.901 91.8814 239.43C84.9862 228.243 76.2859 218.279 66.1345 209.942C64.8998 208.961 63.1567 210.706 64.3914 211.651C72.7133 218.16 80.052 225.838 86.18 234.449C89.3031 238.812 92.172 243.357 95.0045 247.939C96.7174 250.594 98.2228 253.377 99.5074 256.265C100.611 258.787 101.486 261.403 102.122 264.082C102.475 265.11 102.563 266.211 102.376 267.282C101.832 268.627 100.27 267.282 99.3622 266.882C91.1551 262.046 86.2527 252.338 81.6771 244.448C78.663 239.103 76.012 233.54 73.5063 227.904C71.0007 222.268 68.8945 215.869 65.953 210.16C65.953 209.87 65.3356 210.161 65.4082 210.415L65.3356 210.415Z" fill="#E3E3E3"/>
<path d="M56.9834 196.853C51.7541 209.07 52.8072 223.141 54.9135 235.976C57.3102 250.52 61.8132 265.064 62.3942 280.008C62.3942 284.226 62.8663 291.498 57.0924 292.189C51.3184 292.879 48.6674 284.917 47.1785 280.772C42.2761 266.737 43.8013 251.684 45.9802 237.14C47.1759 230.339 49.0119 223.668 51.4636 217.214C54.2276 210.795 56.486 204.17 58.2181 197.398C58.2181 196.489 57.1286 195.835 56.6565 196.744C53.8587 202.699 51.4923 208.847 49.5753 215.142C47.1824 221.443 45.2882 227.923 43.9102 234.522C42.582 241.908 41.7931 249.382 41.5498 256.883C41.1437 264.674 42.1023 272.475 44.3823 279.935C45.9439 284.88 48.0137 291.57 53.1703 293.897C54.8194 294.647 56.6775 294.8 58.4264 294.329C60.1754 293.858 61.7065 292.793 62.7574 291.316C64.0455 289.403 64.7404 287.151 64.7546 284.844C64.8449 280.785 64.6264 276.725 64.101 272.7C63.0971 264.972 61.6911 257.301 59.8885 249.72C57.8041 241.069 56.3117 232.286 55.4218 223.432C54.7191 214.642 55.5424 205.797 57.8549 197.289C57.8549 196.78 57.2013 196.416 56.9834 196.926L56.9834 196.853Z" fill="#E3E3E3"/>
<path d="M55.059 205.47C58.4762 199.753 60.3065 193.226 60.3609 186.563C60.724 182.927 60.9781 179.109 61.0871 175.364C61.0871 173.51 61.0871 171.728 61.0871 169.765C61.2716 167.941 61.1613 166.099 60.7603 164.311C60.7 164.087 60.5677 163.889 60.3839 163.748C60.2001 163.607 59.975 163.531 59.7435 163.531C59.5119 163.531 59.2868 163.607 59.103 163.748C58.9192 163.889 58.787 164.087 58.7267 164.311C58.387 165.973 58.3012 167.677 58.4724 169.365L58.4724 174.964C58.4724 178.6 58.2546 181.909 58.0367 185.363C57.8188 188.817 57.601 192.053 57.0562 195.362C56.3081 198.652 55.225 201.856 53.8242 204.925C53.4974 205.688 54.6595 206.015 55.059 205.47Z" fill="#E3E3E3"/>
<path d="M41.2956 155.511C33.488 166.201 29.5298 180.054 26.9878 192.853C24.5944 206.266 23.2466 219.845 22.9568 233.467C22.9568 237.649 21.5406 243.975 17.3645 246.048C16.1477 246.441 14.8351 246.419 13.6324 245.984C12.4297 245.55 11.4049 244.728 10.7189 243.648C8.95374 241.105 8.07323 238.051 8.21319 234.958C7.88539 228.49 8.25068 222.005 9.30269 215.614C10.6768 208.362 12.7942 201.271 15.6213 194.453C18.2636 187.695 21.611 181.236 25.6078 175.182C29.781 169.084 34.8777 163.674 40.7146 159.147C41.6588 158.42 40.4604 156.893 39.4799 157.511C27.7867 164.783 20.1606 177.727 14.8224 190.235C11.7043 197.143 9.27161 204.34 7.55956 211.724C6.16288 218.773 5.5418 225.955 5.70749 233.14C5.70749 238.739 6.61536 244.775 11.8446 247.684C12.7296 248.208 13.7156 248.537 14.7373 248.651C15.759 248.765 16.7932 248.66 17.7715 248.344C18.7498 248.028 19.65 247.507 20.4124 246.817C21.1749 246.127 21.7822 245.282 22.1942 244.339C25.3536 239.357 25.2083 233.431 25.4625 227.904C25.8257 220.305 26.3341 212.706 27.242 205.106C28.2202 196.652 29.8593 188.288 32.1443 180.091C34.7318 171.765 38.0242 163.676 41.9856 155.911C42.0166 155.861 42.0374 155.806 42.0469 155.747C42.0564 155.689 42.0543 155.63 42.0408 155.572C42.0273 155.515 42.0027 155.461 41.9683 155.413C41.9339 155.365 41.8904 155.324 41.8403 155.293C41.7903 155.262 41.7345 155.241 41.6764 155.232C41.6183 155.222 41.5589 155.225 41.5015 155.238C41.4442 155.252 41.3901 155.276 41.3423 155.311C41.2945 155.345 41.2539 155.389 41.2229 155.439L41.2956 155.511Z" fill="#E3E3E3"/>
<path d="M39.5889 159.838C42.7655 156.567 45.129 152.594 46.4886 148.239C48.2067 143.831 49.3066 139.206 49.7569 134.495C50.1756 129.886 49.9925 125.241 49.2122 120.679C48.8094 115.972 47.1954 111.449 44.5276 107.553C43.8013 106.753 42.7483 107.553 42.8935 108.498C43.3656 110.565 44.0218 112.585 44.8544 114.534C46.9298 120.97 47.6834 127.76 47.0696 134.495C46.7034 138.856 45.8009 143.155 44.3824 147.294C43.6319 149.562 42.7217 151.773 41.6588 153.912C40.603 155.675 39.6452 157.496 38.79 159.366C38.5721 159.875 39.2621 160.129 39.5889 159.838Z" fill="#E3E3E3"/>
<path d="M133.425 141.549C142.722 144.422 152.272 146.349 161.75 148.567C170.043 150.704 178.477 152.247 186.989 153.185C191.659 153.627 196.365 153.505 201.006 152.821C204.42 152.239 208.995 151.185 210.702 147.767C212.409 144.349 209.867 139.949 207.288 137.659C204.325 135.353 200.779 133.917 197.048 133.514C186.155 132.273 175.138 132.677 164.365 134.714C153.906 136.204 143.629 138.35 133.28 140.386C133.099 140.442 132.944 140.561 132.842 140.721C132.741 140.881 132.7 141.072 132.726 141.26C132.752 141.448 132.844 141.62 132.985 141.747C133.127 141.873 133.308 141.945 133.498 141.949C141.523 141.404 149.44 139.477 157.393 138.313C167.866 136.304 178.503 135.269 189.168 135.223C195.85 135.223 207.543 136.132 209.032 144.713C209.722 148.639 204.892 150.058 201.769 150.676C197.332 151.528 192.801 151.785 188.296 151.439C179.943 150.657 171.671 149.173 163.566 147.003C153.652 144.785 143.775 142.276 133.716 140.713C133.207 140.713 132.953 141.367 133.498 141.513L133.425 141.549Z" fill="#E3E3E3"/>
<path d="M128.814 149.694C124.247 146.545 119.381 143.853 114.288 141.658C109.539 139.354 104.45 137.832 99.2173 137.15C98.6726 137.15 98.6 137.913 99.2173 138.022C109.497 140.725 119.298 145.005 128.269 150.712C128.886 151.148 129.467 150.13 128.85 149.694L128.814 149.694Z" fill="#E3E3E3"/>
<path d="M123.257 147.33C128.434 152.071 133.355 157.084 138.001 162.347C142.892 167.594 148.578 172.035 154.851 175.509C161.438 179.004 168.285 181.983 175.332 184.418C181.69 187.274 188.556 188.819 195.523 188.963C199.154 188.963 205.582 188.126 206.962 183.981C207.906 181.145 204.965 179.109 202.895 177.837C199.442 175.923 195.788 174.399 192 173.292C187.461 171.801 182.885 170.383 178.31 168.892C169.812 166.201 161.315 163.511 152.89 160.493C144.361 157.306 136.009 153.664 127.869 149.585C127.698 149.512 127.506 149.504 127.33 149.562C127.153 149.62 127.004 149.741 126.911 149.902C126.817 150.063 126.785 150.252 126.821 150.435C126.857 150.618 126.959 150.781 127.107 150.894C132.953 154.672 139.216 157.759 145.772 160.093C152.418 162.674 159.208 164.892 165.999 167.074C175.695 170.201 185.609 172.928 195.051 176.309C198.554 177.152 201.789 178.865 204.456 181.291C207.761 185.218 198.973 186.89 196.612 187.108C190.104 187.3 183.633 186.059 177.656 183.472C170.832 181.158 164.161 178.413 157.683 175.255C150.71 171.686 144.387 166.966 138.981 161.293C134.224 156.239 129.757 150.385 123.548 146.749C123.221 146.567 122.821 147.04 123.112 147.294L123.257 147.33Z" fill="#E3E3E3"/>
<path d="M121.805 131.768C112.908 131.587 104.011 131.55 95.1502 130.641C86.125 129.538 77.1752 127.887 68.3502 125.696C68.1623 125.643 67.9612 125.667 67.7909 125.763C67.6207 125.858 67.4953 126.017 67.4423 126.205C67.3893 126.393 67.4132 126.595 67.5086 126.765C67.6039 126.936 67.7629 127.061 67.9507 127.114C76.5352 129.786 85.3687 131.577 94.315 132.459C103.431 133.701 112.665 133.799 121.805 132.75C121.912 132.721 122.007 132.657 122.075 132.568C122.142 132.479 122.179 132.371 122.179 132.259C122.179 132.148 122.142 132.039 122.075 131.951C122.007 131.862 121.912 131.798 121.805 131.768Z" fill="#E3E3E3"/>
<path d="M114.796 133.368C122.167 132.781 129.569 132.72 136.948 133.187C144.151 133.388 151.357 132.95 158.483 131.878C165.621 130.815 172.647 129.098 179.472 126.751C184.461 125.525 189.177 123.379 193.381 120.424C195.56 118.497 196.831 115.043 193.708 113.37C190.593 112.188 187.214 111.886 183.939 112.498C172.884 113.594 162.04 116.25 151.728 120.388C146.426 122.497 141.124 124.715 135.714 126.569C128.807 128.863 121.775 130.757 114.651 132.241C114.507 132.241 114.368 132.299 114.266 132.401C114.164 132.503 114.106 132.642 114.106 132.787C114.106 132.931 114.164 133.07 114.266 133.172C114.368 133.275 114.507 133.332 114.651 133.332C125.444 131.978 135.993 129.114 145.99 124.824C155.069 121.137 164.449 118.242 174.025 116.17C178.375 115.161 182.816 114.6 187.28 114.497C189.604 114.497 195.378 114.716 192.182 118.133C190.468 119.761 188.425 121.001 186.191 121.769C183.721 122.751 181.215 123.697 178.71 124.569C165.397 129.253 151.346 131.483 137.239 131.15C129.643 130.688 122.019 131.066 114.506 132.278C113.889 132.278 113.998 133.514 114.506 133.441L114.796 133.368Z" fill="#E3E3E3"/>
<path d="M112.073 203.943C110.777 195.26 108.599 186.731 105.572 178.491C104.153 175.03 102.376 171.728 100.271 168.637C98.4451 165.404 95.8662 162.659 92.7534 160.638C92.0271 160.311 91.0104 161.038 91.5551 161.838C92.6719 163.14 93.8858 164.356 95.1865 165.474C96.5663 166.958 97.8404 168.538 98.9995 170.201C101.045 173.226 102.796 176.44 104.229 179.8C107.46 187.693 109.893 195.891 111.492 204.27C111.492 204.743 112.291 204.525 112.218 204.052L112.073 203.943Z" fill="#E3E3E3"/>
<path d="M109.785 199.434C113.636 211.525 119.018 223.073 125.799 233.794C131.786 243.735 139.468 252.546 148.496 259.828C151.328 262.046 160.552 267.1 156.63 271.972C152.708 276.845 144.138 272.99 140.107 270.591C129.649 264.373 123.548 251.974 119.444 240.957C117.044 234.209 115.091 227.31 113.598 220.305C111.648 212.55 110.865 204.548 111.274 196.562C111.274 195.108 109.095 195.108 109.022 196.562C108.61 203.887 109.246 211.233 110.91 218.378C112.303 225.472 114.196 232.459 116.575 239.285C120.715 250.811 126.816 263.537 137.129 270.7C141.593 274.109 147.143 275.776 152.745 275.39C156.993 274.736 160.007 271.282 158.192 267.028C157.265 265.109 155.881 263.448 154.161 262.192C151.51 260.192 148.823 258.337 146.317 256.156C141.213 251.664 136.599 246.643 132.554 241.176C127.935 234.908 123.865 228.254 120.388 221.287C116.757 214.015 113.743 206.561 110.366 199.216C110.366 198.889 109.676 199.216 109.785 199.471L109.785 199.434Z" fill="#E3E3E3"/>
<path d="M158.845 237.176C155.904 233.358 152.962 229.504 150.42 225.432C147.963 221.086 145.826 216.565 144.029 211.906C142.252 207.595 139.999 203.497 137.311 199.689C134.938 196.012 131.88 192.827 128.305 190.308C127.579 189.872 126.961 190.817 127.433 191.435C128.85 193.071 130.629 194.38 132.082 195.98C133.782 197.79 135.348 199.722 136.766 201.761C139.338 205.707 141.515 209.896 143.266 214.269C145.006 218.637 147.12 222.847 149.585 226.85C152.167 230.655 154.981 234.298 158.01 237.758C158.409 238.194 159.208 237.758 158.845 237.14L158.845 237.176Z" fill="#E3E3E3"/>
<path d="M152.781 231.467C165.2 249.647 180.053 266.628 201.841 273.063C205.255 274.081 210.884 274.99 213.607 271.9C215.278 269.973 213.607 267.718 212.118 266.3C209.626 264.141 206.993 262.149 204.238 260.337C199.114 256.824 193.777 253.63 188.26 250.775C182.486 247.648 176.566 244.775 170.829 241.576C165.091 238.376 159.353 234.303 153.616 230.486C152.744 229.904 151.873 231.177 152.563 231.867C156.213 235.413 160.345 238.424 164.837 240.812C169.413 243.466 174.133 245.83 178.891 248.084C188.182 252.552 197.181 257.604 205.836 263.21C208.49 264.514 210.775 266.465 212.481 268.882C213.317 270.627 211.719 271.354 210.194 271.754C207.576 272.332 204.845 272.117 202.35 271.136C192.51 267.938 183.435 262.738 175.695 255.865C167.785 248 160.363 239.658 153.471 230.886C153.18 230.486 152.526 230.886 152.781 231.395L152.781 231.467Z" fill="#E3E3E3"/>
<path d="M151.074 190.09C146.697 188.329 142.461 186.238 138.4 183.836C134.405 181.473 130.52 178.891 126.344 176.855C122.226 174.984 118.007 173.345 113.706 171.946C111.455 171.183 109.24 170.383 107.025 169.583C104.832 168.494 102.454 167.828 100.016 167.619C99.8672 167.626 99.7235 167.674 99.6006 167.757C99.4778 167.841 99.3807 167.958 99.3203 168.094C99.26 168.23 99.2387 168.38 99.259 168.527C99.2792 168.675 99.3401 168.814 99.4348 168.928C101.158 170.106 103.095 170.934 105.136 171.364L112.399 173.728C117.265 175.138 122.023 176.9 126.634 179C130.665 181 134.478 183.436 138.473 185.545C142.498 187.633 146.688 189.384 151.001 190.781C151.437 190.781 151.619 190.235 151.183 190.09L151.074 190.09Z" fill="#E3E3E3"/>
<path d="M143.267 187.654C146.135 187.654 148.677 190.708 150.929 192.308C153.18 193.908 155.722 195.653 158.192 197.18C162.957 200.093 167.92 202.668 173.044 204.888C183.125 209.673 193.837 212.991 204.856 214.742C208.541 215.471 212.363 214.986 215.75 213.36C217.929 212.088 219.381 209.724 217.965 207.47C216.923 206.074 215.458 205.054 213.789 204.561C210.936 203.533 208.011 202.719 205.037 202.125C199.3 200.889 193.489 200.234 187.752 199.143C181.251 197.944 174.86 196.016 168.505 194.344C162.15 192.671 155.032 190.272 148.242 188.672C147.479 188.672 146.862 189.69 147.661 190.017C152.619 191.975 157.717 193.555 162.913 194.744C168.287 196.162 173.807 197.471 179.073 198.889C189.095 201.47 199.554 201.98 209.54 204.634C211.937 205.252 215.387 205.87 216.803 208.27C218.219 210.67 216.041 211.688 214.37 212.488C210.058 213.936 205.407 214.024 201.043 212.742C195.853 211.639 190.755 210.144 185.791 208.27C180.925 206.488 176.022 204.634 171.265 202.561C166.172 200.266 161.245 197.618 156.521 194.635C154.161 193.144 151.909 191.544 149.622 189.908C147.928 188.239 145.643 187.31 143.267 187.326C143.209 187.326 143.153 187.349 143.113 187.39C143.072 187.431 143.049 187.487 143.049 187.545C143.049 187.602 143.072 187.658 143.113 187.699C143.153 187.74 143.209 187.763 143.267 187.763L143.267 187.654Z" fill="#E3E3E3"/>
<path d="M204.239 238.521C212.446 244.157 220.835 249.429 229.005 255.174C236.645 260.849 244.846 265.723 253.481 269.718C261.882 273.268 270.708 275.712 279.736 276.99C284.13 277.608 288.561 278.081 292.991 278.299C295.969 278.562 298.969 278.291 301.852 277.499C302.573 277.356 303.248 277.038 303.818 276.574C304.389 276.109 304.837 275.512 305.123 274.834C305.41 274.156 305.526 273.418 305.462 272.685C305.399 271.952 305.156 271.245 304.757 270.627C302.162 266.85 298.529 263.907 294.298 262.155C289.123 259.856 283.701 258.16 278.139 257.101C271.13 255.429 264.085 253.938 257.076 252.338C248.107 250.302 239.173 248.157 230.313 245.648C221.452 243.139 213.245 240.157 204.892 237.103C204.094 236.812 203.585 238.085 204.311 238.485C217.312 245.211 232.201 248.593 246.327 251.974C259.255 255.029 272.292 257.465 285.147 260.81C290.215 261.977 294.988 264.18 299.165 267.282C300.835 268.591 305.665 272.627 302.796 274.845C300.569 276.025 298.035 276.494 295.533 276.19C291.462 276.118 287.398 275.79 283.368 275.208C274.528 274.102 265.849 271.953 257.512 268.809C248.335 265.03 239.653 260.146 231.656 254.265C223.13 248.13 214.254 242.497 205.074 237.394C204.914 237.333 204.737 237.33 204.575 237.387C204.413 237.444 204.276 237.556 204.189 237.705C204.102 237.853 204.07 238.027 204.099 238.197C204.128 238.366 204.216 238.52 204.348 238.63L204.239 238.521Z" fill="#E3E3E3"/>
<path d="M244.402 299.46C235.251 286.662 229.114 272.045 220.435 258.956C217.171 253.814 213.266 249.11 208.814 244.957C204.566 241.321 200.063 237.685 195.523 234.304C191.004 230.65 186.139 227.447 180.998 224.741C180.793 224.648 180.561 224.635 180.347 224.703C180.133 224.772 179.952 224.918 179.839 225.112C179.726 225.307 179.689 225.536 179.735 225.757C179.782 225.977 179.908 226.172 180.09 226.304C188.805 232.522 197.702 238.485 205.873 245.393C216.223 254.156 222.941 266.3 229.622 277.935C233.76 285.58 238.382 292.952 243.458 300.006C243.858 300.551 244.802 300.006 244.366 299.46L244.402 299.46Z" fill="#E3E3E3"/>
<path d="M235.106 286.989C237.958 294.252 241.232 301.342 244.91 308.223C248.091 315.001 251.82 321.507 256.059 327.676C262.122 336.455 270.563 343.317 280.39 347.456C283.367 348.692 296.368 354.291 296.404 347.201C296.11 344.713 294.969 342.401 293.172 340.656C291.364 338.398 289.436 336.237 287.398 334.184C282.817 329.653 277.966 325.403 272.873 321.458C261.244 312.716 250.08 303.371 239.427 293.461C238.846 292.879 238.12 293.716 238.556 294.297C245.492 303.206 255.369 309.896 264.266 316.695C273.923 323.479 282.899 331.187 291.066 339.711C292.845 341.747 295.678 344.656 295.242 347.601C295.024 349.201 293.644 349.564 292.228 349.564C288.515 349.196 284.912 348.096 281.624 346.328C272.531 342.343 264.615 336.083 258.637 328.148C254.166 321.925 250.253 315.318 246.944 308.405C243.691 300.95 240.054 293.668 236.05 286.589C235.723 286.044 234.742 286.371 234.997 287.025L235.106 286.989Z" fill="#E3E3E3"/>
<path d="M234.307 306.405C230.022 297.388 228.787 287.571 226.754 277.899C225.865 273.528 224.589 269.245 222.941 265.1C222.135 263.167 221.189 261.295 220.108 259.501C219.211 257.687 217.906 256.107 216.295 254.883C215.896 254.665 215.278 255.065 215.46 255.538C216.363 257.385 217.445 259.139 218.692 260.774C219.814 262.706 220.809 264.71 221.67 266.773C223.389 271.112 224.785 275.572 225.846 280.117C227.545 289.227 230.224 298.127 233.835 306.66C233.835 306.987 234.452 306.66 234.307 306.405Z" fill="#E3E3E3"/>
<path d="M231.983 302.806C234.307 312.659 238.156 321.894 241.316 331.494C243.591 339.922 247.993 347.622 254.098 353.855C255.985 356.022 258.542 357.494 261.361 358.036C262.674 358.027 263.93 357.498 264.856 356.565C265.781 355.631 266.3 354.37 266.3 353.055C266.112 351.129 265.505 349.267 264.52 347.601C263.517 345.453 262.389 343.364 261.143 341.347C258.562 337.303 255.774 333.396 252.791 329.639C249.159 325.058 245.528 320.586 241.897 315.931C238.265 311.277 235.832 306.878 232.891 302.26C232.382 301.497 231.002 301.969 231.329 302.915C234.125 310.623 240.153 317.277 245.237 323.567C251.126 330.28 256.434 337.481 261.107 345.092C262.451 347.492 266.736 354.655 262.16 356C259.509 356.764 256.386 353.6 254.897 351.964C249.316 346.028 245.221 338.85 242.95 331.021C239.609 321.495 235.687 312.259 232.745 302.587C232.716 302.481 232.647 302.391 232.551 302.337C232.456 302.282 232.343 302.268 232.237 302.296C232.131 302.325 232.041 302.395 231.986 302.491C231.932 302.586 231.918 302.699 231.946 302.806L231.983 302.806Z" fill="#E3E3E3"/>
<path d="M215.459 224.05C200.723 225 185.931 223.538 171.664 219.723C170.829 219.505 170.248 220.778 171.047 221.178C177.036 223.841 183.459 225.393 190.003 225.759C198.473 226.454 206.993 226.259 215.423 225.177C216.076 225.177 216.113 224.123 215.423 224.159L215.459 224.05Z" fill="#E3E3E3"/>
<path d="M216.259 224.595C227.632 223.922 238.779 221.122 249.123 216.342C260.017 211.397 270.185 205.434 282.133 203.361C285.764 202.743 293.027 201.652 295.86 204.961C298.692 208.27 292.228 211.76 289.904 212.924C279.96 217.876 269.234 221.062 258.202 222.341C244.279 223.904 230.255 224.378 216.259 223.759C215.569 223.759 215.605 224.705 216.259 224.777C230.233 225.953 244.294 225.636 258.202 223.832C269.553 222.748 280.621 219.645 290.885 214.669C293.862 213.215 298.147 211.033 298.656 207.397C299.164 203.761 295.388 201.652 292.265 201.034C286.864 200.284 281.364 200.769 276.177 202.452C270.017 204.272 264.056 206.708 258.383 209.724C251.973 213.212 245.323 216.238 238.483 218.778C231.257 221.265 223.799 223.02 216.222 224.014C215.823 224.014 215.786 224.704 216.222 224.668L216.259 224.595Z" fill="#E3E3E3"/>
<path d="M231.474 225.286C235.105 226.522 238.737 227.431 242.586 228.704C246.435 229.977 250.212 231.54 253.989 233.176C260.816 236.085 267.57 239.212 274.652 241.503C281.886 244.042 289.547 245.142 297.203 244.739C301.985 244.882 306.725 243.793 310.966 241.576C313.29 239.867 314.053 237.249 311.402 235.576C308.09 233.94 304.484 232.988 300.798 232.776C294.588 231.94 288.306 231.286 282.096 230.486C275.233 229.613 268.369 228.704 261.469 227.868C252.936 226.813 244.365 225.395 235.759 224.923C235.605 224.923 235.457 224.984 235.348 225.093C235.239 225.202 235.178 225.35 235.178 225.504C235.178 225.659 235.239 225.807 235.348 225.916C235.457 226.025 235.605 226.086 235.759 226.086C242.477 227.468 249.304 228.122 256.095 228.995C262.268 229.758 268.406 230.486 274.579 231.213C280.752 231.94 287.543 232.776 294.043 233.613C297.675 234.085 301.306 234.485 304.938 235.285C306.281 235.576 312.818 236.631 311.256 238.921C309.597 240.613 307.374 241.635 305.01 241.794C302.68 242.224 300.328 242.527 297.965 242.703C290.582 243.176 283.178 242.188 276.177 239.794C268.623 237.43 261.433 234.122 254.134 231.067C247.142 227.548 239.579 225.307 231.801 224.45C231.704 224.45 231.612 224.488 231.544 224.556C231.476 224.625 231.437 224.717 231.437 224.814C231.437 224.91 231.476 225.002 231.544 225.071C231.612 225.139 231.704 225.177 231.801 225.177L231.474 225.286Z" fill="#E3E3E3"/>
</g>
<defs>
<clipPath id="clip0_2500_26341">
<rect width="358" height="335" fill="white" transform="translate(313) rotate(90)"/>
</clipPath>
</defs>
</svg>
