<svg width="152" height="192" viewBox="0 0 152 192" fill="none" xmlns="http://www.w3.org/2000/svg">
<g clip-path="url(#clip0_1589_23633)">
<path d="M15.7932 174.397C15.1846 175.818 13.8761 175.637 12.7502 174.972C12.5677 176.544 11.8069 177.996 10.042 177.543C8.27707 177.089 7.72933 175.304 8.21621 173.611C6.51214 174.125 4.53422 174.337 4.47336 172.582C4.4125 170.828 8.33793 170.132 9.73769 170.525C9.8397 170.547 9.93012 170.606 9.99182 170.689C10.0535 170.773 10.0822 170.876 10.0724 170.979C10.2331 170.947 10.3986 170.947 10.5593 170.979C10.5593 170.979 10.7723 170.798 10.9244 170.798C12.5068 170.768 16.9495 171.796 15.7932 174.397Z" fill="#E3E3E3"/>
<path d="M147.097 134.563C145.971 135.652 144.845 135.017 144.054 133.958C143.324 135.35 142.107 136.348 140.555 135.38C139.003 134.412 139.246 132.355 140.311 131.055C138.516 131.055 136.599 130.389 137.268 128.726C137.938 127.062 141.772 127.879 142.928 128.726C143.01 128.794 143.069 128.886 143.096 128.989C143.124 129.092 143.118 129.201 143.08 129.301C143.234 129.321 143.374 129.396 143.476 129.512C143.615 129.468 143.763 129.468 143.902 129.512C145.332 129.996 149.105 132.567 147.097 134.563Z" fill="#E3E3E3"/>
<path d="M118.372 117.263C117.337 118.049 116.454 117.263 115.815 116.446C115.085 117.535 113.959 118.231 112.772 117.263C111.586 116.295 111.981 114.722 113.016 113.663C111.555 113.361 109.973 112.726 110.673 111.425C111.373 110.125 114.477 111.153 115.359 112C115.409 112.071 115.435 112.155 115.435 112.242C115.435 112.328 115.409 112.413 115.359 112.484C115.492 112.513 115.611 112.588 115.694 112.696C115.804 112.667 115.919 112.667 116.028 112.696C117.367 113.301 120.228 115.811 118.372 117.263Z" fill="#E3E3E3"/>
<path d="M51.7911 171.433C51.2738 172.643 50.1783 172.492 49.1437 171.917C49.1437 173.248 48.3525 174.397 46.8311 174.095C45.3096 173.792 44.914 172.189 45.3096 170.768C43.8489 171.191 42.2666 171.372 42.2666 169.89C42.2666 168.408 45.553 167.834 46.7398 168.166C46.821 168.19 46.8934 168.237 46.9476 168.302C47.0018 168.366 47.0354 168.446 47.0441 168.529C47.1743 168.501 47.3094 168.501 47.4397 168.529C47.5235 168.45 47.6295 168.397 47.7439 168.378C49.022 168.378 52.7648 169.225 51.7911 171.433Z" fill="#E3E3E3"/>
<path d="M21.7881 88.1664C20.6926 88.9225 19.8406 88.1664 19.2624 87.1985C18.4408 88.2571 17.2845 88.8923 16.2194 87.8639C15.1544 86.8356 15.55 85.2325 16.6759 84.2344C15.2153 83.8412 13.6329 83.1153 14.4241 81.8148C15.2153 80.5142 18.3191 81.8148 19.1407 82.6919C19.1925 82.7563 19.2208 82.8362 19.2208 82.9187C19.2208 83.0012 19.1925 83.0812 19.1407 83.1456C19.2629 83.2104 19.3673 83.3038 19.445 83.4178C19.5546 83.3882 19.6701 83.3882 19.7797 83.4178C21.0273 84.1134 23.766 86.8053 21.7881 88.1664Z" fill="#E3E3E3"/>
<path d="M47.0439 170.556C48.4436 155.705 50.0868 140.673 56.1728 126.851C61.6499 114.928 69.1658 104.039 78.3864 94.6692C96.979 74.949 119.862 59.7959 138.302 39.9547C148.982 29.0326 157.207 15.9811 162.433 1.66353C162.798 0.544434 164.594 1.02841 164.229 2.17775C155.8 27.6749 135.625 46.5785 115.541 63.5766C95.4575 80.5747 73.4264 97.6937 60.5851 121.467C52.3995 136.59 49.6304 153.648 47.7742 170.556C47.7742 171.009 47.0134 171.04 47.0439 170.556Z" fill="#E3E3E3"/>
<path d="M9.73703 171.161C12.78 143.546 36.0891 124.764 58.8201 112.091C72.1483 104.681 86.2069 98.3894 99.0482 90.3743C111.664 82.8335 123.053 73.4306 132.825 62.4877C143.775 50.2726 151.245 35.3723 154.461 19.327C154.643 18.2684 156.256 18.7222 156.073 19.7505C150.596 48.0001 131.486 70.5029 108.208 86.5634C83.8638 103.32 54.2557 112.151 32.4984 132.507C21.5133 142.79 12.6279 156.008 10.6804 171.161C10.6804 171.735 9.67617 171.766 9.73703 171.161Z" fill="#E3E3E3"/>
<path d="M141.376 131.085C157.618 103.001 166.15 71.1681 166.115 38.775C166.11 26.0444 164.877 13.3437 162.433 0.846878C162.433 0 163.559 -0.363022 163.742 0.483856C168.48 21.3169 169.509 42.8137 166.785 63.9999C164.508 80.6997 159.856 96.9934 152.97 112.393C149.921 119.059 146.466 125.533 142.624 131.781C142.529 131.904 142.393 131.988 142.24 132.018C142.087 132.048 141.928 132.022 141.794 131.944C141.659 131.866 141.558 131.742 141.509 131.595C141.46 131.448 141.467 131.288 141.528 131.146L141.376 131.085Z" fill="#E3E3E3"/>
<path d="M18.7443 84.0832C24.605 77.0925 31.1716 70.7175 38.341 65.0586C45.7469 59.7323 54.1962 56.0124 63.1412 54.14C80.4861 50.208 98.5309 51.1153 115.785 46.518C125.265 44.2463 134.221 40.191 142.167 34.571C143.354 33.7241 144.419 35.6296 143.323 36.4765C130.117 46.5785 112.62 50.5407 96.3704 52.2042C78.1126 54.1097 59.0028 54.3819 42.8142 64.3025C34.2546 70.1498 26.4738 77.0503 19.6572 84.8394C19.5523 84.9437 19.41 85.0022 19.2616 85.0022C19.1132 85.0022 18.9709 84.9437 18.866 84.8394C18.7611 84.7351 18.7021 84.5936 18.7021 84.4462C18.7021 84.2987 18.7611 84.1572 18.866 84.053L18.7443 84.0832Z" fill="#E3E3E3"/>
<path d="M10.6808 171.826C8.5719 171.605 6.46068 172.222 4.80757 173.542C3.15445 174.863 2.09355 176.779 1.85621 178.873C1.52311 180.518 1.62871 182.221 2.16252 183.813C2.69633 185.405 3.63978 186.83 4.89918 187.947C6.07814 188.986 7.51469 189.694 9.06059 189.997C10.6065 190.3 12.2058 190.187 13.6934 189.671C15.5285 188.864 17.0935 187.553 18.2041 185.892C19.3147 184.231 19.9245 182.289 19.9619 180.295C19.9347 179.248 19.6848 178.219 19.2284 177.276C18.7721 176.332 18.1198 175.495 17.3145 174.82C16.4757 173.929 15.4485 173.233 14.3067 172.783C13.1649 172.333 11.9369 172.141 10.7113 172.219C9.82879 172.219 9.70707 170.979 10.4982 170.737C11.7488 170.439 13.0536 170.449 14.2997 170.765C15.5457 171.081 16.6954 171.695 17.6492 172.552C19.5534 173.905 20.9462 175.854 21.6051 178.087C22.066 180.515 21.7678 183.026 20.7505 185.28C19.7332 187.535 18.0456 189.426 15.9147 190.699C14.2075 191.652 12.2633 192.104 10.308 192.002C8.35268 191.901 6.46654 191.25 4.86875 190.125C3.17015 188.953 1.82685 187.341 0.98464 185.464C0.142427 183.588 -0.166534 181.517 0.091288 179.478C0.413935 176.697 1.74441 174.127 3.83414 172.249C4.74987 171.344 5.93934 170.761 7.22007 170.592C8.5008 170.423 9.80206 170.675 10.9243 171.312C10.9836 171.352 11.027 171.411 11.0468 171.479C11.0666 171.548 11.0615 171.621 11.0324 171.686C11.0034 171.751 10.9522 171.803 10.8879 171.835C10.8236 171.866 10.7503 171.873 10.6808 171.856V171.826Z" fill="#E3E3E3"/>
<path d="M143.293 130.208C141.432 129.221 139.253 129.008 137.234 129.614C135.215 130.221 133.52 131.598 132.521 133.444C131.53 134.927 130.974 136.654 130.915 138.433C130.856 140.212 131.296 141.972 132.186 143.516C132.977 144.953 134.166 146.135 135.611 146.923C137.055 147.71 138.697 148.071 140.341 147.962C142.498 147.712 144.522 146.794 146.127 145.34C147.732 143.886 148.837 141.968 149.288 139.856C149.413 137.932 148.876 136.023 147.766 134.442C147.304 133.542 146.665 132.743 145.886 132.094C145.107 131.444 144.204 130.957 143.232 130.662C142.41 130.48 142.563 129.119 143.415 129.18C147.766 129.512 150.718 134.17 151.174 138.253C151.783 143.516 146.975 148.325 142.045 149.535C140.042 149.981 137.95 149.818 136.04 149.068C134.13 148.319 132.491 147.017 131.334 145.331C130.069 143.589 129.334 141.524 129.215 139.379C129.097 137.235 129.6 135.101 130.665 133.232C132.016 130.721 134.262 128.801 136.964 127.849C138.131 127.388 139.418 127.316 140.63 127.643C141.842 127.97 142.915 128.679 143.689 129.663C143.689 129.905 143.536 130.238 143.293 130.087V130.208Z" fill="#E3E3E3"/>
<path d="M115.633 113.452C114.21 112.475 112.459 112.09 110.753 112.378C109.048 112.666 107.523 113.605 106.504 114.994C105.553 116.067 104.915 117.378 104.658 118.785C104.4 120.192 104.534 121.642 105.044 122.979C105.501 124.217 106.295 125.305 107.337 126.122C108.38 126.939 109.629 127.453 110.947 127.607C112.705 127.711 114.452 127.269 115.945 126.342C117.439 125.415 118.606 124.05 119.285 122.435C119.661 120.809 119.507 119.106 118.845 117.573C118.183 116.039 117.048 114.755 115.603 113.905C115.427 113.838 115.283 113.709 115.198 113.542C115.113 113.375 115.093 113.183 115.143 113.002C115.192 112.822 115.307 112.666 115.465 112.565C115.623 112.463 115.813 112.424 115.998 112.454C116.954 112.688 117.843 113.138 118.598 113.767C119.352 114.396 119.951 115.188 120.35 116.083C121.141 117.444 121.553 118.99 121.542 120.561C121.532 122.133 121.099 123.673 120.29 125.023C119.48 126.374 118.323 127.485 116.938 128.242C115.552 128.999 113.988 129.375 112.408 129.331C110.702 129.464 108.995 129.089 107.505 128.254C106.015 127.419 104.808 126.162 104.04 124.643C103.209 123.098 102.829 121.354 102.942 119.607C103.055 117.86 103.657 116.178 104.679 114.752C106.033 112.806 108.057 111.418 110.369 110.851C111.425 110.521 112.563 110.557 113.597 110.952C114.63 111.348 115.498 112.08 116.059 113.028C116.059 113.27 116.059 113.633 115.633 113.452Z" fill="#E3E3E3"/>
<path d="M47.4704 169.316C45.6935 169.164 43.9279 169.713 42.5555 170.845C41.1831 171.977 40.3142 173.601 40.1368 175.365C39.8476 176.749 39.9348 178.185 40.3894 179.525C40.844 180.864 41.6496 182.059 42.7233 182.987C43.6977 183.858 44.8898 184.452 46.1747 184.707C47.4597 184.963 48.7901 184.87 50.0265 184.438C51.5536 183.76 52.8543 182.662 53.7759 181.275C54.6976 179.887 55.202 178.267 55.2299 176.605C55.2057 175.739 54.9948 174.889 54.6116 174.112C54.2284 173.334 53.6817 172.648 53.0086 172.098C52.3091 171.36 51.4577 170.781 50.5124 170.4C49.5671 170.019 48.5503 169.845 47.5312 169.89C46.6488 169.89 46.5575 168.65 47.3182 168.408C48.3828 168.161 49.4914 168.173 50.5506 168.441C51.6098 168.71 52.5885 169.228 53.4042 169.951C55.0237 171.122 56.2106 172.791 56.7819 174.699C57.1444 176.77 56.8674 178.901 55.9875 180.813C55.1075 182.724 53.6658 184.325 51.8523 185.406C50.3918 186.246 48.718 186.647 47.0332 186.561C45.3483 186.475 43.7246 185.906 42.3582 184.922C40.9087 183.924 39.7604 182.551 39.0366 180.952C38.3129 179.354 38.041 177.589 38.2502 175.849C38.5231 173.397 39.7188 171.139 41.5974 169.527C42.3805 168.741 43.4081 168.242 44.5131 168.11C45.6181 167.978 46.7355 168.222 47.6834 168.801C47.7373 168.841 47.7767 168.897 47.7954 168.961C47.8141 169.025 47.8111 169.093 47.7868 169.155C47.7625 169.217 47.7184 169.269 47.6612 169.304C47.604 169.338 47.5369 169.353 47.4704 169.346V169.316Z" fill="#E3E3E3"/>
<path d="M19.2317 84.1135C17.7975 83.0541 16.0022 82.5967 14.2323 82.84C12.4623 83.0832 10.8592 84.0076 9.76804 85.414C8.78414 86.4674 8.10827 87.7678 7.81333 89.175C7.51839 90.5822 7.61558 92.0426 8.09441 93.3989C8.50154 94.6517 9.24792 95.7689 10.2517 96.6279C11.2555 97.4869 12.4778 98.0545 13.7848 98.2685C15.538 98.4277 17.2989 98.0602 18.8396 97.2136C20.3804 96.367 21.63 95.0802 22.4268 93.5199C23.0497 91.9348 23.0497 90.1748 22.4268 88.5898C22.1875 87.7346 21.7754 86.9368 21.2156 86.2452C20.6558 85.5536 19.96 84.9826 19.1708 84.5672C18.3492 84.174 18.9274 82.9642 19.749 83.1759C23.5527 84.0832 25.3785 89.0738 24.8003 92.5823C24.2066 94.7098 22.9261 96.5845 21.1557 97.9179C19.3853 99.2513 17.2232 99.9696 15.0019 99.9622C13.2897 99.9914 11.6065 99.5195 10.162 98.6053C8.71739 97.6911 7.57511 96.3748 6.87722 94.8204C6.1204 93.2032 5.82787 91.4097 6.03192 89.6377C6.23597 87.8657 6.92867 86.1843 8.03355 84.7789C9.53137 82.8466 11.7023 81.541 14.1195 81.1191C15.2113 80.8532 16.3617 80.9662 17.3801 81.4393C18.3984 81.9124 19.2235 82.7172 19.7186 83.7203C19.7186 84.0227 19.4143 84.2042 19.2317 84.0228V84.1135Z" fill="#E3E3E3"/>
<path d="M155.465 19.3573C152.689 22.5463 149.347 25.2015 145.606 27.1909C142.128 28.8903 138.206 29.4818 134.377 28.8847C132.897 28.6442 131.544 27.9078 130.543 26.7977C130.25 26.3473 130.094 25.8221 130.094 25.2854C130.094 24.7488 130.25 24.2236 130.543 23.7731C131.491 22.4112 132.783 21.3221 134.29 20.6157C135.797 19.9094 137.464 19.611 139.124 19.7505C141.894 19.7505 144.693 19.7504 147.493 19.5992C148.852 19.5992 150.221 19.5387 151.601 19.4177C152.202 19.4378 152.801 19.3355 153.361 19.117C153.921 18.8986 154.43 18.5686 154.857 18.1475C155.465 17.4518 156.439 18.4802 155.861 19.1758C154.877 20.191 153.535 20.7873 152.118 20.8393C150.096 21.0363 148.064 21.1271 146.032 21.1115C143.871 21.1115 141.711 21.1115 139.55 21.1115C137.678 21.0229 135.808 21.3429 134.073 22.0491C132.893 22.6417 131.926 23.5818 131.304 24.741C130.543 26.4045 132.552 27.4027 133.891 27.7656C137.508 28.6289 141.319 28.1446 144.602 26.4045C148.331 24.3456 151.76 21.7917 154.796 18.8129C155.161 18.4802 155.709 18.9943 155.343 19.3573H155.465Z" fill="#E3E3E3"/>
<path d="M110.308 50.6616C108.573 51.7807 106.747 52.809 105.013 53.9281C103.341 55.0011 101.782 56.2373 100.357 57.6181C97.7401 60.2192 94.971 63.2741 95.5796 67.206C95.5609 67.9011 95.7837 68.5812 96.2105 69.1321C96.6372 69.683 97.2419 70.071 97.9227 70.2306C98.5565 70.2567 99.1874 70.1333 99.7639 69.8705C100.34 69.6076 100.846 69.2128 101.24 68.7183C103.134 65.9928 104.43 62.9011 105.043 59.6446C105.914 55.5689 107.704 51.7426 110.277 48.4536C111.007 47.6975 112.164 48.8468 111.434 49.6332C108.85 53.0968 107.035 57.0657 106.108 61.2778C105.104 64.5141 104.07 68.5671 101.057 70.5633C100.577 70.9191 100.019 71.1554 99.4281 71.2523C98.8375 71.3492 98.2322 71.3039 97.6628 71.1202C97.0935 70.9365 96.5768 70.6199 96.1561 70.1967C95.7354 69.7735 95.4229 69.2561 95.2449 68.6881C94.7266 66.8973 94.7017 65.001 95.1727 63.1973C95.6438 61.3937 96.5935 59.7488 97.9227 58.4347C100.959 54.4159 105.102 51.3586 109.851 49.6332C110.49 49.4215 110.825 50.3289 110.308 50.6918V50.6616Z" fill="#E3E3E3"/>
<path d="M110.277 49.2098C104.455 50.5015 98.395 50.2723 92.6884 48.5444C87.6402 47.5443 83.1606 44.6804 80.1514 40.5293C79.4858 39.6807 78.9976 38.7084 78.7154 37.6696C78.4333 36.6308 78.3628 35.5464 78.5082 34.4802C78.8792 33.7507 79.4747 33.158 80.2081 32.7881C80.9414 32.4182 81.7743 32.2905 82.5857 32.4235C88.0631 32.7259 93.0535 36.1134 97.405 39.1078C102.304 42.465 106.534 46.5179 112.62 47.758C113.533 47.9697 113.289 49.2703 112.407 49.3308C108.36 49.5123 104.799 46.7599 101.817 44.3705C98.2057 41.3666 94.3133 38.713 90.1932 36.4461C87.9341 35.1834 85.457 34.3524 82.89 33.9962C81.8554 33.9962 80.3339 33.9962 80.0296 35.085C79.9699 36.3555 80.3335 37.6101 81.0642 38.6541C82.318 40.6178 83.9502 42.3155 85.8669 43.6495C87.7835 44.9836 89.9467 45.9276 92.2319 46.4272C98.0339 48.1689 104.127 48.7447 110.155 48.1209C110.703 48.1209 110.794 48.9376 110.155 49.0888L110.277 49.2098Z" fill="#E3E3E3"/>
<path d="M49.8138 60.189C47.0787 62.131 45.1011 64.9512 44.2147 68.1739C43.2609 71.1429 43.3684 74.3483 44.519 77.2476C45.1276 78.3969 46.4969 79.5161 47.8359 78.639C48.6895 77.9046 49.2862 76.9195 49.5399 75.826C50.2595 73.2467 50.4049 70.5425 49.9659 67.9017C49.5399 64.4839 49.3878 60.552 52.1873 58.0416C52.948 57.346 54.1348 58.4952 53.3436 59.1909C50.1181 62.0642 51.5179 66.8734 51.5179 70.5936C51.6414 73.1881 50.9502 75.7566 49.5399 77.9433C49.2346 78.3559 48.8358 78.6914 48.3759 78.9226C47.9161 79.1538 47.4079 79.2743 46.8925 79.2743C46.3772 79.2743 45.869 79.1538 45.4091 78.9226C44.9492 78.6914 44.5505 78.3559 44.2452 77.9433C43.3636 76.6217 42.7584 75.1373 42.4657 73.5785C42.173 72.0197 42.1986 70.4183 42.5411 68.8696C42.8864 66.8593 43.6665 64.9474 44.8276 63.266C45.9886 61.5845 47.503 60.1735 49.2661 59.1304C49.8746 58.7977 50.3615 59.6748 49.8138 60.068V60.189Z" fill="#E3E3E3"/>
<path d="M48.8094 59.2211C44.6901 59.9009 40.4792 59.8086 36.3941 58.9489C34.7268 58.6088 33.1523 57.9172 31.7769 56.9206C30.4016 55.924 29.2573 54.6457 28.4215 53.172C27.2347 49.9659 31.0689 48.6049 33.5641 48.5444C37.6964 48.69 41.6995 50.0128 45.097 52.3554C46.9227 53.4442 48.6572 54.7448 50.5134 55.7429C51.8828 56.4688 54.0433 57.5576 55.5648 56.7712C56.0516 56.5293 56.6602 57.1946 56.1734 57.5878C54.0737 59.3421 50.0874 57.1342 48.3225 55.9848C44.4592 53.1986 40.055 51.2416 35.3899 50.2381C33.9901 50.0567 29.7908 49.8147 29.7604 52.1134C29.7604 53.2325 31.1297 54.3818 31.8905 55.1379C32.6969 55.8288 33.5861 56.418 34.5379 56.8922C39.0718 58.6653 43.9522 59.3892 48.8094 59.0094C48.8372 58.9973 48.8675 58.9924 48.8977 58.9949C48.9279 58.9974 48.957 59.0075 48.9824 59.024C49.0077 59.0405 49.0286 59.063 49.043 59.0895C49.0574 59.116 49.0649 59.1457 49.0649 59.1758C49.0649 59.2059 49.0574 59.2355 49.043 59.262C49.0286 59.2885 49.0077 59.3111 48.9824 59.3276C48.957 59.3441 48.9279 59.3541 48.8977 59.3566C48.8675 59.3592 48.8372 59.3542 48.8094 59.3421V59.2211Z" fill="#E3E3E3"/>
<path d="M113.989 113.301C123.51 103.873 131.368 92.9233 137.238 80.9074C143.709 68.3114 148.536 54.9455 151.6 41.1342C153.115 34.0141 154.132 26.7985 154.643 19.5388C154.676 19.3903 154.758 19.2572 154.877 19.1618C154.997 19.0664 155.145 19.0144 155.298 19.0144C155.451 19.0144 155.599 19.0664 155.718 19.1618C155.837 19.2572 155.92 19.3903 155.952 19.5388C156.105 25.9646 155.461 32.3847 154.035 38.6541C152.636 45.6625 150.714 52.5574 148.284 59.2817C143.491 72.731 136.955 85.5016 128.839 97.2703C124.726 103.295 119.972 108.863 114.659 113.875C114.582 113.951 114.478 113.994 114.37 113.994C114.261 113.994 114.157 113.951 114.081 113.875C114.004 113.799 113.961 113.696 113.961 113.588C113.961 113.48 114.004 113.377 114.081 113.301H113.989Z" fill="#E3E3E3"/>
<path d="M91.2893 83.9017C88.7977 84.6895 86.3837 85.7019 84.0774 86.9263C81.8865 88.1663 79.8173 89.6181 77.6263 90.8582C75.457 92.0181 73.21 93.0287 70.9014 93.8828C68.7798 94.9185 66.4008 95.3179 64.0547 95.0321C63.1731 94.8515 62.3581 94.4345 61.6981 93.8262C61.038 93.2179 60.5581 92.4416 60.3104 91.5815C60.0627 90.7213 60.0567 89.8102 60.293 88.947C60.5293 88.0837 60.9988 87.3011 61.6508 86.6843C64.6937 83.1455 70.0494 82.5104 74.5225 82.4801C80.0607 82.4801 85.6294 82.1474 91.1676 82.4801C92.3239 82.4801 92.3239 84.3554 91.1676 84.2949C86.9074 84.0832 82.6472 84.2949 78.3871 84.2949C74.146 83.8401 69.8561 84.315 65.8196 85.6862C64.8396 86.0181 63.9559 86.5828 63.2453 87.3313C62.5347 88.0798 62.0186 88.9894 61.7421 89.9811C61.3769 92.5218 63.6896 93.7315 65.9718 93.6106C68.2464 93.3508 70.4481 92.6522 72.4533 91.5539C74.4703 90.6345 76.4133 89.5626 78.2654 88.3478C82.0387 85.9887 86.451 82.6011 91.1676 82.7523C91.2797 82.78 91.3793 82.8442 91.4505 82.9346C91.5217 83.0251 91.5603 83.1366 91.5603 83.2514C91.5603 83.3663 91.5217 83.4778 91.4505 83.5682C91.3793 83.6587 91.2797 83.7229 91.1676 83.7505L91.2893 83.9017Z" fill="#E3E3E3"/>
<path d="M91.0152 85.5047C87.1334 91.6726 84.941 98.7417 84.6554 106.011C84.6767 109.189 85.5035 112.309 87.0593 115.085C88.0635 116.809 90.2848 120.59 92.7496 120.106C95.2145 119.622 96.6751 115.206 96.8577 112.968C97.1128 109.281 96.3666 105.593 94.6971 102.291C91.8368 96.4234 89.0981 90.4348 90.3761 83.7505C90.5587 82.6617 92.2019 83.1456 92.0498 84.2042C91.5832 87.8185 92.0008 91.4914 93.2669 94.9111C94.2407 97.9357 95.9448 100.446 97.162 103.259C98.3339 105.706 98.9011 108.397 98.8165 111.106C98.7318 113.815 97.9976 116.465 96.6751 118.836C96.2438 119.641 95.6115 120.323 94.8388 120.815C94.0662 121.308 93.1791 121.595 92.2628 121.648C91.3417 121.484 90.4654 121.129 89.6899 120.608C88.9144 120.088 88.2568 119.412 87.7592 118.624C84.8098 114.641 83.3272 109.772 83.5599 104.832C83.9472 97.7383 86.2606 90.8817 90.2544 84.9905C90.3323 84.8949 90.4421 84.8303 90.5638 84.8083C90.6856 84.7863 90.8113 84.8084 90.918 84.8706C91.0248 84.9328 91.1056 85.031 91.1457 85.1473C91.1859 85.2637 91.1827 85.3905 91.1369 85.5047H91.0152Z" fill="#E3E3E3"/>
<path d="M34.5068 130.208C32.1055 134.738 30.4027 139.602 29.4555 144.635C29.0904 147.112 29.0904 149.629 29.4555 152.106C29.5791 154.242 30.4762 156.262 31.9812 157.792C32.6194 158.234 33.3788 158.472 34.1569 158.472C34.935 158.472 35.6944 158.234 36.3326 157.792C37.6715 156.733 37.6411 154.314 37.5802 152.771C37.0846 148.969 36.0605 145.254 34.5373 141.732C33.2896 138.042 31.829 133.414 33.6244 129.633C33.9287 129.028 35.0546 129.301 34.9633 129.996C34.5983 132.128 34.5983 134.306 34.9633 136.439C35.4842 138.678 36.1552 140.881 36.9716 143.032C38.7886 146.966 39.5537 151.3 39.193 155.614C39.1295 156.464 38.8506 157.284 38.3824 157.998C37.9142 158.712 37.2719 159.297 36.5152 159.698C35.7607 160.04 34.9408 160.218 34.1112 160.218C33.2817 160.218 32.4618 160.04 31.7073 159.698C30.8556 159.208 30.1173 158.546 29.5406 157.754C28.9638 156.961 28.5616 156.057 28.36 155.1C27.6524 152.666 27.3947 150.125 27.5993 147.599C28.0773 141.254 30.1716 135.134 33.6852 129.815C33.746 129.746 33.8291 129.7 33.9202 129.686C34.0113 129.671 34.1047 129.689 34.1841 129.735C34.2635 129.782 34.324 129.855 34.3552 129.941C34.3863 130.027 34.3862 130.122 34.3547 130.208H34.5068Z" fill="#E3E3E3"/>
<path d="M34.659 130.208C30.7431 134.106 25.8789 136.929 20.5396 138.404C16.7663 139.493 10.2543 141.187 7.60695 137.134C7.20326 136.501 6.92941 135.795 6.80116 135.057C6.6729 134.318 6.69277 133.562 6.85961 132.831C7.02646 132.1 7.33699 131.41 7.77336 130.798C8.20972 130.187 8.76331 129.668 9.4023 129.27C12.389 128.044 15.685 127.769 18.8355 128.484C23.8564 129.089 28.999 130.843 34.0504 129.18C34.9632 128.877 35.3284 130.299 34.4459 130.631C27.4775 133.111 20.4483 129.301 13.3886 129.845C10.8325 130.057 8.09382 130.994 8.15468 133.958C8.30683 139.554 15.3361 138.344 18.9572 137.497C24.5756 136.105 29.787 133.422 34.1721 129.663C34.5677 129.361 35.085 129.845 34.7198 130.208H34.659Z" fill="#E3E3E3"/>
<path d="M163.316 76.1588C161.966 81.214 159.918 86.059 157.23 90.5558C155.922 92.7306 154.382 94.7588 152.636 96.6049C151.177 98.4765 149.113 99.7904 146.793 100.325C144.938 100.618 143.039 100.242 141.437 99.2665C140.677 98.7155 140.084 97.9664 139.724 97.1019C139.364 96.2373 139.252 95.2908 139.399 94.3667C139.399 89.5576 143.385 86.1701 147.28 83.9017C149.988 82.2986 152.818 80.8771 155.557 79.3951C156.932 78.6437 158.262 77.8157 159.543 76.9149C160.801 75.8307 162.122 74.8208 163.499 73.8903C163.592 73.8336 163.702 73.8097 163.81 73.8225C163.919 73.8353 164.02 73.884 164.097 73.9608C164.175 74.0377 164.224 74.1382 164.237 74.2461C164.25 74.354 164.225 74.4631 164.168 74.5557C162.85 76.4604 161.085 78.0175 159.026 79.0926C156.926 80.4537 154.735 81.603 152.514 82.7523C148.588 84.809 143.872 86.9263 141.681 91.0094C141.151 91.918 140.833 92.9326 140.749 93.9792C140.665 95.0258 140.817 96.0779 141.194 97.0586C141.756 97.7345 142.479 98.26 143.298 98.5875C144.116 98.915 145.004 99.034 145.88 98.9338C146.96 98.8246 148.007 98.5005 148.958 97.9809C149.91 97.4613 150.746 96.7568 151.418 95.9092C153.055 94.2088 154.522 92.3551 155.8 90.3742C158.504 85.7801 160.804 80.9634 162.677 75.9773C162.86 75.5841 163.469 75.7051 163.347 76.1588H163.316Z" fill="#E3E3E3"/>
</g>
<defs>
<clipPath id="clip0_1589_23633">
<rect width="182" height="192" fill="white" transform="matrix(1 0 0 -1 0 192)"/>
</clipPath>
</defs>
</svg>
