<svg width="568" height="336" viewBox="0 0 568 336" fill="none" xmlns="http://www.w3.org/2000/svg">
<path d="M-30.987 132.395C-31.0076 132.286 -31.0037 132.174 -30.9755 132.066C-30.9473 131.958 -30.8955 131.856 -30.8229 131.766C-30.7504 131.676 -30.6586 131.6 -30.5529 131.542C-30.4473 131.484 -30.3298 131.445 -30.2073 131.428C-12.7593 128.782 4.24938 126.716 20.8188 125.229C20.9374 125.196 21.0618 125.184 21.1853 125.194C38.2304 123.658 54.7843 122.694 70.8196 122.223C71.4707 121.28 73.5487 118.313 76.8548 113.887L76.8821 113.821C105.752 61.9789 158.657 10.5421 192.416 1.50098C200.748 -0.733126 207.781 -0.408478 213.325 2.46444L213.372 2.48539C213.607 2.60927 213.829 2.75304 214.034 2.91475C214.814 3.53262 215.547 4.57987 215.594 6.33574C215.742 14.7904 200.264 32.4748 185.484 40.734C177.114 45.4116 169.281 49.5273 161.702 53.5068C131.417 69.4108 107.479 81.9847 78.6599 114.491C75.9893 118.058 74.0946 120.708 73.0731 122.171C83.3942 121.894 93.4932 121.815 103.37 121.933C103.396 121.921 103.424 121.911 103.452 121.902C103.467 121.895 103.482 121.889 103.499 121.884C103.538 121.884 103.58 121.867 103.619 121.86C103.7 121.851 103.781 121.851 103.861 121.86C103.923 121.86 104.274 121.895 104.89 121.961C119.854 122.153 134.294 122.764 148.166 123.707C148.599 123.403 150.844 121.846 154.642 119.518L154.665 119.493C192.693 84.69 247.727 66.8276 277.349 79.6773C278.29 80.0831 279.164 80.601 279.95 81.2167C281.354 82.3103 282.401 83.7241 282.979 85.3079C285.011 83.8069 287.05 82.2942 289.096 80.7699C309.4 65.6024 352.083 41.0098 361.276 48.0961L361.315 48.1275C364.844 50.9201 363.023 57.4619 355.752 68.1716C340.769 90.2369 305.95 105.589 279.377 114.599C261.626 120.575 243.409 125.376 224.873 128.964C221.754 130.109 219.216 131.002 217.434 131.627C226.219 133.049 234.666 134.569 242.776 136.186C242.799 136.186 242.818 136.186 242.842 136.186C242.865 136.186 242.904 136.186 242.935 136.186C242.967 136.186 242.99 136.186 243.017 136.186L243.107 136.207L243.197 136.232L243.399 136.305C261.47 139.911 277.813 143.901 292.297 147.926C293.018 148.125 293.728 148.327 294.445 148.53C295.4 148.181 298.453 147.018 303.139 145.329C304.753 144.201 334.871 123.305 366.625 110.421C390.045 100.912 445.812 95.8815 459.025 106.012C472.502 103.418 483.197 103.729 489.216 106.822C489.997 107.22 490.731 107.688 491.407 108.218C492.378 108.976 493.188 109.886 493.797 110.902C493.876 110.936 493.949 110.978 494.015 111.028C494.164 111.143 494.268 111.297 494.312 111.468C494.345 111.595 494.345 111.728 494.312 111.855C495.333 114.156 495.396 116.921 494.468 120.076C488.776 139.394 450.56 145.21 413.605 150.854C392.79 154.028 371.269 157.312 355.951 162.926C353.721 164.161 351.504 165.425 349.3 166.717C357.382 169.83 364.719 172.864 371.281 175.726C371.349 175.737 371.415 175.755 371.479 175.779C371.585 175.821 372.61 176.233 374.403 177.011C377.171 177.011 411.936 177.032 435.73 176.278C444.369 176.006 455.184 174.463 464.721 173.105C479.372 171.01 485.579 170.291 487.38 171.708C487.589 171.871 487.749 172.079 487.844 172.312C488.362 173.562 487.329 175.081 480.584 178.798C460.311 189.986 399.624 182.404 380.084 179.584C381.768 180.373 383.667 181.287 385.756 182.324C390.088 184.387 393.885 186.283 397.121 187.951C400.01 187.972 434.436 188.335 471.586 194.364C509.817 200.567 537.388 210.268 553.934 223.302C559.912 228.003 564.444 233.139 567.529 238.711C568.309 240.107 567.993 241.102 567.494 241.751L567.494 241.772C567.304 241.988 567.084 242.18 566.839 242.345C558.8 248.279 502.343 236.892 451.785 217.211C455.294 219.602 458.88 222.182 462.467 224.954L463.968 226.126C490.152 246.75 521.318 281.749 524.788 332.997L524.788 333.025C524.905 334.945 523.583 335.42 523.006 335.535C515.376 337.039 483.13 308.237 460.787 257.201C450.732 234.236 433.964 214.963 408.209 196.846C405.137 195.084 402.195 193.291 399.382 191.466C393.987 188.436 389.129 185.906 385.012 183.86C383.117 182.955 381.121 182.024 379.023 181.067C381.313 183.253 383.522 185.51 385.651 187.839C387.253 189.033 388.86 190.283 390.466 191.533C413.901 209.992 436.833 235.136 435.668 254.395C435.383 259.107 433.445 262.773 430.209 264.686L430.155 264.717C429.63 265.048 429.026 265.264 428.391 265.351C427.757 265.437 427.109 265.389 426.498 265.213C421.344 263.726 416.852 252.995 410.634 238.159C404.092 222.538 395.951 203.112 384.415 189.103C381.111 185.487 377.597 182.029 373.889 178.742C357.137 171.317 339.96 164.686 322.43 158.876C325.833 161.32 330.863 165.01 336.824 169.698C366.212 192.845 418.158 240.166 408.646 279.071C407.304 284.555 404.193 291.39 396.56 288.357C391.16 286.21 387.667 280.949 384.474 276.767C367.436 254.555 355.596 228.776 343.054 204.431C332.196 183.382 322.804 165.184 316.574 156.956C308.73 154.429 300.436 151.944 291.693 149.5C279.996 146.257 267.131 143.035 253.095 140.023C265.961 145.405 277.548 152.045 286.897 159.41C289.53 161.484 291.98 163.611 294.246 165.792C308.207 179.242 313.49 193.316 309.525 206.498C307.576 212.945 304.925 216.164 301.392 216.328C294.079 216.677 284.262 202.651 272.219 174.662C264.725 157.253 250.156 143.419 242.546 137.841C201.292 129.699 159.279 125.025 117.054 123.878C138.353 128.067 182.385 140.361 226.35 174.99C242.947 188.063 259.524 204.312 274.881 224.51C299.443 256.814 321.935 299.255 311.443 321.488L311.443 321.509C310.664 323.177 309.451 324.078 307.892 324.19C300.281 324.738 286.059 305.011 263.509 272.784C253.251 258.123 242.647 242.99 232.436 230.064C195.352 183.12 133.491 133.463 107.502 124.572C106.341 124.24 105.171 123.917 103.994 123.605C77.5447 123.302 51.097 124.291 24.7682 126.566C26.4174 127.239 28.6669 128.161 31.3609 129.32L31.3843 129.32C75.2681 140.141 108.933 157.892 131.14 175.398C153.831 193.271 164.552 210.858 162.002 220.461L162.002 220.489C161.848 221.125 161.486 221.705 160.963 222.157C160.44 222.609 159.778 222.912 159.063 223.027C150.174 224.828 123.117 207.796 98.4926 180.477C78.426 158.213 59.5056 144.341 31.2011 131.111C25.6571 128.733 22.0119 127.292 21.0294 126.922C4.51451 128.42 -12.4513 130.482 -29.8681 133.107C-29.9942 133.13 -30.1243 133.13 -30.2502 133.106C-30.3762 133.082 -30.4953 133.035 -30.6002 132.969C-30.7051 132.902 -30.7936 132.817 -30.8601 132.718C-30.9267 132.619 -30.9699 132.509 -30.987 132.395ZM160.049 220.363C139.152 187.735 91.1085 159.791 57.3068 143.147C73.155 152.987 86.2663 164.277 99.9078 179.413C107.964 188.4 116.85 196.765 126.474 204.417C141.472 216.23 153.994 222.318 158.611 221.382C158.931 221.341 159.234 221.223 159.487 221.042C159.741 220.861 159.936 220.623 160.053 220.353L160.049 220.363ZM41.209 133.662C63.0417 143.531 98.9448 161.456 127.643 184.062C140.786 194.416 152.412 205.747 160.494 217.738C161.297 198.612 118.852 155.483 41.209 133.662ZM427.098 263.6C427.589 263.748 428.124 263.732 428.603 263.555C426.919 258.947 416.213 230.787 396.856 204.323C403.094 215.322 408.08 227.261 412.392 237.555C417.328 249.34 421.667 259.701 425.582 262.787C426.02 263.148 426.536 263.424 427.098 263.6ZM391.585 194.587C414.751 222.65 427.777 256.025 430.205 262.567C432.338 260.821 433.613 257.914 433.831 254.276C434.572 242.055 423.667 220.314 391.585 194.591L391.585 194.587ZM399.94 287.641C404.665 253.344 344.188 185.972 323.354 163.941C329.202 173.597 336.543 187.853 344.73 203.736C361.335 235.915 381.378 274.771 394.45 285.072C396.466 286.639 398.298 287.54 399.94 287.645L399.94 287.641ZM373.378 205.119C356.649 187.284 337.019 171.52 324.145 162.182C332.641 171.126 348.446 188.328 363.491 207.733C391.051 243.284 403.936 270.023 401.862 287.337C403.975 286.419 405.644 283.532 406.821 278.719C411.702 258.734 400.451 233.977 373.378 205.122L373.378 205.119ZM409.308 189.944C438.712 195.114 514.667 210.592 566.063 239.929C566.01 239.757 565.938 239.59 565.849 239.43C543.509 199.122 444.42 191.41 409.308 189.944ZM565.124 241.378C508.982 209.301 423.211 193.851 401.768 190.367C407.663 193.508 410.759 195.435 410.872 195.509L410.954 195.565C411.109 195.686 411.214 195.851 411.253 196.033C411.292 196.214 411.262 196.402 411.168 196.566C412.034 197.055 412.907 197.543 413.788 198.029L414.618 198.486C420.466 201.677 426.658 204.738 433.04 207.65C437.122 209.514 441.286 211.318 445.516 213.057C496.877 234.277 555.771 245.958 565.124 241.378ZM522.944 333.147C506.324 273.078 460.615 231.418 423.589 206.383C441.761 221.571 454.35 237.855 462.549 256.577C479.337 294.93 501.099 319.212 513.513 328.99C517.992 332.519 521.252 334.156 522.624 333.877C522.737 333.863 522.971 333.81 522.944 333.147ZM443.582 213.898C437.839 211.524 432.213 209.046 426.79 206.477C432.338 210.289 438.057 214.464 443.831 219.012C474.467 243.144 506.6 277.717 521.961 323.6C515.474 277.144 485.859 245.228 461.309 226.249C455.634 221.869 449.718 217.747 443.582 213.898ZM385.846 178.641C409.238 181.72 461.703 187.222 479.61 177.35C485.625 174.033 486.054 172.969 486.082 172.787C484.912 171.893 473.883 173.485 465.029 174.731C455.434 176.1 444.56 177.65 435.788 177.926C419.745 178.425 398.712 178.592 385.846 178.641ZM309.744 142.965C338.337 132.915 400.033 112.798 442.116 110.354C444.556 110.212 446.927 110.131 449.227 110.11C452.818 110.068 456.407 110.226 459.976 110.585C459.902 109.913 459.653 109.267 459.251 108.696C459.036 108.394 458.791 108.11 458.518 107.848C457.951 107.322 457.313 106.861 456.619 106.476C450.697 103.1 437.387 101.537 420.073 102.336C400.146 103.261 379.476 107.021 367.405 111.918C343.245 121.731 320.017 136.218 309.744 142.965ZM435.738 112.512C395.39 116.324 340.403 134.057 312.566 143.772C327.522 141.803 343.456 141.44 358.961 141.094C366.575 140.927 374.247 140.745 381.842 140.396C383.019 140.34 384.189 140.279 385.351 140.211C391.55 139.862 397.679 139.352 403.675 138.588C406.188 138.267 408.673 137.898 411.129 137.481C424.17 135.251 436.315 131.509 446.712 125.075C448.334 124.07 449.913 122.998 451.449 121.86L451.488 121.832C455.169 119.088 459.044 115.549 459.851 112.271C454.264 111.735 448.635 111.638 443.028 111.981C440.658 112.1 438.228 112.277 435.738 112.512ZM382.657 142.023C375.466 146.919 368.569 152.15 361.994 157.696C373.912 151.434 386.076 145.849 397.959 140.913C392.918 141.422 387.807 141.771 382.657 142.023ZM492.655 112.651C488.756 113.493 473.419 116.931 452.412 123.305C438.966 133.212 422.213 137.883 404.178 140.204C390.473 145.683 377.098 151.799 364.107 158.527C378.458 154.499 396.111 151.807 413.289 149.189C449.66 143.643 487.271 137.907 492.655 119.633C493.46 116.917 493.46 114.59 492.655 112.651ZM460.561 107.45C460.654 107.569 460.748 107.691 460.834 107.799C463.239 111.234 461.586 115.479 455.929 120.474C474.21 115.067 487.567 112.023 491.797 111.101C490.901 109.909 489.698 108.927 488.288 108.239C482.709 105.38 472.908 105.118 460.561 107.45ZM297.205 149.291C304.223 151.304 310.951 153.349 317.389 155.427C317.408 155.426 317.428 155.426 317.447 155.427C317.475 155.427 317.498 155.445 317.525 155.452L317.572 155.452C328.329 158.922 338.235 162.433 347.233 165.865C349.778 164.364 352.345 162.898 354.933 161.466C362.589 154.588 370.709 148.135 379.246 142.145C372.516 142.431 365.737 142.581 359.004 142.731C340.442 143.147 321.249 143.576 303.985 146.777C301.057 147.866 298.765 148.711 297.205 149.291ZM300.792 214.631C306.359 184.122 270.382 155.92 252.296 143.862C259.789 151.074 268.616 161.665 273.942 174.04C282.745 194.5 290.772 208.016 296.792 212.757C298.25 213.905 299.587 214.537 300.792 214.631ZM251.045 140.976C255.107 143.608 260.425 147.259 266.113 151.741C284.538 166.256 306.816 189.396 302.761 214.226C305.147 213.005 306.741 209.252 307.708 206.04C313.322 187.351 297.697 159.718 251.045 140.972L251.045 140.976ZM260.947 101.278C266.316 97.4384 271.977 93.3647 277.774 89.1303C236.448 85.6395 198.927 98.922 175.238 110.312C193.282 105.157 216.623 103.83 246.44 102.716C251.31 102.573 256.16 102.092 260.947 101.278ZM354.165 67.2919C360.493 57.9715 361.573 53.3602 361.07 51.0737C339.183 82.2674 270.144 111.705 235.177 125.078C261.961 119.099 331.463 100.72 354.165 67.2919ZM290.301 82.044C287.995 83.7638 285.699 85.4673 283.412 87.1545L282.398 87.9016L281.556 88.5194L280.386 89.3712C275.185 93.1831 270.078 96.8764 265.181 100.385L261.848 102.769C254.538 107.984 247.778 112.746 241.965 116.826C237.337 120.083 233.294 122.932 230.187 125.155C263.579 112.62 338.095 81.8346 359.99 49.4051L360.041 49.3423C352.762 43.7221 312.706 65.3022 290.301 82.044ZM162.759 114.816C184.911 102.626 229.672 82.8085 279.817 87.6328C280.343 87.2453 280.874 86.8578 281.4 86.4668C281.091 85.3127 280.494 84.2365 279.652 83.3197C278.81 82.4029 277.747 81.6694 276.542 81.1748C249.77 69.5609 199.34 84.8715 162.759 114.816ZM150.981 123.892C173.453 125.508 194.463 128 213.882 131.044C214.487 130.838 218.261 129.561 224.253 127.372C227.134 125.166 232.904 121.089 240.838 115.503C245.906 111.939 251.696 107.855 257.953 103.404C254.169 103.924 250.355 104.251 246.53 104.382C208.592 105.778 181.219 107.544 162.166 117.106C156.852 120.094 153.028 122.53 150.981 123.885L150.981 123.892ZM212.748 4.12956C162.24 18.4697 114.664 69.5854 89.9389 100.056C113.85 76.7031 135.866 65.1486 160.763 52.0616C168.33 48.0891 176.151 43.9804 184.498 39.3167C199.703 30.8166 213.855 13.5477 213.738 6.36018C213.691 5.3269 213.376 4.58336 212.748 4.12956ZM85.9076 102.186C109.725 72.378 158.349 18.7106 210.444 3.0474C205.676 1.25313 199.804 1.2706 192.95 3.10676C162.291 11.3136 115.526 55.144 85.9076 102.186ZM309.552 321.114C307.934 317.236 291.447 278.691 259.474 236.459C230.955 198.79 184.381 150.994 120.162 128.594C150.353 145.147 201.586 188.161 233.925 229.097C244.167 242.062 254.787 257.229 265.057 271.898C282.651 297.031 300.847 323.02 307.708 322.514C307.993 322.5 308.823 322.441 309.552 321.114ZM161.48 138.979C142.166 131.09 125.764 127.145 115.425 125.225C146.731 135.296 173.995 151.406 197.165 169.638C223.937 190.726 245.247 214.687 261.045 235.559C290.34 274.261 306.683 309.881 310.558 318.755C315.783 303.629 308.656 271.915 273.334 225.442C236.16 176.55 191.987 151.434 161.48 138.979Z" fill="#E3E3E3"/>
</svg>
