<svg width="180" height="232" viewBox="0 0 180 232" fill="none" xmlns="http://www.w3.org/2000/svg">
<g clip-path="url(#clip0_1589_23661)">
<path d="M2.6938 43.8977C5.5532 47.0551 7.04198 51.1785 9.78323 54.3831C12.6383 57.5725 15.9606 60.3133 19.6375 62.5123C25.958 66.1433 32.8688 68.6396 40.0551 69.8875C42.3479 70.6106 44.7876 70.7403 47.1445 70.2645C49.1768 69.5812 48.9642 67.5312 47.7353 66.141C45.5794 64.1614 43.0485 62.6313 40.2914 61.6405C36.5024 59.9666 32.6297 58.488 28.6884 57.2107C19.4958 54.2182 9.59415 51.1314 3.40271 43.0729C2.93008 42.4603 1.84306 43.285 2.31569 43.9212C6.82929 49.9768 13.6351 53.3463 20.5827 55.9382C27.8167 58.2013 34.9173 60.8682 41.851 63.9261C42.7727 64.3974 48.2788 67.0364 47.0028 68.6387C46.5538 69.1806 45.254 69.0863 44.6396 69.0628C43.3526 69.0118 42.072 68.8541 40.8113 68.5915C34.2162 67.5145 27.8348 65.3988 21.9061 62.3238C17.8054 60.0897 14.0881 57.2183 10.8939 53.8176C7.91635 50.5895 6.28574 46.3953 2.95371 43.4264C2.92578 43.4001 2.8929 43.3795 2.857 43.3659C2.8211 43.3523 2.7829 43.3457 2.7445 43.3468C2.7061 43.3479 2.66828 43.3566 2.63322 43.3722C2.59816 43.3879 2.56657 43.4103 2.54019 43.4382C2.51381 43.466 2.49315 43.4987 2.47947 43.5345C2.46578 43.5703 2.45933 43.6085 2.46043 43.6468C2.46152 43.6851 2.47018 43.7228 2.48589 43.7577C2.50159 43.7927 2.52401 43.8242 2.55194 43.8505L2.6938 43.8977Z" fill="#E3E3E3"/>
<path d="M3.16635 43.4264C-0.0238951 38.3604 -5.60087 36.711 -10.8234 34.496C-13.7065 33.2708 -16.5659 31.9748 -19.3308 30.5139C-22.2714 28.905 -25.0085 26.9511 -27.4836 24.6939C-27.909 24.3169 -28.7124 24.8117 -28.3343 25.3536C-24.7896 30.2783 -18.4328 32.7053 -13.0448 35.038C-7.65681 37.3707 -1.08726 38.7374 2.62287 43.7563C2.85919 44.0862 3.40266 43.7563 3.16635 43.4264Z" fill="#E3E3E3"/>
<path d="M17.3447 46.6545C12.973 45.5622 8.80729 43.7719 5.00911 41.3528C3.21849 40.2126 1.35561 39.1894 -0.567871 38.2897C-1.4895 37.8655 -2.43476 37.5356 -3.38002 37.2057C-4.20589 36.821 -5.11836 36.6586 -6.02673 36.7345C-6.09357 36.7525 -6.15461 36.7874 -6.20392 36.8359C-6.25323 36.8844 -6.28918 36.9448 -6.3082 37.0111C-6.32722 37.0775 -6.32871 37.1477 -6.31253 37.2148C-6.29634 37.2819 -6.26302 37.3438 -6.21582 37.3943C-5.43806 37.8557 -4.58034 38.1673 -3.68724 38.3132C-2.64746 38.6195 -1.60768 38.9965 -0.591526 39.3735C1.48972 40.1873 3.48456 41.2055 5.36357 42.4132C8.95753 44.6832 12.978 46.1985 17.1793 46.8665C17.3211 46.8665 17.392 46.678 17.1793 46.6545L17.3447 46.6545Z" fill="#E3E3E3"/>
<path d="M13.5168 46.1125C28.5936 51.532 44.663 60.6037 61.1578 56.5509C63.5209 55.9382 71.4611 54.1946 70.6103 50.3774C69.9014 47.5027 66.1676 47.432 63.8517 47.5498C58.8182 47.809 53.7375 47.432 48.704 47.3142C43.0089 47.3142 37.3137 47.3142 31.6185 47.1728C25.6303 46.9695 19.6581 46.4346 13.7295 45.5706C13.1859 45.5706 12.926 46.2774 13.4931 46.4424C22.4022 48.9636 32.0674 48.6573 41.2601 48.7987C45.9864 48.7987 50.9017 48.9401 55.7225 49.0579C57.873 49.0579 60.0234 49.1992 62.1503 49.1757C63.8951 48.9388 65.667 48.9865 67.3964 49.317C68.1763 49.5762 69.4051 50.3067 69.1688 51.2963C68.9325 52.286 68.0345 52.5687 67.4437 52.8986C65.4083 53.986 63.2281 54.7794 60.9687 55.2549C55.0486 56.6566 48.8816 56.6566 42.9615 55.2549C32.8945 53.0871 23.7019 48.186 13.6349 45.9947L13.6349 46.2067L13.5168 46.1125Z" fill="#E3E3E3"/>
<path d="M40.1489 36.8758C33.0933 37.7235 25.9842 38.0464 18.8806 37.8419C16.1157 37.7005 13.3745 37.4649 10.6332 37.2529C7.30119 36.9937 3.96915 36.8758 0.660755 36.5695C-1.70239 36.3339 -3.92373 35.9569 -6.19235 35.5092C-8.08764 34.9578 -10.0235 34.556 -11.9821 34.3075C-12.5256 34.3075 -12.6201 34.9908 -12.242 35.25C-10.7003 36.0942 -9.00513 36.6229 -7.25579 36.8052C-5.31801 37.2057 -3.38018 37.4885 -1.44241 37.7006C2.10231 38.1011 5.647 38.054 9.23898 38.2896C14.9644 38.8314 20.7164 39.0437 26.4663 38.9258C31.0939 38.6728 35.7023 38.1457 40.2671 37.3471C40.5506 37.3471 40.4797 36.8287 40.2671 36.8758L40.1489 36.8758Z" fill="#E3E3E3"/>
<path d="M36.1082 37.8656C40.6454 38.2661 45.1827 38.3839 49.6963 38.8787C54.2099 39.3736 58.2981 40.1276 62.599 40.646C66.8817 41.2583 71.2248 41.3296 75.5254 40.858C78.4217 40.7487 81.2699 40.0847 83.9146 38.9022C85.4034 38.0069 86.2777 36.1926 84.6708 34.9673C83.0199 33.9702 81.1408 33.4105 79.2119 33.3414C75.1709 32.7995 71.1063 32.3518 67.0417 32.069C62.6196 31.6451 58.1706 31.5742 53.7372 31.857C50.2588 32.2717 46.8359 33.0617 43.5285 34.2133C40.291 35.25 37.0062 36.2397 33.8868 37.5592C33.4615 37.7477 33.7687 38.431 34.2177 38.3132C39.6293 36.8758 44.8991 35.0144 50.4052 33.8598C57.7073 32.3754 65.5293 33.3179 72.8787 34.0012C75.6598 34.1784 78.4289 34.5089 81.1734 34.9909C82.0711 35.1204 82.9367 35.416 83.7255 35.8627C85.0962 36.8288 83.4892 37.8891 82.4731 38.219C81.2692 38.6293 80.0258 38.9135 78.7629 39.0672C77.1323 39.3264 75.5491 39.6563 73.9185 39.7976C70.0477 40.0492 66.1616 39.9229 62.3155 39.4206C53.6427 38.3839 44.8991 36.5931 36.1082 37.2529C36.0267 37.2529 35.9486 37.2852 35.891 37.3426C35.8334 37.4001 35.801 37.478 35.801 37.5592C35.801 37.6405 35.8334 37.7184 35.891 37.7758C35.9486 37.8333 36.0267 37.8656 36.1082 37.8656Z" fill="#E3E3E3"/>
<path d="M22 143.521C20.7712 139.304 18.408 135.534 17.1319 131.339C15.9555 126.773 15.5404 122.044 15.9031 117.343C16.1512 112.744 16.1512 108.135 15.9031 103.535C15.5979 99.0753 14.9341 94.647 13.9181 90.293C12.7885 85.3116 11.1575 80.4565 9.04995 75.8017C8.69547 75.0242 7.34849 75.5897 7.6557 76.3673C11.2211 84.8534 13.4683 93.8319 14.3198 102.993C14.5797 107.592 14.5797 112.202 14.3198 116.801C14.0376 121.176 14.4119 125.567 15.4305 129.831C16.8011 134.685 19.8731 138.832 21.4565 143.616C21.4565 143.875 21.9291 143.781 21.8582 143.616L22 143.521Z" fill="#E3E3E3"/>
<path d="M64.7969 91.2355C54.9939 91.2292 45.2433 89.8086 35.8484 87.0177C31.1337 85.6163 26.5353 83.8516 22.0949 81.7397C17.6758 79.6426 13.6111 77.0271 9.35748 74.6708C8.48311 74.176 7.39606 75.4483 8.2468 76.1081C12.2489 79.0341 16.5888 81.4707 21.1732 83.3655C25.72 85.3979 30.4023 87.1142 35.1867 88.5022C44.7742 91.391 54.7991 92.5637 64.7969 91.9659C64.8725 91.946 64.9393 91.9016 64.987 91.8398C65.0347 91.778 65.0605 91.7022 65.0605 91.6242C65.0605 91.5462 65.0347 91.4705 64.987 91.4087C64.9393 91.3469 64.8725 91.3026 64.7969 91.2826L64.7969 91.2355Z" fill="#E3E3E3"/>
<path d="M116.147 156.528C89.7744 144.731 65.3899 128.938 43.8588 109.709C22.3076 90.3729 3.14867 68.5405 -13.2111 44.6752C-17.9374 37.7949 -22.6637 30.7967 -26.6574 23.4687C-28.7145 19.7828 -30.576 15.9918 -32.2344 12.1113C-33.7941 8.36484 -34.952 4.52408 -36.2517 0.683329C-36.5589 -0.188497 -38.1186 -0.117794 -38.0004 0.918972C-37.197 7.98783 -33.8414 14.8446 -30.6039 21.0888C-27.0445 27.889 -23.0996 34.4816 -18.7881 40.8345C-10.6998 52.9137 -1.9507 64.5399 7.41919 75.6604C26.1358 98.1937 47.9876 117.943 72.3111 134.308C85.9744 143.397 100.537 151.063 115.769 157.188C116.147 157.329 116.431 156.693 116.053 156.528L116.147 156.528Z" fill="#E3E3E3"/>
<path d="M18.8338 136.358C20.054 140.195 21.5222 143.95 23.2292 147.598C24.8125 151.25 26.514 154.879 28.4518 158.366C31.5475 163.974 34.9977 170.76 40.8346 173.988C41.8272 174.53 43.1978 175.049 43.7886 173.682C44.0762 172.026 43.8708 170.322 43.1978 168.781C41.4733 163.938 39.0877 159.355 36.1083 155.161C31.6213 147.912 25.9596 141.454 19.3537 136.052C18.5502 135.416 17.4159 136.547 18.2193 137.159C23.6347 141.377 28.4104 146.353 32.3982 151.933C34.4305 154.761 36.2974 157.706 38.1407 160.675C39.2553 162.396 40.235 164.2 41.071 166.071C41.7893 167.705 42.3587 169.401 42.7724 171.137C43.0023 171.803 43.0592 172.517 42.9379 173.211C42.5834 174.082 41.5672 173.211 40.9764 172.951C35.6357 169.818 32.4455 163.526 29.4679 158.413C27.5065 154.949 25.7814 151.344 24.1508 147.692C22.5203 144.04 21.1497 139.893 19.2355 136.193C19.2355 136.005 18.8337 136.193 18.881 136.358L18.8338 136.358Z" fill="#E3E3E3"/>
<path d="M13.3988 127.569C9.99586 135.486 10.6812 144.605 12.0518 152.923C13.6115 162.348 16.5417 171.773 16.9199 181.458C16.9199 184.191 17.2271 188.903 13.4697 189.351C9.71228 189.799 7.98716 184.639 7.01827 181.952C3.82803 172.857 4.82058 163.102 6.23847 153.677C7.01661 149.27 8.21134 144.947 9.80676 140.765C11.6054 136.605 13.0751 132.311 14.2022 127.923C14.2022 127.334 13.4932 126.91 13.186 127.499C11.3654 131.358 9.82544 135.342 8.57795 139.421C7.0208 143.505 5.78817 147.704 4.89146 151.98C4.02711 156.767 3.51375 161.61 3.35543 166.472C3.09114 171.52 3.71497 176.576 5.19868 181.41C6.21483 184.615 7.56178 188.951 10.9174 190.459C11.9905 190.945 13.1997 191.043 14.3378 190.738C15.476 190.433 16.4723 189.743 17.1562 188.786C17.9944 187.546 18.4466 186.087 18.4559 184.591C18.5146 181.961 18.3724 179.33 18.0305 176.722C17.3773 171.713 16.4623 166.743 15.2893 161.83C13.9328 156.224 12.9616 150.532 12.3826 144.794C11.9253 139.098 12.461 133.366 13.9659 127.852C13.9659 127.522 13.5406 127.287 13.3988 127.617L13.3988 127.569Z" fill="#E3E3E3"/>
<path d="M12.1458 133.154C14.3695 129.449 15.5606 125.219 15.596 120.901C15.8323 118.545 15.9977 116.071 16.0686 113.644C16.0686 112.442 16.0686 111.287 16.0686 110.015C16.1886 108.833 16.1168 107.64 15.8559 106.481C15.8167 106.336 15.7306 106.207 15.611 106.116C15.4914 106.025 15.3449 105.975 15.1942 105.975C15.0435 105.975 14.897 106.025 14.7774 106.116C14.6578 106.207 14.5718 106.336 14.5325 106.481C14.3115 107.558 14.2557 108.662 14.3671 109.756L14.3671 113.385C14.3671 115.741 14.2253 117.885 14.0835 120.124C13.9417 122.362 13.8 124.459 13.4455 126.603C12.9586 128.735 12.2538 130.812 11.3423 132.8C11.1296 133.295 11.8859 133.507 12.1458 133.154Z" fill="#E3E3E3"/>
<path d="M3.18993 100.778C-1.89082 107.706 -4.46666 116.683 -6.12086 124.977C-7.67834 133.669 -8.55539 142.469 -8.74398 151.297C-8.74398 154.007 -9.66556 158.107 -12.3832 159.45C-13.175 159.705 -14.0291 159.69 -14.8118 159.409C-15.5944 159.127 -16.2613 158.595 -16.7078 157.895C-17.8564 156.247 -18.4294 154.268 -18.3383 152.263C-18.5517 148.071 -18.3139 143.869 -17.6294 139.728C-16.7352 135.028 -15.3573 130.432 -13.5175 126.014C-11.798 121.635 -9.61976 117.449 -7.01886 113.526C-4.3032 109.574 -0.98651 106.068 2.81182 103.135C3.42624 102.663 2.64641 101.674 2.00836 102.074C-5.60096 106.787 -10.5636 115.175 -14.0374 123.281C-16.0665 127.757 -17.6496 132.421 -18.7637 137.206C-19.6726 141.775 -20.0767 146.429 -19.9689 151.085C-19.9689 154.714 -19.3781 158.625 -15.9752 160.51C-15.3993 160.85 -14.7577 161.063 -14.0928 161.137C-13.4279 161.211 -12.7549 161.143 -12.1183 160.938C-11.4816 160.733 -10.8959 160.396 -10.3997 159.948C-9.90359 159.501 -9.50839 158.953 -9.24022 158.342C-7.18429 155.114 -7.27883 151.274 -7.11341 147.692C-6.87709 142.767 -6.5462 137.843 -5.95542 132.918C-5.31884 127.439 -4.25221 122.019 -2.76523 116.707C-1.08144 111.312 1.06109 106.069 3.63894 101.038C3.65911 101.005 3.67265 100.969 3.67882 100.931C3.68499 100.893 3.68363 100.855 3.67485 100.818C3.66607 100.781 3.65007 100.745 3.62769 100.714C3.6053 100.683 3.57698 100.657 3.54439 100.637C3.51181 100.617 3.47555 100.603 3.43773 100.597C3.39991 100.591 3.36123 100.592 3.32393 100.601C3.28662 100.61 3.2514 100.626 3.2203 100.648C3.18919 100.67 3.1628 100.699 3.14263 100.731L3.18993 100.778Z" fill="#E3E3E3"/>
<path d="M2.07879 103.582C4.14593 101.463 5.68399 98.8878 6.56875 96.0658C7.68682 93.2091 8.40256 90.2117 8.69556 87.1591C8.96807 84.1718 8.84892 81.1618 8.3411 78.2052C8.07901 75.1548 7.02871 72.2242 5.29263 69.699C4.82 69.1806 4.13473 69.699 4.22925 70.3116C4.53647 71.6509 4.9635 72.9599 5.5053 74.2231C6.85588 78.394 7.34626 82.7943 6.94686 87.1591C6.70856 89.985 6.12123 92.7708 5.19815 95.4532C4.70975 96.9226 4.11748 98.3557 3.4258 99.7416C2.73872 100.885 2.11546 102.065 1.55889 103.276C1.4171 103.606 1.8661 103.771 2.07879 103.582Z" fill="#E3E3E3"/>
<path d="M63.1423 91.7302C69.1919 93.5917 75.407 94.8405 81.5748 96.2778C86.9712 97.6628 92.4598 98.6629 97.9987 99.2704C101.038 99.5574 104.1 99.4783 107.12 99.0347C109.342 98.6577 112.319 97.9744 113.43 95.7595C114.541 93.5445 112.886 90.6934 111.209 89.209C109.28 87.7145 106.973 86.7844 104.545 86.5229C97.4561 85.7185 90.2866 85.9806 83.2763 87.3004C76.4704 88.2665 69.7827 89.6567 63.0478 90.9762C62.9301 91.0127 62.8292 91.0897 62.7632 91.1935C62.6972 91.2973 62.6703 91.4211 62.6873 91.5428C62.7043 91.6646 62.7642 91.7763 62.8562 91.8581C62.9482 91.9399 63.0663 91.9864 63.1895 91.9894C68.4121 91.6359 73.5638 90.3871 78.7391 89.6331C85.5549 88.3311 92.4769 87.6606 99.4166 87.6303C103.765 87.6303 111.374 88.2193 112.343 93.7802C112.792 96.325 109.649 97.244 107.617 97.6445C104.729 98.1972 101.781 98.3636 98.8494 98.1393C93.4137 97.6325 88.0304 96.6709 82.7564 95.2647C76.305 93.8273 69.8772 92.2015 63.3313 91.1883C63.0005 91.1883 62.8351 91.6124 63.1895 91.7066L63.1423 91.7302Z" fill="#E3E3E3"/>
<path d="M60.1409 97.0083C57.1691 94.9675 54.0029 93.2233 50.6884 91.8009C47.5981 90.3078 44.2865 89.3212 40.8813 88.8792C40.5268 88.8792 40.4795 89.3739 40.8813 89.4446C47.571 91.196 53.9484 93.97 59.7864 97.6681C60.1881 97.9508 60.5662 97.291 60.1645 97.0083L60.1409 97.0083Z" fill="#E3E3E3"/>
<path d="M56.5256 95.4767C59.8942 98.5489 63.0968 101.797 66.1199 105.208C69.3029 108.608 73.0032 111.487 77.0849 113.738C81.3713 116.003 85.8274 117.933 90.413 119.511C94.5502 121.362 99.0186 122.363 103.552 122.456C105.915 122.456 110.098 121.914 110.996 119.228C111.61 117.39 109.696 116.071 108.349 115.246C106.103 114.006 103.725 113.018 101.26 112.301C98.3059 111.335 95.3283 110.416 92.3508 109.449C86.821 107.706 81.2913 105.962 75.8088 104.006C70.259 101.941 64.8239 99.5814 59.5267 96.9376C59.4155 96.8902 59.2907 96.8849 59.1758 96.9228C59.0609 96.9606 58.9639 97.039 58.903 97.1432C58.842 97.2474 58.8213 97.3703 58.8448 97.4886C58.8683 97.607 58.9343 97.7127 59.0305 97.7859C62.8348 100.234 66.9108 102.235 71.177 103.747C75.5016 105.42 79.9207 106.858 84.3397 108.271C90.6493 110.298 97.1007 112.065 103.245 114.256C105.525 114.802 107.63 115.912 109.365 117.484C111.516 120.029 105.797 121.113 104.261 121.254C100.026 121.379 95.8148 120.574 91.9254 118.898C87.4846 117.398 83.1435 115.62 78.9281 113.573C74.3903 111.26 70.276 108.201 66.7579 104.525C63.6622 101.25 60.7556 97.456 56.7146 95.0997C56.5019 94.9819 56.242 95.2882 56.431 95.4531L56.5256 95.4767Z" fill="#E3E3E3"/>
<path d="M55.58 85.3919C49.7903 85.274 44.0006 85.2505 38.2345 84.6614C32.3614 83.9465 26.5374 82.8764 20.7945 81.4569C20.6723 81.4225 20.5414 81.438 20.4306 81.4998C20.3198 81.5617 20.2382 81.6649 20.2037 81.7867C20.1693 81.9086 20.1848 82.0391 20.2469 82.1496C20.3089 82.2601 20.4124 82.3414 20.5346 82.3758C26.1209 84.1072 31.8693 85.2677 37.691 85.8396C43.6229 86.6444 49.6324 86.7077 55.58 86.028C55.6499 86.0089 55.7116 85.9674 55.7555 85.91C55.7995 85.8525 55.8232 85.7822 55.8232 85.71C55.8232 85.6377 55.7995 85.5674 55.7555 85.5099C55.7116 85.4525 55.6499 85.411 55.58 85.3919Z" fill="#E3E3E3"/>
<path d="M51.0198 86.4286C55.816 86.0477 60.6333 86.0084 65.435 86.3108C70.1221 86.4416 74.8116 86.1577 79.4484 85.4625C84.0937 84.7737 88.6658 83.6615 93.1074 82.1401C96.3535 81.3457 99.4228 79.9553 102.158 78.0402C103.576 76.7914 104.403 74.5529 102.371 73.469C100.344 72.7027 98.145 72.5071 96.0141 72.9035C88.8202 73.6139 81.7633 75.3353 75.053 78.0166C71.6028 79.3833 68.1526 80.8206 64.6316 82.0224C60.1374 83.509 55.561 84.7363 50.9253 85.6982C50.8313 85.6982 50.7411 85.7354 50.6747 85.8017C50.6082 85.868 50.5708 85.9578 50.5708 86.0516C50.5708 86.1453 50.6082 86.2353 50.6747 86.3015C50.7411 86.3678 50.8313 86.405 50.9253 86.405C57.9485 85.5278 64.8135 83.6718 71.3192 80.8913C77.2273 78.5023 83.3311 76.626 89.5627 75.2833C92.3932 74.6293 95.2834 74.2661 98.1881 74.1995C99.7006 74.1995 103.458 74.3408 101.378 76.5557C100.263 77.6107 98.9333 78.4142 97.4792 78.912C95.8723 79.5482 94.2417 80.1608 92.6112 80.7264C83.9477 83.762 74.8043 85.207 65.624 84.9913C60.681 84.6918 55.72 84.9367 50.8308 85.7217C50.4291 85.7217 50.5 86.5228 50.8308 86.4757L51.0198 86.4286Z" fill="#E3E3E3"/>
<path d="M49.2471 132.164C48.4039 126.537 46.9865 121.01 45.0171 115.67C44.0935 113.427 42.9372 111.287 41.5669 109.285C40.379 107.189 38.7008 105.41 36.6752 104.101C36.2026 103.889 35.5409 104.36 35.8954 104.878C36.6221 105.722 37.4121 106.51 38.2585 107.235C39.1564 108.197 39.9855 109.22 40.7398 110.298C42.071 112.258 43.2105 114.341 44.1427 116.518C46.2456 121.634 47.8289 126.946 48.869 132.376C48.869 132.683 49.389 132.541 49.3417 132.235L49.2471 132.164Z" fill="#E3E3E3"/>
<path d="M47.758 129.242C50.2643 137.078 53.7666 144.561 58.1795 151.509C62.0752 157.951 67.0742 163.661 72.9492 168.38C74.7924 169.818 80.7948 173.093 78.2427 176.25C75.6905 179.408 70.1134 176.91 67.4903 175.355C60.6844 171.326 56.7144 163.291 54.044 156.151C52.482 151.778 51.2111 147.307 50.2394 142.768C48.9706 137.742 48.4608 132.556 48.7269 127.381C48.7269 126.438 47.3091 126.438 47.2618 127.381C46.9936 132.128 47.4074 136.889 48.4906 141.519C49.3968 146.116 50.6288 150.644 52.1771 155.067C54.8711 162.537 58.8412 170.784 65.5525 175.426C68.4575 177.635 72.0692 178.715 75.7141 178.465C78.4789 178.041 80.4404 175.803 79.2588 173.046C78.6557 171.802 77.7548 170.726 76.6357 169.912C74.9106 168.616 73.1618 167.414 71.5313 166C68.2097 163.09 65.2075 159.835 62.575 156.293C59.5694 152.231 56.9207 147.919 54.6584 143.404C52.2953 138.691 50.3339 133.861 48.1361 129.101C48.1361 128.889 47.6871 129.101 47.758 129.266L47.758 129.242Z" fill="#E3E3E3"/>
<path d="M79.6841 153.701C77.77 151.227 75.8558 148.729 74.2016 146.09C72.6022 143.273 71.2122 140.344 70.0425 137.324C68.8864 134.531 67.4199 131.875 65.6707 129.407C64.1265 127.025 62.1368 124.961 59.81 123.328C59.3374 123.045 58.9357 123.658 59.2429 124.059C60.1645 125.119 61.3225 125.967 62.2677 127.004C63.3742 128.177 64.3931 129.429 65.3162 130.75C66.9899 133.307 68.4067 136.022 69.5462 138.856C70.6782 141.687 72.054 144.415 73.6581 147.009C75.3386 149.475 77.1695 151.836 79.1406 154.078C79.4005 154.36 79.9204 154.078 79.6841 153.677L79.6841 153.701Z" fill="#E3E3E3"/>
<path d="M75.7385 150.001C83.8204 161.783 93.4857 172.787 107.665 176.957C109.886 177.617 113.549 178.206 115.321 176.203C116.408 174.954 115.321 173.493 114.352 172.574C112.73 171.175 111.017 169.884 109.224 168.71C105.889 166.433 102.417 164.364 98.8264 162.513C95.069 160.487 91.217 158.625 87.4833 156.552C83.7495 154.478 80.0158 151.839 76.282 149.365C75.7148 148.988 75.1477 149.813 75.5967 150.26C77.9719 152.558 80.661 154.51 83.5841 156.057C86.5617 157.777 89.6337 159.309 92.7295 160.769C98.7756 163.665 104.632 166.939 110.264 170.572C111.991 171.417 113.478 172.681 114.589 174.247C115.132 175.378 114.092 175.85 113.1 176.109C111.396 176.483 109.619 176.344 107.995 175.708C101.592 173.636 95.6868 170.266 90.65 165.812C85.5025 160.715 80.6726 155.309 76.1875 149.624C75.9984 149.365 75.573 149.624 75.7385 149.954L75.7385 150.001Z" fill="#E3E3E3"/>
<path d="M74.6278 123.187C71.7798 122.046 69.0228 120.691 66.3804 119.134C63.781 117.602 61.2524 115.929 58.5348 114.61C55.8552 113.397 53.1097 112.335 50.3111 111.429C48.846 110.934 47.4044 110.416 45.9629 109.897C44.5362 109.191 42.9889 108.76 41.402 108.625C41.3054 108.629 41.2118 108.66 41.1319 108.714C41.0519 108.769 40.9888 108.844 40.9495 108.932C40.9102 109.02 40.8964 109.118 40.9095 109.213C40.9227 109.309 40.9623 109.399 41.024 109.473C42.1452 110.236 43.4056 110.773 44.734 111.052L49.4603 112.583C52.6271 113.497 55.7231 114.639 58.7239 116C61.347 117.296 63.8283 118.875 66.4278 120.241C69.0469 121.595 71.7738 122.729 74.5806 123.634C74.8641 123.634 74.9823 123.281 74.6988 123.187L74.6278 123.187Z" fill="#E3E3E3"/>
<path d="M69.5468 121.608C71.4137 121.608 73.0679 123.587 74.5331 124.624C75.9982 125.661 77.6524 126.792 79.2593 127.781C82.3605 129.669 85.5901 131.338 88.9246 132.777C95.4847 135.878 102.456 138.028 109.626 139.162C112.024 139.635 114.511 139.321 116.715 138.267C118.133 137.442 119.078 135.911 118.157 134.45C117.479 133.545 116.525 132.884 115.439 132.565C113.582 131.899 111.679 131.371 109.744 130.986C106.01 130.185 102.229 129.761 98.4953 129.054C94.2653 128.276 90.1062 127.027 85.9707 125.944C81.8352 124.86 77.2034 123.304 72.7843 122.268C72.288 122.268 71.8863 122.927 72.4062 123.14C75.6326 124.408 78.9504 125.432 82.3314 126.203C85.8289 127.122 89.4209 127.97 92.8474 128.889C99.3697 130.562 106.176 130.892 112.674 132.612C114.234 133.012 116.479 133.413 117.4 134.968C118.322 136.523 116.904 137.183 115.817 137.701C113.011 138.64 109.984 138.697 107.144 137.866C103.767 137.152 100.449 136.183 97.2192 134.968C94.0526 133.814 90.8624 132.612 87.7667 131.269C84.4524 129.782 81.2464 128.065 78.1722 126.132C76.6362 125.166 75.1711 124.129 73.6823 123.069C72.5805 121.987 71.0931 121.385 69.5468 121.396C69.5092 121.396 69.4731 121.411 69.4465 121.437C69.4199 121.464 69.405 121.5 69.405 121.537C69.405 121.575 69.4199 121.611 69.4465 121.637C69.4731 121.664 69.5092 121.679 69.5468 121.679L69.5468 121.608Z" fill="#E3E3E3"/>
<path d="M109.223 154.572C114.564 158.225 120.023 161.641 125.34 165.364C130.311 169.042 135.649 172.2 141.268 174.789C146.735 177.09 152.478 178.674 158.353 179.502C161.213 179.903 164.096 180.209 166.979 180.35C168.916 180.521 170.869 180.345 172.745 179.832C173.214 179.739 173.653 179.533 174.025 179.232C174.396 178.931 174.687 178.544 174.874 178.105C175.06 177.665 175.136 177.187 175.094 176.712C175.053 176.237 174.895 175.779 174.635 175.378C172.947 172.931 170.583 171.024 167.829 169.888C164.462 168.398 160.933 167.299 157.313 166.613C152.753 165.529 148.168 164.563 143.607 163.526C137.77 162.207 131.957 160.817 126.191 159.191C120.425 157.565 115.084 155.633 109.649 153.653C109.129 153.465 108.798 154.29 109.271 154.549C117.731 158.908 127.42 161.099 136.612 163.291C145.025 165.27 153.509 166.849 161.874 169.016C165.172 169.773 168.278 171.201 170.996 173.211C172.083 174.059 175.226 176.674 173.359 178.112C171.91 178.876 170.261 179.181 168.633 178.984C165.983 178.937 163.339 178.724 160.716 178.347C154.964 177.63 149.316 176.238 143.891 174.2C137.919 171.752 132.269 168.587 127.065 164.775C121.517 160.8 115.741 157.149 109.767 153.842C109.663 153.802 109.547 153.801 109.442 153.837C109.337 153.874 109.248 153.947 109.191 154.043C109.134 154.139 109.114 154.252 109.132 154.362C109.151 154.472 109.209 154.571 109.294 154.643L109.223 154.572Z" fill="#E3E3E3"/>
<path d="M135.361 194.064C129.406 185.77 125.412 176.297 119.764 167.815C117.64 164.483 115.099 161.435 112.202 158.743C109.437 156.387 106.507 154.031 103.553 151.839C100.612 149.472 97.4459 147.396 94.1002 145.642C93.9669 145.582 93.816 145.573 93.6767 145.618C93.5374 145.662 93.4196 145.757 93.3461 145.883C93.2726 146.009 93.2486 146.158 93.2787 146.3C93.3089 146.443 93.3911 146.57 93.5094 146.655C99.1809 150.685 104.971 154.549 110.288 159.026C117.023 164.704 121.394 172.574 125.743 180.115C128.435 185.069 131.443 189.846 134.746 194.417C135.006 194.771 135.621 194.417 135.337 194.064L135.361 194.064Z" fill="#E3E3E3"/>
<path d="M129.31 185.982C131.166 190.689 133.297 195.283 135.691 199.742C137.761 204.135 140.187 208.351 142.946 212.349C146.891 218.038 152.384 222.485 158.779 225.167C160.717 225.968 169.177 229.597 169.2 225.002C169.009 223.389 168.266 221.891 167.097 220.76C165.92 219.297 164.666 217.897 163.34 216.566C160.358 213.63 157.202 210.876 153.887 208.319C146.32 202.654 139.055 196.598 132.122 190.176C131.744 189.799 131.272 190.341 131.555 190.718C136.069 196.491 142.497 200.826 148.286 205.233C154.571 209.629 160.412 214.624 165.726 220.148C166.884 221.467 168.728 223.352 168.444 225.261C168.302 226.298 167.404 226.533 166.483 226.533C164.066 226.294 161.721 225.582 159.582 224.436C153.665 221.854 148.513 217.797 144.623 212.655C141.714 208.622 139.167 204.34 137.014 199.86C134.897 195.029 132.531 190.31 129.925 185.723C129.712 185.369 129.074 185.581 129.239 186.005L129.31 185.982Z" fill="#E3E3E3"/>
<path d="M128.79 198.564C126.002 192.721 125.198 186.359 123.875 180.091C123.297 177.258 122.466 174.483 121.394 171.797C120.87 170.544 120.254 169.331 119.55 168.168C118.966 166.993 118.117 165.969 117.069 165.176C116.809 165.034 116.407 165.294 116.526 165.6C117.113 166.797 117.818 167.934 118.629 168.993C119.359 170.245 120.006 171.544 120.567 172.881C121.685 175.692 122.594 178.583 123.284 181.528C124.39 187.432 126.133 193.199 128.483 198.729C128.483 198.941 128.885 198.729 128.79 198.564Z" fill="#E3E3E3"/>
<path d="M127.279 196.232C128.791 202.617 131.296 208.602 133.352 214.823C134.833 220.284 137.697 225.275 141.67 229.314C142.898 230.718 144.562 231.672 146.396 232.024C147.251 232.017 148.068 231.674 148.67 231.07C149.273 230.465 149.61 229.648 149.61 228.795C149.488 227.547 149.093 226.341 148.452 225.261C147.799 223.869 147.065 222.515 146.255 221.208C144.575 218.588 142.761 216.055 140.819 213.621C138.456 210.652 136.093 207.754 133.73 204.738C131.367 201.722 129.784 198.871 127.869 195.878C127.539 195.383 126.641 195.69 126.853 196.302C128.673 201.298 132.596 205.61 135.904 209.686C139.736 214.036 143.191 218.703 146.231 223.635C147.105 225.19 149.894 229.832 146.916 230.704C145.191 231.199 143.159 229.149 142.19 228.089C138.558 224.242 135.893 219.59 134.415 214.516C132.241 208.343 129.689 202.358 127.775 196.09C127.756 196.021 127.711 195.963 127.649 195.928C127.587 195.892 127.513 195.883 127.444 195.902C127.375 195.92 127.316 195.966 127.281 196.028C127.246 196.089 127.236 196.163 127.255 196.232L127.279 196.232Z" fill="#E3E3E3"/>
<path d="M116.526 145.194C106.936 145.81 97.3102 144.863 88.0263 142.39C87.4828 142.249 87.1046 143.074 87.6245 143.333C91.5223 145.059 95.7019 146.065 99.9601 146.302C105.472 146.752 111.016 146.626 116.502 145.925C116.927 145.925 116.951 145.242 116.502 145.265L116.526 145.194Z" fill="#E3E3E3"/>
<path d="M117.045 145.548C124.447 145.111 131.7 143.297 138.432 140.199C145.521 136.995 152.138 133.13 159.913 131.787C162.276 131.387 167.002 130.68 168.846 132.824C170.689 134.968 166.482 137.23 164.97 137.984C158.499 141.193 151.519 143.258 144.34 144.087C135.279 145.1 126.154 145.407 117.045 145.006C116.596 145.006 116.62 145.619 117.045 145.666C126.14 146.428 135.289 146.222 144.34 145.053C151.727 144.351 158.929 142.34 165.608 139.115C167.546 138.173 170.334 136.759 170.665 134.403C170.996 132.046 168.538 130.68 166.506 130.279C162.992 129.793 159.412 130.107 156.037 131.198C152.029 132.378 148.149 133.956 144.458 135.911C140.287 138.171 135.959 140.132 131.508 141.778C126.805 143.39 121.952 144.527 117.022 145.171C116.762 145.171 116.738 145.619 117.022 145.595L117.045 145.548Z" fill="#E3E3E3"/>
<path d="M126.947 145.995C129.311 146.797 131.674 147.386 134.179 148.21C136.684 149.035 139.141 150.048 141.599 151.109C146.042 152.994 150.437 155.02 155.045 156.504C159.753 158.15 164.738 158.863 169.72 158.602C172.833 158.695 175.917 157.989 178.677 156.552C180.189 155.444 180.685 153.748 178.96 152.664C176.805 151.604 174.459 150.987 172.06 150.849C168.019 150.307 163.931 149.883 159.89 149.365C155.423 148.799 150.957 148.21 146.467 147.668C140.914 146.985 135.337 146.066 129.736 145.76C129.636 145.76 129.539 145.8 129.469 145.87C129.398 145.941 129.358 146.037 129.358 146.137C129.358 146.237 129.398 146.333 129.469 146.403C129.539 146.474 129.636 146.514 129.736 146.514C134.108 147.409 138.55 147.833 142.969 148.399C146.987 148.894 150.981 149.365 154.998 149.836C159.015 150.307 163.434 150.849 167.664 151.391C170.027 151.698 172.391 151.957 174.754 152.475C175.628 152.664 179.882 153.347 178.866 154.832C177.786 155.928 176.339 156.59 174.801 156.693C173.285 156.972 171.754 157.169 170.217 157.282C165.412 157.589 160.594 156.948 156.038 155.397C151.122 153.865 146.443 151.721 141.693 149.742C137.144 147.461 132.222 146.009 127.16 145.453C127.097 145.453 127.037 145.478 126.993 145.523C126.949 145.567 126.924 145.627 126.924 145.689C126.924 145.752 126.949 145.812 126.993 145.856C127.037 145.9 127.097 145.925 127.16 145.925L126.947 145.995Z" fill="#E3E3E3"/>
</g>
<defs>
<clipPath id="clip0_1589_23661">
<rect width="232" height="218" fill="white" transform="translate(180) rotate(90)"/>
</clipPath>
</defs>
</svg>
