<svg width="328" height="358" viewBox="0 0 328 358" fill="none" xmlns="http://www.w3.org/2000/svg">
<g clip-path="url(#clip0_1589_23458)">
<path d="M272.466 67.7387C268.072 72.6109 265.784 78.9738 261.572 83.9188C257.184 88.8404 252.079 93.0697 246.429 96.463C236.716 102.066 226.096 105.918 215.053 107.844C211.53 108.959 207.781 109.16 204.159 108.425C201.036 107.371 201.363 104.208 203.251 102.062C206.564 99.0078 210.453 96.6467 214.69 95.1177C220.513 92.5347 226.464 90.2531 232.52 88.282C246.647 83.6643 261.862 78.9012 271.377 66.4661C272.103 65.5207 273.774 66.7932 273.047 67.775C266.111 77.1195 255.653 82.319 244.976 86.3186C233.86 89.8107 222.948 93.9259 212.293 98.6446C210.877 99.3718 202.416 103.444 204.377 105.917C205.067 106.753 207.064 106.607 208.008 106.571C209.986 106.492 211.954 106.249 213.891 105.844C224.026 104.182 233.832 100.917 242.943 96.1721C249.244 92.7247 254.957 88.2939 259.865 83.0462C264.441 78.0649 266.946 71.5928 272.067 67.0114C272.11 66.9708 272.16 66.9392 272.215 66.9181C272.271 66.8971 272.329 66.887 272.388 66.8887C272.447 66.8904 272.505 66.9037 272.559 66.9279C272.613 66.952 272.662 66.9867 272.702 67.0296C272.743 67.0726 272.775 67.1231 272.796 67.1783C272.817 67.2336 272.827 67.2924 272.825 67.3515C272.823 67.4106 272.81 67.4688 272.786 67.5227C272.762 67.5767 272.727 67.6253 272.684 67.6659L272.466 67.7387Z" fill="#E3E3E3"/>
<path d="M271.74 67.0114C276.642 59.194 285.212 56.6488 293.238 53.2309C297.668 51.3402 302.062 49.3404 306.311 47.0861C310.83 44.6033 315.036 41.5883 318.84 38.1052C319.493 37.5234 320.728 38.287 320.147 39.1233C314.7 46.7225 304.931 50.4676 296.652 54.0672C288.372 57.6669 278.276 59.7758 272.575 67.5205C272.212 68.0295 271.377 67.5204 271.74 67.0114Z" fill="#E3E3E3"/>
<path d="M249.952 71.9927C256.67 70.3072 263.072 67.5445 268.908 63.8117C271.66 62.0522 274.523 60.4734 277.478 59.085C278.895 58.4305 280.347 57.9214 281.8 57.4123C283.069 56.8187 284.471 56.568 285.867 56.6852C285.97 56.713 286.064 56.7669 286.139 56.8416C286.215 56.9164 286.27 57.0096 286.3 57.1121C286.329 57.2145 286.331 57.3227 286.306 57.4263C286.281 57.5299 286.23 57.6253 286.158 57.7033C284.962 58.4152 283.644 58.8962 282.272 59.1212C280.674 59.5939 279.076 60.1757 277.515 60.7575C274.316 62.0132 271.251 63.5844 268.364 65.448C262.841 68.9508 256.662 71.2891 250.206 72.3199C249.988 72.3199 249.88 72.0291 250.206 71.9927L249.952 71.9927Z" fill="#E3E3E3"/>
<path d="M255.835 71.1565C232.666 79.5192 207.973 93.5178 182.625 87.2639C178.994 86.3185 166.792 83.6279 168.1 77.7376C169.189 73.3017 174.927 73.1926 178.485 73.3744C186.22 73.7743 194.028 73.1925 201.763 73.0107C210.515 73.0107 219.266 73.0107 228.018 72.7926C237.22 72.4789 246.398 71.6535 255.508 70.3201C256.343 70.3201 256.743 71.4109 255.871 71.6654C242.181 75.5559 227.328 75.0833 213.202 75.3014C205.939 75.3014 198.386 75.5196 190.978 75.7014C187.673 75.7014 184.368 75.9196 181.1 75.8832C178.419 75.5177 175.696 75.5913 173.038 76.1013C171.84 76.5013 169.952 77.6285 170.315 79.1556C170.678 80.6827 172.058 81.119 172.966 81.628C176.093 83.306 179.444 84.5303 182.916 85.264C192.013 87.4271 201.49 87.4271 210.587 85.264C226.057 81.9189 240.184 74.3561 255.653 70.9746L255.653 71.3018L255.835 71.1565Z" fill="#E3E3E3"/>
<path d="M214.909 56.9033C225.751 58.2114 236.675 58.7097 247.591 58.3941C251.84 58.176 256.053 57.8124 260.265 57.4851C265.385 57.0852 270.506 56.9033 275.59 56.4307C279.221 56.0671 282.635 55.4854 286.121 54.7945C289.033 53.9436 292.008 53.3235 295.018 52.9401C295.853 52.9401 295.998 53.9945 295.417 54.3945C293.048 55.6972 290.443 56.5131 287.755 56.7943C284.777 57.4124 281.799 57.8487 278.822 58.176C273.375 58.7941 267.927 58.7214 262.408 59.085C253.609 59.9209 244.77 60.2487 235.934 60.0666C228.823 59.6763 221.742 58.8629 214.727 57.6306C214.291 57.6306 214.4 56.8306 214.727 56.9033L214.909 56.9033Z" fill="#E3E3E3"/>
<path d="M221.119 58.4304C214.146 59.0485 207.174 59.2303 200.238 59.9939C193.302 60.7574 187.019 61.9209 180.41 62.7209C173.829 63.6658 167.155 63.7758 160.546 63.0481C156.096 62.8794 151.719 61.8548 147.655 60.0301C145.367 58.6485 144.023 55.8488 146.493 53.9581C149.03 52.4194 151.917 51.5558 154.881 51.4492C161.091 50.613 167.337 49.9221 173.583 49.4858C180.379 48.8316 187.215 48.7222 194.028 49.1586C199.373 49.7985 204.633 51.0176 209.716 52.7946C214.691 54.3944 219.739 55.9216 224.532 57.9577C225.186 58.2486 224.714 59.3029 224.024 59.1211C215.708 56.9032 207.61 54.0308 199.148 52.2492C187.927 49.9585 175.907 51.4129 164.614 52.4673C160.34 52.7408 156.085 53.2507 151.867 53.9945C150.488 54.1943 149.157 54.6506 147.945 55.3398C145.839 56.8305 148.308 58.4667 149.87 58.9758C151.72 59.6089 153.631 60.0476 155.571 60.2847C158.077 60.6846 160.51 61.1937 163.016 61.4118C168.964 61.8 174.936 61.6052 180.846 60.8301C194.173 59.2302 207.61 56.4669 221.119 57.485C221.244 57.485 221.364 57.5349 221.452 57.6235C221.541 57.7121 221.591 57.8324 221.591 57.9577C221.591 58.0831 221.541 58.2033 221.452 58.2919C221.364 58.3806 221.244 58.4304 221.119 58.4304Z" fill="#E3E3E3"/>
<path d="M242.798 221.468C244.686 214.96 248.318 209.142 250.279 202.67C252.086 195.623 252.724 188.327 252.167 181.072C251.786 173.975 251.786 166.863 252.167 159.766C252.636 152.883 253.656 146.05 255.217 139.331C256.953 131.644 259.46 124.153 262.698 116.97C263.243 115.77 265.313 116.643 264.841 117.843C259.362 130.938 255.908 144.792 254.6 158.929C254.201 166.026 254.201 173.14 254.6 180.236C255.034 186.986 254.458 193.763 252.893 200.343C250.787 207.833 246.066 214.233 243.633 221.614C243.633 222.014 242.907 221.868 243.016 221.614L242.798 221.468Z" fill="#E3E3E3"/>
<path d="M177.032 140.786C192.096 140.776 207.08 138.584 221.517 134.277C228.762 132.115 235.829 129.392 242.652 126.133C249.443 122.897 255.689 118.861 262.226 115.225C263.569 114.461 265.24 116.425 263.932 117.443C257.782 121.958 251.113 125.718 244.069 128.642C237.082 131.778 229.886 134.426 222.534 136.568C207.801 141.026 192.396 142.835 177.032 141.913C176.916 141.882 176.813 141.814 176.74 141.718C176.667 141.623 176.627 141.506 176.627 141.386C176.627 141.265 176.667 141.148 176.74 141.053C176.813 140.958 176.916 140.889 177.032 140.858L177.032 140.786Z" fill="#E3E3E3"/>
<path d="M98.1214 241.539C138.649 223.335 176.12 198.965 209.207 169.292C242.325 139.455 271.766 105.765 296.906 68.9384C304.169 58.3213 311.432 47.5224 317.569 36.2145C320.73 30.5269 323.591 24.677 326.139 18.689C328.536 12.9077 330.315 6.98105 332.313 1.05438C332.785 -0.290936 335.181 -0.181833 335 1.418C333.765 12.326 328.609 22.9067 323.634 32.5421C318.164 43.0356 312.102 53.2087 305.476 63.0118C293.047 81.6513 279.602 99.5917 265.204 116.752C236.442 151.523 202.862 181.998 165.484 207.252C144.488 221.276 122.11 233.106 98.7024 242.557C98.1214 242.775 97.6855 241.794 98.2665 241.539L98.1214 241.539Z" fill="#E3E3E3"/>
<path d="M247.664 210.415C245.789 216.336 243.533 222.13 240.91 227.759C238.477 233.395 235.862 238.994 232.884 244.375C228.127 253.029 222.825 263.501 213.856 268.482C212.331 269.318 210.224 270.118 209.316 268.009C208.874 265.454 209.19 262.824 210.224 260.446C212.874 252.973 216.54 245.901 221.119 239.43C228.014 228.244 236.714 218.279 246.865 209.942C248.1 208.961 249.843 210.706 248.609 211.651C240.287 218.16 232.948 225.838 226.82 234.449C223.697 238.812 220.828 243.357 217.996 247.939C216.283 250.594 214.777 253.377 213.493 256.265C212.389 258.787 211.514 261.403 210.878 264.082C210.525 265.11 210.437 266.211 210.624 267.282C211.168 268.627 212.73 267.282 213.638 266.882C221.845 262.046 226.747 252.338 231.323 244.448C234.337 239.103 236.988 233.54 239.494 227.904C241.999 222.268 244.106 215.869 247.047 210.161C247.047 209.87 247.664 210.161 247.592 210.415L247.664 210.415Z" fill="#E3E3E3"/>
<path d="M256.017 196.853C261.246 209.07 260.193 223.141 258.087 235.976C255.69 250.52 251.187 265.064 250.606 280.008C250.606 284.226 250.134 291.498 255.908 292.189C261.682 292.879 264.333 284.917 265.822 280.772C270.724 266.737 269.199 251.684 267.02 237.14C265.824 230.34 263.988 223.668 261.536 217.214C258.772 210.795 256.514 204.17 254.782 197.398C254.782 196.489 255.871 195.835 256.344 196.744C259.141 202.699 261.508 208.847 263.425 215.142C265.818 221.443 267.712 227.923 269.09 234.522C270.418 241.908 271.207 249.382 271.45 256.883C271.856 264.674 270.898 272.475 268.618 279.935C267.056 284.88 264.986 291.57 259.83 293.897C258.181 294.647 256.323 294.8 254.574 294.329C252.825 293.858 251.294 292.793 250.243 291.316C248.954 289.403 248.26 287.151 248.245 284.844C248.155 280.785 248.374 276.725 248.899 272.7C249.903 264.972 251.309 257.301 253.111 249.72C255.196 241.069 256.688 232.286 257.578 223.432C258.281 214.642 257.458 205.797 255.145 197.289C255.145 196.78 255.799 196.417 256.017 196.926L256.017 196.853Z" fill="#E3E3E3"/>
<path d="M257.941 205.47C254.524 199.753 252.693 193.226 252.639 186.563C252.276 182.927 252.022 179.109 251.913 175.364C251.913 173.51 251.913 171.728 251.913 169.765C251.728 167.941 251.839 166.099 252.24 164.311C252.3 164.087 252.432 163.889 252.616 163.748C252.8 163.607 253.025 163.531 253.257 163.531C253.488 163.531 253.713 163.607 253.897 163.748C254.081 163.889 254.213 164.087 254.273 164.311C254.613 165.973 254.699 167.677 254.528 169.365L254.528 174.964C254.528 178.6 254.745 181.909 254.963 185.363C255.181 188.817 255.399 192.053 255.944 195.362C256.692 198.652 257.775 201.856 259.176 204.925C259.503 205.688 258.34 206.015 257.941 205.47Z" fill="#E3E3E3"/>
<path d="M271.704 155.511C279.512 166.201 283.47 180.054 286.012 192.853C288.406 206.266 289.753 219.845 290.043 233.467C290.043 237.649 291.459 243.975 295.636 246.048C296.852 246.441 298.165 246.419 299.368 245.984C300.57 245.55 301.595 244.728 302.281 243.648C304.046 241.105 304.927 238.051 304.787 234.958C305.115 228.49 304.749 222.005 303.697 215.614C302.323 208.362 300.206 201.27 297.379 194.453C294.736 187.695 291.389 181.236 287.392 175.182C283.219 169.084 278.122 163.674 272.285 159.147C271.341 158.42 272.54 156.893 273.52 157.511C285.213 164.783 292.839 177.727 298.178 190.235C301.296 197.143 303.728 204.34 305.44 211.724C306.837 218.773 307.458 225.955 307.293 233.14C307.293 238.739 306.385 244.775 301.155 247.684C300.27 248.208 299.284 248.537 298.263 248.651C297.241 248.765 296.207 248.66 295.228 248.344C294.25 248.028 293.35 247.507 292.588 246.817C291.825 246.126 291.218 245.282 290.806 244.339C287.646 239.357 287.792 233.431 287.537 227.904C287.174 220.305 286.666 212.706 285.758 205.106C284.78 196.652 283.141 188.288 280.856 180.091C278.268 171.765 274.976 163.676 271.014 155.911C270.983 155.861 270.963 155.806 270.953 155.747C270.944 155.689 270.946 155.63 270.959 155.572C270.973 155.515 270.997 155.461 271.032 155.413C271.066 155.365 271.11 155.324 271.16 155.293C271.21 155.262 271.265 155.241 271.324 155.232C271.382 155.222 271.441 155.225 271.498 155.238C271.556 155.252 271.61 155.276 271.658 155.311C271.706 155.345 271.746 155.389 271.777 155.439L271.704 155.511Z" fill="#E3E3E3"/>
<path d="M273.411 159.838C270.235 156.567 267.871 152.594 266.511 148.24C264.793 143.831 263.693 139.206 263.243 134.495C262.824 129.886 263.007 125.241 263.788 120.679C264.191 115.972 265.805 111.449 268.472 107.553C269.199 106.753 270.252 107.553 270.106 108.498C269.634 110.565 268.978 112.585 268.146 114.534C266.07 120.97 265.317 127.76 265.93 134.495C266.297 138.856 267.199 143.155 268.618 147.294C269.368 149.562 270.278 151.773 271.341 153.912C272.397 155.675 273.355 157.496 274.21 159.366C274.428 159.875 273.738 160.129 273.411 159.838Z" fill="#E3E3E3"/>
<path d="M179.575 141.549C170.278 144.422 160.728 146.349 151.25 148.567C142.957 150.704 134.523 152.247 126.011 153.184C121.341 153.627 116.635 153.505 111.994 152.821C108.58 152.239 104.005 151.185 102.298 147.767C100.591 144.349 103.133 139.949 105.712 137.659C108.675 135.353 112.221 133.917 115.952 133.514C126.845 132.273 137.862 132.677 148.635 134.714C159.094 136.204 169.371 138.35 179.72 140.386C179.901 140.442 180.056 140.561 180.158 140.721C180.259 140.881 180.3 141.072 180.274 141.26C180.248 141.448 180.156 141.62 180.015 141.747C179.873 141.873 179.692 141.945 179.502 141.949C171.477 141.404 163.56 139.477 155.607 138.313C145.134 136.304 134.497 135.269 123.832 135.223C117.15 135.223 105.457 136.132 103.968 144.713C103.278 148.639 108.108 150.058 111.231 150.676C115.668 151.528 120.199 151.785 124.704 151.439C133.057 150.657 141.329 149.173 149.434 147.003C159.348 144.785 169.225 142.276 179.284 140.713C179.793 140.713 180.047 141.367 179.502 141.513L179.575 141.549Z" fill="#E3E3E3"/>
<path d="M184.186 149.694C188.753 146.545 193.619 143.853 198.712 141.658C203.461 139.354 208.55 137.832 213.783 137.15C214.327 137.15 214.4 137.913 213.783 138.022C203.503 140.725 193.702 145.005 184.731 150.712C184.114 151.148 183.533 150.13 184.15 149.694L184.186 149.694Z" fill="#E3E3E3"/>
<path d="M189.743 147.331C184.566 152.071 179.645 157.084 174.999 162.347C170.108 167.594 164.422 172.035 158.149 175.509C151.562 179.004 144.715 181.983 137.668 184.418C131.31 187.274 124.444 188.819 117.477 188.963C113.846 188.963 107.418 188.126 106.038 183.981C105.094 181.145 108.035 179.109 110.105 177.837C113.558 175.923 117.212 174.399 121 173.292C125.539 171.801 130.115 170.383 134.69 168.892C143.188 166.201 151.685 163.511 160.11 160.493C168.639 157.306 176.991 153.664 185.131 149.585C185.302 149.512 185.494 149.504 185.67 149.562C185.847 149.62 185.996 149.741 186.089 149.902C186.183 150.063 186.215 150.253 186.179 150.435C186.143 150.618 186.041 150.781 185.893 150.894C180.047 154.672 173.784 157.759 167.228 160.093C160.582 162.674 153.792 164.892 147.001 167.074C137.305 170.201 127.391 172.928 117.949 176.309C114.446 177.152 111.211 178.865 108.544 181.291C105.239 185.218 114.027 186.89 116.388 187.108C122.896 187.3 129.367 186.059 135.344 183.472C142.168 181.158 148.839 178.413 155.317 175.255C162.29 171.686 168.613 166.966 174.019 161.293C178.776 156.239 183.243 150.385 189.452 146.749C189.779 146.567 190.179 147.04 189.888 147.294L189.743 147.331Z" fill="#E3E3E3"/>
<path d="M191.195 131.769C200.092 131.587 208.989 131.55 217.85 130.641C226.875 129.538 235.825 127.887 244.65 125.696C244.838 125.643 245.039 125.667 245.209 125.763C245.379 125.858 245.505 126.017 245.558 126.205C245.611 126.394 245.587 126.595 245.491 126.765C245.396 126.936 245.237 127.061 245.049 127.114C236.465 129.786 227.631 131.577 218.685 132.459C209.569 133.701 200.335 133.799 191.195 132.75C191.088 132.721 190.993 132.657 190.925 132.568C190.858 132.479 190.821 132.371 190.821 132.259C190.821 132.148 190.858 132.039 190.925 131.951C190.993 131.862 191.088 131.798 191.195 131.769Z" fill="#E3E3E3"/>
<path d="M198.204 133.368C190.833 132.781 183.431 132.72 176.052 133.187C168.849 133.388 161.643 132.95 154.517 131.878C147.379 130.815 140.353 129.098 133.528 126.751C128.539 125.525 123.823 123.379 119.619 120.424C117.44 118.497 116.169 115.043 119.292 113.37C122.407 112.188 125.786 111.886 129.061 112.498C140.116 113.594 150.96 116.25 161.272 120.388C166.574 122.497 171.876 124.715 177.286 126.569C184.193 128.863 191.225 130.757 198.349 132.241C198.493 132.241 198.632 132.299 198.734 132.401C198.836 132.503 198.894 132.642 198.894 132.787C198.894 132.931 198.836 133.07 198.734 133.172C198.632 133.274 198.493 133.332 198.349 133.332C187.556 131.978 177.007 129.114 167.01 124.824C157.931 121.137 148.551 118.242 138.975 116.17C134.625 115.161 130.184 114.6 125.72 114.497C123.396 114.497 117.622 114.716 120.818 118.133C122.532 119.761 124.575 121.001 126.809 121.769C129.279 122.751 131.785 123.696 134.29 124.569C147.603 129.253 161.654 131.483 175.761 131.15C183.357 130.688 190.981 131.066 198.494 132.278C199.111 132.278 199.002 133.514 198.494 133.441L198.204 133.368Z" fill="#E3E3E3"/>
<path d="M200.927 203.943C202.223 195.259 204.401 186.731 207.428 178.491C208.847 175.03 210.624 171.728 212.729 168.637C214.555 165.404 217.134 162.659 220.247 160.638C220.973 160.311 221.99 161.038 221.445 161.838C220.328 163.14 219.114 164.356 217.813 165.474C216.434 166.958 215.16 168.538 214 170.201C211.955 173.226 210.204 176.44 208.771 179.8C205.54 187.693 203.107 195.891 201.508 204.27C201.508 204.743 200.709 204.525 200.782 204.052L200.927 203.943Z" fill="#E3E3E3"/>
<path d="M203.215 199.434C199.364 211.525 193.982 223.073 187.201 233.795C181.214 243.735 173.532 252.546 164.504 259.828C161.672 262.046 152.448 267.1 156.37 271.972C160.292 276.845 168.862 272.991 172.893 270.591C183.351 264.373 189.452 251.975 193.556 240.957C195.956 234.21 197.909 227.31 199.402 220.305C201.352 212.55 202.135 204.548 201.726 196.562C201.726 195.108 203.905 195.108 203.978 196.562C204.39 203.887 203.754 211.233 202.09 218.378C200.697 225.472 198.804 232.459 196.425 239.285C192.285 250.811 186.184 263.537 175.871 270.7C171.407 274.109 165.857 275.776 160.255 275.39C156.007 274.736 152.993 271.282 154.808 267.028C155.735 265.109 157.119 263.448 158.839 262.192C161.49 260.192 164.177 258.337 166.683 256.156C171.787 251.664 176.401 246.643 180.446 241.176C185.065 234.909 189.135 228.254 192.612 221.287C196.243 214.015 199.257 206.561 202.634 199.216C202.634 198.889 203.324 199.216 203.215 199.471L203.215 199.434Z" fill="#E3E3E3"/>
<path d="M154.155 237.176C157.096 233.358 160.038 229.504 162.58 225.432C165.037 221.086 167.174 216.565 168.971 211.906C170.748 207.595 173.001 203.497 175.689 199.689C178.062 196.012 181.12 192.827 184.695 190.308C185.421 189.872 186.039 190.817 185.567 191.435C184.15 193.071 182.371 194.38 180.918 195.98C179.218 197.79 177.652 199.722 176.234 201.761C173.662 205.707 171.485 209.896 169.734 214.269C167.994 218.637 165.88 222.847 163.415 226.85C160.833 230.655 158.019 234.298 154.99 237.758C154.591 238.194 153.792 237.758 154.155 237.14L154.155 237.176Z" fill="#E3E3E3"/>
<path d="M160.219 231.467C147.8 249.647 132.947 266.628 111.159 273.063C107.745 274.081 102.116 274.99 99.3929 271.9C97.7224 269.973 99.3928 267.718 100.882 266.3C103.374 264.141 106.007 262.149 108.762 260.337C113.886 256.824 119.223 253.63 124.74 250.775C130.514 247.648 136.434 244.775 142.171 241.576C147.909 238.376 153.647 234.303 159.384 230.486C160.256 229.904 161.127 231.177 160.437 231.867C156.787 235.413 152.655 238.424 148.163 240.812C143.587 243.466 138.867 245.83 134.109 248.084C124.818 252.552 115.819 257.604 107.164 263.21C104.51 264.514 102.225 266.465 100.519 268.882C99.6834 270.627 101.281 271.354 102.806 271.754C105.424 272.332 108.155 272.117 110.65 271.136C120.49 267.938 129.565 262.738 137.305 255.865C145.215 248 152.637 239.658 159.529 230.886C159.82 230.486 160.474 230.886 160.219 231.395L160.219 231.467Z" fill="#E3E3E3"/>
<path d="M161.926 190.09C166.303 188.329 170.539 186.238 174.6 183.836C178.595 181.472 182.48 178.891 186.656 176.855C190.774 174.984 194.993 173.345 199.294 171.946C201.545 171.183 203.76 170.383 205.975 169.583C208.168 168.494 210.546 167.828 212.984 167.619C213.133 167.626 213.277 167.674 213.399 167.757C213.522 167.841 213.619 167.958 213.68 168.094C213.74 168.23 213.761 168.38 213.741 168.527C213.721 168.675 213.66 168.814 213.565 168.928C211.842 170.106 209.905 170.934 207.864 171.364L200.601 173.728C195.735 175.138 190.977 176.9 186.366 179C182.335 181 178.522 183.436 174.527 185.545C170.502 187.633 166.312 189.384 161.999 190.781C161.563 190.781 161.381 190.235 161.817 190.09L161.926 190.09Z" fill="#E3E3E3"/>
<path d="M169.733 187.654C166.865 187.654 164.323 190.708 162.071 192.308C159.82 193.908 157.278 195.653 154.808 197.18C150.043 200.093 145.08 202.668 139.956 204.888C129.875 209.673 119.163 212.991 108.144 214.742C104.459 215.471 100.637 214.986 97.2499 213.36C95.071 212.088 93.6185 209.724 95.0348 207.47C96.0768 206.074 97.5418 205.054 99.2109 204.561C102.064 203.533 104.989 202.719 107.963 202.125C113.7 200.889 119.511 200.234 125.248 199.143C131.749 197.943 138.14 196.016 144.495 194.344C150.85 192.671 157.968 190.272 164.758 188.672C165.521 188.672 166.138 189.69 165.339 190.017C160.381 191.975 155.283 193.555 150.087 194.744C144.713 196.162 139.193 197.471 133.927 198.889C123.905 201.47 113.446 201.979 103.46 204.634C101.063 205.252 97.6131 205.87 96.1969 208.27C94.7806 210.67 96.9594 211.688 98.6299 212.488C102.942 213.936 107.593 214.024 111.957 212.742C117.147 211.639 122.245 210.144 127.209 208.27C132.075 206.488 136.978 204.634 141.735 202.561C146.828 200.266 151.755 197.618 156.479 194.635C158.839 193.144 161.091 191.544 163.378 189.908C165.072 188.239 167.357 187.31 169.733 187.326C169.791 187.326 169.847 187.349 169.887 187.39C169.928 187.431 169.951 187.487 169.951 187.545C169.951 187.602 169.928 187.658 169.887 187.699C169.847 187.74 169.791 187.763 169.733 187.763L169.733 187.654Z" fill="#E3E3E3"/>
<path d="M108.761 238.521C100.554 244.157 92.1655 249.429 83.9947 255.174C76.3554 260.849 68.1537 265.723 59.5189 269.718C51.1177 273.268 42.2924 275.712 33.2636 276.99C28.8696 277.608 24.4392 278.081 20.0088 278.299C17.0313 278.562 14.0307 278.291 11.1481 277.499C10.427 277.356 9.75178 277.038 9.18152 276.574C8.61126 276.109 8.16327 275.512 7.87669 274.834C7.59012 274.156 7.47367 273.418 7.53752 272.685C7.60137 271.952 7.84362 271.245 8.24302 270.627C10.8378 266.85 14.4706 263.907 18.7015 262.155C23.8769 259.856 29.2991 258.16 34.8614 257.101C41.8701 255.429 48.9151 253.938 55.9237 252.338C64.8934 250.302 73.8268 248.157 82.6875 245.648C91.5482 243.139 99.7552 240.157 108.108 237.103C108.906 236.812 109.415 238.085 108.689 238.485C95.688 245.211 80.7991 248.593 66.6728 251.974C53.7449 255.029 40.708 257.465 27.8528 260.81C22.7848 261.977 18.0125 264.18 13.8354 267.282C12.1649 268.591 7.33513 272.627 10.204 274.845C12.4311 276.025 14.9655 276.494 17.4668 276.19C21.5384 276.117 25.6015 275.79 29.6322 275.208C38.4723 274.101 47.1509 271.953 55.488 268.809C64.6645 265.03 73.3471 260.146 81.3439 254.265C89.8705 248.13 98.7461 242.497 107.926 237.394C108.086 237.333 108.263 237.33 108.425 237.387C108.587 237.444 108.724 237.556 108.811 237.705C108.898 237.853 108.93 238.027 108.901 238.197C108.872 238.366 108.784 238.52 108.652 238.63L108.761 238.521Z" fill="#E3E3E3"/>
<path d="M68.5976 299.46C77.7488 286.662 83.886 272.045 92.5651 258.956C95.8293 253.814 99.7342 249.11 104.186 244.957C108.434 241.321 112.937 237.685 117.477 234.304C121.996 230.65 126.861 227.447 132.002 224.741C132.207 224.648 132.439 224.635 132.653 224.703C132.867 224.772 133.048 224.918 133.161 225.112C133.274 225.307 133.311 225.536 133.265 225.757C133.218 225.977 133.092 226.172 132.91 226.304C124.195 232.522 115.298 238.485 107.127 245.393C96.7775 254.156 90.0594 266.3 83.3776 277.935C79.2398 285.58 74.6184 292.952 69.5418 300.006C69.1423 300.551 68.1981 300.006 68.6339 299.46L68.5976 299.46Z" fill="#E3E3E3"/>
<path d="M77.8944 286.989C75.0421 294.252 71.7682 301.342 68.0895 308.223C64.9089 315.001 61.1803 321.507 56.941 327.676C50.8779 336.455 42.4366 343.317 32.6103 347.456C29.6326 348.692 16.632 354.291 16.5957 347.201C16.8902 344.713 18.0315 342.401 19.8277 340.656C21.6363 338.398 23.5637 336.237 25.6017 334.184C30.1831 329.653 35.0338 325.403 40.1275 321.458C51.756 312.716 62.9197 303.371 73.573 293.461C74.154 292.879 74.8802 293.716 74.4445 294.297C67.5084 303.206 57.631 309.896 48.7339 316.695C39.0767 323.479 30.1012 331.187 21.9339 339.711C20.1545 341.747 17.322 344.656 17.7578 347.601C17.9757 349.201 19.3556 349.564 20.7719 349.564C24.4849 349.196 28.0884 348.096 31.3757 346.328C40.4689 342.343 48.385 336.083 54.3627 328.148C58.8339 321.925 62.7469 315.318 66.0559 308.405C69.3093 300.95 72.9455 293.668 76.9502 286.589C77.277 286.044 78.2575 286.371 78.0033 287.025L77.8944 286.989Z" fill="#E3E3E3"/>
<path d="M78.693 306.405C82.9781 297.388 84.2128 287.571 86.2464 277.899C87.1349 273.528 88.4111 269.245 90.0594 265.1C90.8647 263.167 91.8115 261.295 92.892 259.501C93.7893 257.687 95.0944 256.107 96.7049 254.883C97.1044 254.665 97.7218 255.065 97.5402 255.538C96.6375 257.385 95.5548 259.139 94.3082 260.774C93.1857 262.706 92.1911 264.71 91.3305 266.773C89.6113 271.112 88.2154 275.572 87.1542 280.117C85.455 289.227 82.7764 298.127 79.1651 306.66C79.1651 306.987 78.5478 306.66 78.693 306.405Z" fill="#E3E3E3"/>
<path d="M81.0172 302.806C78.6931 312.659 74.8438 321.895 71.6844 331.494C69.4092 339.922 65.0074 347.622 58.9018 353.855C57.0151 356.022 54.4583 357.494 51.6389 358.036C50.3258 358.027 49.0697 357.498 48.1445 356.565C47.2193 355.631 46.7002 354.37 46.7002 353.055C46.8879 351.129 47.4953 349.267 48.4796 347.601C49.4832 345.453 50.6109 343.364 51.8568 341.347C54.4381 337.303 57.2259 333.396 60.2091 329.639C63.8406 325.058 67.472 320.586 71.1035 315.931C74.7349 311.277 77.1679 306.878 80.1093 302.26C80.6177 301.497 81.9978 301.969 81.6709 302.915C78.8747 310.623 72.8465 317.277 67.7625 323.567C61.8744 330.28 56.5655 337.481 51.8931 345.092C50.5495 347.492 46.2644 354.655 50.84 356C53.491 356.764 56.614 353.6 58.1029 351.964C63.6842 346.028 67.7789 338.85 70.0503 331.021C73.3912 321.495 77.3132 312.259 80.2546 302.587C80.2835 302.481 80.3533 302.391 80.4487 302.337C80.544 302.282 80.6571 302.268 80.7631 302.297C80.869 302.325 80.9592 302.395 81.0137 302.491C81.0681 302.586 81.0824 302.7 81.0536 302.806L81.0172 302.806Z" fill="#E3E3E3"/>
<path d="M97.5408 224.05C112.277 225 127.069 223.538 141.336 219.723C142.171 219.505 142.752 220.778 141.953 221.178C135.964 223.841 129.541 225.393 122.997 225.759C114.527 226.454 106.007 226.259 97.5772 225.177C96.9235 225.177 96.8872 224.123 97.5772 224.159L97.5408 224.05Z" fill="#E3E3E3"/>
<path d="M96.7415 224.595C85.3682 223.922 74.2215 221.122 63.877 216.342C52.9827 211.397 42.8147 205.434 30.8672 203.361C27.2358 202.743 19.9729 201.652 17.1404 204.961C14.3079 208.27 20.7718 211.76 23.096 212.924C33.0397 217.876 43.7663 221.062 54.7984 222.341C68.7214 223.904 82.7449 224.378 96.7415 223.759C97.4314 223.759 97.3951 224.705 96.7415 224.777C82.7666 225.953 68.7063 225.636 54.7984 223.832C43.4465 222.748 32.3788 219.645 22.1155 214.669C19.1377 213.215 14.8526 211.033 14.3442 207.397C13.8358 203.761 17.6125 201.652 20.7355 201.034C26.1361 200.284 31.6361 200.769 36.8228 202.452C42.9828 204.272 48.9442 206.708 54.6168 209.724C61.0267 213.212 67.677 216.238 74.5171 218.778C81.7434 221.265 89.2011 223.02 96.7778 224.014C97.1773 224.014 97.2136 224.704 96.7778 224.668L96.7415 224.595Z" fill="#E3E3E3"/>
<path d="M81.5262 225.286C77.8947 226.522 74.2633 227.431 70.414 228.704C66.5647 229.977 62.788 231.54 59.0113 233.176C52.1842 236.085 45.4297 239.212 38.3484 241.503C31.1137 244.042 23.453 245.142 15.7971 244.739C11.0145 244.882 6.27532 243.793 2.03402 241.575C-0.290095 239.867 -1.05268 237.249 1.59827 235.576C4.90955 233.94 8.51569 232.988 12.2021 232.776C18.4118 231.94 24.6942 231.286 30.9039 230.486C37.7674 229.613 44.6308 228.704 51.5305 227.868C60.0644 226.813 68.6346 225.395 77.2411 224.923C77.3952 224.923 77.543 224.984 77.6519 225.093C77.7609 225.202 77.8221 225.35 77.8221 225.504C77.8221 225.659 77.7609 225.807 77.6519 225.916C77.543 226.025 77.3952 226.086 77.2411 226.086C70.5229 227.468 63.6958 228.122 56.905 228.995C50.7316 229.758 44.5945 230.486 38.421 231.213C32.2476 231.94 25.4568 232.776 18.9565 233.613C15.3251 234.085 11.6937 234.485 8.06222 235.285C6.71859 235.576 0.181985 236.63 1.7435 238.921C3.40338 240.613 5.62624 241.635 7.98958 241.794C10.3198 242.224 12.6716 242.527 15.0346 242.703C22.4178 243.176 29.8218 242.188 36.8232 239.794C44.3766 237.43 51.5668 234.122 58.866 231.067C65.8576 227.548 73.4208 225.307 81.1994 224.45C81.2957 224.45 81.388 224.488 81.4561 224.556C81.5242 224.625 81.5625 224.717 81.5625 224.813C81.5625 224.91 81.5242 225.002 81.4561 225.071C81.388 225.139 81.2957 225.177 81.1994 225.177L81.5262 225.286Z" fill="#E3E3E3"/>
</g>
<defs>
<clipPath id="clip0_1589_23458">
<rect width="358" height="335" fill="white" transform="matrix(-4.37114e-08 1 1 4.37114e-08 0 0)"/>
</clipPath>
</defs>
</svg>
