<svg width="248" height="292" viewBox="0 0 248 292" fill="none" xmlns="http://www.w3.org/2000/svg">
<path fill-rule="evenodd" clip-rule="evenodd" d="M240.78 169.353L240.132 171.417L239.463 173.467L238.773 175.501L238.063 177.521L237.334 179.525L236.587 181.515L235.822 183.49L235.04 185.451L234.243 187.397L233.43 189.33L232.603 191.249L231.762 193.155L230.908 195.047L230.042 196.927L229.164 198.795L228.274 200.652L227.374 202.497L226.462 204.331L225.541 206.154L224.61 207.968L223.668 209.772L222.717 211.567L221.757 213.353L220.787 215.131L219.807 216.9L218.818 218.662L217.818 220.416L216.808 222.164L215.788 223.904L214.757 225.637L213.715 227.364L212.661 229.084L211.594 230.797L210.515 232.503L209.422 234.203L208.315 235.895L207.193 237.58L206.056 239.257L204.903 240.926L203.732 242.587L202.545 244.238L201.338 245.879L200.113 247.51L198.868 249.13L197.602 250.738L196.315 252.332L195.006 253.913L193.675 255.479L192.32 257.028L190.942 258.561L189.539 260.075L188.112 261.569L186.66 263.043L185.182 264.494L183.678 265.922L182.148 267.325L180.592 268.702L179.01 270.051L177.401 271.37L175.766 272.659L174.105 273.916L172.417 275.139L170.704 276.328L168.966 277.479L167.202 278.593L165.414 279.668L163.602 280.702L161.767 281.694L159.909 282.643L158.029 283.548L156.129 284.407L154.208 285.219L152.269 285.984L150.312 286.7L148.338 287.367L146.349 287.982L144.346 288.547L142.329 289.06L140.301 289.521L138.263 289.928L136.215 290.283L134.161 290.583L132.1 290.83L130.035 291.023L127.967 291.162L125.897 291.248L123.827 291.279L121.759 291.258L119.694 291.183L117.633 291.056L115.579 290.878L113.531 290.648L111.492 290.368L109.464 290.038L107.447 289.66L105.442 289.235L103.451 288.763L101.476 288.245L99.5163 287.684L97.5741 287.08L95.6502 286.434L93.7455 285.749L91.8609 285.025L89.9971 284.264L88.1549 283.467L86.3349 282.636L84.5378 281.772L82.764 280.877L81.0141 279.951L79.2885 278.998L77.5874 278.017L75.9113 277.011L74.2602 275.981L72.6345 274.928L71.0341 273.853L69.4592 272.759L67.9097 271.646L66.3854 270.516L64.8864 269.37L63.4122 268.209L61.9628 267.036L60.5377 265.85L59.1365 264.654L57.759 263.449L56.4045 262.236L55.0726 261.015L53.7628 259.789L52.4744 258.557L51.2068 257.322L49.9595 256.083L48.7318 254.843L47.5229 253.6L46.3323 252.357L45.1593 251.113L44.0031 249.869L42.8631 248.627L41.7387 247.385L40.6292 246.144L39.5341 244.905L38.4526 243.667L37.3843 242.432L36.3286 241.198L35.2849 239.965L34.2528 238.735L33.2318 237.506L32.2215 236.278L31.2217 235.052L30.2319 233.826L29.2519 232.601L28.2815 231.376L27.3206 230.15L26.3691 228.924L25.427 227.696L24.4943 226.467L23.5711 225.236L22.6576 224.001L21.7541 222.764L20.8608 221.522L19.9781 220.276L19.1065 219.024L18.2463 217.767L17.3982 216.504L16.5627 215.234L15.7404 213.957L14.932 212.672L14.1382 211.38L13.3598 210.078L12.5975 208.768L11.8521 207.449L11.1244 206.121L10.4152 204.783L9.72524 203.435L9.05533 202.078L8.40623 200.711L7.77867 199.334L7.17336 197.948L6.59093 196.552L6.03199 195.147L5.49706 193.733L4.98662 192.311L4.50105 190.881L4.04065 189.442L3.60566 187.997L3.19629 186.544L2.8127 185.085L2.45502 183.621L2.12334 182.151L1.8177 180.676L1.53812 179.197L1.28454 177.714L1.0569 176.229L0.855054 174.74L0.678848 173.25L0.528064 171.757L0.402448 170.264L0.301707 168.771L0.225501 167.277L0.173462 165.784L0.145167 164.292L0.140179 162.801L0.158012 161.311L0.198157 159.824L0.260074 158.34L0.343199 156.858L0.446949 155.38L0.570713 153.905L0.713874 152.433L0.8758 150.965L1.05584 149.502L1.2533 148.042L1.46744 146.587L1.69746 145.136L1.94254 143.689L2.20181 142.247L2.4744 140.808L2.7594 139.373L3.05592 137.942L3.36306 136.515L3.67994 135.09L4.00569 133.668L4.33947 132.249L4.68047 130.831L5.02795 129.414L5.38117 127.998L5.73947 126.582L6.10227 125.165L6.469 123.747L6.83921 122.328L7.2125 120.905L7.58854 119.479L7.96709 118.049L8.34798 116.615L8.73113 115.174L9.11654 113.728L9.50428 112.274L9.89453 110.813L10.2875 109.344L10.6836 107.866L11.0831 106.378L11.4865 104.88L11.8945 103.371L12.3075 101.851L12.7263 100.32L13.1516 98.7768L13.5842 97.2214L14.0249 95.6534L14.4746 94.0728L14.9342 92.4793L15.4048 90.8729L15.8872 89.2534L16.3825 87.621L16.8917 85.9756L17.4159 84.3174L17.956 82.6466L18.5133 80.9636L19.0889 79.2686L19.684 77.5623L20.2996 75.845L20.9371 74.1176L21.5977 72.3807L22.2825 70.6352L22.9927 68.882L23.7295 67.1221L24.4942 65.3567L25.2877 63.5868L26.1113 61.8139L26.9659 60.0391L27.8526 58.2639L28.7724 56.4898L29.7261 54.7183L30.7147 52.951L31.7388 51.1894L32.7993 49.4355L33.8966 47.6907L35.0315 45.9569L36.2044 44.2358L37.4156 42.5294L38.6655 40.8393L39.9544 39.1673L41.2822 37.5154L42.6492 35.8853L44.0552 34.2786L45.5 32.697L46.9834 31.1422L48.505 29.6156L50.0644 28.1187L51.661 26.6528L53.2943 25.2193L54.9636 23.8195L56.6683 22.4543L58.4074 21.125L60.1802 19.8326L61.9858 18.5779L63.8234 17.3617L65.6919 16.1849L67.5904 15.0482L69.5179 13.9521L71.4734 12.8973L73.4559 11.8843L75.4643 10.9133L77.4976 9.98498L79.5546 9.09949L81.6345 8.25715L83.7361 7.45818L85.8584 6.70279L88.0003 5.99111L90.1609 5.32328L92.3391 4.69938L94.5338 4.11949L96.7442 3.58366L98.9692 3.09192L101.208 2.6443L103.459 2.24082L105.722 1.88149L107.996 1.56632L110.28 1.29533L112.573 1.06854L114.873 0.885975L117.181 0.747678L119.495 0.653698L121.814 0.604098L124.138 0.598953L126.465 0.638356L128.794 0.722402L131.125 0.851175L133.457 1.02474L135.788 1.24313L138.118 1.50638L140.445 1.81448L142.77 2.1674L145.09 2.5651L147.405 3.0075L149.714 3.4945L152.016 4.02597L154.311 4.60176L156.596 5.22168L158.872 5.88552L161.138 6.59303L163.392 7.34396L165.633 8.13801L167.861 8.97484L170.075 9.85411L172.275 10.7754L174.458 11.7384L176.625 12.7427L178.775 13.7877L180.907 14.873L183.02 15.9981L185.113 17.1625L187.186 18.3656L189.238 19.607L191.269 20.8862L193.277 22.2026L195.262 23.5558L197.223 24.9455L199.16 26.3711L201.071 27.8324L202.956 29.329L204.813 30.8604L206.643 32.4262L208.443 34.0262L210.214 35.6598L211.954 37.3267L213.663 39.0265L215.339 40.7587L216.981 42.5228L218.589 44.3184L220.162 46.1449L221.699 48.0017L223.198 49.8883L224.659 51.8041L226.082 53.7484L227.464 55.7204L228.806 57.7196L230.107 59.745L231.365 61.7959L232.58 63.8713L233.751 65.9706L234.878 68.0925L235.959 70.2363L236.995 72.4008L237.985 74.5851L238.928 76.788L239.824 79.0084L240.673 81.2452L241.474 83.4971L242.227 85.7631L242.932 88.0417L243.59 90.3319L244.199 92.6322L244.761 94.9415L245.276 97.2585L245.743 99.5819L246.164 101.91L246.539 104.243L246.869 106.578L247.154 108.914L247.395 111.251L247.592 113.587L247.747 115.921L247.86 118.252L247.932 120.579L247.963 122.902L247.955 125.218L247.908 127.528L247.824 129.831L247.702 132.126L247.544 134.411L247.351 136.688L247.123 138.954L246.862 141.209L246.568 143.453L246.243 145.685L245.886 147.905L245.498 150.112L245.082 152.306L244.636 154.487L244.163 156.654L243.663 158.806L243.136 160.945L242.584 163.069L242.006 165.179L241.405 167.273L240.78 169.353Z" fill="#3D8361"/>
</svg>
