<svg width="23" height="16" viewBox="0 0 23 16" fill="none" xmlns="http://www.w3.org/2000/svg">
<path d="M2.4864 3.11902C2.01932 4.09811 1.78577 5.00084 1.78577 5.82723C1.78577 6.52786 1.94746 7.05334 2.27083 7.40365C2.60318 7.75397 3.1556 7.92912 3.92809 7.92912H5.08683C5.6617 7.92912 6.09286 7.87972 6.3803 7.78091C6.66774 7.68211 6.86086 7.51144 6.95967 7.26891C7.06746 7.02639 7.12135 6.66709 7.12135 6.19102V1.96028H8.83251V6.19102C8.83251 7.32281 8.52711 8.21656 7.9163 8.87228C7.31447 9.53699 6.37132 9.86934 5.08683 9.86934H3.92809C3.11967 9.86934 2.42802 9.68969 1.85314 9.33039C1.27826 8.97109 0.842615 8.48604 0.546194 7.87523C0.249773 7.26442 0.101562 6.58176 0.101562 5.82723C0.101562 5.2793 0.195878 4.69544 0.38451 4.07565C0.573141 3.45586 0.797703 2.88548 1.05819 2.36449L2.4864 3.11902ZM3.92809 0.720703H5.72009V2.47228H3.92809V0.720703Z" fill="#626262"/>
<path d="M5.13038 15.6361C4.18722 15.6361 3.49108 15.3621 3.04196 14.8142C2.60181 14.2662 2.38174 13.5297 2.38174 12.6045V6.63563H4.0929V12.6045C4.0929 12.9458 4.11087 13.1883 4.1468 13.3321C4.19171 13.4758 4.28153 13.5746 4.41627 13.6285C4.55999 13.6734 4.79803 13.6958 5.13038 13.6958H5.61543L5.69627 14.6929L5.61543 15.6361H5.13038Z" fill="#626262"/>
<path d="M5.47775 13.6958H5.82806C6.00771 13.6958 6.14245 13.6554 6.23227 13.5746C6.33108 13.4848 6.40294 13.341 6.44785 13.1434L6.79817 11.8499C6.99578 11.0685 7.32813 10.4711 7.79522 10.0579C8.26231 9.64476 8.82371 9.43816 9.47943 9.43816C10.0004 9.43816 10.463 9.58188 10.8672 9.86932C11.2804 10.1478 11.6038 10.5385 11.8373 11.0415C12.0709 11.5356 12.1876 12.0925 12.1876 12.7123C12.1876 13.4578 12.0664 14.0686 11.8238 14.5447C11.5813 15.0118 11.2759 15.3531 10.9076 15.5687C10.5483 15.7753 10.1711 15.8786 9.77585 15.8786C9.47045 15.8786 9.14708 15.8157 8.80575 15.6899C8.47339 15.5732 7.97487 15.3576 7.31017 15.0432C7.10357 15.2318 6.87452 15.38 6.62301 15.4878C6.3715 15.5866 6.1155 15.6361 5.85501 15.6361H5.47775V13.6958ZM8.13206 13.4129C8.61711 13.6375 8.97641 13.7902 9.20996 13.871C9.4435 13.9518 9.65459 13.9923 9.84322 13.9923C10.3373 13.9923 10.5843 13.5701 10.5843 12.7257C10.5843 12.2676 10.4855 11.9173 10.2879 11.6748C10.0902 11.4233 9.83424 11.2975 9.51985 11.2975C9.25936 11.2975 9.03031 11.3918 8.83269 11.5805C8.63508 11.7691 8.49136 12.0431 8.40154 12.4024L8.13206 13.4129Z" fill="#626262"/>
<path d="M14.0605 13.8035C14.6174 13.8035 15.0396 13.7541 15.327 13.6553C15.6145 13.5655 15.8121 13.4083 15.9199 13.1837C16.0366 12.9682 16.104 12.6583 16.122 12.254H14.9632C14.1099 12.254 13.4317 12.007 12.9287 11.513C12.4347 11.01 12.1877 10.3093 12.1877 9.4111C12.1877 8.77334 12.3044 8.20745 12.538 7.71342C12.7805 7.21938 13.1084 6.83763 13.5216 6.56815C13.9437 6.2897 14.4198 6.15047 14.9498 6.15047C15.5246 6.15047 16.0277 6.28521 16.4588 6.55468C16.899 6.82415 17.2358 7.20591 17.4693 7.69994C17.7119 8.19398 17.8331 8.76436 17.8331 9.4111V10.3138H18.5742L18.682 11.2974L18.5742 12.254H17.8331C17.7972 13.305 17.4738 14.1493 16.863 14.7871C16.2522 15.4249 15.318 15.7437 14.0605 15.7437H12.4571V13.8035H14.0605ZM13.8314 9.31678C13.8314 9.68506 13.9213 9.95903 14.1009 10.1387C14.2806 10.3093 14.568 10.3947 14.9632 10.3947H16.122V9.37068C16.122 8.4365 15.7312 7.96942 14.9498 7.96942C14.5815 7.96942 14.303 8.09517 14.1144 8.34668C13.9258 8.59819 13.8314 8.92156 13.8314 9.31678Z" fill="#626262"/>
<path d="M18.42 10.3138H19.9156C20.3198 10.3138 20.6072 10.2465 20.7779 10.1117C20.9485 9.96801 21.0249 9.76591 21.0069 9.50542C20.962 8.9485 20.8452 8.20296 20.6566 7.26878L22.2734 6.86457C22.3812 7.34064 22.48 7.84815 22.5699 8.3871C22.6687 8.92605 22.7181 9.3617 22.7181 9.69405C22.7181 10.1432 22.6193 10.5609 22.4217 10.9471C22.224 11.3333 21.9231 11.6477 21.5189 11.8903C21.1237 12.1328 20.6341 12.254 20.0503 12.254H18.42V10.3138ZM18.7972 3.76563H20.4006V5.36899H18.7972V3.76563ZM21.3168 3.76563H22.9337V5.36899H21.3168V3.76563Z" fill="#626262"/>
</svg>
