<svg width="20" height="20" viewBox="0 0 20 20" fill="none" xmlns="http://www.w3.org/2000/svg">
<g id="Tooman Square light">
<g id="&#216;&#170;&#217;&#136;&#217;&#133;&#216;&#167;&#217;&#134;">
<path d="M4.65658 3.28002C4.18458 4.26402 3.94858 5.15602 3.94858 5.95602C3.94858 6.70002 4.13658 7.30802 4.51258 7.78002C4.89658 8.26002 5.46458 8.50002 6.21658 8.50002H7.50058C8.05258 8.50002 8.48858 8.43202 8.80858 8.29602C9.12858 8.16002 9.35658 7.94802 9.49258 7.66002C9.63658 7.37202 9.70858 6.98802 9.70858 6.50802V2.68002H10.4526V6.50802C10.4526 8.39602 9.46858 9.34002 7.50058 9.34002H6.21658C5.57658 9.34002 5.02858 9.18002 4.57258 8.86002C4.11658 8.54802 3.77258 8.13202 3.54058 7.61202C3.31658 7.10002 3.20458 6.54802 3.20458 5.95602C3.20458 5.02002 3.47658 4.01602 4.02058 2.94402L4.65658 3.28002ZM6.62793 2H7.69593V3.068H6.62793V2Z" fill="#3D8361"/>
<path d="M4.016 16.828C3.288 16.828 2.772 16.636 2.468 16.252C2.164 15.868 2.012 15.296 2.012 14.536L2 9.04001H2.744L2.756 14.536C2.756 14.936 2.788 15.236 2.852 15.436C2.924 15.636 3.048 15.78 3.224 15.868C3.4 15.948 3.664 15.988 4.016 15.988H4.172L4.232 16.42L4.172 16.828H4.016Z" fill="#3D8361"/>
<path d="M3.67526 15.988H4.01126C4.21126 15.988 4.37926 15.936 4.51526 15.832C4.65926 15.728 4.75526 15.584 4.80326 15.4L5.18726 14.02C5.35526 13.42 5.61526 12.952 5.96726 12.616C6.31926 12.272 6.74326 12.1 7.23926 12.1C7.63926 12.1 7.99126 12.216 8.29526 12.448C8.59926 12.68 8.83527 12.992 9.00326 13.384C9.17126 13.776 9.25526 14.204 9.25526 14.668C9.25526 15.228 9.17527 15.692 9.01527 16.06C8.85527 16.42 8.65127 16.68 8.40327 16.84C8.15527 17.008 7.88726 17.092 7.59926 17.092C7.30326 17.092 6.99926 17.032 6.68726 16.912C6.38326 16.792 5.89526 16.56 5.22326 16.216C5.07126 16.408 4.88726 16.56 4.67126 16.672C4.46326 16.776 4.24326 16.828 4.01126 16.828H3.67526V15.988ZM5.55926 15.472C6.19126 15.792 6.63126 16.004 6.87926 16.108C7.12726 16.204 7.36726 16.252 7.59926 16.252C7.88726 16.252 8.11126 16.14 8.27126 15.916C8.43126 15.684 8.51126 15.268 8.51126 14.668C8.51126 14.14 8.39927 13.72 8.17527 13.408C7.95927 13.096 7.64726 12.94 7.23926 12.94C6.91926 12.94 6.64726 13.048 6.42326 13.264C6.19926 13.48 6.02726 13.804 5.90726 14.236L5.55926 15.472Z" fill="#3D8361"/>
<path d="M11.2086 16.264C11.7766 16.264 12.2206 16.188 12.5406 16.036C12.8686 15.892 13.0966 15.676 13.2246 15.388C13.3606 15.1 13.4286 14.724 13.4286 14.26V14.068H12.0126C11.3726 14.068 10.8526 13.884 10.4526 13.516C10.0606 13.14 9.86458 12.604 9.86458 11.908C9.86458 11.428 9.95258 10.996 10.1286 10.612C10.3126 10.22 10.5686 9.91201 10.8966 9.68801C11.2246 9.45601 11.5926 9.34001 12.0006 9.34001C12.6566 9.34001 13.1806 9.58001 13.5726 10.06C13.9726 10.532 14.1726 11.148 14.1726 11.908V13.228H14.8446L14.9046 13.66L14.8446 14.068H14.1726V14.26C14.1726 15.14 13.9366 15.832 13.4646 16.336C13.0006 16.848 12.2486 17.104 11.2086 17.104H10.0206V16.264H11.2086ZM10.6086 11.908C10.6086 12.38 10.7246 12.72 10.9566 12.928C11.1886 13.128 11.5406 13.228 12.0126 13.228H13.4286V11.908C13.4286 11.364 13.3046 10.94 13.0566 10.636C12.8166 10.324 12.4646 10.168 12.0006 10.168C11.5686 10.168 11.2286 10.328 10.9806 10.648C10.7326 10.96 10.6086 11.38 10.6086 11.908Z" fill="#3D8361"/>
<path d="M14.1726 13.228H15.1278C15.5918 13.228 15.9198 13.14 16.1118 12.964C16.3118 12.78 16.4118 12.544 16.4118 12.256C16.4118 12.032 16.3718 11.7 16.2918 11.26C16.2198 10.812 16.1358 10.392 16.0398 10L16.7598 9.80801C16.8558 10.224 16.9438 10.668 17.0238 11.14C17.1118 11.612 17.1558 11.984 17.1558 12.256C17.1558 12.56 17.0838 12.852 16.9398 13.132C16.7958 13.404 16.5718 13.628 16.2678 13.804C15.9638 13.98 15.5838 14.068 15.1278 14.068H14.1726V13.228ZM13.6358 7.288H14.7038V8.356H13.6358V7.288ZM15.6278 7.288H16.6958V8.356H15.6278V7.288Z" fill="#3D8361"/>
</g>
</g>
</svg>
