<svg width="56" height="56" viewBox="0 0 56 56" fill="none" xmlns="http://www.w3.org/2000/svg">
<g id="Layer_1" clip-path="url(#clip0_4784_16282)">
<path id="Vector" d="M28.001 55.5587C43.2206 55.5587 55.5586 43.2207 55.5586 28.0011C55.5586 12.7814 43.2206 0.443481 28.001 0.443481C12.7813 0.443481 0.443359 12.7814 0.443359 28.0011C0.443359 43.2207 12.7813 55.5587 28.001 55.5587Z" stroke="#3D8361" stroke-width="0.887023" stroke-miterlimit="10"/>
<path id="Vector_2" d="M26.3799 6.43317C26.9151 6.39325 27.4554 6.37329 28.0009 6.37329C31.3566 6.37602 34.6656 7.15915 37.6665 8.66078C40.6675 10.1624 43.278 12.3414 45.2919 15.0255C47.3058 17.7097 48.6679 20.8254 49.2705 24.1265C49.8731 27.4276 49.6996 30.8237 48.7639 34.0462" stroke="#3D8361" stroke-width="0.887023" stroke-miterlimit="10"/>
<path id="Vector_3" d="M21.0649 48.4847C18.1987 47.5112 15.5686 45.9472 13.3445 43.8938C11.1204 41.8404 9.35188 39.3432 8.15311 36.5636C6.95435 33.7841 6.35203 30.7839 6.38508 27.7571C6.41813 24.7302 7.08581 21.7439 8.34498 18.9912" stroke="#3D8361" stroke-width="0.887023" stroke-miterlimit="10"/>
<path id="Vector_4" d="M23.4662 50.3142C23.4889 50.601 23.4807 50.8895 23.4418 51.1746C23.4041 51.3764 23.3642 51.4695 23.3221 51.4518C23.3282 51.149 23.3021 50.8465 23.2444 50.5492C23.2059 50.3552 23.1495 50.1651 23.0759 49.9815C23.016 49.8463 22.9672 49.7398 22.9273 49.6688C22.8975 49.6228 22.8764 49.5717 22.8652 49.518C22.8779 49.416 22.904 49.3161 22.9429 49.2209C22.9939 49.0723 23.036 48.9991 23.0693 48.9991C23.1025 48.9991 23.1912 49.1389 23.291 49.4183C23.389 49.7078 23.4479 50.0091 23.4662 50.3142Z" fill="#3D8361"/>
<path id="Vector_5" d="M25.2557 49.252C25.2238 49.3993 25.1644 49.5392 25.0805 49.6644C25.0514 49.7153 25.01 49.7581 24.96 49.7887C24.9099 49.8194 24.853 49.8369 24.7944 49.8396C24.7497 49.8422 24.7051 49.8322 24.6658 49.8108C24.6203 49.7813 24.5792 49.7455 24.5438 49.7043C24.5281 49.7487 24.5014 49.7884 24.4662 49.8196C24.4313 49.8455 24.3912 49.8637 24.3487 49.8729C24.3915 49.9744 24.4242 50.0798 24.4463 50.1878C24.4771 50.3447 24.4912 50.5046 24.4884 50.6645C24.4903 50.8249 24.4784 50.9852 24.4529 51.1435C24.439 51.2484 24.4043 51.3494 24.3509 51.4407C24.3318 51.3684 24.3235 51.2936 24.3265 51.2189C24.3215 51.1038 24.3104 50.9891 24.2933 50.8752C24.2632 50.632 24.1959 50.3949 24.0937 50.1722L23.8076 49.5469C23.8254 49.4826 23.8387 49.4316 23.8475 49.3961C23.8764 49.2834 23.9135 49.173 23.9584 49.0657C23.9584 49.0657 23.9917 49.0967 24.0382 49.1632C24.0744 49.2218 24.1237 49.271 24.1822 49.3072C24.2407 49.3434 24.3068 49.3655 24.3753 49.3717C24.4435 49.3704 24.5089 49.3444 24.5594 49.2985C24.6221 49.2365 24.6692 49.1605 24.6969 49.0768C24.7288 49.1329 24.7684 49.1844 24.8144 49.2298C24.8378 49.2525 24.8656 49.2703 24.8961 49.2822C24.9266 49.294 24.9591 49.2995 24.9918 49.2985C25.0217 49.2998 25.0514 49.2939 25.0785 49.2811C25.1055 49.2684 25.129 49.2492 25.147 49.2253C25.185 49.1764 25.2177 49.1236 25.2446 49.0679C25.2646 49.0679 25.2734 49.0945 25.2734 49.1455C25.275 49.1818 25.2689 49.2181 25.2557 49.252Z" fill="#3D8361"/>
<path id="Vector_6" d="M25.4976 49.6756C25.5345 49.5292 25.592 49.3888 25.6684 49.2587C25.7726 49.0746 25.8901 48.9815 25.9988 48.9815C26.05 48.9786 26.1008 48.9921 26.1439 49.02C26.1869 49.0479 26.22 49.0888 26.2383 49.1367C26.2903 49.2577 26.3153 49.3886 26.3115 49.5203C26.2963 49.7166 26.2666 49.9116 26.2228 50.1035C26.1928 50.2443 26.1772 50.3877 26.1762 50.5315C26.1819 50.6289 26.215 50.7227 26.2716 50.8021C26.3246 50.8728 26.3582 50.9561 26.3691 51.0438C26.3626 51.1149 26.3446 51.1846 26.3159 51.25C26.2917 51.3221 26.2582 51.3907 26.2161 51.454C26.1145 51.3934 26.0393 51.2969 26.0054 51.1835C25.9678 51.0659 25.9483 50.9433 25.9478 50.8198C25.9476 50.6823 25.9595 50.545 25.9833 50.4096C26.0077 50.2588 26.0276 50.1568 26.0431 50.1013C25.9549 50.1195 25.8646 50.1255 25.7748 50.1191C25.6905 50.1116 25.6117 50.0737 25.5531 50.0126C25.5176 49.9649 25.4941 49.9095 25.4844 49.8508C25.4748 49.7922 25.4793 49.7321 25.4976 49.6756ZM25.8635 49.4139C25.7926 49.4139 25.746 49.4294 25.7282 49.4627C25.7105 49.4863 25.7012 49.5152 25.7016 49.5447C25.7021 49.5688 25.7076 49.5926 25.7178 49.6145C25.728 49.6363 25.7426 49.6558 25.7608 49.6717C25.7789 49.6876 25.8002 49.6995 25.8233 49.7066C25.8463 49.7138 25.8706 49.716 25.8946 49.7133C26.0032 49.7133 26.0587 49.6711 26.0587 49.5869C26.0585 49.5641 26.0535 49.5416 26.0439 49.521C26.0343 49.5003 26.0205 49.482 26.0032 49.4671C25.985 49.4488 25.9632 49.4344 25.9391 49.4249C25.9151 49.4153 25.8894 49.4108 25.8635 49.4117V49.4139Z" fill="#3D8361"/>
<path id="Vector_7" d="M28.0125 49.252C27.9813 49.4033 27.921 49.5471 27.8351 49.6755C27.806 49.7265 27.7646 49.7692 27.7146 49.7998C27.6646 49.8305 27.6076 49.848 27.549 49.8507C27.505 49.8539 27.461 49.8439 27.4227 49.8219C27.3763 49.7926 27.3345 49.7568 27.2985 49.7154C27.2836 49.7602 27.2567 49.8001 27.2209 49.8308C27.1862 49.8571 27.146 49.8753 27.1033 49.884C27.1481 49.9847 27.1809 50.0904 27.2009 50.1989C27.2326 50.3558 27.2475 50.5156 27.2452 50.6756C27.2464 50.8361 27.2338 50.9963 27.2076 51.1546C27.1952 51.2595 27.1612 51.3607 27.1078 51.4518C27.0967 51.4518 27.0878 51.3742 27.0811 51.23C27.0778 51.1149 27.0674 51.0002 27.0501 50.8863C27.0179 50.6436 26.9507 50.4068 26.8505 50.1833C26.7529 49.9749 26.6576 49.7687 26.5645 49.558C26.5822 49.4937 26.5955 49.4427 26.6044 49.4072C26.6326 49.2946 26.6689 49.1842 26.713 49.0768C26.713 49.0768 26.7485 49.1078 26.7951 49.1744C26.831 49.2326 26.88 49.2817 26.9381 49.3179C26.9961 49.354 27.0618 49.3762 27.1299 49.3828C27.1982 49.3819 27.2637 49.3559 27.314 49.3096C27.3767 49.2476 27.4238 49.1716 27.4515 49.0879C27.485 49.1436 27.5252 49.195 27.5712 49.2409C27.5946 49.2637 27.6224 49.2816 27.6529 49.2934C27.6834 49.3053 27.7159 49.3108 27.7486 49.3096C27.7784 49.3104 27.808 49.3042 27.8349 49.2915C27.8619 49.2788 27.8855 49.2599 27.9039 49.2365C27.941 49.187 27.9737 49.1343 28.0014 49.079C28.0192 49.079 28.0303 49.1056 28.0303 49.1566C28.0295 49.1891 28.0235 49.2214 28.0125 49.252Z" fill="#3D8361"/>
<path id="Vector_8" d="M31.5649 49.8641C31.5064 49.9273 31.4282 49.9687 31.3431 49.9816C31.2411 50.0503 31.1679 50.0725 31.1213 50.0481C31.0724 50.0872 31.0188 50.12 30.9617 50.1457C30.8994 50.1744 30.8326 50.1924 30.7643 50.1989C30.7556 50.2132 30.7496 50.229 30.7466 50.2455C30.7143 50.568 30.6398 50.8849 30.5248 51.188C30.4418 51.4014 30.3331 51.604 30.2011 51.7911C30.0814 51.9787 29.9179 52.1343 29.7248 52.2448C29.5317 52.3553 29.3146 52.4172 29.0923 52.4254C28.9925 52.4263 28.8936 52.4072 28.8014 52.3691C28.7092 52.331 28.6256 52.2747 28.5556 52.2036C28.4152 52.0448 28.34 51.8389 28.345 51.627C28.3601 51.1763 28.4931 50.7374 28.7308 50.3542C28.7796 50.2632 28.8106 50.2344 28.8195 50.2677C28.8295 50.3002 28.8295 50.3349 28.8195 50.3675C28.6691 50.6359 28.5797 50.9342 28.5578 51.2412C28.5581 51.3235 28.5772 51.4047 28.6137 51.4785C28.6503 51.5523 28.7032 51.6168 28.7685 51.6669C28.9068 51.7659 29.0731 51.8179 29.2431 51.8155C29.496 51.8157 29.7442 51.7475 29.9616 51.6182C30.1285 51.5072 30.2693 51.3611 30.374 51.1902C30.5396 50.8882 30.6128 50.5443 30.5847 50.2011V50.0215C30.5847 49.8996 30.649 49.8397 30.7532 49.8375C30.7895 49.8388 30.8254 49.8455 30.8597 49.8574C30.9012 49.8729 30.9468 49.8729 30.9883 49.8574C31.0512 49.822 31.1045 49.7717 31.1435 49.7111C31.1568 49.7111 31.1746 49.7111 31.1945 49.7355C31.2175 49.7563 31.2477 49.7675 31.2788 49.7665C31.3098 49.7665 31.3387 49.7421 31.3653 49.6955C31.3919 49.649 31.4074 49.6312 31.4207 49.6423C31.4488 49.6565 31.4803 49.6626 31.5116 49.6601C31.5379 49.6562 31.563 49.6463 31.5848 49.6312L31.6092 49.6778C31.6176 49.7005 31.6214 49.7246 31.6203 49.7488C31.6215 49.7744 31.6177 49.8 31.6092 49.8242C31.5932 49.8361 31.5784 49.8494 31.5649 49.8641Z" fill="#3D8361"/>
<path id="Vector_9" d="M30.7469 52.4231C30.8245 52.2767 30.8733 52.2013 30.891 52.2013C30.9088 52.2013 30.9709 52.2124 31.033 52.2723C31.085 52.3211 31.1325 52.3745 31.1749 52.4319C31.2126 52.3676 31.2569 52.2989 31.3035 52.2102C31.3501 52.1215 31.3811 52.0926 31.3966 52.0926C31.4646 52.1047 31.5256 52.1419 31.5674 52.1969C31.6238 52.2487 31.6606 52.3184 31.6716 52.3942C31.6631 52.4895 31.626 52.5799 31.5652 52.6537C31.4964 52.7513 31.4454 52.8001 31.4144 52.8001C31.3833 52.8001 31.3545 52.7712 31.2991 52.7158C31.2535 52.6693 31.2046 52.6264 31.1527 52.5872C31.0485 52.7956 30.9664 52.8998 30.9043 52.8998C30.8794 52.8946 30.8568 52.8813 30.84 52.8621L30.7181 52.7801C30.6626 52.7335 30.6338 52.7047 30.6338 52.6936C30.6597 52.5989 30.6977 52.508 30.7469 52.4231ZM31.7603 48.8927C31.7337 48.8927 31.7027 48.9193 31.6694 48.9814C31.6198 49.0679 31.5903 49.1644 31.583 49.2638C31.5757 49.3632 31.5908 49.463 31.6273 49.5558C31.621 49.5693 31.6119 49.5814 31.6006 49.5912L31.5652 49.6201C31.5462 49.6593 31.5393 49.7033 31.5452 49.7465C31.5446 49.7851 31.5514 49.8235 31.5652 49.8596L31.6494 49.7775L31.6827 49.742L31.7204 49.7021C31.7448 49.6733 31.7625 49.6622 31.7781 49.6688H31.8291C31.8641 49.6758 31.8997 49.6795 31.9355 49.6799C31.9447 49.6451 31.9506 49.6094 31.9532 49.5735C31.9555 49.5299 31.9555 49.4862 31.9532 49.4427C31.9532 49.3961 31.9532 49.3495 31.9532 49.3007C31.9498 49.2546 31.9439 49.2087 31.9355 49.1632C31.8955 49.1518 31.8602 49.1276 31.835 49.0945C31.8099 49.0613 31.7961 49.0208 31.7958 48.9792C31.7891 48.926 31.7781 48.8927 31.7603 48.8927Z" fill="#3D8361"/>
<path id="Vector_10" d="M31.9353 49.1744C32.0206 49.2007 32.1118 49.2007 32.197 49.1744C32.2934 49.1368 32.3821 49.0819 32.4587 49.0125C32.51 48.9588 32.5709 48.9151 32.6383 48.8839C32.6738 48.8736 32.7115 48.8736 32.747 48.8839C32.8092 48.862 32.8623 48.8198 32.8978 48.7641C32.9488 48.6932 32.9865 48.6577 33.0131 48.6577H33.0574C33.073 48.6577 33.0929 48.6399 33.1151 48.6089C33.1391 48.5719 33.1591 48.5325 33.175 48.4914C33.1905 48.4426 33.2038 48.4204 33.2171 48.4204C33.2304 48.4204 33.2437 48.4315 33.2437 48.4625C33.249 48.4971 33.249 48.5322 33.2437 48.5668C33.2289 48.6679 33.1909 48.7643 33.1328 48.8484C33.1005 48.8891 33.0624 48.925 33.0197 48.9548L32.9222 49.0036C32.7913 49.13 32.7004 49.1965 32.6716 49.201L32.5651 49.2187C32.5328 49.2246 32.5023 49.2383 32.4764 49.2586C32.4301 49.2984 32.3897 49.3448 32.3567 49.3961C32.3161 49.4532 32.2724 49.508 32.2258 49.5602C32.1919 49.6031 32.1492 49.6383 32.1007 49.6635C32.0521 49.6887 31.9988 49.7034 31.9442 49.7066C31.9442 49.6201 31.9265 49.5336 31.9154 49.4471C31.9012 49.3559 31.9081 49.2626 31.9353 49.1744Z" fill="#3D8361"/>
<path id="Vector_11" d="M33.6826 50.3407C33.6826 50.5625 33.7203 50.7199 33.8156 50.7843C33.8375 50.8009 33.8627 50.8126 33.8894 50.8188C33.9162 50.8249 33.944 50.8252 33.9709 50.8197C33.9949 50.8152 34.0177 50.8058 34.038 50.7921C34.0582 50.7784 34.0754 50.7606 34.0884 50.7399C34.119 50.694 34.1429 50.644 34.1594 50.5913C34.1793 50.5337 34.1971 50.5071 34.2148 50.5071C34.2325 50.5071 34.2436 50.527 34.2414 50.5669C34.2309 50.6806 34.2086 50.7928 34.1749 50.9018C34.1422 51.0384 34.086 51.1682 34.0086 51.2854C33.9806 51.3301 33.9426 51.3677 33.8976 51.395C33.8525 51.4224 33.8017 51.4387 33.7491 51.4429C33.6963 51.4398 33.6455 51.4216 33.6027 51.3906C33.5598 51.3596 33.5268 51.3169 33.5074 51.2677C33.4516 51.1315 33.4273 50.9844 33.4364 50.8375C33.4364 50.7089 33.4542 50.5026 33.4897 50.2188C33.5207 49.9349 33.5628 49.6311 33.6138 49.3074C33.6449 49.2142 33.707 49.0479 33.8001 48.8106C33.8112 48.7885 33.8201 48.7796 33.8312 48.7818C33.8422 48.784 33.8467 48.7951 33.8467 48.8106C33.8467 48.9282 33.8179 49.1521 33.7757 49.4759C33.7336 49.7997 33.7025 50.0946 33.6826 50.3407ZM34.0396 48.6598C34.0671 48.5685 34.1067 48.4813 34.1571 48.4004C34.2348 48.254 34.2835 48.1786 34.3013 48.1786C34.319 48.1786 34.3811 48.1786 34.4432 48.2474C34.4952 48.2962 34.5427 48.3497 34.5851 48.407L34.7137 48.1853C34.7603 48.1077 34.7914 48.0677 34.8069 48.0677C34.8754 48.08 34.9365 48.1181 34.9776 48.1742C35.0339 48.2252 35.0708 48.2942 35.0819 48.3693C35.0733 48.4646 35.0362 48.555 34.9754 48.6288C34.9067 48.7264 34.8557 48.7752 34.8246 48.7752C34.7936 48.7752 34.7648 48.7463 34.7093 48.6909C34.6638 48.6444 34.6149 48.6015 34.563 48.5623C34.4587 48.7707 34.3767 48.8749 34.3146 48.8749C34.2887 48.8705 34.2652 48.8571 34.2481 48.8372L34.1239 48.7352C34.0662 48.6998 34.044 48.6709 34.044 48.6598H34.0396Z" fill="#3D8361"/>
<path id="Vector_12" d="M18.6118 27.7838C18.4366 27.9568 18.2681 28.1475 18.0752 28.3094C17.8713 28.4759 17.6581 28.6307 17.4365 28.7728C17.3304 28.8456 17.2089 28.8927 17.0815 28.9104C16.9541 28.9281 16.8244 28.9159 16.7025 28.8748C16.4652 28.8061 16.2302 28.7307 15.9973 28.6531C15.5316 28.4979 15.4806 28.5245 15.3875 28.9835C14.2432 28.5821 13.1943 27.2272 13.1699 26.1007C13.7731 26.3402 14.3851 26.5087 15.026 26.3224C15.4163 26.2116 15.7933 26.0519 16.2146 25.9011C15.1059 24.7768 14.7887 23.413 14.6246 21.9849C15.6115 21.8385 16.5894 21.7454 17.5407 21.5414C18.4921 21.3374 19.4057 21.018 20.3193 20.7542C20.2313 20.8611 20.1273 20.9538 20.0111 21.0291C19.6269 21.2324 19.2263 21.403 18.8136 21.5392C17.5947 21.9102 16.3449 22.1707 15.0792 22.3175C15.1385 22.9318 15.3012 23.5316 15.5604 24.0916C16.5694 26.3091 19.0065 27.1341 21.131 25.9521C21.2684 25.8778 21.3997 25.7925 21.5235 25.6971C21.8118 25.4753 22.0779 25.2137 22.0202 24.8101C21.9958 24.5909 21.9118 24.3826 21.7773 24.2079C21.6428 24.0331 21.463 23.8985 21.2574 23.8188C20.8351 23.6672 20.3748 23.6578 19.9468 23.7922C19.7738 23.8343 19.6031 23.892 19.4079 23.9496C20.0732 23.3598 21.3039 23.3043 21.9714 23.8166C22.1037 23.8994 22.2171 24.0093 22.304 24.1389C22.3909 24.2686 22.4495 24.4152 22.4758 24.569C22.5022 24.7229 22.4958 24.8806 22.457 25.0318C22.4183 25.183 22.348 25.3243 22.2508 25.4465C21.9759 25.8516 21.5966 26.1749 21.1531 26.3823C19.6563 27.123 18.175 27.1163 16.718 26.2626C16.6007 26.1969 16.4629 26.1779 16.3322 26.2093C16.104 26.2793 15.8868 26.3808 15.6869 26.5109C15.3812 26.7234 15.0251 26.8518 14.6542 26.8833C14.2833 26.9149 13.9106 26.8484 13.5735 26.6905C13.8441 27.4667 14.3763 27.9546 15.0172 28.3825C15.1835 28.01 15.4806 28.041 15.7889 28.1298C16.0594 28.2074 16.3255 28.2916 16.5916 28.3737C16.7864 28.4459 16.9973 28.4635 17.2014 28.4244C17.4054 28.3853 17.5949 28.2911 17.7492 28.1519C18.0574 27.8814 18.3612 27.6042 18.6872 27.3137L18.8535 27.5354C19.5898 28.4513 20.4635 29.1653 21.6454 29.4137C21.8788 29.4621 22.1167 29.4852 22.3551 29.4825C22.4276 29.4925 22.5015 29.4866 22.5716 29.4651C22.6416 29.4436 22.7062 29.4071 22.7606 29.3581C22.8151 29.3091 22.8582 29.2488 22.887 29.1815C22.9158 29.1141 22.9295 29.0412 22.9272 28.968C22.9326 28.7303 22.923 28.4926 22.8983 28.2561C22.9693 28.2561 23.0558 28.2451 23.1423 28.2451C23.7702 28.2678 24.3946 28.1425 24.9651 27.8792C25.0466 27.839 25.1252 27.793 25.2002 27.7417C25.3044 27.6663 25.3244 27.5864 25.229 27.4756C25.1736 27.4113 25.1159 27.276 25.1447 27.2361C25.176 27.1912 25.2161 27.1533 25.2627 27.1247C25.3092 27.0961 25.3612 27.0774 25.4153 27.0698C26.0118 27.1097 26.4132 26.746 26.8257 26.4045C26.8966 26.3468 26.9144 26.2271 26.9543 26.1339C26.8567 26.1051 26.7547 26.0386 26.6638 26.0519C26.2646 26.1095 25.8721 26.2138 25.4707 26.2581C25.0958 26.3072 24.7168 26.3176 24.3398 26.2892C23.7322 26.2249 23.3064 25.8789 23.027 25.2713C23.282 25.3888 23.4838 25.4931 23.6922 25.5751C24.2963 25.8284 24.958 25.912 25.606 25.8168C25.8654 25.7791 26.1293 25.7503 26.391 25.7193C26.4888 25.7056 26.5873 25.6975 26.6859 25.6949C26.9365 25.6949 27.2514 25.6239 27.3512 25.9166C27.451 26.2093 27.2004 26.3757 27.0119 26.5198C26.6394 26.8059 26.2402 27.052 25.8632 27.3314C25.762 27.4264 25.674 27.5346 25.6016 27.653C25.4915 27.8403 25.3548 28.0106 25.1957 28.1586C24.648 28.54 24.0049 28.6597 23.353 28.7351L23.1312 28.7595C23.1157 28.7595 23.1046 28.7773 23.0979 28.7817C23.0979 28.9569 23.1268 29.1299 23.1201 29.2984C23.1258 29.3711 23.116 29.4443 23.0914 29.513C23.0667 29.5816 23.0276 29.6443 22.9769 29.6967C22.9261 29.7491 22.8648 29.7902 22.797 29.8171C22.7291 29.844 22.6564 29.8562 22.5835 29.8528C20.9092 30.0014 19.643 29.3228 18.7249 27.9435L18.6273 27.8015C18.6273 27.8015 18.6318 27.7905 18.6118 27.7838Z" fill="#3D8361"/>
<path id="Vector_13" d="M17.1635 19.9846C17.0379 19.5131 17.0085 19.0212 17.0771 18.5381C17.1457 18.055 17.3108 17.5906 17.5627 17.1727C17.9153 16.5829 18.5207 16.5186 18.9864 17.0242C19.2358 17.3395 19.4668 17.669 19.6782 18.011C19.7674 18.1235 19.8645 18.2294 19.9687 18.3281C20.0711 18.2278 20.1598 18.1145 20.2326 17.991C20.4167 17.5675 20.5653 17.1306 20.7515 16.7093C20.8866 16.3732 21.0537 16.0509 21.2505 15.7469C21.9557 14.7401 23.1798 14.6691 23.987 15.5938C24.2552 15.9162 24.4893 16.2655 24.6855 16.6361C25.0536 17.3014 25.5259 18.6962 25.5525 19.1996C25.5237 19.1264 25.4927 19.0532 25.4638 18.9778C25.1903 18.1903 24.8098 17.4441 24.3329 16.7603C24.0933 16.4272 23.809 16.1287 23.488 15.8733C23.3392 15.746 23.1647 15.6523 22.9763 15.5987C22.788 15.5451 22.5903 15.5329 22.3967 15.5628C22.2032 15.5927 22.0184 15.664 21.855 15.772C21.6916 15.8799 21.5535 16.0219 21.4501 16.1881C21.2078 16.5885 20.9901 17.0032 20.7981 17.43C20.6593 17.7186 20.5031 17.9986 20.3302 18.2682C20.1328 18.5476 19.9355 18.5498 19.6938 18.3059C19.5075 18.1196 19.3478 17.9068 19.1682 17.716C18.5961 17.1151 17.9042 17.1993 17.474 17.9178C17.2379 18.3464 17.1208 18.8303 17.1347 19.3193C17.1303 19.5411 17.1524 19.7628 17.1635 19.9846Z" fill="#3D8361"/>
<path id="Vector_14" d="M24.0141 18.2439C24.033 18.6662 23.9181 19.0837 23.686 19.4369C23.593 19.6055 23.4516 19.7424 23.2801 19.8298C23.1086 19.9172 22.9148 19.9511 22.7238 19.9272C22.5328 19.9034 22.3533 19.8227 22.2086 19.6958C22.0638 19.5689 21.9605 19.4015 21.9119 19.2152C21.8261 18.9697 21.7908 18.7094 21.8079 18.4499C21.8251 18.1905 21.8944 17.9371 22.0117 17.705C22.1004 17.4852 22.2609 17.3018 22.467 17.1847C22.6731 17.0675 22.9128 17.0235 23.1471 17.0597C23.5906 17.1329 23.9011 17.4877 23.9853 18.0088C24.0031 18.0776 24.0075 18.1619 24.0141 18.2439ZM23.5706 18.1951C23.5651 18.082 23.526 17.9732 23.4583 17.8825C23.3907 17.7917 23.2975 17.7231 23.1908 17.6855C23.084 17.6479 22.9684 17.643 22.8588 17.6713C22.7492 17.6996 22.6506 17.7599 22.5754 17.8445C22.5002 17.9292 22.4519 18.0343 22.4367 18.1464C22.4215 18.2586 22.44 18.3728 22.4899 18.4744C22.5398 18.576 22.6188 18.6604 22.7169 18.7169C22.815 18.7734 22.9277 18.7994 23.0406 18.7916C23.1155 18.7874 23.1887 18.7683 23.256 18.7355C23.3234 18.7026 23.3835 18.6567 23.4328 18.6003C23.4822 18.5439 23.5198 18.4782 23.5435 18.4071C23.5671 18.336 23.5764 18.261 23.5706 18.1862V18.1951Z" fill="#3D8361"/>
<path id="Vector_15" d="M29.7506 21.5125C30.1333 21.167 30.4192 20.7274 30.5799 20.2374C30.6432 20.0207 30.647 19.7909 30.591 19.5721C30.5383 19.3739 30.4204 19.1991 30.2562 19.076C30.0921 18.9529 29.8913 18.8887 29.6862 18.8936C29.4746 18.8765 29.2628 18.9235 29.0781 19.0282C28.8935 19.133 28.7446 19.2908 28.6506 19.4812C28.6174 19.5433 28.5885 19.6076 28.5398 19.703C28.4156 19.3171 28.3845 18.9845 28.6196 18.6829C28.7381 18.516 28.9012 18.3858 29.0902 18.3074C29.2793 18.2289 29.4866 18.2054 29.6885 18.2394C30.0019 18.3009 30.2905 18.453 30.5183 18.6769C30.7461 18.9008 30.9033 19.1866 30.9702 19.499C31.0826 20.0025 31.016 20.5295 30.7817 20.9892C30.6924 21.1785 30.5426 21.3328 30.3558 21.4276C30.1691 21.5223 29.9561 21.5522 29.7506 21.5125Z" fill="#3D8361"/>
<path id="Vector_16" d="M19.4861 19.1509C19.5015 19.5037 19.4044 19.8524 19.2089 20.1466C19.1317 20.272 19.0195 20.3722 18.886 20.4346C18.7526 20.497 18.6038 20.5189 18.458 20.4977C18.3122 20.4765 18.1758 20.413 18.0657 20.3151C17.9556 20.2172 17.8766 20.0893 17.8384 19.947C17.77 19.7522 17.7422 19.5455 17.7567 19.3395C17.7712 19.1336 17.8277 18.9328 17.9227 18.7495C17.9919 18.5848 18.1129 18.4472 18.2674 18.3575C18.4218 18.2679 18.6014 18.2311 18.7787 18.2528C18.9536 18.2816 19.1139 18.3679 19.2344 18.498C19.3549 18.6281 19.4286 18.7946 19.4439 18.9712C19.4661 19.0356 19.4772 19.0999 19.4861 19.1509ZM18.466 19.6809C18.5602 19.679 18.6517 19.6492 18.7289 19.5952C18.8061 19.5412 18.8655 19.4654 18.8994 19.3775C18.9334 19.2896 18.9405 19.1936 18.9197 19.1017C18.8989 19.0098 18.8512 18.9262 18.7827 18.8615C18.7143 18.7968 18.6281 18.7539 18.5351 18.7384C18.4422 18.7228 18.3468 18.7353 18.2609 18.7742C18.1751 18.813 18.1028 18.8766 18.0532 18.9567C18.0037 19.0368 17.9791 19.1299 17.9826 19.2241C17.9883 19.348 18.0419 19.4648 18.1321 19.5501C18.2222 19.6353 18.3419 19.6821 18.466 19.6809Z" fill="#3D8361"/>
<path id="Vector_17" d="M25.0204 15.2812C23.8274 14.4252 22.6077 13.8087 21.1397 14.6669C21.1382 14.4621 21.2062 14.2628 21.3327 14.1016C21.4592 13.9405 21.6367 13.8271 21.836 13.7799C22.2398 13.6578 22.6695 13.6493 23.0778 13.7555C23.9515 13.9728 24.5348 14.5693 25.0204 15.2812Z" fill="#3D8361"/>
<path id="Vector_18" d="M19.3396 15.5252C19.0868 15.5052 18.8518 15.4719 18.6145 15.4697C18.3787 15.4619 18.1445 15.5101 17.9309 15.6103C17.7174 15.7105 17.5306 15.8599 17.386 16.0463C17.1398 16.3612 16.9425 16.7116 16.7207 17.0508C16.6852 17.1018 16.6586 17.1595 16.6143 17.2393C16.6135 16.698 16.7814 16.17 17.0946 15.7284C17.4077 15.2869 17.8506 14.9539 18.3617 14.7756C18.9649 14.5916 19.3374 14.871 19.3396 15.5252Z" fill="#3D8361"/>
<path id="Vector_19" d="M22.1798 20.3195C23.0956 20.2729 23.7675 20.7985 23.8097 21.5968C23.8192 21.7865 23.7909 21.9763 23.7266 22.155C23.6622 22.3337 23.563 22.4979 23.4347 22.6379C23.3064 22.778 23.1515 22.8912 22.9791 22.971C22.8067 23.0507 22.6202 23.0954 22.4303 23.1025C21.5278 23.1536 20.8226 22.5836 20.7849 21.772C20.7472 20.9604 21.3393 20.3639 22.1798 20.3195ZM22.2308 20.4725C21.9945 20.4617 21.76 20.5185 21.555 20.6364C21.3499 20.7542 21.1828 20.9282 21.0732 21.1378C20.9703 21.3271 20.9208 21.5409 20.9302 21.7561C20.9396 21.9714 21.0074 22.18 21.1264 22.3597C21.2931 22.5968 21.5286 22.7771 21.801 22.8763C22.0734 22.9754 22.3697 22.9886 22.6499 22.9141C22.8233 22.8784 22.9873 22.8068 23.1314 22.7039C23.2754 22.6009 23.3963 22.4689 23.4861 22.3164C23.576 22.1638 23.6328 21.9941 23.653 21.8182C23.6732 21.6424 23.6563 21.4642 23.6034 21.2952C23.4349 20.7608 22.9249 20.457 22.2308 20.4725Z" fill="#3D8361"/>
<path id="Vector_20" d="M23.9434 20.8317C23.9817 20.6298 24.0791 20.4439 24.2232 20.2974C24.3672 20.151 24.5516 20.0506 24.7528 20.009C25.2614 19.9239 25.7761 19.8809 26.2918 19.8804C26.4614 19.904 26.6215 19.9729 26.7552 20.0799C26.7807 20.1102 26.7976 20.1467 26.8043 20.1857C26.8109 20.2247 26.807 20.2647 26.7929 20.3017C26.7684 20.3385 26.7355 20.3689 26.697 20.3905C26.6584 20.4121 26.6153 20.4242 26.5712 20.4259C25.3426 20.2396 25.1741 20.2596 23.9434 20.8317Z" fill="#3D8361"/>
<path id="Vector_21" d="M29.567 19.3638L30.2056 20.0468L29.2809 20.712C29.2326 20.6113 29.2148 20.4986 29.2298 20.3879C29.2447 20.2771 29.2918 20.1732 29.3652 20.0889C29.4029 20.0379 29.4517 19.9359 29.4295 19.9071C29.2654 19.6698 29.4162 19.5367 29.567 19.3638Z" fill="#3D8361"/>
<path id="Vector_22" d="M21.7432 20.7586C22.1867 20.6721 22.6413 20.6033 23.0737 20.885C23.2216 20.9846 23.3388 21.1235 23.4121 21.2861C23.4853 21.4487 23.5118 21.6285 23.4884 21.8053C23.4765 21.9284 23.4354 22.047 23.3686 22.1512C23.3043 21.7387 23.2977 21.2775 22.8941 21.0779C22.5219 20.9338 22.1364 20.8268 21.7432 20.7586Z" fill="#3D8361"/>
<path id="Vector_23" d="M7.05662 11.039C7.55778 12.0569 8.32728 12.2476 9.12338 12.2077C11.2589 12.0968 13.3944 11.9549 15.5255 11.7642C19.3463 11.4116 23.1605 10.9614 26.9858 10.6554C28.0409 10.5969 29.0982 10.7184 30.1126 11.0146C31.9044 11.5025 32.9688 13.9551 32.2392 15.6715C32.1993 15.7669 32.0951 15.8356 31.8999 16.0463C31.8467 15.6028 31.8157 15.2901 31.7735 14.9885C31.585 13.6181 30.7778 12.7843 29.4296 12.4782C27.5624 12.0569 25.7085 12.3208 23.848 12.5071C19.4128 12.9506 14.9933 13.3941 10.5648 13.8221C10.4273 13.8354 10.2943 13.8753 10.0259 13.9307C11.0682 14.8643 11.9663 15.7735 12.086 17.1395C12.126 17.6075 12.086 18.0798 12.1016 18.7051C11.9197 18.51 11.8332 18.4612 11.8332 18.4124C11.8332 16.3878 10.3719 15.4919 8.90828 14.5805C8.33651 14.2535 7.8089 13.8548 7.33825 13.3941C6.77942 12.782 6.76833 12.017 7.05662 11.039Z" fill="#3D8361"/>
<path id="Vector_24" d="M31.7707 20.6255C31.713 18.929 31.2451 17.2858 30.1785 16.0351C29.6599 15.378 28.9059 14.9486 28.0762 14.8376C29.2961 15.5838 30.2325 16.7152 30.7373 18.0531C31.733 20.6077 31.1187 23.4063 29.7949 25.5374C26.7169 30.4958 20.8381 32.5182 15.7954 30.5535C13.2962 29.5778 11.3204 27.3491 12.0078 24.1226C12.0788 23.801 12.0965 23.4573 12.1409 23.1291L11.908 22.9073C11.6863 23.1624 11.3448 23.3708 11.2738 23.6768C10.4866 26.9832 11.9657 30.2474 14.4405 32.0259C15.8724 33.0612 17.5587 33.6882 19.3191 33.8399C19.997 33.8951 20.6789 33.8758 21.3526 33.7822C22.6671 33.5938 23.9328 33.1533 25.0803 32.485C26.2707 31.7928 27.3409 30.9121 28.2492 29.8771C30.3315 27.511 31.8904 24.1736 31.7707 20.6255Z" fill="#3D8361"/>
<path id="Vector_25" d="M47.3733 36.1351V36.1617C47.3802 36.2765 47.3573 36.3911 47.3068 36.4944C46.8742 37.567 46.1986 38.5246 45.3332 39.2919C44.4678 40.0592 43.4362 40.6152 42.3195 40.9162C41.7895 41.0559 41.1597 41.1113 40.7517 40.7454C40.3902 40.4217 40.3348 39.8761 40.3769 39.3905C40.49 38.06 41.1375 36.8447 41.3903 35.5386C41.2648 35.6028 41.1333 35.6548 40.9978 35.6938C40.8515 35.7581 40.7073 35.8269 40.5654 35.9023C40.2809 36.0514 40.0081 36.2219 39.7493 36.4123C39.2316 36.7951 38.7786 37.2586 38.4077 37.785C36.7894 40.1497 34.4191 41.8979 31.6819 42.7457C31.1792 42.9028 30.6445 42.9272 30.1296 42.8166C29.8147 42.7412 29.3423 42.2378 29.3845 42.0094C29.4488 41.6657 29.8479 41.2732 30.1983 41.1224C31.2583 40.6434 32.3848 40.313 33.4448 39.8384C35.2344 39.0423 36.6071 37.7318 37.8955 36.2682C38.443 35.6655 39.0361 35.1057 39.6695 34.5939C40.2172 34.1371 40.7783 33.5361 41.5167 33.4186C41.7045 33.3808 41.8996 33.4065 42.0711 33.4918C42.2078 33.5762 42.3178 33.6977 42.3882 33.8422C42.6566 34.35 42.5967 34.9665 42.457 35.5231C42.2241 36.4567 41.7917 37.3548 41.7496 38.3172C41.7449 38.3544 41.7536 38.3921 41.774 38.4236C41.795 38.4427 41.8213 38.4551 41.8494 38.4591C42.2401 38.5437 42.6473 38.5089 43.018 38.3593C43.3864 38.211 43.7386 38.0252 44.0691 37.8049L46.9741 36.0176C47.0268 35.9791 47.0888 35.9553 47.1538 35.9488C47.2056 35.9519 47.2551 35.9717 47.2947 36.0053C47.3342 36.0389 47.3619 36.0845 47.3733 36.1351Z" fill="#3D8361"/>
<path id="Vector_26" d="M23.4508 38.448C23.6726 38.0489 24.5596 37.643 24.7969 37.5255C26.3669 36.7205 27.9747 35.9732 29.4538 35.0175C30.8561 34.1301 32.1606 33.0969 33.3456 31.935C33.9735 31.3112 34.471 30.5687 34.8092 29.7508C36.0998 26.5264 37.7984 25.3378 41.2534 25.4465C41.3586 25.4587 41.4594 25.4959 41.5473 25.5549C41.6352 25.6139 41.7078 25.693 41.759 25.7858C41.9608 26.6196 40.9895 27.7971 40.1224 27.8281C37.0179 27.939 36.6542 28.2583 35.4656 31.1966C35.0658 32.1366 34.4977 32.9956 33.7891 33.7313C31.5228 36.1484 28.722 38.091 25.4533 38.8095C25.0608 38.896 24.6616 38.9625 24.2625 39.0113C24.0279 39.0641 23.7821 39.0302 23.5706 38.9159C23.529 38.896 23.4924 38.8673 23.4631 38.8317C23.4339 38.7961 23.4129 38.7546 23.4014 38.7099C23.39 38.6653 23.3885 38.6188 23.3971 38.5735C23.4056 38.5282 23.424 38.4854 23.4508 38.448Z" fill="#3D8361"/>
<path id="Vector_27" d="M24.7302 11.09C24.484 9.65526 24.4729 9.49338 23.0204 9.53773C20.9027 9.60204 18.7938 9.91028 16.6849 10.1387C16.2414 10.1875 15.8134 10.3871 15.3699 10.4381C14.8908 10.4695 14.4104 10.4754 13.9307 10.4558C13.9522 9.89385 14.004 9.33347 14.0859 8.77711C14.1169 8.61744 14.4207 8.42451 14.6203 8.3979C16.3035 8.17614 17.9888 7.92556 19.6808 7.79251C21.1089 7.67941 22.5636 7.57075 23.9784 7.70602C25.921 7.89895 26.2692 8.83698 25.1959 10.5112C25.0828 10.6798 24.9364 10.8283 24.7302 11.09Z" fill="#3D8361"/>
<path id="Vector_28" d="M20.5166 36.7406C20.5162 36.6787 20.5327 36.6179 20.5644 36.5647C20.596 36.5116 20.6416 36.4681 20.6962 36.439C21.6786 35.8047 22.7541 35.2814 23.7676 34.6937C24.8675 34.0566 25.9629 33.4142 27.054 32.7667C28.4754 31.924 29.8902 30.9039 30.8238 29.5135C31.1761 28.9852 31.4818 28.4272 31.7375 27.8459C31.8767 27.5882 32.0385 27.3433 32.2209 27.1141L32.4959 27.1607C32.5136 27.4867 32.6134 27.826 32.5402 28.132C32.1163 29.9832 31.1413 31.6625 29.7439 32.9485C27.9706 34.5528 25.9426 35.8508 23.7432 36.7893C22.8162 37.1796 21.6963 37.4546 20.7494 36.9867C20.699 36.9673 20.6532 36.9376 20.615 36.8994C20.5768 36.8612 20.5471 36.8154 20.5277 36.765C20.5229 36.7574 20.5191 36.7492 20.5166 36.7406Z" fill="#3D8361"/>
<path id="Vector_29" d="M26.8031 40.1689C26.8431 39.9205 27.169 39.7919 27.3553 39.6722C28.7967 38.7475 30.2936 37.9114 31.766 37.0399C33.1964 36.1906 34.742 35.3369 35.9794 34.2259C36.8154 33.4785 37.4718 32.5427 38.2369 31.7289C38.2945 32.2212 38.4365 32.5494 38.3411 32.78C38.0706 33.4453 37.7956 34.1305 37.3587 34.676C35.7133 36.7317 33.7064 38.4237 31.2959 39.4526C29.9853 40.0137 28.6992 40.8364 27.2112 40.6146C27.1565 40.608 27.1029 40.5946 27.0515 40.5747C26.9744 40.5395 26.9096 40.482 26.8653 40.4097C26.8211 40.3375 26.7994 40.2536 26.8031 40.1689Z" fill="#3D8361"/>
<path id="Vector_30" d="M39.8672 48.8196L43.8588 44.5818L43.6792 44.2359C43.0006 44.3445 42.3154 44.4333 41.6412 44.5685C40.6256 44.7748 40.3284 44.5197 40.6034 43.5285C40.7387 43.0429 40.9782 42.2645 41.2864 42.198C42.4065 41.9871 43.5493 41.923 44.6859 42.0072C44.8811 42.0206 45.1938 42.9431 45.1516 43.4176C45.0644 44.4626 44.7506 45.4761 44.2321 46.3875C43.7136 47.2989 43.0028 48.0865 42.1491 48.6954C41.5658 49.1456 40.9183 49.6135 39.8672 48.8196Z" fill="#3D8361"/>
<path id="Vector_31" d="M36.5124 45.593C36.0689 46.1097 35.7829 46.5798 35.3637 46.8614C35.2418 46.9435 34.6985 46.551 34.4523 46.2804C33.5498 45.298 33.5276 44.8412 34.3392 43.8411C34.4745 43.6726 34.9934 43.5528 35.0666 43.6415C35.5633 44.2247 35.9891 44.8656 36.5124 45.593Z" fill="#3D8361"/>
<path id="Vector_32" d="M37.0558 22.1357L35.6543 23.7301C35.1288 23.2334 34.2417 22.7765 34.1819 22.231C34.122 21.6855 34.9292 21.0912 35.3572 20.5168L37.0558 22.1357Z" fill="#3D8361"/>
</g>
<defs>
<clipPath id="clip0_4784_16282">
<rect width="56" height="56" fill="white"/>
</clipPath>
</defs>
</svg>
