<svg width="43" height="40" viewBox="0 0 43 40" fill="none" xmlns="http://www.w3.org/2000/svg">
<g clip-path="url(#clip0_2238_24728)">
<path d="M21.1122 0.0662874C22.3389 0.0912874 22.7629 0.841287 22.5851 1.97649C22.4631 2.75438 22.2278 3.49588 21.8792 4.20098C21.8768 4.20574 21.8732 4.2071 21.8685 4.20506V4.20455C21.8634 4.20251 21.8617 4.19911 21.8634 4.19435C22.1172 3.48363 22.2793 2.35455 21.3915 1.98006C20.8222 1.73976 19.9945 1.87241 19.3926 1.99384C17.9533 2.28414 16.537 2.71629 15.1217 3.10659C14.4484 3.29282 13.7328 3.47037 13.0346 3.51884C11.9103 3.59639 11.9108 2.91067 12.4164 2.16067C12.4466 2.11578 12.4796 2.08704 12.5153 2.07445C13.9929 1.54962 15.4905 1.08942 17.0079 0.693838C17.9739 0.442138 18.9516 0.252172 19.941 0.12394C20.3015 0.0770016 20.6919 0.057784 21.1122 0.0662874Z" fill="#3D8361"/>
<path d="M3.18017 8.13367C3.14551 8.11735 3.13328 8.12755 3.14347 8.16428C3.42225 9.14745 3.64192 10.1393 3.7464 11.151C3.80891 11.7565 3.85546 12.3633 3.88604 12.9714C3.90405 13.3275 3.90235 13.6633 3.88094 13.9786C3.87619 14.0473 3.87262 14.0473 3.87024 13.9786C3.83151 12.7878 3.64752 11.6066 3.31828 10.4352C3.09811 9.65221 2.77482 8.91479 2.34841 8.22296C1.95546 7.5852 1.54315 7.05357 1.13593 6.47704C0.475419 5.54286 0.110504 4.43367 0.0340559 3.2949C0.0296389 3.23231 0.0423803 3.22874 0.0722802 3.28418C1.39892 5.76479 3.87024 7.48112 6.76662 7.20918C8.06081 7.08775 9.53864 6.84013 11.2001 6.46632C12.3496 6.20782 13.8464 5.85663 15.6907 5.41275C17.5917 4.9551 19.6645 4.54898 21.6481 4.48877C22.7418 4.4551 23.8564 4.5852 24.9369 4.88826C25.7391 5.11343 26.4632 5.48792 27.1091 6.01173C28.5167 7.15408 29.1202 8.7102 29.1961 10.4852C29.2372 11.4522 29.0587 12.3752 28.6605 13.2541C28.1166 14.4541 27.2737 15.574 26.3053 16.4469C26.2268 16.5173 26.2173 16.509 26.2768 16.4219C26.8962 15.5131 27.4023 14.5405 27.7951 13.5041C27.9337 13.1388 28.0329 12.8139 28.0927 12.5296C28.5223 10.4832 27.8282 8.12551 25.9058 7.06275C24.0297 6.02551 21.6873 6.04949 19.6349 6.35561C17.4964 6.675 15.3844 7.22194 13.2882 7.74541C10.6125 8.41326 7.75586 9.02959 4.98639 8.65714C4.34558 8.57109 3.74351 8.3966 3.18017 8.13367Z" fill="#3D8361"/>
<path d="M12.9782 28.0679C10.1241 28.1899 7.02948 27.5842 4.85936 25.5827C3.70448 24.5169 2.91247 23.0169 2.86864 21.4194C2.84316 20.4919 2.96055 19.5814 3.22082 18.6878C3.24596 18.6011 3.27586 18.5245 3.31052 18.4582C3.33396 18.4126 3.34228 18.4154 3.33549 18.4664C3.11838 20.0853 3.31154 21.9817 4.34053 23.3082C5.57033 24.8929 7.59622 25.7312 9.50743 26.0985C12.1104 26.5992 14.6748 26.4575 17.2007 25.6735C21.1567 24.4455 24.4113 21.1348 24.8685 16.9072C24.9541 16.1149 25.0499 15.271 24.9414 14.4781C24.4597 10.9715 21.7586 8.18271 18.2221 7.77914C18.2153 7.77846 18.2122 7.77472 18.2129 7.76792V7.76741C18.2132 7.7606 18.2168 7.7572 18.2236 7.7572C19.934 7.81077 21.6378 8.64751 22.9221 9.73526C24.1748 10.797 24.9444 12.3552 25.4143 13.9057C25.7065 14.8689 25.8271 15.863 25.7762 16.8878C25.6946 18.5297 25.1977 20.0827 24.4521 21.5302C23.0026 24.3429 20.5976 26.1598 17.6308 27.1521C16.1411 27.6506 14.5143 28.0021 12.9782 28.0679Z" fill="#3D8361"/>
<path d="M17.4541 10.176C17.4582 10.1832 17.4629 10.1901 17.4684 10.1969C17.4793 10.2109 17.476 10.2165 17.4587 10.2138C17.4488 10.2124 17.4398 10.208 17.4317 10.2005C16.9431 9.75698 16.3964 9.40392 15.7916 9.14133C15.0088 8.80154 14.1699 8.9199 13.4237 9.29184C13.4044 9.30137 13.3957 9.29541 13.3978 9.27399C13.4518 8.69643 13.9813 8.40307 14.5063 8.36378C15.8252 8.26582 16.8288 9.10001 17.4541 10.176Z" fill="#3D8361"/>
<path d="M11.0246 9.24028C11.4211 9.31834 11.572 9.75507 11.5414 10.1168C11.54 10.1304 11.5331 10.135 11.5205 10.1306C10.9405 9.92701 10.2173 9.93722 9.71683 10.3265C9.26119 10.6806 8.8764 11.2632 8.64196 11.7658C8.59677 11.8624 8.58335 11.8581 8.6017 11.753C8.8183 10.5071 9.43906 9.4765 10.7713 9.22599C10.8325 9.21443 10.9169 9.21919 11.0246 9.24028Z" fill="#3D8361"/>
<path d="M17.8491 14.5276C17.8175 14.4459 17.7921 14.3713 17.7727 14.3036C17.4159 13.0602 16.2626 9.79747 14.4095 10.351C13.2816 10.6878 13.1002 12.2113 12.404 12.9908C12.1384 13.2888 11.9178 13.1801 11.7042 12.9148C11.3322 12.4521 10.9122 11.7092 10.1931 11.925C9.476 12.1403 9.18549 12.9516 9.10242 13.6102C9.04907 14.0313 9.04703 14.4531 9.0963 14.8755C9.0963 14.8772 9.09545 14.8783 9.09375 14.8786L9.08101 14.8806C9.07252 14.882 9.06742 14.8784 9.06572 14.8699C8.84113 13.7842 8.99896 12.7638 9.53919 11.8087C9.69362 11.5357 9.96578 11.2949 10.2695 11.2521C11.0692 11.1398 11.5105 12.222 11.8128 12.7806C11.8627 12.8732 11.9198 12.9466 11.984 13.001C11.9953 13.0106 12.0085 13.0177 12.0227 13.0219C12.0369 13.0261 12.0518 13.0273 12.0664 13.0253C12.0811 13.0234 12.0951 13.0184 12.1077 13.0107C12.1203 13.003 12.1311 12.9928 12.1395 12.9806C12.9391 11.8204 13.1297 9.70207 14.9456 9.65768C16.7692 9.61278 17.5484 12.925 17.8359 14.2852C17.8532 14.3672 17.8602 14.4475 17.8568 14.526C17.8561 14.5386 17.8536 14.5391 17.8491 14.5276Z" fill="#3D8361"/>
<path d="M16.0599 12.3903C16.3514 13.0072 16.199 13.8908 15.7551 14.4062C15.4391 14.7725 14.9733 14.9184 14.5243 14.6924C13.5361 14.1954 13.8398 12.1796 14.8693 11.8613C15.3398 11.7158 15.8494 11.9444 16.0599 12.3903ZM15.7567 13.0546C15.7567 12.9775 15.7415 12.9011 15.712 12.8299C15.6825 12.7586 15.6393 12.6939 15.5848 12.6394C15.5304 12.5848 15.4657 12.5416 15.3945 12.5121C15.3234 12.4826 15.2471 12.4674 15.17 12.4674C15.0145 12.4674 14.8652 12.5292 14.7552 12.6394C14.6452 12.7495 14.5834 12.8989 14.5834 13.0546C14.5834 13.2104 14.6452 13.3597 14.7552 13.4699C14.8652 13.58 15.0145 13.6419 15.17 13.6419C15.2471 13.6419 15.3234 13.6267 15.3945 13.5972C15.4657 13.5677 15.5304 13.5244 15.5848 13.4699C15.6393 13.4153 15.6825 13.3506 15.712 13.2794C15.7415 13.2081 15.7567 13.1317 15.7567 13.0546Z" fill="#3D8361"/>
<path d="M10.3828 15.1853C10.1508 15.1423 9.95093 14.9783 9.82727 14.7295C9.70361 14.4807 9.66626 14.1674 9.72343 13.8586C9.7806 13.5498 9.92762 13.2708 10.1321 13.0828C10.3366 12.8949 10.5819 12.8135 10.814 12.8566C11.046 12.8997 11.2458 13.0636 11.3695 13.3124C11.4932 13.5612 11.5305 13.8745 11.4733 14.1833C11.4162 14.4921 11.2692 14.7712 11.0646 14.9591C10.8601 15.147 10.6149 15.2284 10.3828 15.1853ZM10.9271 13.8434C10.9271 13.7136 10.8756 13.5892 10.784 13.4974C10.6923 13.4057 10.568 13.3541 10.4384 13.3541C10.3087 13.3541 10.1844 13.4057 10.0928 13.4974C10.0011 13.5892 9.9496 13.7136 9.9496 13.8434C9.9496 13.9732 10.0011 14.0976 10.0928 14.1894C10.1844 14.2811 10.3087 14.3327 10.4384 14.3327C10.568 14.3327 10.6923 14.2811 10.784 14.1894C10.8756 14.0976 10.9271 13.9732 10.9271 13.8434Z" fill="#3D8361"/>
<path d="M21.454 14.9928C21.4377 15.033 21.4233 15.0637 21.4107 15.0852C21.3924 15.1165 21.3786 15.1146 21.3694 15.0796C21.2512 14.6387 21.2848 14.2188 21.6548 13.9102C22.374 13.3112 23.325 13.7418 23.7189 14.5066C24.011 15.0734 23.9865 15.7041 23.7536 16.2857C23.5324 16.8387 23.1359 17.128 22.533 17.0423C22.5304 17.042 22.528 17.0409 22.526 17.0392C22.524 17.0375 22.5226 17.0353 22.5219 17.0328C22.5212 17.0303 22.5213 17.0276 22.522 17.0251C22.5228 17.0227 22.5243 17.0205 22.5263 17.0188C23.0044 16.626 23.7296 15.7265 23.5237 15.0637C23.2108 14.0571 21.8307 14.0515 21.454 14.9928Z" fill="#3D8361"/>
<path d="M22.3245 15.4128C22.3288 15.4092 22.3323 15.4047 22.3348 15.3997C22.3372 15.3946 22.3385 15.389 22.3386 15.3834C22.3387 15.3777 22.3376 15.3721 22.3353 15.3669C22.3331 15.3616 22.3297 15.357 22.3255 15.3531C22.1135 15.1613 22.2817 14.9526 22.4366 14.8108C22.4397 14.8079 22.4434 14.8057 22.4474 14.8042C22.4514 14.8028 22.4556 14.8022 22.4598 14.8024C22.4641 14.8027 22.4682 14.8037 22.472 14.8056C22.4758 14.8075 22.4792 14.8101 22.482 14.8133L23.0992 15.5373C23.1264 15.5693 23.1197 15.591 23.0793 15.6026C22.8897 15.6577 22.7205 15.6934 22.5635 15.8215C22.4195 15.9395 22.2769 16.0633 22.1359 16.1929C22.1328 16.1957 22.1291 16.1976 22.1251 16.1986C22.121 16.1997 22.1168 16.1997 22.1128 16.1987C22.1087 16.1978 22.105 16.1959 22.1018 16.1932C22.0987 16.1905 22.0962 16.1871 22.0946 16.1832C21.979 15.8878 22.0921 15.6072 22.3245 15.4128Z" fill="#3D8361"/>
<path d="M16.0059 15.775C16.1446 15.3464 16.4794 15.0541 16.9208 14.9572C17.3545 14.8623 18.8707 14.6781 19.0358 15.2959C19.0406 15.3143 19.036 15.3298 19.0221 15.3424C18.9694 15.3903 18.9288 15.4473 18.9003 15.5133C18.8967 15.5218 18.89 15.5287 18.8815 15.5326C18.873 15.5364 18.8633 15.537 18.8544 15.5342C18.2173 15.3306 17.5395 15.2597 16.909 15.4373C16.6508 15.5097 16.3572 15.6286 16.0284 15.7939C16.0056 15.8055 15.9981 15.7992 16.0059 15.775Z" fill="#3D8361"/>
<path d="M13.4132 15.3786C13.9377 15.0638 14.7281 15.1199 15.2342 15.448C15.9743 15.9281 16.0059 16.9378 15.4605 17.5638C14.7995 18.3235 13.3725 18.1669 12.8934 17.2908C12.5213 16.6117 12.7344 15.7862 13.4132 15.3786ZM13.7929 17.8128C14.2363 17.9485 14.7888 17.9235 15.1614 17.6281C15.9809 16.9786 15.8173 15.6822 14.7536 15.3959C14.3704 15.2929 13.849 15.298 13.4994 15.5031C12.5152 16.0806 12.7298 17.4878 13.7929 17.8128Z" fill="#3D8361"/>
<path d="M5.0401 21.3178C5.30359 22.1168 5.81427 22.6556 6.47478 23.1469C6.47658 23.1483 6.47869 23.1491 6.48091 23.1494C6.48313 23.1497 6.48539 23.1494 6.48748 23.1486C6.48957 23.1478 6.49141 23.1465 6.49285 23.1447C6.49428 23.143 6.49525 23.141 6.49568 23.1388C6.55582 22.7923 6.92889 22.7928 7.19849 22.8857C7.69796 23.0576 8.41963 23.4311 8.93184 23.227C9.05245 23.1787 9.20416 23.0876 9.38696 22.9536C9.67916 22.7396 9.97018 22.4862 10.26 22.1934C10.2627 22.1908 10.2659 22.1888 10.2694 22.1875C10.2729 22.1863 10.2766 22.1859 10.2803 22.1863C10.2839 22.1867 10.2875 22.1879 10.2906 22.1898C10.2937 22.1917 10.2963 22.1943 10.2982 22.1974C10.8721 23.1081 11.7054 23.9056 12.7053 24.3316C13.0369 24.4735 13.4268 24.5665 13.875 24.6107C14.6527 24.6883 14.691 23.9199 14.5411 23.3898C14.5398 23.3852 14.5397 23.3804 14.5407 23.3757C14.5417 23.3711 14.5439 23.3668 14.5469 23.3632C14.55 23.3595 14.5539 23.3567 14.5583 23.355C14.5627 23.3532 14.5675 23.3525 14.5722 23.353C15.3499 23.4255 16.1593 23.3714 16.8713 23.0245C16.9464 22.9881 17.0119 22.9379 17.068 22.874C17.0823 22.8576 17.0908 22.837 17.0921 22.8154C17.0934 22.7938 17.0874 22.7724 17.0751 22.7546C17.0371 22.6988 16.9888 22.6541 16.9304 22.6204C16.9171 22.6127 16.9065 22.6012 16.8999 22.5873C16.8932 22.5735 16.8909 22.558 16.8932 22.5428C16.9645 22.0811 17.3661 22.3617 17.622 22.2735C17.9927 22.1459 18.3342 21.9641 18.6464 21.728C18.757 21.6439 19.019 21.4138 18.7932 21.3138C18.7031 21.274 18.5589 21.2695 18.3605 21.3005C17.1185 21.4949 15.4723 21.8536 14.8647 20.3383C14.844 20.2866 14.8568 20.2762 14.903 20.3071C15.6104 20.7847 16.4493 21.0551 17.3157 21.0005C17.7445 20.9736 18.1733 20.9449 18.6021 20.9143C18.7135 20.9064 18.836 20.918 18.9695 20.949C19.6774 21.1127 19.1183 21.6495 18.8385 21.8561C18.4138 22.1694 17.9628 22.4389 17.4854 22.6648C17.4698 22.6723 17.4596 22.6842 17.4548 22.7005C17.3799 22.9556 17.3294 23.1342 17.1134 23.3081C16.9431 23.4452 16.6796 23.5672 16.3229 23.674C15.8156 23.826 15.298 23.903 14.77 23.9051C14.7651 23.9052 14.7604 23.9064 14.7561 23.9085C14.7518 23.9107 14.748 23.9138 14.7451 23.9176C14.7422 23.9214 14.7401 23.9259 14.7391 23.9306C14.7381 23.9353 14.7382 23.9402 14.7394 23.9449C14.8123 24.2357 14.8265 24.753 14.5238 24.9331C14.449 24.9777 14.3356 25.0041 14.1833 25.0122C12.448 25.1081 10.9888 24.1888 10.206 22.6622C10.2048 22.66 10.2032 22.6582 10.2011 22.6567C10.1991 22.6553 10.1967 22.6544 10.1943 22.6541C10.1918 22.6538 10.1893 22.6541 10.187 22.655C10.1847 22.6559 10.1826 22.6573 10.181 22.6592C9.81303 23.0891 9.37592 23.4318 8.86966 23.6872C8.66376 23.7906 8.45004 23.8087 8.22851 23.7413C7.95805 23.6593 7.69269 23.5638 7.43243 23.4546C7.08433 23.3087 6.81778 23.2633 6.84632 23.7658C6.8487 23.8042 6.83324 23.8138 6.79994 23.7944C6.41498 23.5719 6.05058 23.3025 5.70673 22.9862C5.05539 22.3867 4.72513 21.5791 4.64562 20.7061C4.64521 20.702 4.64592 20.6979 4.64767 20.6942C4.64942 20.6905 4.65215 20.6874 4.65556 20.6851C4.65897 20.6829 4.66294 20.6816 4.66702 20.6814C4.67111 20.6812 4.67517 20.6822 4.67875 20.6842C5.70469 21.2525 6.74745 21.1326 7.76523 20.6168C7.7846 20.607 7.78681 20.594 7.77186 20.578C6.77089 19.526 6.42331 17.924 6.37438 16.5235C6.37418 16.5186 6.37494 16.5138 6.37662 16.5093C6.37831 16.5047 6.38088 16.5006 6.38419 16.497C6.38751 16.4935 6.3915 16.4906 6.39593 16.4886C6.40037 16.4865 6.40517 16.4854 6.41005 16.4852C7.31486 16.4522 8.21883 16.3762 9.12194 16.2571C10.2218 16.1126 11.2881 15.8413 12.3211 15.4434C12.3642 15.427 12.3722 15.4376 12.345 15.475C12.1019 15.8087 11.5285 16.075 11.1748 16.1638C10.1181 16.4284 9.02646 16.6401 7.89978 16.799C7.53147 16.8507 7.17862 16.8775 6.84122 16.8796C6.82627 16.8796 6.81931 16.8871 6.82033 16.902C6.88353 17.8146 7.11729 18.6331 7.52162 19.3576C8.37937 20.8934 9.87878 21.5097 11.5948 21.3117C12.2261 21.2389 12.8096 21.0161 13.3455 20.6434C13.688 20.4051 13.9346 20.0561 13.8215 19.6235C13.481 18.3224 12.027 18.476 11.0795 18.8383C10.8978 18.908 10.892 18.8956 11.0622 18.801C11.6529 18.4729 12.4225 18.2449 13.0687 18.3831C13.5855 18.4939 14.1573 18.8923 14.3051 19.4265C14.4458 19.9352 14.1196 20.4643 13.7511 20.7949C12.9999 21.4689 11.973 21.7949 10.9771 21.8158C9.94588 21.8379 9.02018 21.5459 8.19997 20.9398C8.18119 20.9259 8.15834 20.9189 8.13524 20.9199C8.00001 20.9253 7.86869 20.9554 7.74128 21.0102C7.4749 21.1241 7.2114 21.2444 6.9508 21.3709C6.71228 21.4862 6.47427 21.5689 6.20619 21.576C5.79949 21.5872 5.41317 21.4993 5.04723 21.3122C5.04631 21.3118 5.04527 21.3116 5.04424 21.3117C5.0432 21.3118 5.04223 21.3122 5.04146 21.3128C5.04068 21.3134 5.04013 21.3142 5.03989 21.3151C5.03965 21.316 5.03972 21.317 5.0401 21.3178Z" fill="#3D8361"/>
<path d="M13.7343 15.5887C14.1232 15.5709 14.4366 15.5137 14.8178 15.6428C15.4228 15.8474 15.6445 16.5296 15.4004 17.0908C15.3919 17.1105 15.3769 17.1199 15.3555 17.1188C15.3497 17.1188 15.3438 17.1188 15.3377 17.1188C15.3293 17.1187 15.321 17.1168 15.3134 17.1132C15.3058 17.1097 15.299 17.1047 15.2935 17.0984C15.2879 17.0921 15.2837 17.0847 15.2812 17.0768C15.2786 17.0688 15.2777 17.0603 15.2785 17.052C15.3431 16.4003 15.1064 15.9797 14.5686 15.7903C14.3326 15.7071 14.0294 15.7051 13.7618 15.6943C13.7285 15.693 13.7103 15.6756 13.7073 15.6423L13.7052 15.6219C13.7048 15.6178 13.7052 15.6137 13.7065 15.6098C13.7078 15.6059 13.7098 15.6023 13.7125 15.5992C13.7152 15.5961 13.7186 15.5935 13.7223 15.5918C13.7261 15.59 13.7301 15.5889 13.7343 15.5887Z" fill="#3D8361"/>
<path d="M31.0041 19.2561C31.6492 19.2561 32.1722 18.7326 32.1722 18.0867C32.1722 17.4409 31.6492 16.9174 31.0041 16.9174C30.3589 16.9174 29.8359 17.4409 29.8359 18.0867C29.8359 18.7326 30.3589 19.2561 31.0041 19.2561Z" fill="#3D8361"/>
<path d="M26.0881 23.2571C26.5198 22.3709 26.7711 21.326 26.929 20.3551C27.006 19.8801 27.008 19.4051 27.005 18.9209C27.005 18.9148 27.0072 18.9088 27.0114 18.9042C27.0155 18.8996 27.0212 18.8966 27.0274 18.8959C27.3378 18.8673 27.7516 18.9168 27.9825 19.1377C28.3963 19.5331 28.3311 20.4842 28.2659 20.9959C28.1955 21.5479 28.1344 22.0979 27.9621 22.649C27.7109 23.4525 27.2975 24.1984 26.8261 24.9418C26.1467 26.0132 25.2492 26.9372 24.1794 27.5214C22.9996 28.1653 21.625 28.6189 20.2464 28.674C20.028 28.6828 19.8119 28.6651 19.5981 28.6209C19.5761 28.6165 19.5754 28.6098 19.5961 28.601C20.2325 28.3357 20.8668 28.0685 21.4992 27.7995C22.0904 27.5474 22.6474 27.1117 23.1708 26.7296C23.4444 26.5296 23.6754 26.3415 23.864 26.1653C24.734 25.353 25.5581 24.3459 26.0881 23.2571Z" fill="#3D8361"/>
<path d="M25.1054 29.4699C27.1588 28.4689 28.4803 26.624 29.2173 24.5097C29.4055 23.9692 29.5454 23.5838 29.6368 23.3536C29.8207 22.8903 30.1082 22.4 30.3839 21.9811C30.8735 21.2362 31.4919 20.6231 32.2391 20.1418C33.0199 19.6388 33.9408 19.2255 34.8847 19.2321C34.8896 19.2322 34.8945 19.2333 34.8989 19.2355C34.9034 19.2376 34.9073 19.2408 34.9103 19.2446C34.9134 19.2485 34.9156 19.253 34.9167 19.2578C34.9178 19.2626 34.9179 19.2676 34.9168 19.2724C34.8006 19.8095 34.5677 20.2884 34.2181 20.7092C34.1321 20.8122 33.9697 20.9306 33.7308 21.0643C33.1223 21.4041 32.7477 21.6036 32.3211 22.0495C31.7812 22.6134 31.3597 23.2502 31.0567 23.9597C30.9969 24.1002 30.892 24.3973 30.7422 24.851C30.4909 25.6127 30.1964 26.1826 29.8804 26.8372C28.9406 28.7862 27.4794 30.3709 25.3373 30.9638C24.7305 31.1315 24.1124 31.2032 23.4832 31.1791C22.5846 31.1439 21.7717 30.8275 21.1194 30.1801C21.0861 30.1471 21.0929 30.1303 21.1398 30.1296C21.6834 30.1201 22.2393 30.1049 22.8074 30.0842C23.316 30.0653 23.9322 29.8821 24.4464 29.7245C24.6941 29.6479 24.9138 29.5631 25.1054 29.4699Z" fill="#3D8361"/>
<path d="M34.9738 24.4066C35.6189 24.4066 36.1419 23.8831 36.1419 23.2373C36.1419 22.5914 35.6189 22.0679 34.9738 22.0679C34.3287 22.0679 33.8057 22.5914 33.8057 23.2373C33.8057 23.8831 34.3287 24.4066 34.9738 24.4066Z" fill="#3D8361"/>
<path d="M27.1449 32.455C29.4083 31.6086 31.0285 29.5193 32.0157 27.3505C32.3194 26.6831 32.5009 25.9515 32.6742 25.2382C32.6782 25.2226 32.6879 25.2171 32.7032 25.2219C33.1634 25.3719 33.7021 25.7112 33.7154 26.2494C33.7181 26.3515 33.6863 26.552 33.6201 26.851C33.0732 29.3214 31.6029 31.5755 29.315 32.7336C28.5641 33.1135 27.8729 33.3663 27.2412 33.4918C26.2387 33.6913 25.0115 33.6821 24.0543 33.2525C24.0142 33.2348 23.9675 33.2067 23.9142 33.1683C23.8969 33.1564 23.8985 33.1489 23.9193 33.1459C24.0314 33.1311 24.1563 33.1428 24.2536 33.1321C24.729 33.0811 25.2023 33.0152 25.6735 32.9346C25.734 32.9241 25.8296 32.8974 25.9605 32.8545C26.5873 32.6491 26.9821 32.5159 27.1449 32.455Z" fill="#3D8361"/>
<path d="M36.3769 30.0015C35.647 31.2607 34.9131 32.4934 33.981 33.551C33.8148 33.7398 33.6454 33.898 33.4728 34.0255C32.0101 35.1051 30.1662 35.4714 28.3747 35.3954C27.9918 35.3791 27.6459 35.3253 27.3371 35.2342C27.2338 35.2036 27.2353 35.1803 27.3417 35.1643C28.0287 35.0602 28.7407 34.8306 29.6045 34.5724C30.1336 34.4143 30.5994 34.2321 31.002 34.026C32.6625 33.1745 33.8036 31.6668 34.6797 30.0592C35.133 29.2272 35.5354 28.3713 35.8871 27.4913C36.1518 26.8294 36.3264 26.1345 36.411 25.4066C36.4141 25.3781 36.4292 25.3682 36.4564 25.377C36.9951 25.5505 37.4777 25.924 37.4568 26.5556C37.4405 27.0408 37.4064 27.576 37.438 28.0189C37.492 28.7811 37.6668 29.7051 38.1515 30.3148C38.3742 30.5949 38.6673 30.7306 39.0332 30.7454C39.6366 30.7692 40.1086 30.527 40.449 30.0189C40.6648 29.6968 40.819 29.482 40.9118 29.3745C41.1785 29.0653 41.495 28.8202 41.8613 28.6393C43.032 28.0612 41.8587 30.0393 41.7614 30.2133C41.2838 31.0653 40.7339 31.8551 40.0581 32.5633C39.6514 32.9893 39.1137 33.3684 38.493 33.3087C37.5236 33.2148 37.121 32.6102 36.8641 31.7469C36.6949 31.1772 36.5508 30.5983 36.4319 30.0102C36.4214 29.9588 36.403 29.9559 36.3769 30.0015Z" fill="#3D8361"/>
<path d="M40.2394 37.3413C40.8846 37.3413 41.4076 36.8178 41.4076 36.172C41.4076 35.5261 40.8846 35.0026 40.2394 35.0026C39.5943 35.0026 39.0713 35.5261 39.0713 36.172C39.0713 36.8178 39.5943 37.3413 40.2394 37.3413Z" fill="#3D8361"/>
<path d="M37.3664 37.5061C38.0115 37.5061 38.5345 36.9826 38.5345 36.3367C38.5345 35.6909 38.0115 35.1674 37.3664 35.1674C36.7212 35.1674 36.1982 35.6909 36.1982 36.3367C36.1982 36.9826 36.7212 37.5061 37.3664 37.5061Z" fill="#3D8361"/>
<path d="M38.9211 39.9275C39.5662 39.9275 40.0892 39.404 40.0892 38.7581C40.0892 38.1123 39.5662 37.5887 38.9211 37.5887C38.2759 37.5887 37.7529 38.1123 37.7529 38.7581C37.7529 39.404 38.2759 39.9275 38.9211 39.9275Z" fill="#3D8361"/>
</g>
<defs>
<clipPath id="clip0_2238_24728">
<rect width="42.4034" height="40" fill="white"/>
</clipPath>
</defs>
</svg>
