<svg width="367" height="371" viewBox="0 0 367 371" fill="none" xmlns="http://www.w3.org/2000/svg">
<path fill-rule="evenodd" clip-rule="evenodd" d="M353.79 127.341L353.851 129.498L353.901 131.657L353.941 133.82L353.97 135.985L353.989 138.155L353.999 140.328L354 142.507L353.993 144.691L353.977 146.881L353.953 149.077L353.922 151.281L353.883 153.493L353.836 155.713L353.781 157.943L353.719 160.182L353.649 162.432L353.57 164.694L353.483 166.967L353.387 169.252L353.282 171.551L353.167 173.863L353.041 176.19L352.904 178.531L352.755 180.887L352.594 183.259L352.419 185.647L352.229 188.051L352.024 190.471L351.803 192.908L351.564 195.363L351.307 197.834L351.029 200.323L350.732 202.829L350.412 205.352L350.068 207.892L349.701 210.45L349.307 213.023L348.887 215.614L348.439 218.22L347.961 220.843L347.453 223.48L346.912 226.133L346.339 228.8L345.732 231.48L345.089 234.174L344.409 236.88L343.691 239.597L342.933 242.325L342.135 245.063L341.295 247.808L340.412 250.561L339.484 253.32L338.511 256.083L337.491 258.849L336.422 261.617L335.305 264.385L334.137 267.151L332.918 269.914L331.646 272.671L330.322 275.422L328.943 278.163L327.509 280.893L326.02 283.61L324.474 286.313L322.871 288.997L321.212 291.663L319.494 294.306L317.718 296.926L315.884 299.52L313.992 302.085L312.041 304.62L310.032 307.122L307.964 309.588L305.838 312.016L303.654 314.404L301.413 316.749L299.115 319.048L296.76 321.3L294.349 323.502L291.883 325.651L289.363 327.745L286.79 329.782L284.165 331.759L281.489 333.674L278.763 335.526L275.99 337.311L273.169 339.028L270.304 340.675L267.396 342.251L264.446 343.753L261.457 345.18L258.43 346.53L255.367 347.803L252.27 348.996L249.143 350.11L245.985 351.142L242.801 352.092L239.592 352.959L236.361 353.742L233.109 354.442L229.84 355.057L226.555 355.588L223.257 356.034L219.948 356.396L216.63 356.673L213.307 356.866L209.979 356.975L206.65 357L203.321 356.942L199.996 356.802L196.675 356.58L193.362 356.277L190.058 355.894L186.765 355.431L183.486 354.89L180.222 354.271L176.975 353.577L173.748 352.807L170.541 351.964L167.358 351.048L164.198 350.062L161.064 349.007L157.958 347.885L154.88 346.697L151.833 345.446L148.816 344.133L145.832 342.76L142.881 341.33L139.964 339.845L137.083 338.305L134.237 336.715L131.427 335.075L128.654 333.389L125.918 331.657L123.22 329.883L120.56 328.068L117.937 326.214L115.352 324.324L112.806 322.4L110.296 320.443L107.825 318.455L105.39 316.439L102.993 314.396L100.632 312.327L98.3069 310.235L96.0174 308.122L93.7626 305.988L91.542 303.836L89.3547 301.667L87.2001 299.483L85.0772 297.284L82.9852 295.072L80.9234 292.849L78.8907 290.614L76.8864 288.37L74.9094 286.117L72.959 283.855L71.0342 281.586L69.1343 279.31L67.2583 277.028L65.4056 274.74L63.5753 272.445L61.7667 270.146L59.9792 267.84L58.2121 265.53L56.465 263.214L54.7373 260.892L53.0286 258.564L51.3385 256.231L49.6668 253.891L48.0133 251.545L46.3777 249.191L44.7601 246.83L43.1603 244.461L41.5786 242.084L40.0149 239.697L38.4696 237.302L36.9428 234.896L35.4349 232.479L33.9463 230.052L32.4774 227.613L31.0287 225.162L29.6006 222.699L28.1938 220.222L26.8089 217.732L25.4465 215.229L24.1071 212.711L22.7916 210.178L21.5006 207.631L20.2349 205.068L18.9955 202.491L17.7833 199.897L16.5993 197.288L15.4445 194.662L14.3202 192.021L13.2275 189.363L12.1677 186.688L11.1421 183.998L10.1519 181.291L9.19868 178.568L8.28373 175.828L7.40852 173.074L6.57451 170.303L5.78317 167.518L5.03601 164.718L4.3345 161.904L3.68015 159.077L3.07442 156.237L2.5188 153.385L2.01471 150.522L1.56359 147.648L1.1668 144.766L0.825705 141.875L0.541582 138.977L0.315696 136.073L0.149303 133.165L0.0436576 130.254L0 127.341L0.0195473 124.427L0.103483 121.515L0.252947 118.605L0.469027 115.7L0.752746 112.801L1.10505 109.91L1.52683 107.029L2.01884 104.16L2.58178 101.305L3.21623 98.4648L3.92265 95.6428L4.70139 92.8406L5.55268 90.0604L6.47662 87.3041L7.47318 84.574L8.54219 81.8721L9.68335 79.2006L10.8962 76.5614L12.1802 73.9568L13.5345 71.3887L14.9585 68.8591L16.4509 66.37L18.0108 63.9234L19.6368 61.5209L21.3275 59.1645L23.0815 56.8558L24.8971 54.5965L26.7726 52.3881L28.7061 50.2321L30.6957 48.1298L32.7394 46.0825L34.8351 44.0914L36.9805 42.1576L39.1735 40.282L41.4117 38.4656L43.6928 36.709L46.0144 35.013L48.3741 33.3781L50.7696 31.8048L53.1982 30.2935L55.6578 28.8444L58.1457 27.4578L60.6596 26.1337L63.1971 24.8721L65.7555 23.6728L68.3325 22.5356L70.9254 21.4599L73.5318 20.4453L76.149 19.4909L78.7746 18.5961L81.4062 17.7599L84.0411 16.9812L86.677 16.2588L89.3116 15.5915L91.9425 14.9778L94.5674 14.4162L97.1841 13.9051L99.7906 13.4429L102.385 13.0277L104.965 12.6577L107.529 12.331L110.075 12.0455L112.602 11.7992L115.108 11.5901L117.592 11.4159L120.052 11.2745L122.487 11.1638L124.897 11.0815L127.28 11.0255L129.636 10.9934L131.963 10.9831L134.262 10.9922L136.532 11.0184L138.772 11.0593L140.982 11.1125L143.161 11.1757L145.311 11.2465L147.431 11.3226L149.521 11.4018L151.581 11.4817L153.612 11.5602L155.615 11.6352L157.59 11.7047L159.538 11.7667L161.459 11.8194L163.355 11.8611L165.228 11.8902L167.077 11.9051L168.905 11.9047L170.712 11.8875L172.501 11.8527L174.272 11.7992L176.028 11.7263L177.77 11.6334L179.498 11.5199L181.217 11.3857L182.926 11.2306L184.627 11.0546L186.323 10.8578L188.014 10.6405L189.704 10.4032L191.392 10.1466L193.082 9.87121L194.773 9.57804L196.469 9.26803L198.171 8.94226L199.879 8.60194L201.595 8.24835L203.321 7.88287L205.058 7.50695L206.807 7.12212L208.568 6.72995L210.344 6.33205L212.134 5.93008L213.94 5.52572L215.762 5.12073L217.601 4.71694L219.458 4.31624L221.333 3.92063L223.225 3.53211L225.136 3.15276L227.066 2.7847L229.014 2.43007L230.981 2.09103L232.965 1.76975L234.968 1.4684L236.988 1.18914L239.024 0.934126L241.077 0.705467L243.145 0.505248L245.228 0.335505L247.324 0.198223L249.432 0.0953223L251.552 0.0286563L253.682 0L255.82 0.0110449L257.966 0.0633918L260.118 0.158545L262.275 0.297907L264.434 0.482771L266.594 0.714323L268.755 0.993634L270.913 1.32168L273.067 1.69936L275.216 2.12745L277.358 2.60665L279.491 3.13755L281.613 3.72063L283.723 4.35625L285.818 5.04468L287.897 5.78606L289.959 6.5804L292.001 7.42763L294.021 8.32755L296.019 9.27982L297.992 10.284L299.94 11.3397L301.86 12.446L303.751 13.6024L305.611 14.808L307.441 16.0619L309.238 17.363L311.001 18.7102L312.729 20.1025L314.422 21.5384L316.078 23.0169L317.697 24.5364L319.279 26.0957L320.822 27.6933L322.326 29.3277L323.792 30.9974L325.217 32.701L326.604 34.4369L327.95 36.2036L329.257 37.9996L330.524 39.8235L331.752 41.6737L332.94 43.5488L334.089 45.4474L335.199 47.368L336.27 49.3094L337.304 51.2702L338.299 53.2491L339.257 55.2451L340.177 57.2568L341.062 59.2831L341.909 61.3232L342.721 63.3758L343.497 65.4401L344.239 67.5152L344.946 69.6L345.619 71.6936L346.259 73.7953L346.866 75.9043L347.442 78.0196L347.986 80.1407L348.5 82.2668L348.984 84.3971L349.44 86.5313L349.867 88.6686L350.268 90.8085L350.642 92.9506L350.991 95.0945L351.316 97.2398L351.617 99.3863L351.895 101.534L352.152 103.681L352.388 105.83L352.604 107.979L352.801 110.128L352.98 112.277L353.141 114.427L353.286 116.577L353.415 118.727L353.53 120.879L353.63 123.031L353.716 125.185L353.79 127.341Z" fill="#E0F1E9"/>
<g clip-path="url(#clip0_2003_18178)">
<path d="M184.004 302.997C253.036 302.997 308.997 247.036 308.997 178.004C308.997 108.972 253.036 53.0103 184.004 53.0103C114.972 53.0103 59.0103 108.972 59.0103 178.004C59.0103 247.036 114.972 302.997 184.004 302.997Z" stroke="#3D8361" stroke-width="4.02328" stroke-miterlimit="10"/>
<path d="M176.651 80.1769C179.079 79.9958 181.53 79.9053 184.004 79.9053C199.224 79.9177 214.233 83.4697 227.844 90.2807C241.456 97.0917 253.297 106.975 262.431 119.149C271.566 131.324 277.744 145.456 280.477 160.429C283.21 175.402 282.423 190.805 278.179 205.422" stroke="#3D8361" stroke-width="4.02328" stroke-miterlimit="10"/>
<path d="M152.543 270.912C139.543 266.496 127.614 259.403 117.526 250.089C107.438 240.775 99.4165 229.449 93.9792 216.841C88.542 204.234 85.8101 190.626 85.96 176.897C86.1099 163.168 89.1383 149.624 94.8495 137.138" stroke="#3D8361" stroke-width="4.02328" stroke-miterlimit="10"/>
<path d="M163.435 279.209C163.538 280.51 163.501 281.819 163.325 283.112C163.154 284.027 162.973 284.45 162.781 284.369C162.809 282.996 162.691 281.624 162.429 280.276C162.255 279.395 161.999 278.533 161.665 277.701C161.393 277.087 161.172 276.604 160.991 276.282C160.856 276.074 160.76 275.842 160.709 275.598C160.767 275.136 160.885 274.683 161.062 274.251C161.293 273.577 161.484 273.245 161.635 273.245C161.786 273.245 162.188 273.879 162.641 275.146C163.085 276.459 163.352 277.826 163.435 279.209Z" fill="#3D8361"/>
<path d="M171.551 274.393C171.406 275.062 171.137 275.696 170.756 276.264C170.624 276.495 170.436 276.689 170.21 276.828C169.983 276.967 169.725 277.046 169.459 277.059C169.256 277.071 169.054 277.025 168.875 276.928C168.669 276.794 168.483 276.632 168.322 276.445C168.251 276.646 168.13 276.826 167.97 276.968C167.812 277.086 167.63 277.168 167.437 277.21C167.631 277.67 167.78 278.148 167.88 278.638C168.02 279.35 168.084 280.075 168.071 280.8C168.079 281.528 168.025 282.255 167.91 282.973C167.847 283.449 167.689 283.907 167.447 284.321C167.36 283.993 167.323 283.654 167.337 283.315C167.314 282.793 167.264 282.273 167.186 281.756C167.049 280.653 166.744 279.578 166.28 278.568L164.983 275.731C165.063 275.439 165.124 275.208 165.164 275.047C165.295 274.536 165.463 274.035 165.667 273.548C165.667 273.548 165.818 273.689 166.029 273.991C166.193 274.256 166.417 274.48 166.682 274.644C166.947 274.808 167.247 274.908 167.558 274.937C167.867 274.931 168.164 274.813 168.393 274.605C168.677 274.323 168.891 273.979 169.016 273.599C169.161 273.853 169.341 274.087 169.549 274.293C169.656 274.396 169.782 274.477 169.92 274.53C170.058 274.584 170.206 274.609 170.354 274.605C170.489 274.611 170.624 274.584 170.747 274.526C170.87 274.468 170.977 274.381 171.058 274.273C171.23 274.051 171.378 273.811 171.501 273.559C171.591 273.559 171.631 273.679 171.631 273.911C171.638 274.075 171.611 274.24 171.551 274.393Z" fill="#3D8361"/>
<path d="M172.649 276.313C172.816 275.649 173.077 275.012 173.424 274.422C173.896 273.587 174.429 273.165 174.922 273.165C175.155 273.151 175.385 273.213 175.58 273.339C175.776 273.466 175.926 273.651 176.009 273.869C176.245 274.418 176.358 275.011 176.34 275.609C176.272 276.499 176.137 277.383 175.938 278.254C175.802 278.892 175.731 279.543 175.727 280.195C175.753 280.637 175.903 281.062 176.159 281.422C176.4 281.743 176.552 282.121 176.602 282.519C176.572 282.841 176.491 283.157 176.361 283.454C176.251 283.781 176.099 284.092 175.908 284.38C175.447 284.105 175.106 283.667 174.952 283.152C174.782 282.619 174.693 282.063 174.691 281.503C174.69 280.879 174.744 280.256 174.852 279.642C174.963 278.958 175.053 278.495 175.123 278.244C174.723 278.327 174.314 278.354 173.906 278.324C173.524 278.29 173.166 278.119 172.901 277.842C172.74 277.625 172.633 277.374 172.589 277.108C172.546 276.842 172.566 276.569 172.649 276.313ZM174.309 275.126C173.987 275.126 173.776 275.196 173.695 275.347C173.615 275.454 173.572 275.585 173.574 275.719C173.577 275.829 173.602 275.937 173.648 276.036C173.694 276.135 173.76 276.223 173.843 276.295C173.925 276.367 174.022 276.421 174.126 276.454C174.231 276.486 174.341 276.496 174.45 276.484C174.942 276.484 175.194 276.293 175.194 275.91C175.193 275.807 175.17 275.705 175.127 275.612C175.084 275.518 175.021 275.435 174.942 275.367C174.86 275.284 174.761 275.219 174.652 275.176C174.543 275.132 174.426 275.112 174.309 275.116V275.126Z" fill="#3D8361"/>
<path d="M184.057 274.392C183.915 275.078 183.642 275.731 183.252 276.313C183.12 276.544 182.932 276.738 182.705 276.877C182.479 277.016 182.22 277.095 181.955 277.108C181.755 277.122 181.555 277.077 181.381 276.977C181.171 276.844 180.981 276.682 180.818 276.494C180.75 276.697 180.629 276.878 180.466 277.017C180.309 277.137 180.126 277.219 179.933 277.259C180.136 277.716 180.285 278.195 180.376 278.687C180.519 279.399 180.587 280.124 180.577 280.85C180.582 281.577 180.525 282.304 180.406 283.022C180.35 283.498 180.196 283.957 179.953 284.37C179.903 284.37 179.863 284.018 179.832 283.364C179.817 282.842 179.77 282.321 179.692 281.805C179.546 280.704 179.241 279.63 178.786 278.617C178.344 277.671 177.911 276.736 177.489 275.78C177.569 275.488 177.63 275.257 177.67 275.096C177.798 274.585 177.962 274.085 178.163 273.598C178.163 273.598 178.324 273.738 178.535 274.04C178.698 274.304 178.92 274.527 179.183 274.691C179.447 274.855 179.745 274.956 180.054 274.986C180.363 274.982 180.661 274.863 180.888 274.654C181.173 274.372 181.386 274.028 181.512 273.648C181.664 273.901 181.846 274.134 182.055 274.342C182.161 274.446 182.287 274.527 182.426 274.58C182.564 274.634 182.712 274.659 182.86 274.654C182.995 274.657 183.129 274.629 183.251 274.571C183.374 274.514 183.481 274.428 183.564 274.322C183.732 274.097 183.881 273.858 184.007 273.608C184.087 273.608 184.137 273.728 184.137 273.96C184.134 274.107 184.107 274.253 184.057 274.392Z" fill="#3D8361"/>
<path d="M200.169 277.169C199.904 277.456 199.549 277.644 199.163 277.702C198.7 278.014 198.368 278.115 198.157 278.004C197.935 278.181 197.692 278.33 197.433 278.446C197.15 278.577 196.847 278.658 196.538 278.688C196.498 278.753 196.471 278.824 196.457 278.899C196.311 280.362 195.973 281.799 195.451 283.174C195.075 284.142 194.582 285.061 193.983 285.91C193.44 286.76 192.699 287.466 191.823 287.967C190.947 288.468 189.962 288.75 188.954 288.786C188.501 288.791 188.052 288.704 187.634 288.531C187.216 288.358 186.837 288.103 186.52 287.78C185.883 287.06 185.541 286.126 185.564 285.165C185.633 283.121 186.236 281.13 187.314 279.392C187.535 278.98 187.676 278.849 187.717 279C187.762 279.147 187.762 279.305 187.717 279.452C187.034 280.67 186.629 282.023 186.53 283.415C186.531 283.789 186.617 284.157 186.783 284.492C186.949 284.827 187.189 285.119 187.485 285.346C188.112 285.795 188.867 286.031 189.638 286.02C190.785 286.021 191.911 285.712 192.896 285.125C193.654 284.622 194.292 283.959 194.767 283.184C195.518 281.814 195.85 280.255 195.723 278.698V277.883C195.723 277.33 196.015 277.058 196.487 277.048C196.652 277.054 196.815 277.085 196.97 277.139C197.158 277.209 197.365 277.209 197.553 277.139C197.839 276.978 198.08 276.75 198.258 276.475C198.318 276.475 198.398 276.475 198.489 276.586C198.593 276.68 198.73 276.731 198.871 276.726C199.012 276.726 199.143 276.616 199.263 276.405C199.384 276.193 199.454 276.113 199.515 276.163C199.642 276.228 199.785 276.255 199.927 276.244C200.046 276.226 200.16 276.181 200.259 276.113L200.37 276.324C200.408 276.427 200.425 276.536 200.42 276.646C200.425 276.762 200.408 276.878 200.37 276.988C200.297 277.042 200.23 277.103 200.169 277.169Z" fill="#3D8361"/>
<path d="M196.458 288.775C196.81 288.111 197.032 287.769 197.112 287.769C197.193 287.769 197.474 287.819 197.756 288.091C197.992 288.312 198.207 288.555 198.4 288.815C198.571 288.523 198.772 288.211 198.983 287.809C199.194 287.407 199.335 287.276 199.405 287.276C199.714 287.331 199.99 287.499 200.18 287.749C200.436 287.984 200.603 288.3 200.653 288.644C200.614 289.076 200.446 289.486 200.17 289.821C199.858 290.263 199.627 290.485 199.486 290.485C199.345 290.485 199.214 290.354 198.963 290.102C198.756 289.892 198.534 289.697 198.299 289.519C197.826 290.464 197.454 290.937 197.172 290.937C197.059 290.913 196.957 290.853 196.881 290.766L196.328 290.394C196.076 290.183 195.945 290.052 195.945 290.002C196.063 289.572 196.235 289.16 196.458 288.775ZM201.055 272.762C200.934 272.762 200.793 272.883 200.643 273.164C200.418 273.556 200.284 273.994 200.25 274.445C200.217 274.896 200.286 275.349 200.451 275.769C200.423 275.831 200.382 275.886 200.331 275.93L200.17 276.061C200.084 276.239 200.052 276.439 200.079 276.634C200.077 276.81 200.107 276.984 200.17 277.147L200.552 276.775L200.703 276.614L200.874 276.433C200.984 276.302 201.065 276.252 201.135 276.282H201.367C201.526 276.314 201.687 276.331 201.849 276.333C201.891 276.175 201.918 276.013 201.93 275.85C201.94 275.652 201.94 275.454 201.93 275.256C201.93 275.045 201.93 274.834 201.93 274.613C201.914 274.404 201.887 274.195 201.849 273.989C201.668 273.937 201.508 273.828 201.394 273.677C201.28 273.527 201.217 273.343 201.216 273.154C201.186 272.913 201.135 272.762 201.055 272.762Z" fill="#3D8361"/>
<path d="M201.848 274.041C202.235 274.16 202.648 274.16 203.035 274.041C203.472 273.87 203.874 273.621 204.222 273.306C204.455 273.063 204.731 272.865 205.037 272.723C205.198 272.676 205.369 272.676 205.53 272.723C205.812 272.624 206.053 272.432 206.213 272.18C206.445 271.858 206.616 271.697 206.737 271.697H206.938C207.008 271.697 207.099 271.617 207.199 271.476C207.308 271.308 207.399 271.129 207.471 270.943C207.541 270.721 207.602 270.621 207.662 270.621C207.722 270.621 207.783 270.671 207.783 270.812C207.807 270.969 207.807 271.128 207.783 271.285C207.715 271.744 207.543 272.181 207.28 272.562C207.133 272.747 206.96 272.91 206.767 273.045L206.324 273.266C205.731 273.84 205.318 274.141 205.188 274.161L204.705 274.242C204.558 274.269 204.42 274.331 204.302 274.423C204.092 274.603 203.909 274.814 203.759 275.047C203.575 275.305 203.377 275.554 203.166 275.791C203.012 275.985 202.818 276.145 202.598 276.259C202.378 276.374 202.136 276.44 201.888 276.455C201.888 276.062 201.808 275.67 201.758 275.278C201.693 274.864 201.724 274.441 201.848 274.041Z" fill="#3D8361"/>
<path d="M209.774 279.331C209.774 280.337 209.945 281.051 210.378 281.343C210.477 281.418 210.591 281.472 210.712 281.499C210.834 281.527 210.96 281.529 211.082 281.504C211.191 281.483 211.295 281.441 211.386 281.379C211.478 281.316 211.556 281.236 211.615 281.142C211.754 280.934 211.862 280.707 211.937 280.468C212.027 280.206 212.108 280.086 212.188 280.086C212.269 280.086 212.319 280.176 212.309 280.357C212.261 280.873 212.16 281.382 212.007 281.876C211.859 282.496 211.604 283.084 211.253 283.616C211.126 283.819 210.954 283.989 210.749 284.113C210.545 284.237 210.314 284.311 210.076 284.33C209.837 284.316 209.606 284.234 209.412 284.093C209.218 283.952 209.068 283.759 208.98 283.536C208.727 282.918 208.617 282.251 208.658 281.584C208.658 281.001 208.738 280.066 208.899 278.778C209.04 277.491 209.231 276.113 209.463 274.644C209.603 274.222 209.885 273.467 210.307 272.391C210.358 272.291 210.398 272.25 210.448 272.26C210.499 272.27 210.519 272.321 210.519 272.391C210.519 272.924 210.388 273.94 210.197 275.409C210.006 276.877 209.865 278.215 209.774 279.331ZM211.394 271.707C211.519 271.293 211.698 270.897 211.927 270.53C212.279 269.866 212.5 269.525 212.581 269.525C212.661 269.525 212.943 269.525 213.224 269.836C213.46 270.058 213.676 270.3 213.868 270.561L214.451 269.555C214.663 269.203 214.803 269.022 214.874 269.022C215.184 269.077 215.462 269.25 215.648 269.504C215.904 269.736 216.071 270.049 216.121 270.39C216.082 270.821 215.914 271.232 215.638 271.566C215.326 272.009 215.095 272.23 214.954 272.23C214.813 272.23 214.683 272.099 214.431 271.848C214.225 271.637 214.003 271.442 213.767 271.265C213.295 272.21 212.923 272.683 212.641 272.683C212.524 272.663 212.417 272.602 212.339 272.512L211.776 272.049C211.514 271.888 211.414 271.757 211.414 271.707H211.394Z" fill="#3D8361"/>
<path d="M141.418 177.017C140.624 177.802 139.859 178.667 138.984 179.401C138.059 180.156 137.092 180.858 136.087 181.503C135.606 181.833 135.055 182.046 134.477 182.127C133.899 182.207 133.311 182.152 132.758 181.966C131.682 181.654 130.616 181.312 129.56 180.96C127.447 180.256 127.216 180.376 126.794 182.458C121.604 180.638 116.846 174.492 116.735 169.383C119.471 170.469 122.247 171.233 125.154 170.389C126.924 169.886 128.634 169.161 130.545 168.478C125.516 163.378 124.078 157.192 123.334 150.715C127.809 150.051 132.245 149.628 136.56 148.703C140.875 147.778 145.019 146.329 149.163 145.132C148.764 145.617 148.292 146.038 147.765 146.38C146.022 147.301 144.206 148.075 142.334 148.693C136.805 150.376 131.136 151.557 125.395 152.223C125.664 155.01 126.402 157.73 127.578 160.27C132.155 170.328 143.209 174.07 152.844 168.709C153.468 168.372 154.063 167.985 154.625 167.552C155.932 166.546 157.139 165.359 156.878 163.529C156.767 162.535 156.386 161.59 155.776 160.797C155.166 160.005 154.35 159.394 153.418 159.033C151.502 158.345 149.415 158.303 147.473 158.912C146.689 159.103 145.914 159.365 145.029 159.626C148.047 156.951 153.629 156.699 156.656 159.023C157.257 159.399 157.771 159.897 158.165 160.485C158.559 161.073 158.825 161.738 158.944 162.436C159.064 163.133 159.035 163.849 158.859 164.535C158.683 165.22 158.364 165.861 157.924 166.416C156.677 168.253 154.956 169.719 152.945 170.66C146.156 174.02 139.437 173.989 132.828 170.117C132.296 169.819 131.671 169.733 131.078 169.876C130.044 170.193 129.058 170.653 128.151 171.244C126.765 172.207 125.15 172.79 123.468 172.933C121.785 173.076 120.095 172.774 118.566 172.058C119.793 175.579 122.207 177.791 125.114 179.733C125.868 178.043 127.216 178.184 128.614 178.586C129.841 178.938 131.048 179.32 132.255 179.692C133.139 180.02 134.095 180.1 135.021 179.922C135.946 179.745 136.806 179.318 137.506 178.687C138.904 177.46 140.282 176.202 141.76 174.885L142.515 175.89C145.854 180.044 149.817 183.283 155.178 184.41C156.236 184.629 157.315 184.734 158.396 184.722C158.726 184.767 159.061 184.74 159.379 184.643C159.696 184.545 159.989 184.38 160.236 184.158C160.483 183.935 160.679 183.662 160.809 183.356C160.94 183.051 161.002 182.72 160.991 182.388C161.016 181.31 160.972 180.232 160.861 179.159C161.183 179.159 161.575 179.109 161.967 179.109C164.815 179.212 167.647 178.644 170.235 177.449C170.605 177.267 170.961 177.059 171.301 176.826C171.774 176.484 171.864 176.122 171.432 175.619C171.18 175.327 170.919 174.714 171.05 174.533C171.191 174.329 171.373 174.157 171.585 174.027C171.796 173.898 172.031 173.813 172.277 173.778C174.982 173.959 176.803 172.31 178.674 170.761C178.996 170.499 179.076 169.956 179.257 169.534C178.815 169.403 178.352 169.101 177.94 169.161C176.129 169.423 174.349 169.896 172.528 170.097C170.828 170.32 169.109 170.367 167.399 170.238C164.643 169.946 162.711 168.377 161.444 165.621C162.601 166.154 163.516 166.627 164.462 166.999C167.201 168.148 170.203 168.527 173.142 168.095C174.319 167.924 175.516 167.794 176.702 167.653C177.146 167.591 177.593 167.554 178.04 167.542C179.177 167.542 180.605 167.22 181.058 168.548C181.51 169.876 180.374 170.63 179.519 171.284C177.829 172.581 176.018 173.698 174.309 174.965C173.849 175.396 173.45 175.886 173.122 176.424C172.622 177.273 172.002 178.045 171.281 178.717C168.797 180.447 165.88 180.99 162.923 181.332L161.917 181.443C161.846 181.443 161.796 181.523 161.766 181.543C161.766 182.338 161.897 183.122 161.867 183.887C161.893 184.217 161.848 184.548 161.736 184.86C161.624 185.171 161.447 185.455 161.217 185.693C160.987 185.931 160.709 186.117 160.401 186.239C160.093 186.361 159.763 186.417 159.432 186.401C151.839 187.075 146.095 183.997 141.931 177.741L141.489 177.097C141.489 177.097 141.509 177.047 141.418 177.017Z" fill="#3D8361"/>
<path d="M134.848 141.645C134.278 139.506 134.145 137.275 134.456 135.084C134.767 132.893 135.516 130.786 136.659 128.891C138.258 126.216 141.004 125.924 143.116 128.217C144.247 129.648 145.295 131.142 146.254 132.693C146.659 133.203 147.099 133.684 147.572 134.131C148.036 133.676 148.438 133.162 148.769 132.602C149.604 130.681 150.277 128.7 151.122 126.789C151.735 125.265 152.493 123.803 153.385 122.424C156.584 117.857 162.136 117.535 165.797 121.73C167.014 123.192 168.076 124.776 168.966 126.457C170.635 129.474 172.778 135.801 172.898 138.084C172.768 137.752 172.627 137.42 172.496 137.078C171.255 133.506 169.529 130.122 167.366 127.02C166.28 125.51 164.99 124.156 163.534 122.997C162.859 122.42 162.068 121.995 161.213 121.752C160.359 121.509 159.462 121.453 158.584 121.589C157.707 121.724 156.869 122.048 156.127 122.538C155.386 123.027 154.76 123.671 154.291 124.425C153.192 126.241 152.204 128.122 151.334 130.058C150.704 131.367 149.995 132.637 149.211 133.86C148.316 135.127 147.421 135.137 146.325 134.031C145.48 133.186 144.756 132.22 143.941 131.355C141.346 128.63 138.208 129.012 136.256 132.271C135.186 134.214 134.654 136.409 134.717 138.627C134.697 139.633 134.798 140.639 134.848 141.645Z" fill="#3D8361"/>
<path d="M165.922 133.748C166.007 135.663 165.486 137.557 164.433 139.159C164.012 139.924 163.37 140.545 162.593 140.941C161.815 141.337 160.936 141.491 160.069 141.383C159.203 141.275 158.389 140.909 157.732 140.333C157.076 139.758 156.607 138.998 156.387 138.153C155.998 137.04 155.837 135.859 155.915 134.682C155.993 133.506 156.307 132.356 156.839 131.304C157.242 130.307 157.97 129.475 158.905 128.944C159.839 128.412 160.926 128.212 161.989 128.377C164.001 128.709 165.409 130.318 165.791 132.682C165.872 132.994 165.892 133.376 165.922 133.748ZM163.91 133.527C163.885 133.014 163.708 132.52 163.401 132.109C163.094 131.697 162.671 131.386 162.187 131.215C161.703 131.045 161.179 131.022 160.682 131.151C160.185 131.279 159.737 131.553 159.396 131.937C159.055 132.32 158.836 132.797 158.767 133.306C158.698 133.815 158.782 134.332 159.008 134.793C159.235 135.254 159.593 135.637 160.038 135.893C160.483 136.15 160.994 136.268 161.506 136.232C161.846 136.213 162.178 136.127 162.483 135.978C162.789 135.829 163.061 135.62 163.285 135.364C163.509 135.109 163.68 134.811 163.787 134.488C163.894 134.166 163.936 133.825 163.91 133.486V133.527Z" fill="#3D8361"/>
<path d="M191.94 148.574C193.676 147.006 194.973 145.013 195.702 142.79C195.989 141.807 196.006 140.765 195.752 139.773C195.513 138.873 194.978 138.081 194.234 137.523C193.489 136.964 192.579 136.673 191.649 136.695C190.689 136.618 189.728 136.831 188.89 137.306C188.053 137.781 187.377 138.497 186.951 139.36C186.8 139.642 186.67 139.934 186.448 140.366C185.885 138.616 185.744 137.107 186.811 135.739C187.348 134.982 188.088 134.392 188.945 134.036C189.803 133.68 190.743 133.573 191.659 133.728C193.08 134.007 194.389 134.697 195.423 135.712C196.456 136.728 197.169 138.024 197.472 139.441C197.982 141.725 197.68 144.115 196.617 146.2C196.212 147.059 195.533 147.759 194.686 148.188C193.839 148.618 192.873 148.754 191.94 148.574Z" fill="#3D8361"/>
<path d="M145.384 137.862C145.453 139.463 145.013 141.044 144.126 142.378C143.776 142.947 143.267 143.402 142.662 143.685C142.057 143.968 141.382 144.067 140.72 143.971C140.059 143.875 139.441 143.587 138.941 143.143C138.442 142.699 138.083 142.118 137.91 141.473C137.6 140.59 137.474 139.652 137.539 138.718C137.605 137.784 137.861 136.873 138.292 136.042C138.606 135.295 139.155 134.67 139.856 134.264C140.556 133.857 141.371 133.69 142.175 133.789C142.968 133.92 143.696 134.311 144.242 134.901C144.788 135.491 145.123 136.246 145.192 137.047C145.293 137.339 145.343 137.631 145.384 137.862ZM140.757 140.266C141.184 140.258 141.599 140.123 141.949 139.877C142.299 139.632 142.569 139.289 142.723 138.89C142.877 138.492 142.909 138.056 142.814 137.639C142.72 137.222 142.504 136.843 142.193 136.55C141.883 136.256 141.492 136.062 141.07 135.991C140.649 135.921 140.216 135.977 139.827 136.153C139.437 136.33 139.109 136.618 138.885 136.981C138.66 137.345 138.548 137.767 138.564 138.194C138.59 138.756 138.833 139.286 139.242 139.673C139.651 140.059 140.194 140.272 140.757 140.266Z" fill="#3D8361"/>
<path d="M170.485 120.31C165.073 116.428 159.541 113.632 152.883 117.524C152.876 116.595 153.185 115.691 153.759 114.96C154.332 114.229 155.137 113.715 156.041 113.501C157.873 112.947 159.822 112.909 161.674 113.39C165.637 114.376 168.282 117.082 170.485 120.31Z" fill="#3D8361"/>
<path d="M144.718 121.418C143.572 121.327 142.506 121.176 141.429 121.166C140.36 121.131 139.297 121.349 138.329 121.804C137.36 122.258 136.513 122.936 135.857 123.781C134.741 125.209 133.846 126.799 132.84 128.338C132.679 128.569 132.558 128.83 132.357 129.193C132.354 126.737 133.115 124.342 134.536 122.34C135.956 120.337 137.965 118.827 140.283 118.018C143.019 117.183 144.708 118.45 144.718 121.418Z" fill="#3D8361"/>
<path d="M157.6 143.162C161.755 142.95 164.802 145.334 164.993 148.955C165.036 149.816 164.908 150.676 164.616 151.487C164.324 152.298 163.874 153.042 163.292 153.677C162.71 154.313 162.008 154.826 161.226 155.188C160.444 155.55 159.598 155.753 158.737 155.785C154.643 156.016 151.445 153.431 151.274 149.75C151.103 146.068 153.788 143.363 157.6 143.162ZM157.832 143.856C156.76 143.806 155.697 144.064 154.767 144.599C153.836 145.133 153.078 145.922 152.581 146.873C152.115 147.732 151.89 148.701 151.933 149.678C151.975 150.654 152.283 151.6 152.823 152.415C153.579 153.491 154.647 154.309 155.883 154.758C157.118 155.208 158.462 155.268 159.733 154.93C160.519 154.768 161.263 154.443 161.917 153.977C162.57 153.51 163.118 152.911 163.526 152.219C163.933 151.527 164.191 150.757 164.283 149.959C164.375 149.162 164.298 148.354 164.058 147.587C163.293 145.163 160.98 143.785 157.832 143.856Z" fill="#3D8361"/>
<path d="M165.601 145.486C165.774 144.571 166.216 143.728 166.87 143.063C167.523 142.399 168.359 141.944 169.272 141.755C171.579 141.369 173.913 141.174 176.252 141.172C177.022 141.279 177.748 141.591 178.354 142.077C178.47 142.214 178.547 142.38 178.577 142.556C178.607 142.733 178.589 142.915 178.525 143.083C178.414 143.249 178.265 143.387 178.09 143.485C177.915 143.583 177.72 143.638 177.52 143.646C171.947 142.801 171.183 142.891 165.601 145.486Z" fill="#3D8361"/>
<path d="M191.106 138.828L194.002 141.926L189.808 144.943C189.589 144.486 189.508 143.975 189.576 143.473C189.644 142.971 189.858 142.499 190.19 142.117C190.361 141.886 190.583 141.423 190.482 141.292C189.738 140.216 190.422 139.613 191.106 138.828Z" fill="#3D8361"/>
<path d="M155.619 145.153C157.631 144.761 159.693 144.449 161.654 145.726C162.325 146.178 162.857 146.808 163.189 147.546C163.521 148.283 163.641 149.099 163.535 149.9C163.481 150.459 163.295 150.997 162.992 151.47C162.7 149.599 162.67 147.507 160.839 146.601C159.151 145.948 157.403 145.462 155.619 145.153Z" fill="#3D8361"/>
<path d="M89.007 101.069C91.2802 105.686 94.7704 106.551 98.3813 106.37C108.067 105.867 117.753 105.223 127.419 104.358C144.75 102.759 162.05 100.717 179.4 99.3293C184.186 99.064 188.982 99.615 193.582 100.959C201.709 103.172 206.537 114.296 203.228 122.081C203.047 122.513 202.574 122.825 201.689 123.781C201.448 121.769 201.307 120.351 201.116 118.983C200.261 112.767 196.6 108.985 190.484 107.597C182.015 105.686 173.607 106.883 165.168 107.728C145.051 109.74 125.005 111.751 104.919 113.692C104.296 113.753 103.692 113.934 102.475 114.185C107.202 118.42 111.276 122.544 111.819 128.74C112 130.862 111.819 133.004 111.889 135.841C111.065 134.956 110.672 134.734 110.672 134.513C110.672 125.33 104.044 121.266 97.4056 117.132C94.8123 115.649 92.4192 113.841 90.2844 111.751C87.7498 108.975 87.6995 105.505 89.007 101.069Z" fill="#3D8361"/>
<path d="M201.101 144.551C200.839 136.857 198.717 129.404 193.879 123.731C191.527 120.751 188.107 118.803 184.344 118.3C189.877 121.684 194.124 126.816 196.414 132.884C200.93 144.471 198.144 157.164 192.139 166.83C178.178 189.321 151.514 198.494 128.641 189.582C117.306 185.156 108.344 175.048 111.462 160.413C111.784 158.955 111.864 157.396 112.066 155.907L111.009 154.901C110.004 156.058 108.455 157.004 108.133 158.392C104.562 173.388 111.271 188.194 122.496 196.261C128.991 200.956 136.639 203.8 144.624 204.488C147.699 204.739 150.792 204.651 153.847 204.227C159.809 203.372 165.55 201.374 170.755 198.343C176.155 195.203 181.009 191.209 185.128 186.514C194.573 175.782 201.644 160.645 201.101 144.551Z" fill="#3D8361"/>
<path d="M271.87 214.897V215.018C271.901 215.538 271.797 216.058 271.568 216.526C269.606 221.391 266.542 225.735 262.617 229.215C258.691 232.695 254.012 235.217 248.947 236.582C246.543 237.216 243.687 237.468 241.836 235.808C240.196 234.339 239.945 231.865 240.136 229.662C240.649 223.627 243.586 218.116 244.733 212.191C244.163 212.483 243.567 212.718 242.952 212.895C242.289 213.187 241.635 213.499 240.991 213.841C239.701 214.517 238.463 215.291 237.29 216.154C234.941 217.891 232.887 219.993 231.204 222.38C223.864 233.106 213.113 241.035 200.698 244.88C198.418 245.593 195.993 245.704 193.657 245.202C192.229 244.86 190.086 242.577 190.278 241.541C190.569 239.982 192.38 238.202 193.969 237.518C198.777 235.345 203.886 233.847 208.694 231.694C216.811 228.083 223.037 222.139 228.881 215.5C231.365 212.767 234.055 210.228 236.928 207.906C239.412 205.834 241.957 203.109 245.306 202.576C246.158 202.404 247.043 202.521 247.821 202.908C248.441 203.291 248.939 203.842 249.259 204.497C250.476 206.8 250.204 209.596 249.571 212.121C248.515 216.355 246.553 220.429 246.362 224.794C246.341 224.963 246.38 225.134 246.473 225.277C246.568 225.364 246.687 225.42 246.815 225.438C248.587 225.821 250.434 225.664 252.115 224.985C253.786 224.312 255.384 223.47 256.883 222.471L270.059 214.364C270.298 214.189 270.58 214.081 270.874 214.052C271.109 214.066 271.333 214.156 271.513 214.308C271.693 214.461 271.818 214.667 271.87 214.897Z" fill="#3D8361"/>
<path d="M163.365 225.39C164.371 223.579 168.394 221.738 169.471 221.205C176.592 217.554 183.884 214.165 190.593 209.83C196.954 205.805 202.871 201.118 208.245 195.849C211.093 193.019 213.35 189.651 214.884 185.941C220.737 171.317 228.442 165.925 244.113 166.418C244.59 166.474 245.047 166.642 245.446 166.91C245.845 167.178 246.174 167.537 246.406 167.957C247.321 171.739 242.916 177.08 238.983 177.221C224.902 177.724 223.252 179.172 217.861 192.499C216.048 196.763 213.471 200.659 210.257 203.996C199.977 214.959 187.274 223.77 172.448 227.029C170.668 227.421 168.857 227.723 167.047 227.944C165.983 228.184 164.868 228.03 163.909 227.512C163.72 227.422 163.554 227.291 163.421 227.13C163.289 226.969 163.193 226.78 163.141 226.578C163.089 226.375 163.083 226.164 163.121 225.959C163.16 225.753 163.243 225.559 163.365 225.39Z" fill="#3D8361"/>
<path d="M169.168 101.3C168.052 94.7922 168.001 94.0579 161.413 94.2591C151.808 94.5508 142.242 95.9489 132.677 96.9849C130.665 97.2062 128.724 98.1114 126.712 98.3427C124.539 98.4854 122.36 98.5123 120.185 98.4232C120.282 95.8744 120.517 93.3327 120.889 90.8091C121.029 90.0849 122.407 89.2099 123.313 89.0892C130.947 88.0833 138.591 86.9468 146.266 86.3433C152.743 85.8303 159.341 85.3375 165.758 85.951C174.569 86.8261 176.148 91.0807 171.28 98.6747C170.767 99.4391 170.103 100.113 169.168 101.3Z" fill="#3D8361"/>
<path d="M150.057 217.644C150.055 217.364 150.13 217.088 150.273 216.847C150.417 216.606 150.624 216.409 150.871 216.277C155.327 213.4 160.205 211.026 164.802 208.361C169.791 205.471 174.76 202.557 179.708 199.62C186.156 195.798 192.573 191.171 196.807 184.865C198.405 182.468 199.791 179.937 200.951 177.301C201.583 176.132 202.317 175.021 203.144 173.982L204.391 174.193C204.472 175.672 204.924 177.21 204.592 178.598C202.67 186.995 198.247 194.612 191.909 200.445C183.866 207.722 174.667 213.609 164.691 217.866C160.487 219.636 155.408 220.883 151.113 218.761C150.884 218.673 150.676 218.538 150.503 218.365C150.33 218.192 150.195 217.984 150.107 217.755C150.085 217.721 150.068 217.684 150.057 217.644Z" fill="#3D8361"/>
<path d="M178.571 233.195C178.752 232.068 180.23 231.485 181.075 230.941C187.613 226.747 194.402 222.955 201.081 219.002C207.569 215.15 214.579 211.278 220.192 206.239C223.984 202.849 226.961 198.604 230.431 194.913C230.692 197.146 231.336 198.634 230.904 199.681C229.676 202.698 228.429 205.806 226.448 208.28C218.985 217.604 209.882 225.279 198.949 229.946C193.004 232.49 187.17 236.222 180.421 235.216C180.173 235.186 179.93 235.125 179.697 235.035C179.348 234.875 179.054 234.615 178.853 234.287C178.652 233.959 178.554 233.579 178.571 233.195Z" fill="#3D8361"/>
<path d="M237.826 272.43L255.931 253.209L255.116 251.64C252.038 252.132 248.93 252.535 245.873 253.148C241.266 254.084 239.918 252.927 241.165 248.431C241.779 246.228 242.865 242.698 244.263 242.396C249.344 241.44 254.527 241.149 259.683 241.531C260.568 241.591 261.986 245.776 261.795 247.928C261.399 252.668 259.976 257.265 257.624 261.399C255.272 265.533 252.048 269.105 248.176 271.867C245.531 273.909 242.594 276.031 237.826 272.43Z" fill="#3D8361"/>
<path d="M222.609 257.796C220.597 260.139 219.3 262.271 217.399 263.549C216.846 263.921 214.381 262.141 213.265 260.914C209.171 256.458 209.071 254.386 212.752 249.85C213.366 249.085 215.719 248.542 216.051 248.944C218.304 251.59 220.235 254.496 222.609 257.796Z" fill="#3D8361"/>
<path d="M225.074 151.401L218.717 158.633C216.333 156.38 212.31 154.308 212.038 151.834C211.767 149.36 215.428 146.664 217.369 144.059L225.074 151.401Z" fill="#3D8361"/>
</g>
<defs>
<clipPath id="clip0_2003_18178">
<rect width="254" height="254" fill="white" transform="translate(57 51)"/>
</clipPath>
</defs>
</svg>
