<svg width="22" height="15" viewBox="0 0 22 15" fill="none" xmlns="http://www.w3.org/2000/svg">
<path d="M2.85991 2.9242C2.4241 3.8421 2.20619 4.68841 2.20619 5.46315C2.20619 6.11999 2.35705 6.61262 2.65877 6.94104C2.96886 7.26947 3.48429 7.43368 4.20505 7.43368H5.28619C5.82258 7.43368 6.22486 7.38736 6.49305 7.29473C6.76124 7.2021 6.94143 7.0421 7.03362 6.81473C7.13419 6.58736 7.18448 6.25052 7.18448 5.8042V1.83789H8.78105V5.8042C8.78105 6.86525 8.4961 7.70315 7.92619 8.31789C7.36467 8.94105 6.48467 9.25262 5.28619 9.25262H4.20505C3.45077 9.25262 2.80543 9.0842 2.26905 8.74736C1.73267 8.41052 1.32619 7.95578 1.04962 7.38315C0.773051 6.81052 0.634766 6.17052 0.634766 5.46315C0.634766 4.94947 0.722766 4.4021 0.898766 3.82104C1.07477 3.23999 1.28429 2.70526 1.52734 2.21683L2.85991 2.9242ZM4.20505 0.675781H5.87705V2.31789H4.20505V0.675781Z" fill="#C62020"/>
<path d="M5.32683 14.6589C4.44683 14.6589 3.7973 14.4021 3.37826 13.8884C2.96759 13.3747 2.76226 12.6842 2.76226 11.8168V6.22103H4.35883V11.8168C4.35883 12.1368 4.37559 12.3642 4.40911 12.4989C4.45102 12.6337 4.53483 12.7263 4.66054 12.7768C4.79464 12.8189 5.01674 12.84 5.32683 12.84H5.7794L5.85483 13.7747L5.7794 14.6589H5.32683Z" fill="#C62020"/>
<path d="M5.65094 12.84H5.97779C6.14541 12.84 6.27113 12.8021 6.35494 12.7263C6.44713 12.6421 6.51417 12.5073 6.55608 12.3221L6.88294 11.1094C7.06732 10.3768 7.37741 9.81682 7.81322 9.42945C8.24903 9.04208 8.77284 8.8484 9.38465 8.8484C9.87075 8.8484 10.3024 8.98313 10.6795 9.25261C11.065 9.51366 11.3667 9.87998 11.5847 10.3516C11.8026 10.8147 11.9115 11.3368 11.9115 11.9179C11.9115 12.6168 11.7984 13.1894 11.5721 13.6358C11.3458 14.0737 11.0608 14.3937 10.7172 14.5958C10.382 14.7894 10.03 14.8863 9.66122 14.8863C9.37627 14.8863 9.07456 14.8273 8.75608 14.7094C8.44598 14.6 7.98084 14.3979 7.36065 14.1031C7.16789 14.28 6.95417 14.4189 6.71951 14.52C6.48484 14.6126 6.24599 14.6589 6.00294 14.6589H5.65094V12.84ZM8.12751 12.5747C8.58008 12.7852 8.91532 12.9284 9.13322 13.0042C9.35113 13.08 9.54808 13.1179 9.72408 13.1179C10.185 13.1179 10.4155 12.7221 10.4155 11.9305C10.4155 11.501 10.3233 11.1726 10.1389 10.9452C9.95456 10.7094 9.7157 10.5916 9.42237 10.5916C9.17932 10.5916 8.9656 10.68 8.78122 10.8568C8.59684 11.0337 8.46275 11.2905 8.37894 11.6273L8.12751 12.5747Z" fill="#C62020"/>
<path d="M13.659 12.9409C14.1786 12.9409 14.5725 12.8946 14.8407 12.802C15.1089 12.7178 15.2932 12.5704 15.3938 12.3599C15.5028 12.1578 15.5656 11.8672 15.5824 11.4883H14.5012C13.705 11.4883 13.0723 11.2567 12.603 10.7936C12.142 10.322 11.9115 9.66513 11.9115 8.82303C11.9115 8.22513 12.0205 7.69461 12.2384 7.23145C12.4647 6.76829 12.7706 6.4104 13.1561 6.15777C13.55 5.89671 13.9942 5.76619 14.4887 5.76619C15.025 5.76619 15.4944 5.8925 15.8967 6.14513C16.3073 6.39777 16.6216 6.75566 16.8395 7.21882C17.0658 7.68198 17.179 8.21671 17.179 8.82303V9.66934H17.8704L17.971 10.5914L17.8704 11.4883H17.179C17.1454 12.4736 16.8437 13.2651 16.2738 13.863C15.7039 14.4609 14.8323 14.7599 13.659 14.7599H12.163V12.9409H13.659ZM13.4452 8.73461C13.4452 9.07987 13.529 9.33671 13.6967 9.50513C13.8643 9.66513 14.1325 9.74513 14.5012 9.74513H15.5824V8.78513C15.5824 7.90934 15.2178 7.47145 14.4887 7.47145C14.145 7.47145 13.8852 7.58934 13.7092 7.82513C13.5332 8.06092 13.4452 8.36408 13.4452 8.73461Z" fill="#C62020"/>
<path d="M17.7265 9.66934H19.1219C19.4991 9.66934 19.7673 9.60619 19.9265 9.47987C20.0857 9.34513 20.157 9.15566 20.1402 8.91145C20.0983 8.38934 19.9894 7.6904 19.8134 6.81461L21.3219 6.43566C21.4225 6.88198 21.5147 7.35776 21.5985 7.86303C21.6907 8.36829 21.7368 8.77671 21.7368 9.08829C21.7368 9.50934 21.6446 9.90092 21.4602 10.263C21.2758 10.6251 20.9951 10.9199 20.6179 11.1472C20.2492 11.3746 19.7924 11.4883 19.2476 11.4883H17.7265V9.66934ZM18.0785 3.5304H19.5745V5.03356H18.0785V3.5304ZM20.4294 3.5304H21.9379V5.03356H20.4294V3.5304Z" fill="#C62020"/>
</svg>
