<svg width="258" height="259" viewBox="0 0 258 259" fill="none" xmlns="http://www.w3.org/2000/svg">
<path fill-rule="evenodd" clip-rule="evenodd" d="M252.172 103.564L252.436 104.439L252.697 105.319L252.953 106.206L253.204 107.098L253.451 107.996L253.693 108.901L253.93 109.811L254.162 110.727L254.389 111.65L254.61 112.579L254.826 113.514L255.035 114.455L255.239 115.402L255.437 116.356L255.629 117.316L255.814 118.282L255.993 119.255L256.165 120.233L256.33 121.219L256.488 122.211L256.639 123.209L256.783 124.213L256.92 125.224L257.049 126.241L257.17 127.265L257.284 128.295L257.389 129.331L257.487 130.374L257.577 131.423L257.658 132.479L257.732 133.541L257.796 134.61L257.852 135.684L257.899 136.765L257.938 137.853L257.967 138.947L257.987 140.047L257.998 141.153L258 142.266L257.992 143.385L257.974 144.511L257.947 145.642L257.909 146.78L257.862 147.924L257.804 149.073L257.735 150.229L257.656 151.391L257.566 152.559L257.465 153.732L257.352 154.911L257.228 156.096L257.092 157.286L256.944 158.482L256.783 159.682L256.61 160.888L256.424 162.098L256.225 163.313L256.013 164.533L255.787 165.756L255.547 166.984L255.293 168.216L255.025 169.451L254.742 170.689L254.444 171.931L254.131 173.175L253.803 174.422L253.459 175.671L253.1 176.923L252.725 178.177L252.334 179.432L251.927 180.688L251.504 181.946L251.064 183.205L250.608 184.464L250.134 185.723L249.644 186.983L249.136 188.242L248.612 189.5L248.07 190.758L247.51 192.014L246.933 193.269L246.338 194.523L245.726 195.773L245.095 197.022L244.447 198.267L243.78 199.51L243.095 200.749L242.392 201.984L241.67 203.214L240.93 204.441L240.172 205.662L239.395 206.877L238.599 208.087L237.785 209.291L236.952 210.488L236.101 211.678L235.23 212.861L234.341 214.036L233.434 215.203L232.508 216.362L231.563 217.511L230.6 218.652L229.618 219.783L228.618 220.904L227.6 222.014L226.563 223.114L225.509 224.204L224.436 225.281L223.346 226.348L222.238 227.402L221.113 228.444L219.97 229.473L218.809 230.49L217.632 231.493L216.437 232.483L215.226 233.459L213.998 234.42L212.754 235.367L211.493 236.3L210.217 237.217L208.924 238.119L207.616 239.005L206.293 239.876L204.954 240.73L203.6 241.567L202.231 242.388L200.848 243.192L199.451 243.978L198.039 244.747L196.614 245.498L195.175 246.231L193.723 246.945L192.257 247.641L190.779 248.318L189.289 248.976L187.786 249.615L186.271 250.234L184.745 250.833L183.207 251.413L181.658 251.973L180.099 252.512L178.528 253.031L176.948 253.529L175.358 254.006L173.758 254.462L172.149 254.898L170.531 255.312L168.905 255.704L167.27 256.075L165.627 256.424L163.977 256.752L162.319 257.058L160.654 257.341L158.983 257.603L157.305 257.842L155.621 258.059L153.931 258.254L152.236 258.426L150.536 258.575L148.831 258.703L147.122 258.807L145.408 258.889L143.691 258.949L141.97 258.986L140.247 259L138.52 258.992L136.791 258.961L135.059 258.907L133.326 258.831L131.591 258.732L129.855 258.611L128.118 258.468L126.38 258.302L124.641 258.113L122.903 257.903L121.164 257.67L119.427 257.415L117.689 257.137L115.953 256.838L114.218 256.516L112.485 256.172L110.754 255.807L109.024 255.419L107.297 255.01L105.573 254.579L103.852 254.126L102.134 253.651L100.42 253.155L98.7096 252.636L97.0033 252.097L95.3015 251.535L93.6044 250.952L91.9124 250.348L90.2257 249.722L88.5447 249.074L86.8696 248.405L85.2008 247.715L83.5386 247.003L81.8832 246.27L80.235 245.516L78.5944 244.74L76.9615 243.944L75.3368 243.126L73.7205 242.287L72.113 241.428L70.5145 240.547L68.9256 239.645L67.3464 238.723L65.7773 237.78L64.2187 236.816L62.6708 235.832L61.1342 234.827L59.6091 233.801L58.0959 232.755L56.595 231.689L55.1068 230.602L53.6316 229.495L52.1698 228.368L50.7219 227.221L49.2882 226.055L47.8691 224.868L46.4651 223.661L45.0764 222.435L43.7037 221.19L42.3471 219.925L41.0073 218.641L39.6845 217.338L38.3792 216.016L37.0918 214.676L35.8227 213.316L34.5722 211.939L33.3408 210.544L32.1289 209.13L30.9368 207.699L29.7649 206.251L28.6135 204.786L27.4831 203.303L26.3739 201.805L25.2862 200.29L24.2204 198.759L23.1766 197.213L22.1553 195.651L21.1566 194.075L20.1808 192.484L19.2281 190.88L18.2985 189.261L17.3924 187.63L16.5098 185.985L15.6507 184.329L14.8154 182.66L14.0038 180.98L13.2159 179.289L12.4518 177.587L11.7115 175.876L10.9948 174.154L10.3018 172.424L9.63248 170.684L8.98672 168.937L8.36447 167.181L7.76566 165.418L7.19019 163.648L6.63797 161.871L6.1089 160.088L5.60285 158.299L5.11971 156.505L4.65935 154.706L4.22164 152.902L3.80644 151.093L3.4136 149.281L3.04298 147.465L2.69443 145.646L2.3678 143.823L2.06295 141.998L1.7797 140.171L1.51793 138.342L1.27747 136.511L1.05817 134.679L0.8599 132.846L0.68251 131.011L0.525864 129.177L0.389832 127.342L0.274288 125.506L0.179113 123.671L0.104196 121.837L0.0494337 120.003L0.0147302 118.17L0 116.338L0.00516655 114.507L0.0301634 112.678L0.0749356 110.851L0.139449 109.026L0.223699 107.203L0.327708 105.382L0.451523 103.564L0.595222 101.749L0.758904 99.9368L0.942694 98.128L1.14674 96.3228L1.37121 94.5215L1.6163 92.7241L1.88221 90.9312L2.16917 89.1428L2.47743 87.3593L2.80723 85.5811L3.15885 83.8084L3.53257 82.0415L3.92867 80.281L4.34745 78.527L4.78921 76.7801L5.25425 75.0406L5.74288 73.309L6.2554 71.5856L6.79211 69.871L7.35331 68.1657L7.93928 66.4701L8.55031 64.7847L9.18666 63.1102L9.84859 61.4469L10.5363 59.7956L11.2501 58.1567L11.9902 56.5309L12.7566 54.9188L13.5497 53.3209L14.3695 51.738L15.2161 50.1705L16.0896 48.6193L16.9901 47.0848L17.9176 45.5678L18.8721 44.0689L19.8535 42.5887L20.8618 41.1279L21.8968 39.6872L22.9584 38.2672L24.0464 36.8684L25.1605 35.4916L26.3006 34.1373L27.4662 32.8062L28.6571 31.4987L29.8729 30.2155L31.113 28.9571L32.3771 27.724L33.6646 26.5167L34.975 25.3357L36.3077 24.1813L37.662 23.054L39.0372 21.9541L40.4328 20.882L41.8478 19.8379L43.2815 18.8221L44.7332 17.8348L46.2019 16.8761L47.6868 15.9462L49.1872 15.0452L50.702 14.1732L52.2304 13.3301L53.7716 12.5161L55.3246 11.731L56.8886 10.9747L58.4626 10.2473L60.0458 9.54852L61.6372 8.87822L63.2361 8.2362L64.8413 7.62222L66.4522 7.03601L68.0677 6.47728L69.6872 5.9457L71.3095 5.4409L72.9341 4.9625L74.5599 4.51009L76.1862 4.08322L77.8122 3.68142L79.4372 3.30419L81.0602 2.95103L82.6807 2.62139L84.2979 2.31472L85.911 2.03043L87.5195 1.76792L89.1227 1.5266L90.7199 1.30582L92.3106 1.10494L93.8942 0.923318L95.4702 0.760286L97.038 0.615174L98.5972 0.487302L100.147 0.375989L101.688 0.280548L103.219 0.200292L104.739 0.134532L106.249 0.082591L107.749 0.0438048L109.237 0.017527L110.714 0.00312857L112.179 0L113.633 0.00755196L115.075 0.0252165L116.505 0.0524481L117.924 0.0887243L119.33 0.133547L120.725 0.186442L122.108 0.246961L123.479 0.314683L124.838 0.38921L126.186 0.470174L127.523 0.557232L128.847 0.650068L130.161 0.748395L131.464 0.851951L132.755 0.960502L134.036 1.07384L135.307 1.19179L136.567 1.31419L137.817 1.44091L139.057 1.57186L140.287 1.70695L141.508 1.84612L142.72 1.98936L143.922 2.13664L145.116 2.28798L146.301 2.44341L147.477 2.60298L148.646 2.76677L149.806 2.93485L150.959 3.10734L152.104 3.28435L153.241 3.46601L154.371 3.65247L155.494 3.84387L156.61 4.04037L157.72 4.24216L158.822 4.44939L159.918 4.66225L161.007 4.88092L162.09 5.10558L163.167 5.33642L164.237 5.57361L165.302 5.81733L166.36 6.06776L167.412 6.32505L168.458 6.58937L169.498 6.86085L170.531 7.13964L171.559 7.42585L172.581 7.71959L173.597 8.02096L174.606 8.33002L175.61 8.64684L176.607 8.97145L177.598 9.30387L178.583 9.64413L179.562 9.99226L180.535 10.3483L181.501 10.7122L182.461 11.084L183.414 11.4638L184.361 11.8516L185.301 12.2473L186.235 12.651L187.162 13.0627L188.083 13.4824L188.996 13.9102L189.903 14.3459L190.803 14.7896L191.696 15.2412L192.581 15.7009L193.46 16.1685L194.331 16.644L195.195 17.1274L196.051 17.6186L196.9 18.1177L197.741 18.6245L198.575 19.139L199.401 19.6611L200.219 20.1908L201.03 20.728L201.832 21.2725L202.626 21.8244L203.413 22.3835L204.191 22.9496L204.961 23.5227L205.722 24.1027L206.476 24.6894L207.221 25.2826L207.958 25.8823L208.686 26.4883L209.406 27.1003L210.118 27.7183L210.821 28.342L211.516 28.9714L212.202 29.6062L212.881 30.2463L213.55 30.8916L214.211 31.5419L214.864 32.1971L215.509 32.857L216.145 33.5217L216.772 34.1908L217.391 34.8643L218.002 35.5421L218.604 36.2241L219.198 36.9101L219.784 37.6L220.361 38.2936L220.93 38.991L221.491 39.6918L222.043 40.396L222.587 41.1035L223.124 41.8141L223.652 42.5277L224.172 43.2441L224.684 43.9633L225.188 44.6849L225.684 45.409L226.173 46.1353L226.654 46.8636L227.128 47.594L227.595 48.3261L228.054 49.0599L228.507 49.7951L228.952 50.5317L229.391 51.2695L229.823 52.0083L230.25 52.7481L230.67 53.4886L231.084 54.2298L231.492 54.9714L231.895 55.7135L232.293 56.4559L232.685 57.1984L233.073 57.941L233.456 58.6836L233.835 59.4261L234.21 60.1685L234.58 60.9107L234.948 61.6527L235.311 62.3943L235.672 63.1357L236.029 63.8768L236.384 64.6175L236.736 65.3581L237.086 66.0983L237.433 66.8384L237.778 67.5783L238.121 68.3182L238.463 69.0581L238.803 69.7981L239.141 70.5384L239.477 71.2789L239.812 72.02L240.146 72.7616L240.478 73.5038L240.809 74.2469L241.139 74.9909L241.468 75.736L241.796 76.4822L242.122 77.2298L242.448 77.9788L242.772 78.7294L243.096 79.4818L243.419 80.2359L243.741 80.9921L244.061 81.7505L244.381 82.5111L244.701 83.2742L245.019 84.0399L245.336 84.8084L245.652 85.5797L245.967 86.3541L246.281 87.1316L246.594 87.9125L246.905 88.6969L247.216 89.4849L247.524 90.2766L247.832 91.0723L248.137 91.872L248.441 92.6759L248.744 93.4842L249.044 94.2969L249.342 95.1142L249.638 95.9361L249.931 96.7629L250.222 97.5947L250.51 98.4315L250.795 99.2735L251.077 100.121L251.356 100.973L251.632 101.831L251.904 102.695L252.172 103.564Z" fill="#E0F1E9"/>
</svg>
