<svg width="414" height="340" viewBox="0 0 414 340" fill="none" xmlns="http://www.w3.org/2000/svg">
<path fill-rule="evenodd" clip-rule="evenodd" d="M26.9116 269.85L25.6936 268.048L24.4968 266.223L23.3218 264.376L22.1692 262.507L21.0397 260.616L19.9339 258.704L18.8525 256.77L17.7961 254.815L16.7655 252.84L15.7612 250.844L14.7839 248.828L13.8344 246.793L12.9133 244.739L12.0213 242.666L11.1592 240.575L10.3274 238.466L9.5268 236.339L8.75808 234.196L8.02181 232.037L7.31869 229.862L6.64939 227.672L6.01449 225.467L5.41465 223.248L4.85047 221.016L4.3225 218.772L3.83128 216.515L3.37742 214.247L2.96133 211.969L2.58358 209.681L2.24453 207.383L1.94465 205.078L1.68428 202.765L1.46373 200.445L1.28338 198.118L1.14345 195.787L1.04416 193.451L0.985632 191.112L0.968082 188.769L0.991564 186.425L1.05607 184.079L1.16161 181.733L1.30816 179.386L1.4956 177.041L1.72372 174.698L1.9924 172.356L2.30135 170.019L2.65025 167.684L3.03884 165.355L3.46667 163.03L3.93332 160.711L4.43837 158.399L4.98124 156.093L5.56144 153.795L6.1784 151.505L6.83151 149.223L7.52011 146.95L8.24366 144.686L9.00137 142.431L9.79259 140.187L10.6166 137.953L11.4727 135.729L12.3601 133.516L13.2782 131.313L14.226 129.122L15.2029 126.942L16.2081 124.773L17.2408 122.615L18.3003 120.468L19.386 118.333L20.4969 116.209L21.6324 114.096L22.7918 111.995L23.9744 109.904L25.1795 107.824L26.4066 105.754L27.6549 103.696L28.924 101.647L30.2132 99.6085L31.522 97.58L32.85 95.5611L34.1966 93.5517L35.5616 91.5516L36.9445 89.5605L38.345 87.5782L39.7627 85.6045L41.1975 83.6393L42.649 81.6824L44.1172 79.7336L45.602 77.7927L47.1032 75.8598L48.6207 73.9347L50.1546 72.0173L51.705 70.1077L53.2718 68.2059L54.8552 66.312L56.4555 64.4261L58.0727 62.5485L59.7073 60.6795L61.3596 58.8194L63.0298 56.9687L64.7185 55.1279L66.426 53.2975L68.1527 51.4784L69.8992 49.6711L71.6659 47.8765L73.4532 46.0955L75.2617 44.3291L77.0918 42.5782L78.944 40.8439L80.8187 39.1274L82.7163 37.4298L84.6372 35.7525L86.5819 34.0967L88.5506 32.4639L90.5436 30.8553L92.5613 29.2726L94.6037 27.717L96.6712 26.1902L98.7637 24.6936L100.881 23.2289L103.024 21.7975L105.192 20.4012L107.385 19.0414L109.602 17.7198L111.844 16.4378L114.11 15.197L116.4 13.9991L118.713 12.8453L121.049 11.7373L123.407 10.6765L125.787 9.66407L128.187 8.70148L130.608 7.78993L133.047 6.93061L135.505 6.12458L137.979 5.37285L140.47 4.67641L142.976 4.03601L145.496 3.45242L148.028 2.92629L150.572 2.45811L153.126 2.04825L155.689 1.69696L158.26 1.40447L160.836 1.17074L163.418 0.995724L166.003 0.879186L168.59 0.820936L171.178 0.820559L173.765 0.877747L176.35 0.991948L178.932 1.16266L181.509 1.38924L184.081 1.67094L186.645 2.00705L189.202 2.39672L191.748 2.83904L194.284 3.33306L196.808 3.87774L199.32 4.47201L201.817 5.11471L204.3 5.80469L206.766 6.54072L209.216 7.32151L211.649 8.14569L214.062 9.012L216.457 9.91896L218.832 10.8652L221.186 11.8492L223.52 12.8695L225.831 13.9248L228.121 15.0133L230.388 16.1336L232.632 17.2843L234.853 18.4636L237.051 19.6703L239.225 20.9026L241.375 22.1591L243.502 23.4383L245.605 24.7387L247.684 26.0588L249.739 27.3972L251.771 28.7524L253.779 30.1231L255.764 31.5079L257.726 32.9056L259.665 34.3147L261.583 35.734L263.478 37.1625L265.352 38.5988L267.204 40.0418L269.037 41.4904L270.849 42.9436L272.642 44.4002L274.416 45.8593L276.172 47.3198L277.911 48.781L279.632 50.2419L281.338 51.7017L283.028 53.1597L284.703 54.6152L286.365 56.0675L288.013 57.5161L289.649 58.9604L291.273 60.4L292.886 61.8345L294.489 63.2636L296.083 64.687L297.667 66.1044L299.244 67.5158L300.813 68.921L302.376 70.32L303.932 71.7128L305.484 73.0995L307.03 74.4802L308.572 75.8552L310.111 77.2245L311.646 78.5885L313.179 79.9475L314.71 81.3019L316.239 82.6521L317.767 83.9984L319.293 85.3414L320.819 86.6815L322.345 88.0193L323.871 89.3553L325.396 90.69L326.923 92.024L328.449 93.358L329.976 94.6925L331.505 96.028L333.033 97.3653L334.563 98.705L336.094 100.048L337.626 101.394L339.158 102.744L340.692 104.099L342.226 105.46L343.762 106.826L345.298 108.199L346.835 109.579L348.372 110.966L349.91 112.362L351.448 113.767L352.987 115.181L354.524 116.605L356.061 118.04L357.597 119.486L359.132 120.944L360.664 122.415L362.193 123.899L363.72 125.396L365.242 126.909L366.76 128.436L368.272 129.979L369.779 131.538L371.278 133.114L372.77 134.707L374.253 136.318L375.727 137.947L377.19 139.595L378.641 141.262L380.08 142.949L381.505 144.656L382.915 146.382L384.309 148.13L385.686 149.898L387.045 151.687L388.385 153.497L389.704 155.328L391.001 157.181L392.276 159.055L393.525 160.951L394.75 162.868L395.948 164.806L397.117 166.765L398.258 168.745L399.368 170.746L400.447 172.766L401.493 174.807L402.504 176.868L403.481 178.947L404.422 181.046L405.325 183.162L406.189 185.296L407.014 187.447L407.798 189.615L408.54 191.798L409.239 193.996L409.894 196.208L410.503 198.434L411.065 200.672L411.58 202.922L412.046 205.183L412.463 207.453L412.828 209.732L413.142 212.019L413.403 214.312L413.611 216.611L413.765 218.914L413.864 221.22L413.907 223.527L413.894 225.835L413.825 228.143L413.698 230.448L413.513 232.749L413.271 235.046L412.97 237.337L412.612 239.62L412.195 241.894L411.719 244.158L411.185 246.411L410.593 248.65L409.944 250.874L409.236 253.083L408.471 255.274L407.65 257.447L406.772 259.6L405.839 261.732L404.851 263.841L403.808 265.926L402.712 267.986L401.563 270.021L400.363 272.027L399.112 274.006L397.811 275.954L396.462 277.872L395.065 279.758L393.621 281.612L392.132 283.432L390.6 285.217L389.024 286.967L387.406 288.68L385.749 290.357L384.052 291.995L382.317 293.595L380.546 295.156L378.74 296.676L376.9 298.157L375.028 299.596L373.126 300.995L371.195 302.351L369.237 303.666L367.254 304.939L365.246 306.169L363.217 307.357L361.168 308.503L359.1 309.607L357.015 310.669L354.916 311.689L352.804 312.667L350.68 313.604L348.547 314.5L346.406 315.357L344.26 316.173L342.109 316.951L339.956 317.69L337.803 318.392L335.651 319.058L333.501 319.687L331.356 320.282L329.217 320.843L327.085 321.371L324.962 321.868L322.85 322.334L320.749 322.77L318.662 323.179L316.589 323.561L314.531 323.917L312.49 324.25L310.467 324.559L308.463 324.847L306.479 325.115L304.515 325.364L302.573 325.596L300.652 325.812L298.755 326.013L296.88 326.202L295.03 326.379L293.203 326.545L291.402 326.702L289.624 326.851L287.871 326.994L286.143 327.131L284.44 327.263L282.761 327.392L281.106 327.518L279.474 327.642L277.867 327.765L276.282 327.887L274.72 328.011L273.18 328.135L271.662 328.26L270.164 328.387L268.686 328.517L267.228 328.649L265.789 328.785L264.368 328.923L262.964 329.065L261.577 329.21L260.206 329.358L258.85 329.51L257.508 329.665L256.18 329.823L254.864 329.984L253.561 330.148L252.269 330.315L250.987 330.484L249.716 330.656L248.454 330.829L247.2 331.003L245.955 331.179L244.717 331.355L243.485 331.533L242.26 331.71L241.041 331.887L239.827 332.063L238.618 332.238L237.414 332.413L236.213 332.586L235.016 332.757L233.822 332.926L232.632 333.093L231.444 333.258L230.258 333.421L229.075 333.581L227.893 333.738L226.713 333.894L225.535 334.047L224.358 334.198L223.182 334.346L222.007 334.493L220.833 334.639L219.659 334.782L218.485 334.924L217.311 335.065L216.137 335.205L214.963 335.343L213.787 335.481L212.611 335.617L211.434 335.753L210.255 335.888L209.074 336.023L207.891 336.157L206.706 336.29L205.519 336.423L204.328 336.556L203.135 336.688L201.938 336.82L200.738 336.951L199.533 337.081L198.324 337.211L197.111 337.34L195.893 337.468L194.67 337.595L193.442 337.72L192.209 337.844L190.969 337.967L189.724 338.088L188.472 338.206L187.214 338.322L185.949 338.436L184.677 338.546L183.399 338.653L182.113 338.756L180.82 338.856L179.519 338.95L178.211 339.04L176.895 339.124L175.571 339.203L174.24 339.275L172.9 339.34L171.553 339.399L170.197 339.449L168.834 339.492L167.463 339.526L166.084 339.552L164.696 339.567L163.301 339.574L161.898 339.57L160.487 339.556L159.069 339.531L157.642 339.494L156.208 339.447L154.766 339.387L153.317 339.316L151.86 339.232L150.395 339.135L148.924 339.026L147.445 338.903L145.958 338.767L144.465 338.616L142.965 338.452L141.457 338.274L139.943 338.081L138.422 337.873L136.894 337.65L135.36 337.412L133.819 337.159L132.272 336.89L130.719 336.605L129.159 336.304L127.593 335.987L126.022 335.653L124.444 335.303L122.861 334.935L121.272 334.551L119.678 334.149L118.078 333.73L116.474 333.293L114.864 332.838L113.249 332.365L111.63 331.874L110.006 331.363L108.378 330.834L106.746 330.286L105.11 329.718L103.471 329.13L101.828 328.522L100.183 327.894L98.5353 327.245L96.8856 326.575L95.2342 325.883L93.5817 325.17L91.9285 324.434L90.2753 323.676L88.6224 322.896L86.9703 322.092L85.3196 321.265L83.6708 320.414L82.0243 319.54L80.3806 318.641L78.7402 317.719L77.1036 316.772L75.4712 315.8L73.8435 314.804L72.2211 313.784L70.6042 312.738L68.9935 311.668L67.3893 310.572L65.792 309.452L64.2021 308.307L62.6201 307.137L61.0464 305.941L59.4814 304.721L57.9254 303.475L56.3791 302.205L54.8428 300.909L53.3168 299.589L51.8017 298.243L50.2979 296.873L48.8058 295.478L47.3259 294.058L45.8585 292.614L44.4043 291.145L42.9636 289.651L41.5368 288.133L40.1245 286.59L38.7272 285.023L37.3453 283.432L35.9794 281.817L34.6301 280.178L33.2977 278.516L31.983 276.829L30.6864 275.119L29.4086 273.386L28.1501 271.63L26.9116 269.85Z" fill="#3D8361"/>
</svg>
