<svg width="24" height="17" viewBox="0 0 24 17" fill="none" xmlns="http://www.w3.org/2000/svg">
<g id="Tooman">
<g id="&#216;&#170;&#217;&#136;&#217;&#133;&#216;&#167;&#217;&#134;">
<path d="M3.06551 3.19788C2.59842 4.17696 2.36487 5.0797 2.36487 5.90609C2.36487 6.60672 2.52656 7.13219 2.84993 7.48251C3.18228 7.83282 3.7347 8.00798 4.50719 8.00798H5.66593C6.2408 8.00798 6.67196 7.95858 6.9594 7.85977C7.24684 7.76096 7.43996 7.5903 7.53877 7.34777C7.64656 7.10525 7.70045 6.74595 7.70045 6.26988V2.03914H9.41161V6.26988C9.41161 7.40167 9.10621 8.29542 8.4954 8.95114C7.89358 9.61584 6.95042 9.94819 5.66593 9.94819H4.50719C3.69877 9.94819 3.00712 9.76854 2.43224 9.40924C1.85737 9.04995 1.42172 8.5649 1.1253 7.95409C0.828875 7.34328 0.680664 6.66061 0.680664 5.90609C0.680664 5.35816 0.77498 4.7743 0.963611 4.15451C1.15224 3.53472 1.3768 2.96433 1.6373 2.44335L3.06551 3.19788ZM4.50719 0.799561H6.29919V2.55114H4.50719V0.799561Z" fill="#353535"/>
<path d="M5.70948 15.7149C4.76632 15.7149 4.07018 15.4409 3.62106 14.893C3.18092 14.3451 2.96085 13.6085 2.96085 12.6833V6.71449H4.672V12.6833C4.672 13.0247 4.68997 13.2672 4.7259 13.4109C4.77081 13.5546 4.86064 13.6534 4.99537 13.7073C5.13909 13.7522 5.37713 13.7747 5.70948 13.7747H6.19453L6.27537 14.7717L6.19453 15.7149H5.70948Z" fill="#353535"/>
<path d="M6.05685 13.7747H6.40716C6.58681 13.7747 6.72155 13.7343 6.81137 13.6534C6.91018 13.5636 6.98204 13.4199 7.02695 13.2223L7.37727 11.9288C7.57488 11.1473 7.90723 10.55 8.37432 10.1368C8.84141 9.72361 9.40281 9.51702 10.0585 9.51702C10.5795 9.51702 11.0421 9.66074 11.4463 9.94817C11.8595 10.2266 12.1829 10.6174 12.4164 11.1204C12.65 11.6144 12.7667 12.1713 12.7667 12.7911C12.7667 13.5367 12.6455 14.1475 12.403 14.6235C12.1604 15.0906 11.855 15.432 11.4867 15.6475C11.1274 15.8541 10.7502 15.9574 10.355 15.9574C10.0495 15.9574 9.72618 15.8946 9.38485 15.7688C9.0525 15.652 8.55397 15.4365 7.88927 15.1221C7.68267 15.3107 7.45362 15.4589 7.20211 15.5667C6.9506 15.6655 6.6946 15.7149 6.43411 15.7149H6.05685V13.7747ZM8.71116 13.4918C9.19621 13.7163 9.55551 13.869 9.78906 13.9499C10.0226 14.0307 10.2337 14.0711 10.4223 14.0711C10.9164 14.0711 11.1634 13.6489 11.1634 12.8046C11.1634 12.3465 11.0646 11.9962 10.867 11.7536C10.6693 11.5021 10.4133 11.3764 10.099 11.3764C9.83846 11.3764 9.60941 11.4707 9.41179 11.6593C9.21418 11.848 9.07046 12.1219 8.98064 12.4812L8.71116 13.4918Z" fill="#353535"/>
<path d="M14.6396 13.8824C15.1965 13.8824 15.6187 13.833 15.9061 13.7342C16.1936 13.6443 16.3912 13.4871 16.499 13.2626C16.6157 13.047 16.6831 12.7371 16.7011 12.3329H15.5423C14.689 12.3329 14.0108 12.0859 13.5078 11.5919C13.0138 11.0888 12.7668 10.3882 12.7668 9.48996C12.7668 8.8522 12.8835 8.28631 13.1171 7.79227C13.3596 7.29824 13.6875 6.91648 14.1007 6.64701C14.5228 6.36855 14.9989 6.22933 15.5289 6.22933C16.1037 6.22933 16.6068 6.36406 17.0379 6.63354C17.4781 6.90301 17.8149 7.28476 18.0484 7.7788C18.291 8.27283 18.4122 8.84322 18.4122 9.48996V10.3927H19.1533L19.2611 11.3763L19.1533 12.3329H18.4122C18.3763 13.3838 18.0529 14.2282 17.4421 14.866C16.8313 15.5037 15.8971 15.8226 14.6396 15.8226H13.0362V13.8824H14.6396ZM14.4105 9.39564C14.4105 9.76392 14.5004 10.0379 14.68 10.2175C14.8597 10.3882 15.1471 10.4735 15.5423 10.4735H16.7011V9.44954C16.7011 8.51536 16.3103 8.04827 15.5289 8.04827C15.1606 8.04827 14.8821 8.17403 14.6935 8.42554C14.5049 8.67704 14.4105 9.00041 14.4105 9.39564Z" fill="#353535"/>
<path d="M18.9991 10.3927H20.4947C20.8989 10.3927 21.1863 10.3253 21.357 10.1906C21.5276 10.0469 21.604 9.84476 21.586 9.58427C21.5411 9.02736 21.4243 8.28182 21.2357 7.34764L22.8525 6.94343C22.9603 7.4195 23.0591 7.92701 23.149 8.46596C23.2478 9.0049 23.2972 9.44055 23.2972 9.7729C23.2972 10.222 23.1984 10.6397 23.0008 11.026C22.8031 11.4122 22.5022 11.7266 22.098 11.9691C21.7028 12.2116 21.2133 12.3329 20.6294 12.3329H18.9991V10.3927ZM19.3763 3.84448H20.9797V5.44785H19.3763V3.84448ZM21.8959 3.84448H23.5128V5.44785H21.8959V3.84448Z" fill="#353535"/>
</g>
</g>
</svg>
