<svg width="80" height="80" viewBox="0 0 80 80" fill="none" xmlns="http://www.w3.org/2000/svg">
<g id="Group">
<path id="Vector" d="M77.7197 20.3456C77.3339 19.5741 76.3956 19.2613 75.6236 19.647C74.852 20.033 74.539 20.9714 74.925 21.7431C78.478 28.8491 77.0877 37.4009 71.4654 43.0229C64.2776 50.2108 52.5821 50.2108 45.3942 43.0229C38.2064 35.8351 38.2064 24.1396 45.3942 16.9519C50.753 11.5931 58.7177 10.0551 65.6853 13.0342C66.4787 13.3736 67.3967 13.0051 67.7359 12.2119C68.0751 11.4186 67.7068 10.5003 66.9135 10.1612C62.9993 8.48762 58.7099 8.01184 54.5087 8.78544C51.5735 9.32575 48.8193 10.457 46.3788 12.1062C45.3352 9.96497 43.9474 8.02059 42.2422 6.31543C39.5844 3.6576 36.2726 1.73525 32.665 0.75603C29.1678 -0.193349 25.4562 -0.246318 21.931 0.602279C21.6513 0.66962 21.3955 0.812936 21.192 1.01642C20.9886 1.2199 20.8452 1.47563 20.7779 1.75541C19.9291 5.28042 19.9824 8.992 20.9316 12.4894C21.6596 15.1691 22.9085 17.685 24.5917 19.8916C24.0206 19.9806 23.4521 20.0917 22.8879 20.2275C22.6081 20.2949 22.3524 20.4382 22.1489 20.6416C21.9454 20.8451 21.8021 21.1009 21.7348 21.3806C20.886 24.9057 20.9393 28.6172 21.8885 32.1146C22.8679 35.7223 24.7904 39.034 27.4479 41.6918C31.5223 45.766 37.0347 48.0051 42.7091 48.0047C43.8578 48.0047 45.0142 47.9115 46.1657 47.7245C49.7424 50.2087 53.983 51.5472 58.4299 51.5472C64.1887 51.5472 69.6028 49.3047 73.675 45.2324C80.2494 38.6577 81.8749 28.6564 77.7197 20.3456ZM23.6129 3.43651C29.6106 2.31275 35.6867 4.17839 40.0331 8.52481C41.6559 10.1475 42.9416 12.022 43.8594 14.0986C43.6301 14.3084 43.4053 14.523 43.1852 14.7423C42.1678 15.7591 41.2546 16.8749 40.4592 18.0733L30.5225 8.13653C29.9125 7.52652 28.9231 7.52652 28.3129 8.13653C27.7029 8.74653 27.7029 9.73591 28.3129 10.3461L38.8742 20.9074C38.6678 21.3538 38.4768 21.8072 38.3017 22.2669C35.2928 20.6238 31.9108 19.7317 28.4928 19.6419C24.2967 15.3116 22.5073 9.337 23.6129 3.43651ZM29.6576 39.4821C25.3115 35.1362 23.4457 29.0607 24.5692 23.0631C28.9568 22.2517 33.5619 23.0644 37.3833 25.3405C36.8011 28.0026 36.7247 30.7505 37.158 33.4408L31.4792 27.7621C30.8692 27.1521 29.8798 27.1521 29.2696 27.7621C28.6596 28.3721 28.6596 29.3615 29.2696 29.9716L39.3188 40.0207C39.3353 40.0373 39.3533 40.0516 39.3703 40.0673C40.2985 41.8234 41.4659 43.4422 42.8392 44.8773C37.9403 44.9123 33.1722 42.9971 29.6576 39.4821ZM46.6238 77.4594L41.1891 70.5846C38.3056 66.9356 35.5738 63.1693 33.0006 59.2953C32.5231 58.5763 31.5537 58.3808 30.8348 58.8578C30.1161 59.3353 29.9203 60.3049 30.3975 61.0234C33.0185 64.9693 35.8009 68.8054 38.7378 72.5221L41.8356 76.4412L39.7827 76.2024C29.7876 75.0396 20.6168 70.2438 13.9594 62.6986L13.6836 62.3861C7.5905 55.4806 3.94971 46.8364 3.25064 37.7582L4.03658 37.0976C4.40601 36.7872 4.83672 36.5583 5.30061 36.4256C5.76449 36.293 6.25113 36.2596 6.72878 36.3277L8.89363 36.6369C9.21506 36.6829 9.54281 36.6275 9.83132 36.4786C10.1198 36.3296 10.3548 36.0945 10.5035 35.8059C10.8517 35.13 11.4146 34.5889 12.1037 34.2677C12.7929 33.9466 13.5692 33.8635 14.3107 34.0316L15.9321 34.3991C18.2899 39.831 20.9513 45.1929 23.8557 50.3467C24.2795 51.0983 25.2323 51.364 25.9839 50.9408C26.7356 50.517 27.0015 49.5642 26.5779 48.8126C23.587 43.5031 20.8851 38.0359 18.4838 32.4349C17.6177 30.4092 16.1755 28.6826 14.3364 27.4698C12.4972 26.2569 10.3422 25.6112 8.1391 25.6128C7.8055 25.6128 7.47738 25.6353 7.15409 25.6746C7.35628 22.4997 8.68597 19.5422 10.9557 17.2723C11.5657 16.6623 11.5657 15.673 10.9557 15.063C10.3457 14.453 9.35629 14.453 8.74629 15.063C5.68518 18.1241 3.99924 22.1942 3.99924 26.5233V26.7483C1.60829 28.1668 0.000940199 30.7727 2.69513e-06 33.7482V34.5258C-0.000309806 35.3798 0.0265653 36.2312 0.0745342 37.0794C0.0746905 37.136 0.0778155 37.1926 0.0842218 37.249C0.68813 47.2751 4.62955 56.8472 11.3408 64.4535L11.6166 64.766C18.7851 72.8901 28.6598 78.0538 39.4216 79.3059L45.2175 79.9801C45.5244 80.0157 45.8349 79.9596 46.1098 79.8189C46.3848 79.6782 46.6119 79.4592 46.7625 79.1895C46.9131 78.9197 46.9802 78.6113 46.9555 78.3034C46.9308 77.9955 46.8154 77.7018 46.6238 77.4594ZM3.1247 33.7493C3.12564 30.9855 5.37502 28.7371 8.13925 28.7371C10.1469 28.7357 12.0839 29.4782 13.5761 30.8213C12.5634 30.8179 11.5637 31.0491 10.6553 31.4968C9.74694 31.9445 8.95458 32.5965 8.34035 33.4016L7.17081 33.2346C5.77917 33.0369 4.36081 33.2912 3.12455 33.9601L3.1247 33.7493Z" fill="#3D8361"/>
<path id="Vector_2" d="M30.0494 54.6907L30.0233 54.6483C29.5724 53.9125 28.6104 53.6819 27.8751 54.1329C27.1394 54.584 26.9085 55.5457 27.3594 56.2813L27.3855 56.3236C27.5252 56.5518 27.7212 56.7403 27.9547 56.8709C28.1882 57.0016 28.4514 57.07 28.719 57.0696C29.0067 57.0697 29.2888 56.9899 29.5338 56.8391C30.2696 56.3882 30.5005 55.4263 30.0494 54.6907ZM73.9112 14.9821C73.8331 14.9015 73.7543 14.8215 73.6749 14.7421C73.0649 14.1321 72.0755 14.1321 71.4654 14.7421C70.8554 15.3521 70.8554 16.3415 71.4654 16.9516C71.5337 17.0196 71.601 17.088 71.6677 17.1568C71.8132 17.3073 71.9875 17.4269 72.1803 17.5085C72.3731 17.5901 72.5803 17.632 72.7896 17.6318C73.1956 17.6323 73.5857 17.4742 73.8768 17.1911C74.4965 16.5905 74.5118 15.6015 73.9112 14.9821ZM58.43 14.0518C49.6431 14.0518 42.4946 21.2004 42.4946 29.9871C42.4946 38.7739 49.6433 45.9225 58.43 45.9225C67.2168 45.9225 74.3654 38.7739 74.3654 29.9871C74.3654 21.2004 67.2169 14.0518 58.43 14.0518ZM46.6378 34.9915C45.9639 33.4093 45.6174 31.7069 45.6192 29.9871C45.6174 28.2674 45.9639 26.5651 46.6376 24.9829L55.3055 29.9873L46.6378 34.9915ZM56.8678 42.6992C53.3389 42.268 50.2486 40.3992 48.2048 37.6945L56.8678 32.6929V42.6992ZM56.8678 27.281L48.2048 22.2794C50.2484 19.5749 53.3389 17.7061 56.8678 17.2747V27.281ZM59.9922 17.2751C63.5211 17.7063 66.6115 19.5751 68.6552 22.2798L59.9922 27.2813V17.2751ZM59.9924 42.6992V32.6931L68.6554 37.6947C66.6115 40.3992 63.5211 42.268 59.9924 42.6992ZM61.5547 29.9873L70.2226 24.9829C70.8962 26.5652 71.2427 28.2674 71.241 29.9871C71.2428 31.7069 70.8963 33.4093 70.2224 34.9915L61.5547 29.9873ZM56.6356 56.4058C55.1639 54.3388 53.1558 53.2005 50.9811 53.2005C48.8064 53.2005 46.7983 54.3388 45.3265 56.4058C43.9692 58.3119 43.2218 60.8194 43.2218 63.4662C43.2218 66.1129 43.9693 68.6204 45.3265 70.5264C46.7983 72.5932 48.8064 73.7317 50.9811 73.7317C53.1558 73.7317 55.1639 72.5934 56.6356 70.5264C57.993 68.6204 58.7403 66.1129 58.7403 63.4662C58.7403 60.8194 57.9928 58.3121 56.6356 56.4058ZM50.9811 70.6071C50.2575 70.6071 49.1633 69.0701 49.1633 66.7534C49.1633 64.4368 50.2575 62.8998 50.9811 62.8998C51.7047 62.8998 52.7989 64.4368 52.7989 66.7534C52.7989 69.0703 51.7047 70.6071 50.9811 70.6071ZM55.5908 64.1932C54.8817 61.5832 53.1091 59.7754 50.9812 59.7754C48.8534 59.7754 47.0808 61.583 46.3717 64.1932C46.3549 63.9513 46.3466 63.7088 46.3465 63.4663C46.3464 59.5954 48.4687 56.3252 50.9811 56.3252C53.4934 56.3252 55.6159 59.5955 55.6159 63.4663C55.6159 63.7112 55.6074 63.9537 55.5908 64.1932ZM79.8635 71.8712C79.4754 69.5637 78.2309 67.2621 76.3593 65.3904C74.4879 63.519 72.1863 62.2745 69.8785 61.8862C67.3761 61.4657 65.1513 62.0805 63.6136 63.6184C62.0758 65.1562 61.4607 67.381 61.8814 69.8834C62.2697 72.1911 63.5141 74.4925 65.3857 76.3639C67.2572 78.2353 69.5587 79.4798 71.8665 79.8681C72.3807 79.9547 72.8827 79.9973 73.3701 79.9973C75.2538 79.9972 76.9098 79.358 78.1315 78.1362C79.6693 76.5983 80.2845 74.3734 79.8635 71.8712ZM68.1285 74.6531C67.9453 74.4929 67.7675 74.3267 67.5954 74.1547C66.1791 72.7382 65.2443 71.0376 64.9629 69.3651C64.7143 67.8873 65.0197 66.631 65.823 65.8279C66.444 65.2066 67.3355 64.8834 68.3912 64.8834C68.7008 64.8834 69.0249 64.9113 69.3602 64.9677C71.0327 65.249 72.7337 66.1838 74.1498 67.6001C74.3213 67.7716 74.4868 67.949 74.646 68.132C72.2991 66.7881 69.7674 66.7632 68.2627 68.2676C66.7579 69.7726 66.7832 72.3054 68.1285 74.6531ZM75.9223 75.9268C75.4104 76.4389 73.5496 76.1254 71.9116 74.4873C70.2735 72.8492 69.9604 70.9885 70.4721 70.4768C70.6183 70.3306 70.8743 70.2518 71.2037 70.2518C72.028 70.2518 73.3123 70.746 74.4826 71.9164C75.2896 72.7232 75.8693 73.6912 76.0732 74.572C76.2149 75.184 76.1584 75.6906 75.9223 75.9268ZM75.4699 50.6085C75.1763 50.3165 74.7795 50.152 74.3654 50.1507C73.9545 50.1507 73.5516 50.3178 73.2609 50.6085C72.9702 50.8991 72.803 51.3021 72.803 51.713C72.803 52.1239 72.9702 52.5269 73.2609 52.8174C73.5545 53.1094 73.9513 53.2739 74.3654 53.2754C74.7763 53.2754 75.1793 53.1082 75.4699 52.8174C75.7606 52.5269 75.9277 52.1239 75.9277 51.713C75.9277 51.3021 75.7606 50.8991 75.4699 50.6085ZM65.7836 53.6583C65.49 53.3663 65.0932 53.2018 64.6791 53.2004C64.2682 53.2004 63.8654 53.3675 63.5746 53.6583C63.2826 53.9519 63.1181 54.3487 63.1168 54.7627C63.1168 55.1736 63.2839 55.5766 63.5746 55.8672C63.8682 56.1592 64.265 56.3237 64.6791 56.3251C65.09 56.3251 65.493 56.158 65.7836 55.8672C66.0756 55.5736 66.2401 55.1768 66.2415 54.7627C66.2415 54.3518 66.0743 53.9488 65.7836 53.6583ZM71.9766 55.6063C71.683 55.3143 71.2862 55.1499 70.8721 55.1485C70.4612 55.1486 70.0582 55.3157 69.7676 55.6063C69.4769 55.8969 69.3097 56.2983 69.3097 56.7108C69.3097 57.1218 69.4769 57.5247 69.7676 57.8152C70.0582 58.1058 70.4612 58.2732 70.8721 58.2732C71.283 58.2732 71.686 58.106 71.9766 57.8152C72.2692 57.5221 72.4338 57.125 72.4344 56.7108C72.434 56.2966 72.2694 55.8994 71.9766 55.6063Z" fill="#FFC436"/>
</g>
</svg>
