<svg width="35" height="80" viewBox="0 0 35 80" fill="none" xmlns="http://www.w3.org/2000/svg">
<g id="Group">
<path id="Vector" d="M24.1191 22.0007V13.9906C24.753 13.7915 25.2128 13.1995 25.2128 12.5V7.03124C25.2128 6.33155 24.753 5.73968 24.1191 5.54046V1.5625C24.1191 0.69953 23.4194 0 22.5566 0H12.2441C11.3811 0 10.6816 0.69953 10.6816 1.5625V5.54046C10.0477 5.73952 9.58787 6.33155 9.58787 7.03124V12.5C9.58787 13.1997 10.0477 13.7915 10.6816 13.9906V22.0006C4.37601 24.6928 0.212891 30.9123 0.212891 37.8126V75.4016C0.212891 77.9372 2.27586 80 4.81148 80H29.9892C32.525 80 34.5878 77.9372 34.5878 75.4016V37.8126C34.5878 30.9123 30.4245 24.6929 24.1191 22.0007ZM13.8066 3.12499H20.9941V5.46874H13.8066V3.12499ZM12.7129 8.59373H22.0878V10.9375H12.7129V8.59373ZM20.9941 14.0625V18.9003H13.8066V14.0625H20.9941ZM29.9892 76.875H4.81132C3.99882 76.875 3.33773 76.2141 3.33773 75.4016V37.8126C3.33773 31.8617 7.12553 26.5285 12.7632 24.542C13.0682 24.4345 13.3324 24.235 13.5193 23.9711C13.7061 23.7071 13.8065 23.3916 13.8065 23.0682V22.0251H20.9939V23.0682C20.9939 23.3916 21.0943 23.7071 21.2811 23.9711C21.468 24.235 21.7322 24.4345 22.0372 24.542C27.6749 26.5285 31.4627 31.8615 31.4627 37.8126V75.4016C31.4627 76.2141 30.8019 76.875 29.9892 76.875Z" fill="#3D8361"/>
<path id="Vector_2" d="M18.221 71.4786H18.1841C17.3212 71.4786 16.6216 72.1781 16.6216 73.0411C16.6216 73.9041 17.3212 74.6036 18.1841 74.6036H18.221C19.0838 74.6036 19.7835 73.9041 19.7835 73.0411C19.7835 72.1781 19.0838 71.4786 18.221 71.4786ZM13.6949 71.4783H7.2832C6.42023 71.4783 5.7207 72.1778 5.7207 73.0408C5.7207 73.9037 6.42023 74.6033 7.2832 74.6033H13.6949C14.5579 74.6033 15.2574 73.9037 15.2574 73.0408C15.2574 72.1778 14.5579 71.4783 13.6949 71.4783ZM24.279 43.7275C22.802 40.0419 20.0516 36.6844 18.5437 35.0109C18.3985 34.8498 18.2213 34.7207 18.0235 34.6317C17.8257 34.5428 17.6115 34.4961 17.3946 34.4945C16.959 34.4864 16.5363 34.6723 16.238 34.9937C15.0674 36.2542 12.1716 39.6155 10.5663 43.5937C8.35336 49.0783 10.0065 52.3472 11.783 54.1237C13.2788 55.6195 15.2676 56.4433 17.3829 56.4433C19.4984 56.4433 21.487 55.6195 22.9827 54.1237C24.7618 52.3447 26.4309 49.0969 24.279 43.7275ZM20.773 51.9139C19.8676 52.8194 18.6635 53.3181 17.3829 53.3181C16.1023 53.3181 14.8982 52.8195 13.9927 51.9139C12.3787 50.3 12.201 47.8941 13.4643 44.7631C14.4865 42.2301 16.1751 39.9103 17.3707 38.4519C19.8679 41.5389 24.4559 48.2311 20.773 51.9139Z" fill="#FFC436"/>
</g>
</svg>
