<svg width="78" height="85" viewBox="0 0 78 85" fill="none" xmlns="http://www.w3.org/2000/svg">
<path id="Vector" fill-rule="evenodd" clip-rule="evenodd" d="M70.1813 55.6477L69.9078 56.0547L69.6319 56.4608L69.3538 56.8661L69.0735 57.2706L68.791 57.6747L68.5063 58.0784L68.2194 58.4818L67.9303 58.8852L67.639 59.2887L67.3453 59.6925L67.0494 60.0966L66.7511 60.5012L66.4503 60.9065L66.1469 61.3125L65.8409 61.7194L65.5321 62.1272L65.2203 62.5361L64.9055 62.9461L64.5875 63.3573L64.2662 63.7698L63.9413 64.1836L63.6127 64.5986L63.2802 65.015L62.9436 65.4327L62.6028 65.8517L62.2575 66.272L61.9075 66.6935L61.5526 67.1161L61.1927 67.5398L60.8274 67.9645L60.4567 68.39L60.0802 68.8162L59.6978 69.2431L59.3093 69.6704L58.9145 70.0979L58.5132 70.5256L58.1051 70.9531L57.6902 71.3804L57.2683 71.8071L56.8391 72.2331L56.4025 72.6582L55.9584 73.082L55.5066 73.5043L55.047 73.925L54.5795 74.3436L54.1039 74.7599L53.6201 75.1735L53.1281 75.5842L52.6277 75.9916L52.1188 76.3953L51.6015 76.795L51.0756 77.1902L50.5411 77.5805L49.998 77.9656L49.4462 78.345L48.8859 78.7182L48.317 79.0849L47.7396 79.4445L47.1536 79.7967L46.5593 80.1409L45.9568 80.4767L45.3461 80.8036L44.7273 81.1211L44.1007 81.4289L43.4664 81.7263L42.8247 82.013L42.1757 82.2886L41.5197 82.5524L40.8569 82.8042L40.1876 83.0434L39.5122 83.2697L38.8309 83.4826L38.144 83.6816L37.452 83.8663L36.7551 84.0364L36.0538 84.1913L35.3485 84.3308L34.6396 84.4544L33.9275 84.5617L33.2128 84.6524L32.4958 84.7262L31.7771 84.7828L31.0571 84.8218L30.3364 84.8431L29.6154 84.8464L28.8947 84.8314L28.1749 84.798L27.4564 84.7461L26.7398 84.6755L26.0256 84.5861L25.3143 84.478L24.6066 84.3509L23.9029 84.205L23.2037 84.0402L22.5096 83.8567L21.8211 83.6545L21.1387 83.4337L20.4628 83.1946L19.794 82.9371L19.1328 82.6616L18.4795 82.3683L17.8346 82.0573L17.1986 81.7291L16.5719 81.3839L15.9548 81.0219L15.3477 80.6436L14.751 80.2492L14.165 79.8392L13.5901 79.4139L13.0266 78.9736L12.4748 78.5189L11.9348 78.05L11.4071 77.5675L10.8918 77.0717L10.3892 76.563L9.89953 76.0419L9.42289 75.5089L8.9595 74.9644L8.50947 74.4088L8.07292 73.8427L7.64992 73.2665L7.24054 72.6808L6.8448 72.0861L6.46271 71.4828L6.09425 70.8715L5.73936 70.2527L5.39799 69.6268L5.07003 68.9944L4.75538 68.356L4.4539 67.7121L4.16542 67.0631L3.88978 66.4095L3.62677 65.7519L3.37619 65.0905L3.13781 64.4259L2.91139 63.7584L2.69668 63.0886L2.49341 62.4167L2.3013 61.7431L2.12009 61.0682L1.94948 60.3923L1.78917 59.7157L1.63887 59.0388L1.49827 58.3617L1.36704 57.6848L1.24487 57.0083L1.13144 56.3324L1.02641 55.6573L0.929464 54.9833L0.840277 54.3104L0.758525 53.6389L0.683905 52.9688L0.616111 52.3002L0.554848 51.6333L0.499829 50.9681L0.450793 50.3047L0.407474 49.643L0.36964 48.9832L0.337061 48.3251L0.30953 47.6689L0.286861 47.0144L0.268878 46.3616L0.255438 45.7106L0.246406 45.0611L0.241667 44.4132L0.241139 43.7667L0.244745 43.1216L0.252437 42.4778L0.264183 41.8353L0.279973 41.1938L0.29982 40.5534L0.323744 39.9139L0.351788 39.2753L0.384013 38.6374L0.420494 38.0002L0.461326 37.3636L0.506609 36.7275L0.556457 36.0919L0.611001 35.4567L0.670367 34.8219L0.734709 34.1873L0.804166 33.5531L0.878904 32.9191L0.95907 32.2853L1.04484 31.6518L1.13635 31.0185L1.23379 30.3855L1.33729 29.7528L1.44705 29.1203L1.56324 28.4882L1.68605 27.8566L1.81569 27.2254L1.95235 26.5948L2.09625 25.9648L2.24762 25.3357L2.40667 24.7075L2.57363 24.0803L2.74872 23.4544L2.93218 22.8299L3.12422 22.2069L3.32508 21.5858L3.53496 20.9667L3.75408 20.3499L3.98266 19.7357L4.22088 19.1242L4.46894 18.5158L4.72702 17.9109L4.9953 17.3096L5.27391 16.7123L5.56302 16.1194L5.86274 15.5312L6.17318 14.9481L6.49444 14.3704L6.82661 13.7985L7.16973 13.2328L7.52386 12.6736L7.88905 12.1214L8.26533 11.5766L8.65271 11.0396L9.05121 10.5108L9.4608 9.99075L9.88147 9.4798L10.3131 8.97843L10.7558 8.48709L11.2093 8.00622L11.6735 7.53629L12.1483 7.07774L12.6336 6.631L13.1291 6.19652L13.6347 5.77471L14.15 5.36601L14.675 4.97079L15.2092 4.58946L15.7523 4.22238L16.3041 3.86991L16.8642 3.53237L17.4321 3.21007L18.0076 2.90331L18.5901 2.61234L19.1793 2.33741L19.7748 2.07873L20.3759 1.83648L20.9824 1.61081L21.5936 1.40186L22.2091 1.20972L22.8283 1.03447L23.4508 0.876149L24.0761 0.734761L24.7036 0.610295L25.3327 0.502707L25.963 0.41192L26.594 0.33784L27.2251 0.280341L27.8558 0.239273L28.4856 0.214464L29.114 0.20572L29.7405 0.212826L30.3648 0.235548L30.9862 0.273638L31.6043 0.32683L32.2188 0.394835L32.8291 0.477341L33.4349 0.574001L34.0357 0.68445L34.6313 0.808289L35.2211 0.9451L35.8049 1.09444L36.3824 1.25584L36.9531 1.42882L37.5169 1.61288L38.0734 1.80749L38.6224 2.01211L39.1637 2.22621L39.6971 2.44922L40.2224 2.68057L40.7394 2.91968L41.2482 3.16597L41.7485 3.41886L42.2402 3.67776L42.7235 3.94208L43.1982 4.21125L43.6643 4.4847L44.1219 4.76184L44.5711 5.04212L45.0119 5.325L45.4445 5.60994L45.8689 5.89642L46.2854 6.18392L46.6941 6.47195L47.0952 6.75999L47.4889 7.04755L47.8755 7.33415L48.2553 7.6193L48.6285 7.90255L48.9954 8.18346L49.3563 8.46161L49.7116 8.73659L50.0617 9.00804L50.4068 9.2756L50.7474 9.53896L51.0838 9.79782L51.4165 10.0519L51.7459 10.301L52.0722 10.545L52.3961 10.7836L52.7177 11.0167L53.0377 11.2443L53.3563 11.4663L53.6739 11.6827L53.9909 11.8934L54.3078 12.0986L54.6248 12.2984L54.9423 12.4927L55.2607 12.6819L55.5802 12.8661L55.9012 13.0454L56.2239 13.2202L56.5486 13.3907L56.8755 13.5572L57.2048 13.72L57.5368 13.8795L57.8715 14.036L58.2092 14.1898L58.5498 14.3415L58.8936 14.4912L59.2406 14.6396L59.5909 14.7869L59.9444 14.9337L60.3011 15.0803L60.6611 15.2271L61.0242 15.3746L61.3905 15.5232L61.7598 15.6733L62.1321 15.8253L62.5072 15.9796L62.8849 16.1367L63.2651 16.297L63.6475 16.4608L64.032 16.6286L64.4182 16.8009L64.8059 16.9779L65.1947 17.1601L65.5844 17.3478L65.9746 17.5415L66.3648 17.7414L66.7549 17.9479L67.1443 18.1612L67.5326 18.3818L67.9194 18.6098L68.3043 18.8455L68.6869 19.0891L69.0667 19.3408L69.4432 19.6008L69.816 19.8692L70.1847 20.1462L70.5487 20.4319L70.9077 20.7263L71.2612 21.0295L71.6088 21.3415L71.9501 21.6623L72.2845 21.9919L72.6118 22.3302L72.9315 22.6772L73.2432 23.0327L73.5465 23.3967L73.841 23.769L74.1265 24.1495L74.4024 24.5379L74.6686 24.9342L74.9247 25.3381L75.1704 25.7493L75.4054 26.1676L75.6296 26.5928L75.8426 27.0245L76.0442 27.4625L76.2344 27.9065L76.413 28.3562L76.5798 28.8112L76.7347 29.2712L76.8777 29.736L77.0087 30.205L77.1277 30.6781L77.2347 31.1548L77.3297 31.6349L77.4129 32.1179L77.4841 32.6036L77.5437 33.0916L77.5915 33.5816L77.6279 34.0733L77.653 34.5663L77.6668 35.0604L77.6696 35.5552L77.6616 36.0505L77.643 36.5461L77.614 37.0415L77.5749 37.5367L77.5257 38.0314L77.4669 38.5252L77.3986 39.0181L77.321 39.5099L77.2344 40.0003L77.139 40.4891L77.035 40.9763L76.9227 41.4616L76.8022 41.9449L76.6738 42.426L76.5376 42.905L76.3939 43.3815L76.2429 43.8555L76.0847 44.327L75.9197 44.7959L75.7481 45.262L75.57 45.7253L75.3858 46.1858L75.1955 46.6435L74.9995 47.0982L74.798 47.5501L74.5912 47.9991L74.3793 48.4452L74.1625 48.8884L73.941 49.3288L73.7151 49.7665L73.485 50.2014L73.2507 50.6336L73.0126 51.0633L72.7708 51.4904L72.5254 51.9152L72.2767 52.3376L72.0247 52.7578L71.7697 53.1759L71.5117 53.5921L71.2508 54.0063L70.9873 54.4189L70.7211 54.8299L70.4524 55.2394L70.1813 55.6477Z" fill="#E0F1E9"/>
</svg>
