<svg width="81" height="80" viewBox="0 0 81 80" fill="none" xmlns="http://www.w3.org/2000/svg">
<g id="XMLID_947_">
<g id="XMLID_2178_">
<path id="XMLID_2181_" d="M76.7351 14.3234C73.1953 8.19228 67.8155 3.60009 61.5869 1.39266C55.2707 -0.84571 48.8393 -0.373883 43.4778 2.72174C38.1163 5.81721 34.4919 11.1509 33.2723 17.7401C32.4907 21.9631 32.7619 26.3789 34.0183 30.6364C30.4557 29.9134 26.6491 30.0408 22.8449 31.0345C17.882 32.3311 13.2498 35.0252 9.44941 38.8256C4.44336 43.8316 1.39992 50.2166 0.879971 56.8042C0.352524 63.4846 2.47293 69.5746 6.85077 73.9523C10.4802 77.5818 15.2665 79.6603 20.6922 79.9634C21.1312 79.988 21.5716 80.0001 22.0144 80C26.802 79.9998 31.7737 78.5751 36.1523 75.9281C36.8908 75.4817 37.1275 74.5212 36.681 73.7828C36.2348 73.0443 35.2743 72.8079 34.5358 73.2541C25.9604 78.4383 15.7871 77.9733 9.53222 72.192C9.87749 63.5646 17.0029 56.652 25.7135 56.652C29.9536 56.652 33.9783 55.3042 37.3524 52.7542C39.9604 50.7831 42.0403 48.1473 43.3677 45.1784C44.5768 46.2197 45.8615 47.151 47.2084 47.9625C48.0945 53.1446 46.8976 58.9163 43.8783 63.9116C43.4319 64.65 43.6687 65.6105 44.4071 66.0569C44.6599 66.2097 44.9386 66.2823 45.2139 66.2823C45.7428 66.2823 46.2588 66.0136 46.5524 65.528C49.5317 60.5991 50.9318 54.9683 50.5573 49.6738C51.0474 49.8821 51.5429 50.0771 52.0446 50.2549C54.6703 51.1854 57.3158 51.6476 59.8962 51.6476C63.523 51.6476 67.0211 50.7345 70.1537 48.9258C75.5154 45.8303 79.1397 40.4967 80.3592 33.9075C81.5621 27.4095 80.2749 20.4545 76.7351 14.3234ZM25.7135 53.5272C16.4025 53.5272 8.60919 60.1479 6.79296 68.9288C1.67286 60.9666 3.50408 49.19 11.659 41.035C18.3193 34.3746 27.5296 31.7327 35.3151 34.1907C35.7792 35.2541 36.3059 36.3007 36.8966 37.324C38.0593 39.338 39.4218 41.1846 40.9464 42.8364C38.6514 49.1731 32.5139 53.5272 25.7135 53.5272ZM53.0884 47.3096C47.5602 45.3504 42.7709 41.2492 39.6026 35.7617C33.2392 24.7397 35.4561 11.4509 44.4815 5.76643C52.7272 8.33195 57.5614 17.0045 55.3066 25.4193C53.971 30.4041 54.6564 35.6106 57.2367 40.0798C59.1508 43.3951 61.9381 46.0094 65.2844 47.6839C61.4872 48.9041 57.2688 48.791 53.0884 47.3096ZM69.1499 45.881C65.2497 44.6694 61.9967 42.0748 59.943 38.5176C57.78 34.7711 57.2053 30.4066 58.3251 26.2281C60.735 17.2343 56.357 7.99292 48.3455 3.96599C57.3613 1.08128 68.2628 5.89798 74.0293 15.8857C80.3925 26.9077 78.1756 40.1968 69.1499 45.881Z" fill="#3D8361"/>
<path id="XMLID_2184_" d="M40.8729 68.6863C40.462 68.6863 40.0589 68.8534 39.7683 69.144C39.4762 69.4346 39.3105 69.8377 39.3105 70.2486C39.3105 70.6595 39.4762 71.0626 39.7683 71.3532C40.0589 71.6438 40.4604 71.811 40.8729 71.811C41.2838 71.811 41.6869 71.6438 41.9775 71.3532C42.2681 71.0626 42.4352 70.6595 42.4352 70.2486C42.4352 69.8377 42.2681 69.4346 41.9775 69.144C41.6869 68.8534 41.2838 68.6863 40.8729 68.6863Z" fill="#FFC436"/>
</g>
</g>
</svg>
