<svg width="81" height="80" viewBox="0 0 81 80" fill="none" xmlns="http://www.w3.org/2000/svg">
<g clip-path="url(#clip0_4857_29661)">
<path d="M71.9027 30.1288H66.5725V27.7704C66.5725 23.9893 63.4964 20.9131 59.7158 20.9131H40.5972C39.7 20.9131 38.9724 21.64 38.9724 22.5378C38.9724 23.4351 39.7 24.1626 40.5972 24.1626H59.7164C61.705 24.1626 63.3224 25.7813 63.3224 27.7704V45.5811C63.3224 57.3908 53.7173 66.9989 41.9107 66.9989H26.3546C14.5486 66.9989 4.94348 57.3908 4.94348 45.5811V27.7704C4.94348 25.7813 6.56091 24.1626 8.54944 24.1626H27.6083C28.5061 24.1626 29.2337 23.4351 29.2337 22.5378C29.2337 21.64 28.5061 20.9131 27.6083 20.9131H8.55005C4.76892 20.9131 1.69336 23.9893 1.69336 27.7704V45.5811C1.69336 52.143 4.26538 58.3301 8.93579 63.0023C10.5129 64.5801 12.264 65.918 14.1427 66.9989H4.83484C3.10266 66.9989 1.69336 68.4064 1.69336 70.1361V73.4973C1.69336 77.0825 4.60962 80 8.19483 80H60.0759C63.6581 80 66.5725 77.0825 66.5725 73.4973V70.1361C66.5725 68.4064 65.1657 66.9989 63.4359 66.9989H54.1232C56.0018 65.918 57.7529 64.5801 59.3301 63.0023C61.3967 60.9345 63.052 58.5693 64.2562 56.0071H67.5936C74.1623 56.0071 79.5059 50.6598 79.5059 44.0869V37.738C79.5059 33.5425 76.0952 30.1288 71.9027 30.1288ZM63.3224 70.249V73.4973C63.3224 75.2905 61.8661 76.7499 60.0753 76.7499H8.19483C6.40161 76.7499 4.94348 75.2911 4.94348 73.4973V70.249H63.3224ZM66.5725 39.9585H69.6835V43.0682C69.6835 44.754 68.2595 46.178 66.575 46.178H66.5615C66.5664 45.979 66.5725 45.7806 66.5725 45.5811V39.9585ZM76.2558 44.0869C76.2558 48.8678 72.3703 52.757 67.5936 52.757H65.5087C65.8395 51.6711 66.0928 50.5585 66.2704 49.4281H66.575C70.0808 49.4281 72.9336 46.5753 72.9336 43.0682V38.7573C72.9336 37.6465 71.9949 36.7084 70.8841 36.7084H66.5725V33.3789H71.9033C74.3032 33.3789 76.2564 35.3351 76.2564 37.7387V44.0869H76.2558Z" fill="#3D8361"/>
<path d="M32.9595 14.1052C32.2643 14.6728 32.1611 15.6964 32.7288 16.3916C33.0498 16.7853 33.5173 16.9891 33.9885 16.9891C34.3499 16.9891 34.7136 16.8689 35.0151 16.6229C39.8058 12.7112 37.932 9.51169 36.6924 7.39438C35.6328 5.58469 35.0487 4.58737 36.7198 2.70322C37.3149 2.03122 37.2533 1.00461 36.5819 0.408906C35.9105 -0.186187 34.8833 -0.124541 34.2882 0.546845C31.0527 4.19553 32.7593 7.10874 33.8884 9.03684C35.0603 11.0394 35.5956 11.9531 32.9595 14.1052Z" fill="#FFC436"/>
<path d="M20.0784 16.6033C20.3958 16.9219 20.8127 17.0812 21.2296 17.0812C21.6446 17.0812 22.0596 16.9232 22.3764 16.607C25.1053 13.8885 24.0158 11.6192 23.3646 10.2636C22.8311 9.15278 22.6315 8.73713 23.3231 7.78498C23.8504 7.05866 23.6893 6.04243 22.963 5.51508C22.2372 4.98774 21.221 5.14887 20.6937 5.87519C18.8626 8.39655 19.8471 10.4461 20.4349 11.6705C21.0196 12.8881 21.1765 13.2147 20.0827 14.3054C19.4467 14.9383 19.4449 15.9674 20.0784 16.6033Z" fill="#FFC436"/>
<path d="M46.3081 16.842C46.6261 17.1612 47.0429 17.3211 47.4598 17.3211C47.8748 17.3211 48.2893 17.163 48.606 16.8475C51.3361 14.1314 50.2461 11.8634 49.5948 10.5078C49.0614 9.39753 48.8618 8.98188 49.5539 8.02912C50.0813 7.3028 49.9201 6.28657 49.1938 5.75923C48.4675 5.23188 47.4513 5.39301 46.9239 6.11933C45.0929 8.64131 46.0774 10.6909 46.6657 11.9152C47.2492 13.1298 47.4061 13.457 46.3136 14.544C45.6776 15.177 45.6751 16.206 46.3081 16.842Z" fill="#FFC436"/>
<path d="M18.5419 38.8586C18.0829 38.8812 17.655 39.0967 17.3639 39.4519C17.0734 39.8071 16.9458 40.2692 17.0142 40.7233C17.6752 45.1221 19.2072 48.5077 21.5668 50.7874C24.0247 53.1616 27.381 54.364 31.5497 54.364C31.7249 54.364 31.9019 54.361 32.0801 54.3573C32.3566 54.3634 32.6306 54.3677 32.9016 54.3677C45.1447 54.3677 52.3731 47.561 54.3915 34.126C54.4592 33.6719 54.3323 33.2098 54.0411 32.8546C53.75 32.4994 53.3222 32.2839 52.8638 32.2614C45.7056 31.911 40.0873 33.7164 36.1658 37.6251C33.905 39.8785 32.5348 42.514 31.7053 44.9518C31.2103 44.1058 30.5933 43.2758 29.8254 42.5104C27.1582 39.8517 23.3606 38.6212 18.5419 38.8586ZM38.4796 39.9072C41.3953 37.0129 45.5536 35.5237 50.8594 35.4706C48.8233 45.6769 43.208 50.8099 33.7567 51.1035C33.9551 48.5864 34.8193 43.5407 38.4796 39.9072ZM27.5122 44.7931C29.4916 46.7535 30.144 49.4061 30.3571 51.0742C25.0562 50.7111 21.9019 47.8174 20.5798 42.1027C23.5309 42.2528 25.8575 43.1543 27.5122 44.7931Z" fill="#FFC436"/>
<path d="M34.1029 20.9131C33.2057 20.9131 32.4775 21.64 32.4775 22.5378C32.4775 23.4351 33.2051 24.1626 34.1029 24.1626H34.1353C35.0325 24.1626 35.76 23.4351 35.76 22.5378C35.76 21.64 35.0325 20.9131 34.1353 20.9131H34.1029Z" fill="#FFC436"/>
</g>
<defs>
<clipPath id="clip0_4857_29661">
<rect width="80" height="80" fill="white" transform="translate(0.599609)"/>
</clipPath>
</defs>
</svg>
