<svg width="80" height="80" viewBox="0 0 80 80" fill="none" xmlns="http://www.w3.org/2000/svg">
<g id="Group">
<path id="Vector" d="M61.8748 62.8122C61.0123 62.8122 60.3123 63.5122 60.3123 64.3747C60.3123 65.2372 61.0123 65.9372 61.8748 65.9372C62.7373 65.9372 63.4373 65.2372 63.4373 64.3747C63.4373 63.5122 62.7373 62.8122 61.8748 62.8122ZM55.6248 4.0625C54.7623 4.0625 54.0623 4.7625 54.0623 5.625C54.0623 6.4875 54.7623 7.1875 55.6248 7.1875C56.4873 7.1875 57.1873 6.4875 57.1873 5.625C57.1873 4.7625 56.4873 4.0625 55.6248 4.0625ZM24.375 4.0625C23.5125 4.0625 22.8125 4.7625 22.8125 5.625C22.8125 6.4875 23.5125 7.1875 24.375 7.1875C25.2375 7.1875 25.9375 6.4875 25.9375 5.625C25.9375 4.7625 25.2375 4.0625 24.375 4.0625ZM57.4853 66.0214C57.2127 65.2027 56.3281 64.76 55.5091 65.033L45.7559 68.283C44.9372 68.5558 44.4947 69.4406 44.7675 70.2592C45.0398 71.0764 45.9233 71.5208 46.7438 71.2477L56.4969 67.9977C57.3156 67.7247 57.7581 66.84 57.4853 66.0214Z" fill="#FFC436"/>
<path id="Vector_2" d="M79.4266 40.9778L70.9571 34.0481L79.1527 29.8261C80.3669 29.2008 80.2472 27.4212 78.9597 26.9645L49.8974 16.652C49.6683 16.5707 49.4235 16.544 49.1823 16.5739C48.9412 16.6039 48.7103 16.6897 48.5081 16.8245L39.9999 22.4969L31.4916 16.8247C31.2894 16.6898 31.0585 16.604 30.8174 16.5741C30.5762 16.5442 30.3314 16.5709 30.1024 16.6522L1.04001 26.9647C1.02626 26.9695 1.01345 26.9761 0.999858 26.9812C-0.258892 27.4664 -0.33858 29.1922 0.826733 29.8144C0.833764 29.8181 0.840014 29.8225 0.847045 29.8261L9.04267 34.0481L0.573139 40.9778L0.569233 40.9814C-0.359049 41.7441 -0.100611 43.2081 0.985327 43.6391L10.3127 47.3475V69.062C10.3127 69.39 10.4159 69.7096 10.6076 69.9757C10.7994 70.2417 11.07 70.4407 11.3811 70.5444L39.506 79.9194L39.5142 79.9217C39.6686 79.9722 39.846 80 40.0002 80C40.1658 79.9998 40.3303 79.9732 40.4875 79.9212L40.4941 79.9194L68.6189 70.5444C68.9301 70.4407 69.2007 70.2417 69.3924 69.9757C69.5842 69.7096 69.6874 69.39 69.6874 69.062V47.3475L79.0145 43.6391C80.1194 43.1998 80.3477 41.7313 79.4266 40.9778ZM49.5902 19.8592L74.5111 28.7022L67.9944 32.0594L43.5247 23.9028L49.5902 19.8592ZM5.48861 28.7022L30.4097 19.8592L36.4752 23.9028L12.0055 32.0594L5.48861 28.7022ZM4.60626 41.7158L12.1981 35.5044L36.6769 43.6641L27.2635 50.7242L4.60626 41.7158ZM38.4375 76.2692L13.4377 67.9358V48.59L26.9228 53.9516C27.1715 54.0504 27.4413 54.0837 27.7065 54.0484C27.9717 54.0131 28.2234 53.9102 28.4375 53.7497L38.4375 46.2497V76.2692ZM40 41.4777L16.8163 33.7497L40 26.0217L63.1838 33.7497L40 41.4777ZM66.5624 67.9358L41.5625 76.2691V46.2497L51.5625 53.7497C51.7766 53.9102 52.0283 54.0131 52.2935 54.0485C52.5587 54.0838 52.8286 54.0505 53.0772 53.9516L66.5624 48.59V67.9358ZM52.7366 50.7241L43.3231 43.6639L67.8019 35.5042L75.3936 41.7156L52.7366 50.7241ZM43.125 3.125H41.5625V1.5625C41.5625 0.699531 40.8628 0 40 0C39.1372 0 38.4375 0.699531 38.4375 1.5625V3.125H36.875C36.0122 3.125 35.3125 3.82453 35.3125 4.6875C35.3125 5.55047 36.0122 6.25 36.875 6.25H38.4375V7.8125C38.4375 8.67547 39.1372 9.375 40 9.375C40.8628 9.375 41.5625 8.67547 41.5625 7.8125V6.25H43.125C43.9878 6.25 44.6875 5.55047 44.6875 4.6875C44.6875 3.82453 43.9878 3.125 43.125 3.125ZM18.1252 10.3125H16.5627V8.75C16.5627 7.88703 15.863 7.1875 15.0002 7.1875C14.1374 7.1875 13.4377 7.88703 13.4377 8.75V10.3125H11.8752C11.0124 10.3125 10.3127 11.012 10.3127 11.875C10.3127 12.738 11.0124 13.4375 11.8752 13.4375H13.4377V15C13.4377 15.863 14.1374 16.5625 15.0002 16.5625C15.863 16.5625 16.5627 15.863 16.5627 15V13.4375H18.1252C18.988 13.4375 19.6877 12.738 19.6877 11.875C19.6877 11.012 18.988 10.3125 18.1252 10.3125ZM68.1249 10.3125H66.5624V8.75C66.5624 7.88703 65.8627 7.1875 64.9999 7.1875C64.137 7.1875 63.4374 7.88703 63.4374 8.75V10.3125H61.8749C61.0121 10.3125 60.3124 11.012 60.3124 11.875C60.3124 12.738 61.0121 13.4375 61.8749 13.4375H63.4374V15C63.4374 15.863 64.137 16.5625 64.9999 16.5625C65.8627 16.5625 66.5624 15.863 66.5624 15V13.4375H68.1249C68.9877 13.4375 69.6874 12.738 69.6874 11.875C69.6874 11.012 68.9877 10.3125 68.1249 10.3125Z" fill="#3D8361"/>
</g>
</svg>
