<svg width="64" height="64" viewBox="0 0 64 64" fill="none" xmlns="http://www.w3.org/2000/svg">
<path d="M57.8132 40.8534C55.4399 38.4801 52.2932 37.28 49.1732 37.3334C46.1599 37.36 43.1466 38.5601 40.8533 40.8534C39.2533 42.4267 38.2133 44.4 37.7066 46.4533C37.4133 47.5733 37.3065 48.7201 37.3865 49.8667V50C37.3865 50.1867 37.4133 50.3468 37.4399 50.5601C37.4399 50.5601 37.4399 50.56 37.4665 50.5866V50.6667C37.7065 53.28 38.8266 55.8133 40.8533 57.8133C43.9466 60.9067 48.2932 61.9467 52.2132 60.96C53.3865 60.6667 54.5333 60.1867 55.5999 59.5467C56.3999 59.0934 57.1466 58.5067 57.8132 57.8133C59.8132 55.8133 60.9599 53.28 61.1999 50.64C61.2266 50.64 61.2266 50.5868 61.2266 50.5601C61.2799 50.3734 61.2799 50.16 61.2799 49.9733C61.2799 49.9467 61.3065 49.8934 61.3065 49.84C61.4665 46.6134 60.2932 43.3067 57.8132 40.8534ZM53.9466 53.8934C53.1733 54.6668 51.9199 54.6668 51.1199 53.8934L49.3599 52.1333L47.5465 53.9466C46.7465 54.7466 45.4932 54.7466 44.7199 53.9466C43.9199 53.1733 43.9199 51.92 44.7199 51.12L46.5333 49.3067L44.7733 47.5467C43.9999 46.7467 43.9999 45.4934 44.7733 44.7201C45.5733 43.9201 46.8265 43.9201 47.6265 44.7201L49.3599 46.48L51.0399 44.7733C51.8399 44 53.0932 44 53.8932 44.7733C54.6666 45.5733 54.6666 46.8267 53.8932 47.6267L52.1866 49.3067L53.9466 51.0401C54.7466 51.8401 54.7466 53.0934 53.9466 53.8934Z" fill="#C62020"/>
<path opacity="0.4" d="M51.5999 15.0932L34.8266 6.05337C33.0666 5.09337 30.9332 5.09337 29.1466 6.05337L12.3733 15.0932C11.1466 15.7599 10.3999 17.0667 10.3999 18.5067C10.3999 19.9467 11.1466 21.2532 12.3733 21.9199L29.1466 30.9599C30.0266 31.4399 31.0132 31.68 31.9732 31.68C32.9332 31.68 33.9199 31.4399 34.7999 30.9599L51.5732 21.9199C52.7999 21.2532 53.5466 19.9467 53.5466 18.5067C53.5999 17.0667 52.8266 15.7599 51.5999 15.0932Z" fill="#C62020"/>
<path opacity="0.4" d="M26.4001 34.1067L10.8 26.2934C9.60005 25.6801 8.2134 25.7601 7.06673 26.4534C5.92007 27.1467 5.25342 28.3735 5.25342 29.7068V44.4534C5.25342 47.0134 6.66671 49.3067 8.96004 50.4534L24.5601 58.2402C25.0934 58.5068 25.6801 58.6401 26.2668 58.6401C26.9601 58.6401 27.6534 58.4535 28.2668 58.0535C29.4134 57.3602 30.0801 56.1334 30.0801 54.8001V40.0535C30.1067 37.5468 28.6934 35.2534 26.4001 34.1067Z" fill="#C62020"/>
<path opacity="0.4" d="M58.7469 29.7335V41.9734C58.7202 41.9467 58.6936 41.8934 58.6669 41.8668C58.6669 41.8401 58.6403 41.8134 58.6136 41.7867C58.5069 41.6267 58.3736 41.4667 58.2402 41.3334C58.2136 41.3067 58.1869 41.2535 58.1602 41.2268C56.0002 38.8268 52.8269 37.3334 49.3336 37.3334C45.9736 37.3334 42.9069 38.72 40.7202 40.96C38.6135 43.12 37.3336 46.0801 37.3336 49.3334C37.3336 51.5734 37.9736 53.7068 39.0669 55.5201C39.5202 56.2934 40.0803 56.9867 40.6936 57.6267L39.4403 58.2667C38.9069 58.5333 38.3202 58.6667 37.7336 58.6667C37.0402 58.6667 36.3469 58.4801 35.7069 58.0801C34.5869 57.3868 33.8936 56.1601 33.8936 54.8267V40.1067C33.8936 37.5467 35.3069 35.2533 37.6003 34.1067L53.2003 26.3201C54.4003 25.7067 55.7869 25.76 56.9336 26.48C58.0536 27.1734 58.7469 28.4001 58.7469 29.7335Z" fill="#C62020"/>
</svg>
