<svg width="64" height="64" viewBox="0 0 64 64" fill="none" xmlns="http://www.w3.org/2000/svg">
<path opacity="0.4" d="M51.5999 15.0932L34.8266 6.05337C33.0666 5.09337 30.9332 5.09337 29.1466 6.05337L12.3733 15.0932C11.1466 15.7599 10.3999 17.0667 10.3999 18.5067C10.3999 19.9467 11.1466 21.2532 12.3733 21.9199L29.1466 30.9599C30.0266 31.4399 31.0132 31.68 31.9732 31.68C32.9332 31.68 33.9199 31.4399 34.7999 30.9599L51.5732 21.9199C52.7999 21.2532 53.5466 19.9467 53.5466 18.5067C53.5999 17.0667 52.8266 15.7599 51.5999 15.0932Z" fill="#3D8361"/>
<path opacity="0.4" d="M26.4001 34.1067L10.8 26.2934C9.60005 25.6801 8.2134 25.7601 7.06673 26.4534C5.92007 27.1467 5.25342 28.3735 5.25342 29.7068V44.4534C5.25342 47.0134 6.66671 49.3067 8.96004 50.4534L24.5601 58.2402C25.0934 58.5068 25.6801 58.6401 26.2668 58.6401C26.9601 58.6401 27.6534 58.4535 28.2668 58.0535C29.4134 57.3602 30.0801 56.1334 30.0801 54.8001V40.0535C30.1067 37.5468 28.6934 35.2534 26.4001 34.1067Z" fill="#3D8361"/>
<path opacity="0.4" d="M58.7469 29.7335V41.9734C58.7202 41.9467 58.6936 41.8934 58.6669 41.8668C58.6669 41.8401 58.6403 41.8134 58.6136 41.7867C58.5069 41.6267 58.3736 41.4667 58.2402 41.3334C58.2136 41.3067 58.1869 41.2535 58.1602 41.2268C56.0002 38.8268 52.8269 37.3334 49.3336 37.3334C45.9736 37.3334 42.9069 38.72 40.7202 40.96C38.6135 43.12 37.3336 46.0801 37.3336 49.3334C37.3336 51.5734 37.9736 53.7068 39.0669 55.5201C39.5202 56.2934 40.0803 56.9867 40.6936 57.6267L39.4403 58.2667C38.9069 58.5333 38.3202 58.6667 37.7336 58.6667C37.0402 58.6667 36.3469 58.4801 35.7069 58.0801C34.5869 57.3868 33.8936 56.1601 33.8936 54.8267V40.1067C33.8936 37.5467 35.3069 35.2533 37.6003 34.1067L53.2003 26.3201C54.4003 25.7067 55.7869 25.76 56.9336 26.48C58.0536 27.1734 58.7469 28.4001 58.7469 29.7335Z" fill="#3D8361"/>
<path d="M58.6135 41.7866C56.4269 39.0933 53.0935 37.3867 49.3335 37.3867C46.5068 37.3867 43.8935 38.3734 41.8402 40.0267C39.0668 42.2134 37.3335 45.6001 37.3335 49.3867C37.3335 51.6267 37.9735 53.7601 39.0668 55.5734C39.7868 56.7734 40.6935 57.8133 41.7602 58.6667H41.7869C43.8402 60.3733 46.4802 61.3867 49.3335 61.3867C52.3735 61.3867 55.1201 60.2667 57.2268 58.4001C58.1601 57.6001 58.9602 56.6401 59.6002 55.5734C60.6935 53.7601 61.3335 51.6267 61.3335 49.3867C61.3335 46.5067 60.3202 43.84 58.6135 41.7866ZM55.3602 47.8934L48.9601 53.8133C48.5868 54.16 48.0802 54.3467 47.6002 54.3467C47.0935 54.3467 46.5868 54.1599 46.1868 53.7599L43.2268 50.8C42.4535 50.0266 42.4535 48.7466 43.2268 47.9733C44.0001 47.2 45.2801 47.2 46.0535 47.9733L47.6535 49.5734L52.6401 44.96C53.4401 44.2133 54.7201 44.2667 55.4668 45.0667C56.2401 45.8934 56.1869 47.1467 55.3602 47.8934Z" fill="#3D8361"/>
</svg>
